<svg width="915" height="167" viewBox="0 0 915 167" fill="none" xmlns="http://www.w3.org/2000/svg">
<path opacity="0.2" d="M938.97 146.207C911.119 180.676 852.92 208.282 749.763 225.392C693.108 234.811 632.854 237.209 571.153 234.091C438.577 227.336 306.124 220.265 173.548 213.471C116.622 210.532 77.9407 199.922 49.6359 185.266C10.0855 164.817 -2.73912 142.287 0.623342 118.584C2.59513 104.748 11.098 90.9526 27.7736 77.9632C58.884 53.6589 106.799 37.9465 184.474 32.4782C310.334 23.5769 435.936 14.0507 560.902 3.90419C692.393 -6.75096 808.398 11.2266 876.436 40.5614C913.548 56.5657 936.742 74.4609 945.516 94.2921C950.539 104.906 956.181 125.402 938.97 146.207Z" fill="#695DFD"/>
</svg>
