<svg width="157" height="50" viewBox="0 0 157 50" fill="none" xmlns="http://www.w3.org/2000/svg">
<g clip-path="url(#clip0_4_15820)">
<path d="M152 0.0820312H5C2.23858 0.0820312 0 2.32061 0 5.08203V44.082C0 46.8435 2.23858 49.082 5 49.082H152C154.761 49.082 157 46.8435 157 44.082V5.08203C157 2.32061 154.761 0.0820312 152 0.0820312Z" fill="black"/>
<path d="M152 0.582031H5C2.51472 0.582031 0.5 2.59675 0.5 5.08203V44.082C0.5 46.5673 2.51472 48.582 5 48.582H152C154.485 48.582 156.5 46.5673 156.5 44.082V5.08203C156.5 2.59675 154.485 0.582031 152 0.582031Z" stroke="#00A7AC" stroke-opacity="0.2"/>
<path d="M49.9297 37.0806L54.3397 27.2806H56.1317L60.5557 37.0806H58.6517L54.8577 28.2466H55.5857L51.8057 37.0806H49.9297ZM51.9597 34.8126L52.4497 33.3846H57.7417L58.2317 34.8126H51.9597ZM65.778 37.1786C65.1714 37.1786 64.616 37.0386 64.112 36.7586C63.6174 36.4786 63.2207 36.0586 62.922 35.4986C62.6327 34.9293 62.488 34.2106 62.488 33.3426C62.488 32.4653 62.628 31.7466 62.908 31.1866C63.1974 30.6266 63.5894 30.2113 64.084 29.9406C64.5787 29.6606 65.1434 29.5206 65.778 29.5206C66.5154 29.5206 67.164 29.6793 67.724 29.9966C68.2934 30.3139 68.7414 30.7573 69.068 31.3266C69.404 31.8959 69.572 32.5679 69.572 33.3426C69.572 34.1173 69.404 34.7939 69.068 35.3726C68.7414 35.9419 68.2934 36.3853 67.724 36.7026C67.164 37.0199 66.5154 37.1786 65.778 37.1786ZM61.634 39.7966V29.6046H63.3V31.3686L63.244 33.3566L63.384 35.3446V39.7966H61.634ZM65.582 35.6806C66.002 35.6806 66.3754 35.5873 66.702 35.4006C67.038 35.2139 67.304 34.9433 67.5 34.5886C67.696 34.2339 67.794 33.8186 67.794 33.3426C67.794 32.8573 67.696 32.4419 67.5 32.0966C67.304 31.7419 67.038 31.4713 66.702 31.2846C66.3754 31.0979 66.002 31.0046 65.582 31.0046C65.162 31.0046 64.784 31.0979 64.448 31.2846C64.112 31.4713 63.846 31.7419 63.65 32.0966C63.454 32.4419 63.356 32.8573 63.356 33.3426C63.356 33.8186 63.454 34.2339 63.65 34.5886C63.846 34.9433 64.112 35.2139 64.448 35.4006C64.784 35.5873 65.162 35.6806 65.582 35.6806ZM75.3757 37.1786C74.769 37.1786 74.2137 37.0386 73.7097 36.7586C73.215 36.4786 72.8184 36.0586 72.5197 35.4986C72.2304 34.9293 72.0857 34.2106 72.0857 33.3426C72.0857 32.4653 72.2257 31.7466 72.5057 31.1866C72.795 30.6266 73.187 30.2113 73.6817 29.9406C74.1764 29.6606 74.741 29.5206 75.3757 29.5206C76.113 29.5206 76.7617 29.6793 77.3217 29.9966C77.891 30.3139 78.339 30.7573 78.6657 31.3266C79.0017 31.8959 79.1697 32.5679 79.1697 33.3426C79.1697 34.1173 79.0017 34.7939 78.6657 35.3726C78.339 35.9419 77.891 36.3853 77.3217 36.7026C76.7617 37.0199 76.113 37.1786 75.3757 37.1786ZM71.2317 39.7966V29.6046H72.8977V31.3686L72.8417 33.3566L72.9817 35.3446V39.7966H71.2317ZM75.1797 35.6806C75.5997 35.6806 75.973 35.5873 76.2997 35.4006C76.6357 35.2139 76.9017 34.9433 77.0977 34.5886C77.2937 34.2339 77.3917 33.8186 77.3917 33.3426C77.3917 32.8573 77.2937 32.4419 77.0977 32.0966C76.9017 31.7419 76.6357 31.4713 76.2997 31.2846C75.973 31.0979 75.5997 31.0046 75.1797 31.0046C74.7597 31.0046 74.3817 31.0979 74.0457 31.2846C73.7097 31.4713 73.4437 31.7419 73.2477 32.0966C73.0517 32.4419 72.9537 32.8573 72.9537 33.3426C72.9537 33.8186 73.0517 34.2339 73.2477 34.5886C73.4437 34.9433 73.7097 35.2139 74.0457 35.4006C74.3817 35.5873 74.7597 35.6806 75.1797 35.6806ZM87.9045 37.2206C87.1391 37.2206 86.4065 37.1133 85.7065 36.8986C85.0065 36.6746 84.4511 36.3899 84.0405 36.0446L84.6705 34.6306C85.0625 34.9386 85.5478 35.1953 86.1265 35.4006C86.7051 35.6059 87.2978 35.7086 87.9045 35.7086C88.4178 35.7086 88.8331 35.6526 89.1505 35.5406C89.4678 35.4286 89.7011 35.2793 89.8505 35.0926C89.9998 34.8966 90.0745 34.6773 90.0745 34.4346C90.0745 34.1359 89.9671 33.8979 89.7525 33.7206C89.5378 33.5339 89.2578 33.3893 88.9125 33.2866C88.5765 33.1746 88.1985 33.0719 87.7785 32.9786C87.3678 32.8853 86.9525 32.7779 86.5325 32.6566C86.1218 32.5259 85.7438 32.3626 85.3985 32.1666C85.0625 31.9613 84.7871 31.6906 84.5725 31.3546C84.3578 31.0186 84.2505 30.5893 84.2505 30.0666C84.2505 29.5346 84.3905 29.0493 84.6705 28.6106C84.9598 28.1626 85.3938 27.8079 85.9725 27.5466C86.5605 27.2759 87.3025 27.1406 88.1985 27.1406C88.7865 27.1406 89.3698 27.2153 89.9485 27.3646C90.5271 27.5139 91.0311 27.7286 91.4605 28.0086L90.8865 29.4226C90.4478 29.1613 89.9951 28.9699 89.5285 28.8486C89.0618 28.7179 88.6138 28.6526 88.1845 28.6526C87.6805 28.6526 87.2698 28.7133 86.9525 28.8346C86.6445 28.9559 86.4158 29.1146 86.2665 29.3106C86.1265 29.5066 86.0565 29.7306 86.0565 29.9826C86.0565 30.2813 86.1591 30.5239 86.3645 30.7106C86.5791 30.8879 86.8545 31.0279 87.1905 31.1306C87.5358 31.2333 87.9185 31.3359 88.3385 31.4386C88.7585 31.5319 89.1738 31.6393 89.5845 31.7606C90.0045 31.8819 90.3825 32.0406 90.7185 32.2366C91.0638 32.4326 91.3391 32.6986 91.5445 33.0346C91.7591 33.3706 91.8665 33.7953 91.8665 34.3086C91.8665 34.8313 91.7218 35.3166 91.4325 35.7646C91.1525 36.2033 90.7185 36.5579 90.1305 36.8286C89.5425 37.0899 88.8005 37.2206 87.9045 37.2206ZM96.3172 37.1786C95.4958 37.1786 94.8612 36.9686 94.4132 36.5486C93.9652 36.1193 93.7412 35.4893 93.7412 34.6586V27.9526H95.4912V34.6166C95.4912 34.9713 95.5798 35.2466 95.7572 35.4426C95.9438 35.6386 96.2005 35.7366 96.5272 35.7366C96.9192 35.7366 97.2458 35.6339 97.5072 35.4286L97.9972 36.6746C97.7918 36.8426 97.5398 36.9686 97.2412 37.0526C96.9425 37.1366 96.6345 37.1786 96.3172 37.1786ZM92.5092 31.0606V29.6606H97.4932V31.0606H92.5092ZM102.551 37.1786C101.786 37.1786 101.104 37.0153 100.507 36.6886C99.9093 36.3526 99.438 35.8953 99.0927 35.3166C98.7473 34.7379 98.5747 34.0799 98.5747 33.3426C98.5747 32.5959 98.7473 31.9379 99.0927 31.3686C99.438 30.7899 99.9093 30.3373 100.507 30.0106C101.104 29.6839 101.786 29.5206 102.551 29.5206C103.326 29.5206 104.012 29.6839 104.609 30.0106C105.216 30.3373 105.687 30.7853 106.023 31.3546C106.368 31.9239 106.541 32.5866 106.541 33.3426C106.541 34.0799 106.368 34.7379 106.023 35.3166C105.687 35.8953 105.216 36.3526 104.609 36.6886C104.012 37.0153 103.326 37.1786 102.551 37.1786ZM102.551 35.6806C102.98 35.6806 103.363 35.5873 103.699 35.4006C104.035 35.2139 104.296 34.9433 104.483 34.5886C104.679 34.2339 104.777 33.8186 104.777 33.3426C104.777 32.8573 104.679 32.4419 104.483 32.0966C104.296 31.7419 104.035 31.4713 103.699 31.2846C103.363 31.0979 102.985 31.0046 102.565 31.0046C102.136 31.0046 101.753 31.0979 101.417 31.2846C101.09 31.4713 100.829 31.7419 100.633 32.0966C100.437 32.4419 100.339 32.8573 100.339 33.3426C100.339 33.8186 100.437 34.2339 100.633 34.5886C100.829 34.9433 101.09 35.2139 101.417 35.4006C101.753 35.5873 102.131 35.6806 102.551 35.6806ZM108.214 37.0806V29.6046H109.88V31.6626L109.684 31.0606C109.908 30.5566 110.258 30.1739 110.734 29.9126C111.22 29.6513 111.822 29.5206 112.54 29.5206V31.1866C112.466 31.1679 112.396 31.1586 112.33 31.1586C112.265 31.1493 112.2 31.1446 112.134 31.1446C111.472 31.1446 110.944 31.3406 110.552 31.7326C110.16 32.1153 109.964 32.6893 109.964 33.4546V37.0806H108.214ZM117.471 37.1786C116.64 37.1786 115.912 37.0153 115.287 36.6886C114.671 36.3526 114.19 35.8953 113.845 35.3166C113.509 34.7379 113.341 34.0799 113.341 33.3426C113.341 32.5959 113.504 31.9379 113.831 31.3686C114.167 30.7899 114.624 30.3373 115.203 30.0106C115.791 29.6839 116.458 29.5206 117.205 29.5206C117.933 29.5206 118.581 29.6793 119.151 29.9966C119.72 30.3139 120.168 30.7619 120.495 31.3406C120.821 31.9193 120.985 32.6006 120.985 33.3846C120.985 33.4593 120.98 33.5433 120.971 33.6366C120.971 33.7299 120.966 33.8186 120.957 33.9026H114.727V32.7406H120.033L119.347 33.1046C119.356 32.6753 119.267 32.2973 119.081 31.9706C118.894 31.6439 118.637 31.3873 118.311 31.2006C117.993 31.0139 117.625 30.9206 117.205 30.9206C116.775 30.9206 116.397 31.0139 116.071 31.2006C115.753 31.3873 115.501 31.6486 115.315 31.9846C115.137 32.3113 115.049 32.6986 115.049 33.1466V33.4266C115.049 33.8746 115.151 34.2713 115.357 34.6166C115.562 34.9619 115.851 35.2279 116.225 35.4146C116.598 35.6013 117.027 35.6946 117.513 35.6946C117.933 35.6946 118.311 35.6293 118.647 35.4986C118.983 35.3679 119.281 35.1626 119.543 34.8826L120.481 35.9606C120.145 36.3526 119.72 36.6559 119.207 36.8706C118.703 37.0759 118.124 37.1786 117.471 37.1786Z" fill="white"/>
<path d="M56.747 15.4444C56.747 16.6228 56.4199 17.5245 55.7656 18.1495C55.1113 18.7712 54.1689 19.0821 52.9385 19.0821H50.9414V11.9434H53.1484C54.2845 11.9434 55.1683 12.2494 55.7998 12.8614C56.4313 13.4734 56.747 14.3344 56.747 15.4444ZM55.5166 15.4835C55.5166 13.7745 54.7174 12.92 53.1191 12.92H52.1084V18.1007H52.9385C54.6572 18.1007 55.5166 17.2283 55.5166 15.4835ZM62.9531 16.3721C62.9531 17.2543 62.7269 17.9428 62.2744 18.4376C61.8219 18.9324 61.192 19.1798 60.3847 19.1798C59.8802 19.1798 59.4342 19.0658 59.0469 18.838C58.6595 18.6101 58.3616 18.2829 58.1533 17.8565C57.945 17.4301 57.8408 16.9353 57.8408 16.3721C57.8408 15.4965 58.0654 14.8129 58.5146 14.3214C58.9638 13.8298 59.597 13.5841 60.414 13.5841C61.1953 13.5841 61.8138 13.8363 62.2695 14.3409C62.7252 14.8422 62.9531 15.5193 62.9531 16.3721ZM59.0224 16.3721C59.0224 17.6189 59.483 18.2423 60.4043 18.2423C61.3157 18.2423 61.7715 17.6189 61.7715 16.3721C61.7715 15.1384 61.3125 14.5216 60.3945 14.5216C59.9127 14.5216 59.5628 14.6811 59.3447 15.0001C59.1299 15.3191 59.0224 15.7764 59.0224 16.3721ZM68.7051 19.0821L68.0068 16.5626C67.9222 16.2956 67.7692 15.6755 67.5478 14.7022H67.5039C67.3151 15.5811 67.1653 16.2045 67.0547 16.5723L66.3369 19.0821H65.0674L63.5537 13.6817H64.7256L65.414 16.3428C65.5703 17.0004 65.681 17.5635 65.7461 18.0323H65.7754C65.8079 17.7947 65.8567 17.5229 65.9219 17.2169C65.9902 16.9076 66.0488 16.6765 66.0976 16.5235L66.9179 13.6817H68.1777L68.9736 16.5235C69.0224 16.683 69.0827 16.9272 69.1543 17.2559C69.2291 17.5847 69.2731 17.8402 69.2861 18.0225H69.3252C69.374 17.6221 69.4879 17.0622 69.667 16.3428L70.3652 13.6817H71.5176L69.9941 19.0821H68.7051ZM77.2011 19.0821H76.0488V15.7618C76.0488 15.3451 75.9642 15.0342 75.7949 14.8292C75.6289 14.6241 75.3636 14.5216 74.999 14.5216C74.514 14.5216 74.1592 14.6648 73.9345 14.9512C73.7099 15.2377 73.5976 15.7178 73.5976 16.3917V19.0821H72.4502V13.6817H73.3486L73.5097 14.3897H73.5683C73.7311 14.1326 73.9622 13.934 74.2617 13.794C74.5612 13.654 74.8932 13.5841 75.2578 13.5841C76.5534 13.5841 77.2011 14.2432 77.2011 15.5616V19.0821ZM79.9453 19.0821H78.7978V11.4844H79.9453V19.0821ZM86.3808 16.3721C86.3808 17.2543 86.1546 17.9428 85.7021 18.4376C85.2497 18.9324 84.6198 19.1798 83.8125 19.1798C83.3079 19.1798 82.862 19.0658 82.4746 18.838C82.0872 18.6101 81.7894 18.2829 81.581 17.8565C81.3727 17.4301 81.2685 16.9353 81.2685 16.3721C81.2685 15.4965 81.4931 14.8129 81.9424 14.3214C82.3916 13.8298 83.0247 13.5841 83.8418 13.5841C84.623 13.5841 85.2415 13.8363 85.6972 14.3409C86.153 14.8422 86.3808 15.5193 86.3808 16.3721ZM82.4502 16.3721C82.4502 17.6189 82.9108 18.2423 83.832 18.2423C84.7435 18.2423 85.1992 17.6189 85.1992 16.3721C85.1992 15.1384 84.7402 14.5216 83.8222 14.5216C83.3405 14.5216 82.9905 14.6811 82.7724 15.0001C82.5576 15.3191 82.4502 15.7764 82.4502 16.3721ZM91.083 19.0821L90.8535 18.3301H90.8144C90.554 18.6589 90.292 18.8835 90.0283 19.004C89.7646 19.1212 89.4261 19.1798 89.0127 19.1798C88.4821 19.1798 88.067 19.0365 87.7676 18.7501C87.4713 18.4636 87.3232 18.0583 87.3232 17.5342C87.3232 16.9776 87.5299 16.5577 87.9433 16.2745C88.3567 15.9913 88.9866 15.8367 89.833 15.8106L90.7656 15.7813V15.4932C90.7656 15.1482 90.6842 14.891 90.5215 14.7217C90.362 14.5492 90.1129 14.463 89.7744 14.463C89.4977 14.463 89.2324 14.5036 88.9785 14.585C88.7246 14.6664 88.4804 14.7624 88.2461 14.8731L87.875 14.0528C88.1679 13.8998 88.4886 13.7842 88.8369 13.7061C89.1852 13.6247 89.514 13.5841 89.8232 13.5841C90.5101 13.5841 91.0276 13.7338 91.376 14.0333C91.7275 14.3328 91.9033 14.8031 91.9033 15.4444V19.0821H91.083ZM89.374 18.3009C89.7907 18.3009 90.1243 18.1853 90.375 17.9542C90.6289 17.7198 90.7558 17.3926 90.7558 16.9727V16.504L90.0625 16.5333C89.5221 16.5528 89.1282 16.6439 88.8808 16.8067C88.6367 16.9662 88.5146 17.212 88.5146 17.544C88.5146 17.7849 88.5862 17.9721 88.7295 18.1055C88.8727 18.2357 89.0875 18.3009 89.374 18.3009ZM95.3261 19.1798C94.6523 19.1798 94.1266 18.9356 93.749 18.4473C93.3714 17.9591 93.1826 17.2738 93.1826 16.3917C93.1826 15.5063 93.373 14.8178 93.7539 14.3262C94.138 13.8314 94.6686 13.5841 95.3457 13.5841C96.0553 13.5841 96.5957 13.8461 96.9668 14.3702H97.0254C96.97 13.9828 96.9424 13.6768 96.9424 13.4522V11.4844H98.0947V19.0821H97.1963L96.9961 18.3741H96.9424C96.5745 18.9112 96.0358 19.1798 95.3261 19.1798ZM95.6338 18.252C96.1058 18.252 96.4492 18.1202 96.664 17.8565C96.8789 17.5896 96.9896 17.1583 96.9961 16.5626V16.4014C96.9961 15.7211 96.8854 15.2377 96.664 14.9512C96.4427 14.6648 96.096 14.5216 95.624 14.5216C95.2204 14.5216 94.9095 14.6859 94.6914 15.0147C94.4733 15.3402 94.3642 15.8057 94.3642 16.4112C94.3642 17.0102 94.47 17.4675 94.6816 17.7833C94.8932 18.0958 95.2106 18.252 95.6338 18.252ZM107.123 16.3721C107.123 17.2543 106.897 17.9428 106.444 18.4376C105.992 18.9324 105.362 19.1798 104.555 19.1798C104.05 19.1798 103.604 19.0658 103.217 18.838C102.829 18.6101 102.532 18.2829 102.323 17.8565C102.115 17.4301 102.011 16.9353 102.011 16.3721C102.011 15.4965 102.235 14.8129 102.685 14.3214C103.134 13.8298 103.767 13.5841 104.584 13.5841C105.365 13.5841 105.984 13.8363 106.439 14.3409C106.895 14.8422 107.123 15.5193 107.123 16.3721ZM103.192 16.3721C103.192 17.6189 103.653 18.2423 104.574 18.2423C105.486 18.2423 105.941 17.6189 105.941 16.3721C105.941 15.1384 105.482 14.5216 104.564 14.5216C104.083 14.5216 103.733 14.6811 103.515 15.0001C103.3 15.3191 103.192 15.7764 103.192 16.3721ZM113.197 19.0821H112.045V15.7618C112.045 15.3451 111.96 15.0342 111.791 14.8292C111.625 14.6241 111.36 14.5216 110.995 14.5216C110.51 14.5216 110.155 14.6648 109.931 14.9512C109.706 15.2377 109.594 15.7178 109.594 16.3917V19.0821H108.446V13.6817H109.345L109.506 14.3897H109.564C109.727 14.1326 109.958 13.934 110.258 13.794C110.557 13.654 110.889 13.5841 111.254 13.5841C112.549 13.5841 113.197 14.2432 113.197 15.5616V19.0821ZM119.403 18.252C119.683 18.252 119.963 18.2081 120.243 18.1202V18.9844C120.116 19.0398 119.952 19.0854 119.75 19.1212C119.551 19.1602 119.345 19.1798 119.13 19.1798C118.043 19.1798 117.499 18.6068 117.499 17.461V14.5509H116.762V14.043L117.553 13.6231L117.943 12.4805H118.651V13.6817H120.189V14.5509H118.651V17.4415C118.651 17.7182 118.72 17.9232 118.856 18.0567C118.996 18.1869 119.179 18.252 119.403 18.252ZM126.078 19.0821H124.926V15.7618C124.926 15.3451 124.841 15.0342 124.672 14.8292C124.506 14.6241 124.241 14.5216 123.876 14.5216C123.394 14.5216 123.039 14.6664 122.811 14.9561C122.587 15.2426 122.475 15.7244 122.475 16.4014V19.0821H121.327V11.4844H122.475V13.4132C122.475 13.7224 122.455 14.0528 122.416 14.4044H122.489C122.645 14.1439 122.862 13.9421 123.139 13.7989C123.419 13.6557 123.744 13.5841 124.115 13.5841C125.424 13.5841 126.078 14.2432 126.078 15.5616V19.0821ZM130.033 19.1798C129.193 19.1798 128.536 18.9356 128.061 18.4473C127.589 17.9558 127.353 17.2803 127.353 16.421C127.353 15.5388 127.572 14.8454 128.012 14.3409C128.451 13.8363 129.055 13.5841 129.823 13.5841C130.536 13.5841 131.099 13.8005 131.513 14.2335C131.926 14.6664 132.133 15.2621 132.133 16.0206V16.6407H128.534C128.55 17.1648 128.692 17.5684 128.959 17.8516C129.226 18.1316 129.602 18.2716 130.087 18.2716C130.406 18.2716 130.702 18.2423 130.976 18.1837C131.252 18.1218 131.548 18.0209 131.864 17.8809V18.8135C131.584 18.947 131.301 19.0414 131.015 19.0967C130.728 19.1521 130.401 19.1798 130.033 19.1798ZM129.823 14.4532C129.459 14.4532 129.166 14.5688 128.944 14.7999C128.726 15.031 128.596 15.3679 128.554 15.8106H131.005C130.998 15.3647 130.891 15.0277 130.683 14.7999C130.474 14.5688 130.188 14.4532 129.823 14.4532Z" fill="white"/>
<path d="M31.0351 14.2575C32.647 12.0926 34.8879 12.082 34.8879 12.082C34.8879 12.082 35.2212 14.1174 33.6199 16.0781C31.91 18.1717 29.9666 17.8292 29.9666 17.8292C29.9666 17.8292 29.6016 16.1826 31.0351 14.2575ZM30.1716 19.2549C31.0008 19.2549 32.5399 18.0934 34.5432 18.0934C37.9915 18.0934 39.348 20.5937 39.348 20.5937C39.348 20.5937 36.6948 21.976 36.6948 25.3301C36.6948 29.1138 40 30.4177 40 30.4177C40 30.4177 37.6896 37.0443 34.5688 37.0443C33.1355 37.0443 32.0212 36.06 30.5109 36.06C28.9719 36.06 27.4446 37.081 26.4499 37.081C23.6002 37.0811 20 30.7951 20 25.7422C20 20.7709 23.0473 18.163 25.9056 18.163C27.7637 18.163 29.2056 19.2549 30.1716 19.2549Z" fill="white"/>
</g>
<defs>
<clipPath id="clip0_4_15820">
<rect width="157" height="49" fill="white" transform="translate(0 0.0820312)"/>
</clipPath>
</defs>
</svg>
