<svg width="51" height="52" viewBox="0 0 51 52" fill="none" xmlns="http://www.w3.org/2000/svg">
<circle cx="25.5" cy="26.4824" r="25.5" fill="#675DF4"/>
<g clip-path="url(#clip0_6_22253)">
<path d="M15.3332 25.166C15.673 25.1664 15.9999 25.2965 16.247 25.5298C16.4941 25.7631 16.6428 26.082 16.6627 26.4212C16.6826 26.7605 16.5723 27.0945 16.3541 27.3551C16.136 27.6157 15.8266 27.7832 15.4892 27.8233L15.3332 27.8327H13.9998C13.66 27.8323 13.3331 27.7022 13.086 27.4689C12.8389 27.2356 12.6902 26.9167 12.6703 26.5775C12.6503 26.2382 12.7607 25.9042 12.9788 25.6436C13.197 25.383 13.5064 25.2155 13.8438 25.1753L13.9998 25.166H15.3332Z" fill="white"/>
<path d="M26.0013 13.166C26.3279 13.1661 26.6431 13.286 26.8871 13.503C27.1312 13.72 27.2871 14.019 27.3253 14.3433L27.3346 14.4993V15.8327C27.3343 16.1725 27.2041 16.4994 26.9708 16.7465C26.7375 16.9936 26.4187 17.1423 26.0794 17.1622C25.7402 17.1822 25.4061 17.0718 25.1455 16.8537C24.8849 16.6355 24.7174 16.3261 24.6773 15.9887L24.668 15.8327V14.4993C24.668 14.1457 24.8084 13.8066 25.0585 13.5565C25.3085 13.3065 25.6477 13.166 26.0013 13.166Z" fill="white"/>
<path d="M38.0011 25.166C38.341 25.1664 38.6678 25.2965 38.9149 25.5298C39.1621 25.7631 39.3108 26.082 39.3307 26.4212C39.3506 26.7605 39.2402 27.0945 39.0221 27.3551C38.804 27.6157 38.4946 27.7832 38.1571 27.8233L38.0011 27.8327H36.6678C36.328 27.8323 36.0011 27.7022 35.754 27.4689C35.5069 27.2356 35.3581 26.9167 35.3382 26.5775C35.3183 26.2382 35.4287 25.9042 35.6468 25.6436C35.8649 25.383 36.1743 25.2155 36.5118 25.1753L36.6678 25.166H38.0011Z" fill="white"/>
<path d="M16.5232 17.0233C16.7528 16.7937 17.0583 16.6558 17.3823 16.6354C17.7063 16.6151 18.0267 16.7136 18.2832 16.9126L18.4085 17.0233L19.3419 17.9566C19.581 18.1966 19.7198 18.5185 19.7302 18.8571C19.7405 19.1957 19.6216 19.5256 19.3975 19.7797C19.1735 20.0338 18.8611 20.193 18.5239 20.2252C18.1867 20.2573 17.8498 20.1598 17.5819 19.9526L17.4565 19.842L16.5232 18.9086C16.2732 18.6586 16.1328 18.3195 16.1328 17.966C16.1328 17.6124 16.2732 17.2733 16.5232 17.0233Z" fill="white"/>
<path d="M33.5921 17.0237C33.832 16.7846 34.154 16.6457 34.4926 16.6354C34.8312 16.625 35.161 16.744 35.4151 16.968C35.6692 17.1921 35.8285 17.5044 35.8606 17.8417C35.8927 18.1789 35.7953 18.5157 35.5881 18.7837L35.4774 18.909L34.5441 19.8424C34.3041 20.0815 33.9822 20.2203 33.6436 20.2307C33.305 20.241 32.9751 20.1221 32.721 19.898C32.4669 19.674 32.3077 19.3616 32.2755 19.0244C32.2434 18.6872 32.3409 18.3503 32.5481 18.0824L32.6587 17.957L33.5921 17.0237Z" fill="white"/>
<path d="M28.6667 34.5C29.0203 34.5 29.3594 34.6405 29.6095 34.8905C29.8595 35.1406 30 35.4797 30 35.8333C30 36.8942 29.5786 37.9116 28.8284 38.6618C28.0783 39.4119 27.0609 39.8333 26 39.8333C24.9391 39.8333 23.9217 39.4119 23.1716 38.6618C22.4214 37.9116 22 36.8942 22 35.8333C22 35.5068 22.1199 35.1916 22.337 34.9475C22.554 34.7035 22.853 34.5475 23.1773 34.5093L23.3333 34.5H28.6667Z" fill="white"/>
<path d="M26 18.5C27.6791 18.5 29.3156 19.0283 30.6777 20.0101C32.0398 20.9918 33.0585 22.3773 33.5895 23.9702C34.1204 25.5631 34.1367 27.2827 33.6361 28.8853C33.1355 30.488 32.1432 31.8926 30.8 32.9C30.6162 33.038 30.3999 33.1262 30.172 33.156L30 33.1667H22C21.7115 33.1667 21.4308 33.0731 21.2 32.9C19.8568 31.8926 18.8645 30.488 18.3639 28.8853C17.8633 27.2827 17.8796 25.5631 18.4105 23.9702C18.9415 22.3773 19.9602 20.9918 21.3223 20.0101C22.6844 19.0283 24.3209 18.5 26 18.5Z" fill="white"/>
</g>
<defs>
<clipPath id="clip0_6_22253">
<rect width="32" height="32" fill="white" transform="translate(10 10.5)"/>
</clipPath>
</defs>
</svg>
