<svg width="23" height="17" viewBox="0 0 23 17" fill="none" xmlns="http://www.w3.org/2000/svg">
<path d="M4.51918 8.25923C4.51918 7.59936 3.96908 7.0625 3.29296 7.0625H1.22622C0.550089 7.0625 0 7.59937 0 8.25923C0 8.91908 0.550102 9.45596 1.22622 9.45596H3.29296C3.96909 9.45596 4.51918 8.91908 4.51918 8.25923Z" fill="#99F22B"/>
<path d="M2.92186 2.512L4.50506 3.80868C4.72568 3.98914 5.00544 4.08845 5.29282 4.08845C5.65645 4.08845 5.99896 3.93269 6.23263 3.66098C6.44318 3.41611 6.54338 3.10583 6.51478 2.78749C6.48631 2.46902 6.33238 2.18056 6.08142 1.97501L4.49822 0.678333C4.27766 0.49787 3.99784 0.398438 3.71046 0.398438C3.34676 0.398438 3.00425 0.554329 2.77065 0.826043C2.33613 1.33153 2.40391 2.08792 2.92186 2.512Z" fill="#695DFD"/>
<path d="M5.29276 12.4277C5.00526 12.4277 4.7255 12.5272 4.50507 12.7078L2.92187 14.0043C2.40393 14.4284 2.33613 15.1848 2.77065 15.6903C3.00425 15.962 3.34676 16.1179 3.7104 16.1179C3.99797 16.1179 4.27779 16.0184 4.49822 15.8377L6.08142 14.5413C6.33238 14.3359 6.48631 14.0473 6.51478 13.7287C6.54338 13.4104 6.44318 13.1002 6.23263 12.8553C5.99903 12.5836 5.65653 12.4277 5.29276 12.4277Z" fill="#695DFD"/>
<path d="M21.897 10.4499H20.6529C20.6091 10.4499 20.5628 10.4496 20.5159 10.4493L20.5107 10.4493C20.4616 10.449 20.4118 10.4487 20.3614 10.4487C20.0301 10.4487 19.7058 10.4516 19.6368 10.4588C19.2004 10.5053 18.839 10.6455 18.5208 10.8851L18.5203 10.8855C18.3686 10.9992 18.2472 11.1456 18.1104 11.314C18.1102 11.3142 18.1101 11.3143 18.1099 11.3145L17.9159 11.1568C17.8554 11.232 17.7924 11.3085 17.7269 11.3811L21.897 10.4499ZM21.897 10.4499C21.8204 10.7195 21.7277 10.9834 21.6202 11.2418L21.6201 11.242C21.2336 12.174 20.6913 12.9844 19.994 13.6767C19.2948 14.3684 18.4823 14.9084 17.5525 15.2923L17.5522 15.2924C16.626 15.6761 15.6041 15.8697 14.4848 15.8697C13.3795 15.8697 12.3623 15.6763 11.4278 15.2922L11.4275 15.292C10.4902 14.908 9.67323 14.368 8.97568 13.6768C8.27849 12.9847 7.73729 12.1742 7.3494 11.2418C6.96414 10.3152 6.76953 9.30332 6.76953 8.20716C6.76953 7.12427 6.96393 6.12276 7.34912 5.20121C7.73669 4.27824 8.27737 3.47965 8.97383 2.80174C9.67097 2.12445 10.4881 1.59659 11.4262 1.21835C12.3613 0.841378 13.3791 0.650391 14.4848 0.650391C15.6045 0.650391 16.627 0.841545 17.5538 1.2181C18.4839 1.59596 19.2961 2.12725 19.9948 2.81234C20.6922 3.49727 21.2343 4.29642 21.6205 5.21419L21.897 10.4499ZM14.5626 3.71828C14.4761 3.71955 14.3897 3.72338 14.3007 3.72974L20.3615 6.31627C20.0255 6.31881 19.6661 6.31881 19.5809 6.30991C18.7336 6.23094 18.2753 5.73783 17.7912 5.2154L17.7853 5.20913C17.5389 4.94477 17.2836 4.67089 16.9723 4.45091C16.5746 4.17061 16.1473 3.96929 15.6902 3.8508C15.3308 3.7565 14.9541 3.7119 14.5626 3.71828ZM14.5626 3.71828L14.5589 3.46831C14.5588 3.46831 14.5588 3.46831 14.5587 3.46831M14.5626 3.71828L14.5585 3.46832L21.9171 6.06627M21.9171 6.06627C21.8366 5.77515 21.737 5.49119 21.6206 5.21429L21.9171 6.06627ZM21.9171 6.06627L20.3615 6.06627L20.3596 6.06628C20.0133 6.0689 19.674 6.06828 19.6068 6.06126L19.6068 6.06125L19.6041 6.06099C18.8621 5.99184 18.4625 5.572 17.9745 5.04546L17.974 5.04492L17.9615 5.03146C17.7193 4.77169 17.449 4.48171 17.1166 4.24675L17.1163 4.24657C16.6954 3.9499 16.2408 3.73534 15.7533 3.6089C15.3711 3.50864 14.9718 3.4616 14.5587 3.46831M14.5587 3.46831C14.4673 3.46966 14.3762 3.4737 14.2829 3.48038L14.2826 3.4804C12.7305 3.5936 11.4288 4.56086 10.7016 6.09994L10.7015 6.10008C10.5135 6.49866 10.3112 7.01836 10.2426 7.81623L10.2425 7.81708C10.2326 7.93727 10.2249 8.05952 10.2221 8.18065C10.2206 8.20023 10.2206 8.21669 10.2206 8.22567L10.2206 8.22757L10.2206 8.25558L10.2206 8.25706C10.2245 8.90926 10.3339 9.5239 10.5505 10.1016C10.559 10.1256 10.5683 10.1479 10.5766 10.1667C10.7896 10.6884 11.0981 11.1705 11.4984 11.6102C11.9332 12.0895 12.4118 12.4499 12.9374 12.6924L12.9375 12.6925C13.0133 12.7274 13.0879 12.7575 13.1613 12.7854C13.161 12.7853 13.1608 12.7852 13.1605 12.7851L14.5587 3.46831Z" fill="#99F22B" stroke="#695DFD" stroke-width="0.5"/>
</svg>
