<svg width="35" height="35" viewBox="0 0 35 35" fill="none" xmlns="http://www.w3.org/2000/svg">
<g opacity="0.8" filter="url(#filter0_b_4_15553)">
<circle cx="17.5" cy="17.5" r="17.5" fill="#1F204F"/>
</g>
<path d="M10.5192 17.2592C10.5192 16.5994 9.96908 16.0625 9.29296 16.0625H7.22622C6.55009 16.0625 6 16.5994 6 17.2592C6 17.9191 6.5501 18.456 7.22622 18.456H9.29296C9.96909 18.456 10.5192 17.9191 10.5192 17.2592Z" fill="#99F22B"/>
<path d="M8.92186 11.512L10.5051 12.8087C10.7257 12.9891 11.0054 13.0885 11.2928 13.0885C11.6564 13.0885 11.999 12.9327 12.2326 12.661C12.4432 12.4161 12.5434 12.1058 12.5148 11.7875C12.4863 11.469 12.3324 11.1806 12.0814 10.975L10.4982 9.67833C10.2777 9.49787 9.99784 9.39844 9.71046 9.39844C9.34676 9.39844 9.00425 9.55433 8.77065 9.82604C8.33613 10.3315 8.40391 11.0879 8.92186 11.512Z" fill="#695DFD"/>
<path d="M11.2928 21.4277C11.0053 21.4277 10.7255 21.5272 10.5051 21.7078L8.92187 23.0043C8.40393 23.4284 8.33613 24.1848 8.77065 24.6903C9.00425 24.962 9.34676 25.1179 9.7104 25.1179C9.99797 25.1179 10.2778 25.0184 10.4982 24.8377L12.0814 23.5413C12.3324 23.3359 12.4863 23.0473 12.5148 22.7287C12.5434 22.4104 12.4432 22.1002 12.2326 21.8553C11.999 21.5836 11.6565 21.4277 11.2928 21.4277Z" fill="#695DFD"/>
<path d="M27.897 19.4499H26.6529C26.6091 19.4499 26.5628 19.4496 26.5159 19.4493L26.5107 19.4493C26.4616 19.449 26.4118 19.4487 26.3614 19.4487C26.0301 19.4487 25.7058 19.4516 25.6368 19.4588C25.2004 19.5053 24.839 19.6455 24.5208 19.8851L24.5203 19.8855C24.3686 19.9992 24.2472 20.1456 24.1104 20.314C24.1102 20.3142 24.1101 20.3143 24.1099 20.3145L23.9159 20.1568C23.8554 20.232 23.7924 20.3085 23.7269 20.3811L27.897 19.4499ZM27.897 19.4499C27.8204 19.7195 27.7277 19.9834 27.6202 20.2418L27.6201 20.242C27.2336 21.174 26.6913 21.9844 25.994 22.6767C25.2948 23.3684 24.4823 23.9084 23.5525 24.2923L23.5522 24.2924C22.626 24.6761 21.6041 24.8697 20.4848 24.8697C19.3795 24.8697 18.3623 24.6763 17.4278 24.2922L17.4275 24.292C16.4902 23.908 15.6732 23.368 14.9757 22.6768C14.2785 21.9847 13.7373 21.1742 13.3494 20.2418C12.9641 19.3152 12.7695 18.3033 12.7695 17.2072C12.7695 16.1243 12.9639 15.1228 13.3491 14.2012C13.7367 13.2782 14.2774 12.4796 14.9738 11.8017C15.671 11.1245 16.4881 10.5966 17.4262 10.2184C18.3613 9.84138 19.3791 9.65039 20.4848 9.65039C21.6045 9.65039 22.627 9.84155 23.5538 10.2181C24.4839 10.596 25.2961 11.1273 25.9948 11.8123C26.6922 12.4973 27.2343 13.2964 27.6205 14.2142L27.897 19.4499ZM20.5626 12.7183C20.4761 12.7196 20.3897 12.7234 20.3007 12.7297L26.3615 15.3163C26.0255 15.3188 25.6661 15.3188 25.5809 15.3099C24.7336 15.2309 24.2753 14.7378 23.7912 14.2154L23.7853 14.2091C23.5389 13.9448 23.2836 13.6709 22.9723 13.4509C22.5746 13.1706 22.1473 12.9693 21.6902 12.8508C21.3308 12.7565 20.9541 12.7119 20.5626 12.7183ZM20.5626 12.7183L20.5589 12.4683C20.5588 12.4683 20.5588 12.4683 20.5587 12.4683M20.5626 12.7183L20.5585 12.4683L27.9171 15.0663M27.9171 15.0663C27.8366 14.7752 27.737 14.4912 27.6206 14.2143L27.9171 15.0663ZM27.9171 15.0663L26.3615 15.0663L26.3596 15.0663C26.0133 15.0689 25.674 15.0683 25.6068 15.0613L25.6068 15.0612L25.6041 15.061C24.8621 14.9918 24.4625 14.572 23.9745 14.0455L23.974 14.0449L23.9615 14.0315C23.7193 13.7717 23.449 13.4817 23.1166 13.2468L23.1163 13.2466C22.6954 12.9499 22.2408 12.7353 21.7533 12.6089C21.3711 12.5086 20.9718 12.4616 20.5587 12.4683M20.5587 12.4683C20.4673 12.4697 20.3762 12.4737 20.2829 12.4804L20.2826 12.4804C18.7305 12.5936 17.4288 13.5609 16.7016 15.0999L16.7015 15.1001C16.5135 15.4987 16.3112 16.0184 16.2426 16.8162L16.2425 16.8171C16.2326 16.9373 16.2249 17.0595 16.2221 17.1806C16.2206 17.2002 16.2206 17.2167 16.2206 17.2257L16.2206 17.2276L16.2206 17.2556L16.2206 17.2571C16.2245 17.9093 16.3339 18.5239 16.5505 19.1016C16.559 19.1256 16.5683 19.1479 16.5766 19.1667C16.7896 19.6884 17.0981 20.1705 17.4984 20.6102C17.9332 21.0895 18.4118 21.4499 18.9374 21.6924L18.9375 21.6925C19.0133 21.7274 19.0879 21.7575 19.1613 21.7854C19.161 21.7853 19.1608 21.7852 19.1605 21.7851L20.5587 12.4683Z" fill="#99F22B" stroke="#695DFD" stroke-width="0.5"/>
<defs>
<filter id="filter0_b_4_15553" x="-24" y="-24" width="83" height="83" filterUnits="userSpaceOnUse" color-interpolation-filters="sRGB">
<feFlood flood-opacity="0" result="BackgroundImageFix"/>
<feGaussianBlur in="BackgroundImageFix" stdDeviation="12"/>
<feComposite in2="SourceAlpha" operator="in" result="effect1_backgroundBlur_4_15553"/>
<feBlend mode="normal" in="SourceGraphic" in2="effect1_backgroundBlur_4_15553" result="shape"/>
</filter>
</defs>
</svg>
