<svg width="35" height="35" viewBox="0 0 35 35" fill="none" xmlns="http://www.w3.org/2000/svg">
<g opacity="0.8" filter="url(#filter0_b_4_15377)">
<circle cx="17.5" cy="17.5" r="17.5" fill="#1F204F"/>
</g>
<path d="M10.5192 18.1401C10.5192 17.4802 9.96908 16.9434 9.29296 16.9434L7.22622 16.9434C6.55009 16.9434 6 17.4802 6 18.1401C6 18.7999 6.5501 19.3368 7.22622 19.3368L9.29296 19.3368C9.96909 19.3368 10.5192 18.7999 10.5192 18.1401Z" fill="white"/>
<path d="M8.92186 12.3929L10.5051 13.6895C10.7257 13.87 11.0054 13.9693 11.2928 13.9693C11.6564 13.9693 11.999 13.8136 12.2326 13.5418C12.4432 13.297 12.5434 12.9867 12.5148 12.6684C12.4863 12.3499 12.3324 12.0614 12.0814 11.8559L10.4982 10.5592C10.2777 10.3787 9.99784 10.2793 9.71046 10.2793C9.34676 10.2793 9.00425 10.4352 8.77065 10.7069C8.33613 11.2124 8.40391 11.9688 8.92186 12.3929Z" fill="white"/>
<path d="M11.2928 22.3086C11.0053 22.3086 10.7255 22.408 10.5051 22.5886L8.92187 23.8852C8.40393 24.3092 8.33613 25.0656 8.77065 25.5711C9.00425 25.8428 9.34676 25.9987 9.7104 25.9987C9.99797 25.9987 10.2778 25.8993 10.4982 25.7186L12.0814 24.4222C12.3324 24.2167 12.4863 23.9282 12.5148 23.6096C12.5434 23.2912 12.4432 22.9811 12.2326 22.7362C11.999 22.4645 11.6565 22.3086 11.2928 22.3086Z" fill="white"/>
<path d="M28.1857 20.221C28.1993 20.1751 28.2104 20.1279 28.2215 20.0808L26.6529 20.0808C26.564 20.0808 26.4639 20.0795 26.3614 20.0795C26.0391 20.0795 25.6957 20.0821 25.6105 20.091C25.1325 20.142 24.7274 20.2974 24.3704 20.5663C24.1901 20.7013 24.0505 20.8721 23.9159 21.0377C23.8554 21.1129 23.7924 21.1893 23.7269 21.262C23.2774 21.7563 22.6573 22.3195 21.6902 22.5616C21.4766 22.6151 21.2456 22.6533 20.9961 22.6712C20.3625 22.717 19.7832 22.6393 19.2509 22.4329C19.1805 22.4062 19.1113 22.3781 19.0422 22.3463C18.5506 22.1195 18.0985 21.7805 17.6835 21.3231C17.3007 20.9026 17.0079 20.4439 16.8066 19.9496C16.7992 19.933 16.7918 19.9152 16.7856 19.8973C16.5793 19.3482 16.4743 18.7621 16.4706 18.1364L16.4706 18.1084C16.4706 18.097 16.4706 18.0867 16.4719 18.0753C16.4743 17.9581 16.4817 17.8383 16.4916 17.7185C16.5571 16.9578 16.7485 16.4673 16.9276 16.0876C17.6218 14.6185 18.8507 13.7164 20.3007 13.6106C20.3897 13.6042 20.4761 13.6004 20.5626 13.5991C20.9541 13.5928 21.3308 13.6374 21.6902 13.7317C22.1473 13.8502 22.5746 14.0515 22.9723 14.3318C23.286 14.5535 23.5429 14.83 23.7912 15.0963C24.2753 15.6187 24.7336 16.1118 25.5809 16.1908C25.6661 16.1997 26.0255 16.1997 26.3615 16.1971L28.2388 16.1971C28.2252 16.1334 28.2092 16.0697 28.1919 16.0073C28.103 15.6607 27.9881 15.3244 27.851 14.9982C27.4521 14.0502 26.8913 13.2233 26.17 12.5148C25.4475 11.8064 24.6076 11.2572 23.6479 10.8673C22.6882 10.4775 21.6334 10.2813 20.4848 10.2813C19.3497 10.2813 18.2999 10.4775 17.3328 10.8673C16.3657 11.2572 15.5209 11.8026 14.7995 12.5034C14.0782 13.2054 13.5187 14.0324 13.1186 14.9854C12.7196 15.9398 12.5195 16.9744 12.5195 18.088C12.5195 19.2144 12.7196 20.2592 13.1186 21.2186C13.5188 22.1806 14.0782 23.019 14.7995 23.7351C15.5209 24.4499 16.3657 25.008 17.3328 25.4042C18.2999 25.8018 19.3497 26.0005 20.4848 26.0005C21.6334 26.0005 22.6882 25.8018 23.6479 25.4042C24.6076 25.008 25.4475 24.4499 26.17 23.7351C26.8913 23.019 27.4521 22.1806 27.851 21.2186C27.9856 20.895 28.098 20.5624 28.1857 20.221Z" fill="white"/>
<defs>
<filter id="filter0_b_4_15377" x="-24" y="-24" width="83" height="83" filterUnits="userSpaceOnUse" color-interpolation-filters="sRGB">
<feFlood flood-opacity="0" result="BackgroundImageFix"/>
<feGaussianBlur in="BackgroundImageFix" stdDeviation="12"/>
<feComposite in2="SourceAlpha" operator="in" result="effect1_backgroundBlur_4_15377"/>
<feBlend mode="normal" in="SourceGraphic" in2="effect1_backgroundBlur_4_15377" result="shape"/>
</filter>
</defs>
</svg>
