<svg width="80" height="81" viewBox="0 0 80 81" fill="none" xmlns="http://www.w3.org/2000/svg">
<path fill-rule="evenodd" clip-rule="evenodd" d="M40.0234 0.796875C62.0488 0.796875 80 18.7637 80 40.8203C80 62.8144 62.0332 80.7969 40.0234 80.7969C17.998 80.7969 0 62.7988 0 40.8203C0 18.7637 17.998 0.796875 40.0234 0.796875Z" fill="#00509F"/>
<path fill-rule="evenodd" clip-rule="evenodd" d="M40.0226 5.88672C59.2226 5.88672 74.926 21.5901 74.926 40.8214C74.926 60.0213 59.2226 75.6935 40.0226 75.6935C20.8226 75.6935 5.11914 60.0213 5.11914 40.8214C5.11914 21.5745 20.8069 5.88672 40.0226 5.88672ZM16.6548 22.0428L29.1738 54.5111L33.763 42.6477H37.3065H42.2547H45.7982L50.3874 54.5111L63.0313 21.637C60.7991 18.9521 58.1143 16.6574 55.1016 14.8935L46.3133 39.0731H42.4108H37.8216H33.9191L25.1152 14.7999C21.8684 16.6575 19.0118 19.1238 16.6548 22.0428ZM68.0733 30.2067L53.8216 67.4048C63.3904 62.394 69.9777 52.357 69.9777 40.8214C69.9777 37.075 69.3221 33.516 68.0733 30.2067ZM47.5933 69.8243L47.4996 69.075L39.7572 49.0165L32.0148 69.075L31.9835 69.6994C34.5435 70.4174 37.2284 70.7765 40.0069 70.7765C42.645 70.7765 45.1582 70.4487 47.5933 69.8243ZM25.6304 67.077L11.7377 30.8623C10.6294 33.9687 10.0362 37.3248 10.0362 40.8214C10.0362 52.0916 16.3269 61.9882 25.6304 67.077ZM40.0226 10.835C42.645 10.835 45.2362 11.1628 47.6869 11.8184L40.1162 32.7667L32.5143 11.7872C34.9026 11.1628 37.4313 10.835 40.0226 10.835Z" fill="white"/>
</svg>
