<svg width="256" height="59" viewBox="0 0 256 59" fill="none" xmlns="http://www.w3.org/2000/svg">
<g clip-path="url(#clip0_38_446)">
<path d="M48.3703 19.1246C48.3152 18.9923 48.1866 18.9062 48.044 18.9062H42.924C42.7825 18.9062 42.6547 18.991 42.5989 19.1219L33.9549 39.3807C33.8546 39.6158 34.0259 39.8774 34.28 39.8774H39.0896C39.2354 39.8774 39.3663 39.7874 39.4193 39.6506L40.7043 36.3346C40.7573 36.1978 40.8882 36.1078 41.034 36.1078H49.5469C49.6936 36.1078 49.8251 36.1989 49.8775 36.3368L51.1353 39.6484C51.1877 39.7863 51.3191 39.8773 51.4658 39.8773H56.4871C56.74 39.8773 56.9112 39.6181 56.8134 39.3835L48.3703 19.1246ZM47.7083 31.9794H42.9098C42.6608 31.9794 42.4896 31.7273 42.5801 31.4938L45.0034 25.2404C45.121 24.937 45.5481 24.9384 45.6636 25.2426L48.0388 31.4961C48.1274 31.7292 47.9563 31.9794 47.7083 31.9794Z" fill="white"/>
<path d="M72.6818 33.3298C72.5748 33.1608 72.6238 32.932 72.7963 32.8317C73.2132 32.5892 73.5969 32.3108 73.9454 31.9945C75.4511 30.6285 76.2047 28.7189 76.2047 26.2659C76.2047 23.9322 75.4511 22.1222 73.9454 20.836C72.4393 19.5493 70.2987 18.9062 67.5245 18.9062H58.514C58.3186 18.9062 58.1602 19.0657 58.1602 19.2623V39.5213C58.1602 39.7179 58.3186 39.8773 58.514 39.8773H63.2466C63.442 39.8773 63.6004 39.7179 63.6004 39.5213V34.3997C63.6004 34.203 63.7589 34.0436 63.9543 34.0436H67.5245C67.5572 34.0436 67.5887 34.0422 67.6212 34.0421L70.5759 39.6872C70.6371 39.8042 70.7576 39.8773 70.889 39.8773H76.1839C76.4632 39.8773 76.6324 39.5669 76.4823 39.3298L72.6818 33.3298ZM70.1107 28.8984C69.4963 29.457 68.6342 29.7361 67.5245 29.7361H63.9543C63.7589 29.7361 63.6004 29.5767 63.6004 29.3801V23.5704C63.6004 23.3737 63.7589 23.2143 63.9543 23.2143H67.5245C68.6342 23.2143 69.4963 23.4837 70.1107 24.0222C70.7247 24.5606 71.0321 25.3584 71.0321 26.415C71.0321 27.5122 70.7247 28.3402 70.1107 28.8984Z" fill="white"/>
<path d="M93.2203 29.1235C92.5662 28.6549 91.8528 28.2706 91.0797 27.9713C90.307 27.6725 89.5238 27.4132 88.7315 27.1938C87.9383 26.9743 87.2154 26.7554 86.5612 26.5355C85.9071 26.3161 85.3872 26.0421 85.0008 25.7129C84.614 25.3838 84.4211 24.9601 84.4211 24.4414C84.4211 23.9232 84.619 23.5395 85.0154 23.2897C85.4118 23.0405 85.9368 22.9156 86.5909 22.9156C87.1656 22.9156 87.8343 23.0106 88.5974 23.1997C89.3605 23.3898 90.1533 23.6487 90.9756 23.9778C91.6751 24.2577 92.3422 24.5845 92.9773 24.958C93.157 25.0637 93.3868 24.9964 93.4767 24.8076L95.2216 21.1428C95.3004 20.9775 95.2446 20.7765 95.0883 20.6822C94.0593 20.0613 92.8719 19.5494 91.5258 19.1466C90.0588 18.7077 88.5627 18.4883 87.037 18.4883C85.3721 18.4883 83.9107 18.7527 82.6522 19.281C81.3933 19.8094 80.4227 20.5576 79.7389 21.5248C79.0552 22.4924 78.7136 23.6239 78.7136 24.9202C78.7136 25.997 78.9065 26.8944 79.2928 27.6124C79.6796 28.3302 80.1996 28.9137 80.8537 29.3626C81.5078 29.8111 82.2257 30.1807 83.0089 30.4693C83.7916 30.759 84.5743 31.0077 85.3576 31.2176C86.1403 31.4269 86.8587 31.6413 87.5128 31.8607C88.163 32.079 88.6859 32.3513 89.082 32.6781C89.4554 32.9862 89.6747 33.4326 89.6823 33.9184C89.6919 34.5345 89.4588 35.0006 88.9842 35.3158C88.518 35.6252 87.879 35.7794 87.0666 35.7794C86.3533 35.7794 85.5404 35.6449 84.6291 35.376C83.7173 35.1065 82.8155 34.7323 81.9238 34.2541C81.172 33.8504 80.4835 33.3904 79.8584 32.8734C79.6812 32.7268 79.4163 32.7776 79.3131 32.9838L77.5345 36.5384C77.4593 36.6889 77.4967 36.874 77.6277 36.9789C78.4035 37.6007 79.2658 38.1427 80.2147 38.6066C81.2551 39.1152 82.3548 39.5039 83.5143 39.7735C84.6738 40.0424 85.8378 40.1774 87.0074 40.1774C88.5532 40.1774 89.9599 39.9327 91.2284 39.4443C92.4964 38.9559 93.5072 38.2279 94.2608 37.2603C95.0133 36.2931 95.3901 35.102 95.3901 33.6853C95.3901 32.5888 95.1922 31.6711 94.7958 30.933C94.3989 30.1953 93.8744 29.5922 93.2203 29.1235Z" fill="white"/>
<path d="M120.939 18.9063H115.598C115.463 18.9063 115.34 18.9838 115.28 19.1059L109.372 31.2614L103.435 19.1053C103.376 18.9834 103.252 18.9062 103.118 18.9062H97.7757C97.5803 18.9062 97.4219 19.0657 97.4219 19.2623V39.5213C97.4219 39.7179 97.5803 39.8773 97.7757 39.8773H101.914C102.109 39.8773 102.268 39.7179 102.268 39.5213V28.0252C102.268 27.6455 102.779 27.5294 102.941 27.8724L107.523 37.5799C107.581 37.7041 107.706 37.7833 107.842 37.7833H110.902C111.039 37.7833 111.164 37.7038 111.222 37.5792L115.777 27.8736C115.938 27.5303 116.45 27.6452 116.451 28.0249L116.476 39.5221C116.477 39.7184 116.635 39.8774 116.83 39.8774H120.939C121.135 39.8774 121.293 39.7179 121.293 39.5213V19.2624C121.293 19.0657 121.135 18.9063 120.939 18.9063Z" fill="white"/>
<path d="M137.062 19.1246C137.007 18.9923 136.878 18.9062 136.736 18.9062H131.615C131.474 18.9062 131.346 18.991 131.29 19.1219L122.646 39.3807C122.546 39.6158 122.717 39.8774 122.971 39.8774H127.782C127.927 39.8774 128.058 39.7874 128.111 39.6506L129.396 36.3346C129.449 36.1978 129.58 36.1078 129.726 36.1078H138.239C138.386 36.1078 138.517 36.1989 138.569 36.3368L139.827 39.6484C139.88 39.7863 140.011 39.8773 140.158 39.8773H145.179C145.431 39.8773 145.603 39.6181 145.505 39.3835L137.062 19.1246ZM136.4 31.9794H131.602C131.353 31.9794 131.182 31.7273 131.272 31.4938L133.695 25.2404C133.813 24.937 134.24 24.9384 134.356 25.2426L136.731 31.4961C136.819 31.7292 136.648 31.9794 136.4 31.9794Z" fill="white"/>
<path d="M161.373 33.3298C161.266 33.1608 161.315 32.932 161.488 32.8317C161.905 32.5892 162.288 32.3108 162.637 31.9945C164.142 30.6285 164.896 28.7189 164.896 26.2659C164.896 23.9322 164.142 22.1222 162.637 20.836C161.131 19.5493 158.99 18.9062 156.216 18.9062H147.205C147.01 18.9062 146.852 19.0657 146.852 19.2623V39.5213C146.852 39.7179 147.01 39.8773 147.205 39.8773H151.938C152.133 39.8773 152.292 39.7179 152.292 39.5213V34.3997C152.292 34.203 152.45 34.0436 152.646 34.0436H156.216C156.249 34.0436 156.28 34.0422 156.313 34.0421L159.267 39.6872C159.329 39.8042 159.449 39.8773 159.58 39.8773H164.875C165.155 39.8773 165.324 39.5669 165.174 39.3298L161.373 33.3298ZM158.802 28.8984C158.188 29.457 157.326 29.7361 156.216 29.7361H152.646C152.45 29.7361 152.292 29.5767 152.292 29.3801V23.5704C152.292 23.3737 152.45 23.2143 152.646 23.2143H156.216C157.326 23.2143 158.188 23.4837 158.802 24.0222C159.416 24.5606 159.724 25.3584 159.724 26.415C159.724 27.5122 159.416 28.3402 158.802 28.8984Z" fill="white"/>
<path d="M183.694 22.978V19.2623C183.694 19.0657 183.536 18.9062 183.34 18.9062H166.182C165.987 18.9062 165.828 19.0657 165.828 19.2623V22.978C165.828 23.1746 165.987 23.334 166.182 23.334H171.658C171.853 23.334 172.011 23.4935 172.011 23.6901V39.5213C172.011 39.7179 172.17 39.8773 172.365 39.8773H177.098C177.293 39.8773 177.452 39.7179 177.452 39.5213V23.6901C177.452 23.4935 177.61 23.334 177.806 23.334H183.34C183.536 23.334 183.694 23.1746 183.694 22.978Z" fill="white"/>
<path d="M34.8239 32.2145C34.8432 32.1509 34.859 32.0856 34.8748 32.0203H32.647C32.5207 32.0203 32.3786 32.0185 32.233 32.0185C31.7752 32.0185 31.2875 32.0221 31.1665 32.0344C30.4876 32.105 29.9123 32.3204 29.4053 32.6929C29.1492 32.88 28.951 33.1165 28.7598 33.346C28.6738 33.4502 28.5844 33.5561 28.4914 33.6567C27.8529 34.3417 26.9723 35.1219 25.5988 35.4573C25.2953 35.5315 24.9673 35.5844 24.613 35.6092C23.7131 35.6727 22.8904 35.565 22.1344 35.279C22.0344 35.242 21.9361 35.2031 21.8379 35.159C21.1398 34.8448 20.4977 34.3752 19.9083 33.7414C19.3645 33.1589 18.9488 32.5234 18.6629 31.8384C18.6523 31.8155 18.6418 31.7908 18.6331 31.766C18.3401 31.0052 18.191 30.1932 18.1857 29.3264V29.2876C18.1857 29.2717 18.1857 29.2576 18.1875 29.2417C18.191 29.0793 18.2015 28.9134 18.2156 28.7474C18.3085 27.6935 18.5804 27.0139 18.8348 26.4878C19.8206 24.4524 21.566 23.2026 23.6254 23.0561C23.7517 23.0472 23.8745 23.0419 23.9973 23.0402C24.5533 23.0313 25.0883 23.0931 25.5988 23.2238C26.2479 23.3879 26.8548 23.6669 27.4196 24.0552C27.8652 24.3624 28.2301 24.7454 28.5826 25.1144C29.2703 25.8382 29.9211 26.5214 31.1244 26.6308C31.2454 26.6431 31.7559 26.6431 32.2331 26.6396H34.8994C34.8801 26.5514 34.8573 26.4631 34.8327 26.3766C34.7064 25.8964 34.5433 25.4304 34.3486 24.9785C33.782 23.6651 32.9856 22.5194 31.9612 21.5379C30.935 20.5564 29.7422 19.7956 28.3792 19.2554C27.0162 18.7152 25.5181 18.4434 23.8868 18.4434C22.2747 18.4434 20.7837 18.7152 19.4101 19.2554C18.0366 19.7956 16.8368 20.5511 15.8124 21.522C14.7879 22.4947 13.9933 23.6404 13.425 24.9608C12.8584 26.283 12.5742 27.7165 12.5742 29.2593C12.5742 30.8199 12.8584 32.2674 13.425 33.5967C13.9934 34.9295 14.788 36.091 15.8124 37.0832C16.8368 38.0735 18.0366 38.8467 19.4101 39.3957C20.7837 39.9465 22.2747 40.2219 23.8868 40.2219C25.5181 40.2219 27.0162 39.9465 28.3792 39.3957C29.7422 38.8467 30.935 38.0735 31.9612 37.0832C32.9856 36.0911 33.782 34.9295 34.3486 33.5967C34.5398 33.1483 34.6994 32.6876 34.8239 32.2145Z" fill="white"/>
<path d="M8.77963 29.2411C8.77963 27.9192 7.71092 26.8438 6.39739 26.8438H2.38224C1.06868 26.8438 0 27.9193 0 29.2411C0 30.563 1.06871 31.6385 2.38224 31.6385H6.39739C7.71094 31.6385 8.77963 30.563 8.77963 29.2411Z" fill="white"/>
<path d="M5.67804 17.7301L8.7538 20.3277C9.18242 20.6892 9.72592 20.8882 10.2842 20.8882C10.9907 20.8882 11.6561 20.5762 12.11 20.0318C12.5191 19.5413 12.7137 18.9197 12.6582 18.282C12.6029 17.644 12.3038 17.0662 11.8163 16.6544L8.74052 14.0568C8.31203 13.6953 7.7684 13.4961 7.2101 13.4961C6.50353 13.4961 5.83811 13.8084 5.38429 14.3527C4.54012 15.3653 4.67181 16.8806 5.67804 17.7301Z" fill="white"/>
<path d="M10.2841 37.5938C9.72556 37.5938 9.18206 37.7929 8.75383 38.1547L5.67807 40.7521C4.67183 41.6016 4.54012 43.1169 5.38429 44.1295C5.83811 44.6738 6.50353 44.9861 7.20997 44.9861C7.76866 44.9861 8.31229 44.7869 8.74052 44.4249L11.8163 41.8278C12.3038 41.4163 12.6029 40.8382 12.6582 40.1999C12.7137 39.5622 12.5191 38.9409 12.11 38.4504C11.6562 37.906 10.9908 37.5938 10.2841 37.5938Z" fill="white"/>
<path d="M194.614 18.7422H197.014V28.3122H209.674V18.7422H212.074V39.7422H209.674V30.3822H197.014V39.7422H194.614V18.7422ZM219.902 33.1422C219.902 34.5622 220.292 35.6822 221.072 36.5022C221.852 37.3022 222.922 37.7022 224.282 37.7022C225.922 37.6622 227.192 37.0922 228.092 35.9922C229.012 34.8922 229.472 33.4622 229.472 31.7022H230.252C230.252 33.5422 229.972 35.0622 229.412 36.2622C228.872 37.4422 228.092 38.3222 227.072 38.9022C226.072 39.4822 224.872 39.7822 223.472 39.8022C222.252 39.8022 221.202 39.5622 220.322 39.0822C219.442 38.5822 218.762 37.8722 218.282 36.9522C217.802 36.0322 217.562 34.9422 217.562 33.6822V23.9622H219.902V33.1422ZM229.472 23.9622H231.812V39.7422H229.472V23.9622ZM246.106 23.9022C247.606 23.9022 248.926 24.2422 250.066 24.9222C251.206 25.6022 252.096 26.5422 252.736 27.7422C253.376 28.9422 253.696 30.3222 253.696 31.8822C253.696 33.4222 253.376 34.7922 252.736 35.9922C252.096 37.1922 251.206 38.1322 250.066 38.8122C248.946 39.4722 247.636 39.8022 246.136 39.8022C244.696 39.8022 243.436 39.4822 242.356 38.8422C241.296 38.1822 240.466 37.2622 239.866 36.0822C239.286 34.8822 238.996 33.4822 238.996 31.8822C238.996 30.2622 239.286 28.8522 239.866 27.6522C240.466 26.4522 241.296 25.5322 242.356 24.8922C243.436 24.2322 244.686 23.9022 246.106 23.9022ZM245.686 25.7922C244.586 25.7922 243.606 26.0622 242.746 26.6022C241.886 27.1222 241.216 27.8322 240.736 28.7322C240.256 29.6322 240.016 30.6722 240.016 31.8522C240.016 33.0122 240.256 34.0522 240.736 34.9722C241.216 35.8722 241.886 36.5822 242.746 37.1022C243.606 37.6222 244.586 37.8822 245.686 37.8822C246.786 37.8822 247.756 37.6222 248.596 37.1022C249.456 36.5822 250.126 35.8722 250.606 34.9722C251.086 34.0522 251.326 33.0122 251.326 31.8522C251.326 30.6722 251.086 29.6322 250.606 28.7322C250.126 27.8322 249.456 27.1222 248.596 26.6022C247.756 26.0622 246.786 25.7922 245.686 25.7922ZM237.676 17.4822H240.016V39.7422H237.676V17.4822Z" fill="#99F22B"/>
</g>
<defs>
<clipPath id="clip0_38_446">
<rect width="255.192" height="65.2301" fill="white" transform="translate(0 -3.37305)"/>
</clipPath>
</defs>
</svg>
