<svg width="27" height="27" viewBox="0 0 27 27" fill="none" xmlns="http://www.w3.org/2000/svg">
<path fill-rule="evenodd" clip-rule="evenodd" d="M26.4086 13.3451C26.4086 20.419 20.6744 26.1536 13.6008 26.1536C6.52723 26.1536 0.792969 20.419 0.792969 13.3451C0.792969 6.27117 6.52723 0.536621 13.6008 0.536621C20.6744 0.536621 26.4086 6.27117 26.4086 13.3451ZM16.6778 8.58627C18.4595 9.19814 19.7627 10.1142 19.507 11.8192C19.3213 13.0677 18.6267 13.6716 17.7037 13.883C18.9699 14.5397 19.4016 15.786 19.0005 17.2929C18.2392 19.4616 16.4294 19.6441 14.0223 19.1908L13.4378 21.5221L12.0268 21.1713L12.6033 18.8714C12.2375 18.7808 11.8636 18.684 11.4785 18.5806L10.8996 20.8918L9.49025 20.5411L10.0739 18.205L7.23189 17.4907L7.93296 15.881C7.93296 15.881 8.97328 16.1557 8.95882 16.1357C9.35842 16.2342 9.53607 15.9747 9.60603 15.8026L11.1899 9.47521C11.2075 9.17646 11.1038 8.80013 10.5322 8.65759C10.5539 8.64234 9.50716 8.4037 9.50716 8.4037L9.88262 6.90215L12.7287 7.60448L13.3076 5.29488L14.7178 5.64564L14.1509 7.90959C14.5304 7.99528 14.9115 8.08257 15.2821 8.17467L15.8449 5.92513L17.2559 6.2759L16.6778 8.58627ZM13.3017 12.439C14.2628 12.6938 16.3543 13.2484 16.7189 11.7944C17.0907 10.3069 15.0588 9.85766 14.064 9.63769C13.9513 9.61275 13.8517 9.59075 13.7706 9.57058L13.068 12.3783C13.1349 12.3948 13.2135 12.4157 13.3017 12.439ZM12.2127 16.9595C13.3639 17.2628 15.8816 17.926 16.2823 16.3239C16.6923 14.6858 14.2512 14.1403 13.0601 13.874C12.9272 13.8443 12.8095 13.818 12.7134 13.7941L11.9384 16.8885C12.0171 16.908 12.1096 16.9324 12.2127 16.9595Z" fill="#13141A"/>
</svg>
