<svg width="27" height="28" viewBox="0 0 27 28" fill="none" xmlns="http://www.w3.org/2000/svg">
<g clip-path="url(#clip0_1074_13784)">
<path fill-rule="evenodd" clip-rule="evenodd" d="M26.4076 13.6967C26.4076 20.7706 20.6734 26.5051 13.5999 26.5051C6.52625 26.5051 0.791992 20.7706 0.791992 13.6967C0.791992 6.62273 6.52625 0.888184 13.5999 0.888184C20.6734 0.888184 26.4076 6.62273 26.4076 13.6967ZM16.6768 8.93784C18.4585 9.5497 19.7617 10.4658 19.506 12.1708C19.3204 13.4193 18.6257 14.0231 17.7028 14.2345C18.969 14.8913 19.4006 16.1375 18.9995 17.6445C18.2382 19.8131 16.4284 19.9957 14.0213 19.5424L13.4368 21.8736L12.0258 21.5229L12.6023 19.2229C12.2365 19.1324 11.8627 19.0355 11.4775 18.9322L10.8987 21.2434L9.48927 20.8926L10.0729 18.5566L7.23091 17.8423L7.93198 16.2326C7.93198 16.2326 8.9723 16.5073 8.95785 16.4873C9.35745 16.5857 9.53509 16.3263 9.60505 16.1541L11.1889 9.82677C11.2066 9.52802 11.1028 9.15169 10.5312 9.00915C10.5529 8.9939 9.50619 8.75526 9.50619 8.75526L9.88165 7.25371L12.7277 7.95604L13.3066 5.64644L14.7168 5.9972L14.1499 8.26115C14.5295 8.34684 14.9106 8.43413 15.2812 8.52623L15.844 6.27669L17.2549 6.62746L16.6768 8.93784ZM13.3007 12.7906C14.2618 13.0454 16.3533 13.5999 16.7179 12.146C17.0898 10.6585 15.0579 10.2092 14.063 9.98925C13.9503 9.96431 13.8507 9.94232 13.7696 9.92215L13.067 12.7298C13.134 12.7463 13.2126 12.7672 13.3007 12.7906ZM12.2117 17.3111C13.3629 17.6144 15.8806 18.2775 16.2813 16.6755C16.6914 15.0374 14.2502 14.4918 13.0591 14.2255C12.9262 14.1958 12.8085 14.1696 12.7124 14.1457L11.9374 17.2401C12.0161 17.2596 12.1086 17.2839 12.2117 17.3111Z" fill="white"/>
</g>
<defs>
<clipPath id="clip0_1074_13784">
<rect width="27" height="27" fill="white" transform="translate(0 0.497559)"/>
</clipPath>
</defs>
</svg>
