<svg width="18" height="19" viewBox="0 0 18 19" fill="none" xmlns="http://www.w3.org/2000/svg">
<path d="M7.6 13.6824L14.65 6.63242L13.25 5.23242L7.6 10.8824L4.75 8.03242L3.35 9.43242L7.6 13.6824ZM2 18.4824C1.45 18.4824 0.979167 18.2866 0.5875 17.8949C0.195833 17.5033 0 17.0324 0 16.4824V2.48242C0 1.93242 0.195833 1.46159 0.5875 1.06992C0.979167 0.678255 1.45 0.482422 2 0.482422H16C16.55 0.482422 17.0208 0.678255 17.4125 1.06992C17.8042 1.46159 18 1.93242 18 2.48242V16.4824C18 17.0324 17.8042 17.5033 17.4125 17.8949C17.0208 18.2866 16.55 18.4824 16 18.4824H2Z" fill="#ffffff"/>
</svg>
