<svg width="18" height="19" viewBox="0 0 18 19" fill="none" xmlns="http://www.w3.org/2000/svg">
<path d="M3.75 14.7324H4.81875L12.15 7.40117L11.0813 6.33242L3.75 13.6637V14.7324ZM2.25 16.2324V13.0449L12.15 3.16367C12.3 3.02617 12.4656 2.91992 12.6469 2.84492C12.8281 2.76992 13.0188 2.73242 13.2188 2.73242C13.4188 2.73242 13.6125 2.76992 13.8 2.84492C13.9875 2.91992 14.15 3.03242 14.2875 3.18242L15.3188 4.23242C15.4688 4.36992 15.5781 4.53242 15.6469 4.71992C15.7156 4.90742 15.75 5.09492 15.75 5.28242C15.75 5.48242 15.7156 5.67305 15.6469 5.8543C15.5781 6.03555 15.4688 6.20117 15.3188 6.35117L5.4375 16.2324H2.25ZM11.6063 6.87617L11.0813 6.33242L12.15 7.40117L11.6063 6.87617Z" fill="#695DFD"/>
</svg>
