<svg width="147" height="45" viewBox="0 0 147 45" fill="none" xmlns="http://www.w3.org/2000/svg">
<path d="M17.108 8.98958H34.251V13.4536H22.781V17.6076H33.135V22.0406H22.781V26.2566H34.561V30.7206H17.108V8.98958ZM44.3509 13.7636C45.7769 13.7636 46.9963 14.1149 48.0089 14.8176C49.0216 15.4996 49.8069 16.4812 50.3649 17.7626C50.9229 19.0439 51.2019 20.5526 51.2019 22.2886C51.2019 24.0452 50.9333 25.5746 50.3959 26.8766C49.8586 28.1786 49.0836 29.1809 48.0709 29.8836C47.0789 30.5862 45.8803 30.9376 44.4749 30.9376C42.9043 30.9376 41.5299 30.5759 40.3519 29.8526C39.1739 29.1292 38.2646 28.1166 37.6239 26.8146C36.9833 25.5126 36.6629 23.9936 36.6629 22.2576C36.6629 20.5422 36.9729 19.0542 37.5929 17.7936C38.2336 16.5329 39.1326 15.5512 40.2899 14.8486C41.4679 14.1252 42.8216 13.7636 44.3509 13.7636ZM45.8389 18.1656C45.1156 18.1656 44.4749 18.3412 43.9169 18.6926C43.3796 19.0439 42.9559 19.5399 42.6459 20.1806C42.3566 20.8212 42.2119 21.5652 42.2119 22.4126C42.2119 23.2599 42.3566 24.0039 42.6459 24.6446C42.9559 25.2646 43.3796 25.7606 43.9169 26.1326C44.4749 26.4839 45.1156 26.6596 45.8389 26.6596C46.5623 26.6596 47.1926 26.4839 47.7299 26.1326C48.2673 25.7606 48.6806 25.2646 48.9699 24.6446C49.2799 24.0039 49.4349 23.2599 49.4349 22.4126C49.4349 21.5652 49.2799 20.8212 48.9699 20.1806C48.6806 19.5399 48.2673 19.0439 47.7299 18.6926C47.1926 18.3412 46.5623 18.1656 45.8389 18.1656ZM49.4349 7.71858H54.9529V30.7206H49.4349V7.71858ZM59.3092 13.9806H64.7962V30.7206H59.3092V13.9806ZM62.0682 6.29258C62.9155 6.29258 63.6078 6.57158 64.1452 7.12958C64.7032 7.66691 64.9822 8.35925 64.9822 9.20658C64.9822 10.0332 64.7032 10.7256 64.1452 11.2836C63.6078 11.8209 62.9155 12.0896 62.0682 12.0896C61.2208 12.0896 60.5182 11.8209 59.9602 11.2836C59.4228 10.7256 59.1542 10.0332 59.1542 9.20658C59.1542 8.35925 59.4228 7.66691 59.9602 7.12958C60.5182 6.57158 61.2208 6.29258 62.0682 6.29258ZM75.2889 24.7686C75.2889 25.4092 75.4233 25.8742 75.6919 26.1636C75.9606 26.4529 76.3326 26.5872 76.8079 26.5666C77.0973 26.5666 77.4176 26.5149 77.7689 26.4116C78.1203 26.3082 78.4923 26.1739 78.8849 26.0086L79.9389 29.8216C79.3396 30.1936 78.6369 30.4829 77.8309 30.6896C77.0456 30.8756 76.2396 30.9686 75.4129 30.9686C74.3383 30.9686 73.3773 30.7722 72.5299 30.3796C71.6826 29.9662 71.0109 29.3669 70.5149 28.5816C70.0396 27.7756 69.8019 26.7939 69.8019 25.6366V10.1366H75.2889V24.7686ZM67.4769 14.7556H79.6289V18.3516H67.4769V14.7556ZM82.5592 13.9806H88.0462V30.7206H82.5592V13.9806ZM85.3182 6.29258C86.1655 6.29258 86.8578 6.57158 87.3952 7.12958C87.9532 7.66691 88.2322 8.35925 88.2322 9.20658C88.2322 10.0332 87.9532 10.7256 87.3952 11.2836C86.8578 11.8209 86.1655 12.0896 85.3182 12.0896C84.4708 12.0896 83.7682 11.8209 83.2102 11.2836C82.6728 10.7256 82.4042 10.0332 82.4042 9.20658C82.4042 8.35925 82.6728 7.66691 83.2102 7.12958C83.7682 6.57158 84.4708 6.29258 85.3182 6.29258ZM100.058 13.7946C101.897 13.7946 103.499 14.1459 104.863 14.8486C106.248 15.5512 107.322 16.5432 108.087 17.8246C108.852 19.1059 109.234 20.6042 109.234 22.3196C109.234 24.0349 108.852 25.5436 108.087 26.8456C107.322 28.1269 106.248 29.1292 104.863 29.8526C103.499 30.5552 101.897 30.9066 100.058 30.9066C98.2186 30.9066 96.6066 30.5552 95.2219 29.8526C93.8579 29.1292 92.7936 28.1269 92.0289 26.8456C91.2849 25.5436 90.9129 24.0349 90.9129 22.3196C90.9129 20.6042 91.2849 19.1059 92.0289 17.8246C92.7936 16.5432 93.8579 15.5512 95.2219 14.8486C96.6066 14.1459 98.2186 13.7946 100.058 13.7946ZM100.058 18.1656C99.3346 18.1656 98.7043 18.3412 98.1669 18.6926C97.6296 19.0439 97.2059 19.5399 96.8959 20.1806C96.6066 20.8212 96.4619 21.5652 96.4619 22.4126C96.4619 23.2599 96.6066 24.0039 96.8959 24.6446C97.2059 25.2646 97.6296 25.7502 98.1669 26.1016C98.7043 26.4529 99.3346 26.6286 100.058 26.6286C100.781 26.6286 101.412 26.4529 101.949 26.1016C102.507 25.7502 102.931 25.2646 103.22 24.6446C103.53 24.0039 103.685 23.2599 103.685 22.4126C103.685 21.5652 103.53 20.8212 103.22 20.1806C102.931 19.5399 102.507 19.0439 101.949 18.6926C101.412 18.3412 100.781 18.1656 100.058 18.1656ZM123.702 21.6996C123.702 20.7489 123.443 19.9946 122.927 19.4366C122.41 18.8786 121.718 18.5996 120.85 18.5996C119.816 18.6202 119 18.9922 118.401 19.7156C117.822 20.4182 117.533 21.3276 117.533 22.4436H116.231C116.231 20.5422 116.51 18.9509 117.068 17.6696C117.626 16.3676 118.411 15.3859 119.424 14.7246C120.457 14.0632 121.687 13.7326 123.113 13.7326C124.332 13.7326 125.396 14.0012 126.305 14.5386C127.236 15.0552 127.949 15.7992 128.445 16.7706C128.941 17.7212 129.189 18.8476 129.189 20.1496V30.7206H123.702V21.6996ZM112.046 13.9806H117.564V30.7206H112.046V13.9806ZM144.125 19.1886C143.092 18.6512 142.121 18.2379 141.211 17.9486C140.302 17.6592 139.496 17.5146 138.793 17.5146C138.339 17.5146 137.956 17.6076 137.646 17.7936C137.357 17.9589 137.212 18.2276 137.212 18.5996C137.212 18.9716 137.419 19.2712 137.832 19.4986C138.266 19.7052 138.814 19.9119 139.475 20.1186C140.157 20.3046 140.87 20.5112 141.614 20.7386C142.358 20.9659 143.061 21.2759 143.722 21.6686C144.404 22.0406 144.952 22.5469 145.365 23.1876C145.779 23.8076 145.985 24.6032 145.985 25.5746C145.985 26.7112 145.675 27.6826 145.055 28.4886C144.456 29.2946 143.619 29.9042 142.544 30.3176C141.49 30.7309 140.271 30.9376 138.886 30.9376C137.481 30.9376 136.127 30.7412 134.825 30.3486C133.523 29.9559 132.356 29.3669 131.322 28.5816L133.058 25.0786C134.03 25.7399 135.032 26.2566 136.065 26.6286C137.099 26.9799 138.08 27.1556 139.01 27.1556C139.362 27.1556 139.661 27.1142 139.909 27.0316C140.178 26.9489 140.385 26.8352 140.529 26.6906C140.695 26.5252 140.777 26.3186 140.777 26.0706C140.777 25.6779 140.571 25.3679 140.157 25.1406C139.744 24.8926 139.207 24.6859 138.545 24.5206C137.884 24.3346 137.181 24.1279 136.437 23.9006C135.693 23.6732 134.991 23.3736 134.329 23.0016C133.689 22.6089 133.162 22.1026 132.748 21.4826C132.335 20.8626 132.128 20.0669 132.128 19.0956C132.128 17.9382 132.428 16.9669 133.027 16.1816C133.647 15.3756 134.464 14.7659 135.476 14.3526C136.51 13.9392 137.688 13.7326 139.01 13.7326C140.23 13.7326 141.439 13.8979 142.637 14.2286C143.836 14.5386 144.952 15.0139 145.985 15.6546L144.125 19.1886Z" fill="#695DFD"/>
<path d="M8.77963 19.7384C8.77963 18.4319 7.71092 17.3689 6.39739 17.3689H2.38224C1.06868 17.3689 0 18.4319 0 19.7384C0 21.045 1.06871 22.108 2.38224 22.108H6.39739C7.71094 22.108 8.77963 21.045 8.77963 19.7384Z" fill="#695DFD"/>
<path d="M5.67804 8.36103L8.7538 10.9285C9.18242 11.2858 9.72592 11.4824 10.2842 11.4824C10.9907 11.4824 11.6561 11.174 12.11 10.636C12.5191 10.1512 12.7137 9.53683 12.6582 8.90651C12.6029 8.27594 12.3038 7.70478 11.8163 7.29778L8.74052 4.73034C8.31203 4.37303 7.7684 4.17615 7.2101 4.17615C6.50353 4.17615 5.83811 4.48482 5.38429 5.02281C4.54012 6.02368 4.67181 7.52134 5.67804 8.36103Z" fill="#695DFD"/>
<path d="M10.2841 27.9944C9.72556 27.9944 9.18206 28.1913 8.75383 28.5488L5.67807 31.116C4.67183 31.9557 4.54012 33.4534 5.38429 34.4543C5.83811 34.9923 6.50353 35.3009 7.20997 35.3009C7.76866 35.3009 8.31229 35.104 8.74052 34.7462L11.8163 32.1793C12.3038 31.7726 12.6029 31.2011 12.6582 30.5703C12.7137 29.94 12.5191 29.3259 12.11 28.8411C11.6562 28.3031 10.9908 27.9944 10.2841 27.9944Z" fill="#695DFD"/>
<rect x="17" y="40" width="31" height="1" fill="#101044"/>
<rect x="116" y="40" width="31" height="1" fill="#101044"/>
<path d="M56.2334 37.62C56.7401 37.62 57.1834 37.7333 57.5634 37.96C57.9434 38.1867 58.2368 38.5067 58.4434 38.92C58.6568 39.3267 58.7634 39.8033 58.7634 40.35C58.7634 40.8833 58.6601 41.3533 58.4534 41.76C58.2468 42.16 57.9534 42.4767 57.5734 42.71C57.2001 42.9367 56.7601 43.05 56.2534 43.05C55.7801 43.05 55.3734 42.9433 55.0334 42.73C54.6934 42.51 54.4334 42.1967 54.2534 41.79C54.0734 41.3833 53.9834 40.9033 53.9834 40.35C53.9834 39.7767 54.0701 39.2867 54.2434 38.88C54.4234 38.4733 54.6834 38.1633 55.0234 37.95C55.3634 37.73 55.7668 37.62 56.2334 37.62ZM55.9434 38.65C55.6501 38.65 55.3868 38.7233 55.1534 38.87C54.9268 39.01 54.7501 39.2067 54.6234 39.46C54.4968 39.7067 54.4334 39.9933 54.4334 40.32C54.4334 40.6467 54.4968 40.9367 54.6234 41.19C54.7501 41.4433 54.9268 41.64 55.1534 41.78C55.3868 41.92 55.6501 41.99 55.9434 41.99C56.2434 41.99 56.5034 41.92 56.7234 41.78C56.9501 41.6333 57.1268 41.4367 57.2534 41.19C57.3801 40.9367 57.4434 40.6467 57.4434 40.32C57.4434 39.9933 57.3801 39.7067 57.2534 39.46C57.1268 39.2067 56.9501 39.01 56.7234 38.87C56.5034 38.7233 56.2434 38.65 55.9434 38.65ZM53.1334 35.58H54.4334V43H53.1334V35.58ZM61.9945 43.7C61.8212 44.1267 61.5812 44.45 61.2745 44.67C60.9679 44.89 60.6012 45 60.1745 45C59.9145 45 59.6779 44.96 59.4645 44.88C59.2579 44.8 59.0512 44.6833 58.8445 44.53L59.4045 43.59C59.6445 43.77 59.8745 43.86 60.0945 43.86C60.2679 43.86 60.4179 43.8133 60.5445 43.72C60.6779 43.6267 60.7879 43.4833 60.8745 43.29L61.0345 42.92L58.8245 37.67H60.1745L61.6945 41.63L63.0845 37.67H64.3945L61.9945 43.7ZM71.5193 39.29C71.3526 39.1033 71.1493 38.96 70.9093 38.86C70.676 38.7533 70.4126 38.7 70.1193 38.7C69.8326 38.7 69.5793 38.77 69.3593 38.91C69.1393 39.0433 68.966 39.2333 68.8393 39.48C68.7193 39.7267 68.6593 40.0133 68.6593 40.34C68.6593 40.6667 68.7193 40.9533 68.8393 41.2C68.966 41.4467 69.1393 41.64 69.3593 41.78C69.5793 41.92 69.8326 41.99 70.1193 41.99C70.426 41.99 70.7026 41.9367 70.9493 41.83C71.196 41.7233 71.3993 41.5633 71.5593 41.35L72.3693 42.01C72.136 42.3367 71.8226 42.5933 71.4293 42.78C71.036 42.96 70.5793 43.05 70.0593 43.05C69.526 43.05 69.056 42.9367 68.6493 42.71C68.2426 42.4767 67.9226 42.16 67.6893 41.76C67.4626 41.3533 67.3493 40.88 67.3493 40.34C67.3493 39.8 67.4626 39.3267 67.6893 38.92C67.9226 38.5133 68.2426 38.1967 68.6493 37.97C69.056 37.7367 69.526 37.62 70.0593 37.62C70.5593 37.62 70.9993 37.7033 71.3793 37.87C71.7593 38.03 72.0726 38.2567 72.3193 38.55L71.5193 39.29ZM75.0885 40.65C74.7485 40.65 74.4952 40.7033 74.3285 40.81C74.1618 40.9167 74.0785 41.0933 74.0785 41.34C74.0785 41.5667 74.1618 41.75 74.3285 41.89C74.5018 42.03 74.7352 42.1 75.0285 42.1C75.2885 42.1 75.5218 42.0567 75.7285 41.97C75.9418 41.8767 76.1085 41.7533 76.2285 41.6C76.3552 41.44 76.4285 41.2633 76.4485 41.07L76.6685 42C76.5085 42.3467 76.2618 42.61 75.9285 42.79C75.5952 42.97 75.1918 43.06 74.7185 43.06C74.3385 43.06 74.0085 42.9867 73.7285 42.84C73.4485 42.6933 73.2318 42.4967 73.0785 42.25C72.9252 41.9967 72.8485 41.7133 72.8485 41.4C72.8485 40.9067 73.0252 40.52 73.3785 40.24C73.7318 39.9533 74.2318 39.8067 74.8785 39.8H76.5885V40.65H75.0885ZM76.4385 39.64C76.4385 39.32 76.3352 39.07 76.1285 38.89C75.9285 38.7033 75.6285 38.61 75.2285 38.61C74.9818 38.61 74.7218 38.6567 74.4485 38.75C74.1818 38.8367 73.9118 38.9633 73.6385 39.13L73.1685 38.29C73.4218 38.1367 73.6652 38.0133 73.8985 37.92C74.1318 37.82 74.3752 37.7467 74.6285 37.7C74.8885 37.6467 75.1852 37.62 75.5185 37.62C76.2185 37.62 76.7585 37.7867 77.1385 38.12C77.5185 38.4533 77.7118 38.9133 77.7185 39.5L77.7285 43H76.4485L76.4385 39.64ZM82.307 38.8C81.9336 38.7733 81.6103 38.83 81.337 38.97C81.0636 39.1033 80.8536 39.2967 80.707 39.55C80.5603 39.8033 80.487 40.0933 80.487 40.42L80.137 40.38C80.137 39.7867 80.2236 39.2867 80.397 38.88C80.5703 38.4667 80.8203 38.1533 81.147 37.94C81.4736 37.7267 81.8603 37.62 82.307 37.62V38.8ZM79.187 37.67H80.487V43H79.187V37.67ZM86.3902 39.06C86.1302 38.9067 85.8602 38.79 85.5802 38.71C85.3002 38.6233 85.0468 38.58 84.8202 38.58C84.6068 38.58 84.4335 38.62 84.3002 38.7C84.1668 38.7733 84.1002 38.9 84.1002 39.08C84.1002 39.2333 84.1668 39.3567 84.3002 39.45C84.4402 39.5433 84.6168 39.6233 84.8302 39.69C85.0435 39.75 85.2702 39.8167 85.5102 39.89C85.7502 39.9633 85.9768 40.06 86.1902 40.18C86.4102 40.3 86.5868 40.46 86.7202 40.66C86.8602 40.86 86.9302 41.1233 86.9302 41.45C86.9302 41.81 86.8335 42.11 86.6402 42.35C86.4468 42.5833 86.1902 42.76 85.8702 42.88C85.5502 42.9933 85.2002 43.05 84.8202 43.05C84.4202 43.05 84.0202 42.9867 83.6202 42.86C83.2268 42.7333 82.8902 42.5467 82.6102 42.3L83.0602 41.43C83.3068 41.6433 83.5968 41.81 83.9302 41.93C84.2702 42.0433 84.5835 42.1 84.8702 42.1C85.0235 42.1 85.1602 42.08 85.2802 42.04C85.4002 42 85.4935 41.9433 85.5602 41.87C85.6268 41.79 85.6602 41.6867 85.6602 41.56C85.6602 41.3867 85.5935 41.2533 85.4602 41.16C85.3268 41.06 85.1535 40.9767 84.9402 40.91C84.7335 40.8367 84.5102 40.7667 84.2702 40.7C84.0302 40.6267 83.8035 40.5333 83.5902 40.42C83.3835 40.3 83.2135 40.1433 83.0802 39.95C82.9468 39.7567 82.8802 39.5 82.8802 39.18C82.8802 38.82 82.9735 38.5233 83.1602 38.29C83.3468 38.0567 83.5935 37.8867 83.9002 37.78C84.2068 37.6667 84.5402 37.61 84.9002 37.61C85.2468 37.61 85.5935 37.66 85.9402 37.76C86.2868 37.8533 86.5935 37.9867 86.8602 38.16L86.3902 39.06ZM91.8644 40.02C91.8644 39.6267 91.761 39.32 91.5544 39.1C91.3544 38.88 91.071 38.77 90.7044 38.77C90.2844 38.7767 89.951 38.9333 89.7044 39.24C89.4644 39.54 89.3444 39.9167 89.3444 40.37H88.9944C88.9944 39.7233 89.0844 39.2 89.2644 38.8C89.4444 38.3933 89.701 38.0967 90.0344 37.91C90.3744 37.7167 90.771 37.62 91.2244 37.62C91.631 37.62 91.9777 37.7033 92.2644 37.87C92.5577 38.0367 92.781 38.2733 92.9344 38.58C93.0944 38.88 93.1744 39.2433 93.1744 39.67V43H91.8644V40.02ZM95.6944 40.02C95.6944 39.6267 95.591 39.32 95.3844 39.1C95.1777 38.88 94.891 38.77 94.5244 38.77C94.1044 38.7767 93.7744 38.9333 93.5344 39.24C93.2944 39.54 93.1744 39.9167 93.1744 40.37H92.8244C92.8244 39.7233 92.9144 39.2 93.0944 38.8C93.2744 38.3933 93.531 38.0967 93.8644 37.91C94.1977 37.7167 94.5944 37.62 95.0544 37.62C95.4544 37.62 95.7977 37.7033 96.0844 37.87C96.3777 38.0367 96.6044 38.2733 96.7644 38.58C96.9244 38.88 97.0044 39.2433 97.0044 39.67V43H95.6944V40.02ZM88.0444 37.67H89.3444V43H88.0444V37.67ZM100.255 40.65C99.9145 40.65 99.6612 40.7033 99.4945 40.81C99.3279 40.9167 99.2445 41.0933 99.2445 41.34C99.2445 41.5667 99.3279 41.75 99.4945 41.89C99.6679 42.03 99.9012 42.1 100.195 42.1C100.455 42.1 100.688 42.0567 100.895 41.97C101.108 41.8767 101.275 41.7533 101.395 41.6C101.521 41.44 101.595 41.2633 101.615 41.07L101.835 42C101.675 42.3467 101.428 42.61 101.095 42.79C100.761 42.97 100.358 43.06 99.8845 43.06C99.5045 43.06 99.1745 42.9867 98.8945 42.84C98.6145 42.6933 98.3979 42.4967 98.2445 42.25C98.0912 41.9967 98.0145 41.7133 98.0145 41.4C98.0145 40.9067 98.1912 40.52 98.5445 40.24C98.8979 39.9533 99.3979 39.8067 100.045 39.8H101.755V40.65H100.255ZM101.605 39.64C101.605 39.32 101.501 39.07 101.295 38.89C101.095 38.7033 100.795 38.61 100.395 38.61C100.148 38.61 99.8879 38.6567 99.6145 38.75C99.3479 38.8367 99.0779 38.9633 98.8045 39.13L98.3345 38.29C98.5879 38.1367 98.8312 38.0133 99.0645 37.92C99.2979 37.82 99.5412 37.7467 99.7945 37.7C100.055 37.6467 100.351 37.62 100.685 37.62C101.385 37.62 101.925 37.7867 102.305 38.12C102.685 38.4533 102.878 38.9133 102.885 39.5L102.895 43H101.615L101.605 39.64ZM107.473 38.8C107.1 38.7733 106.776 38.83 106.503 38.97C106.23 39.1033 106.02 39.2967 105.873 39.55C105.726 39.8033 105.653 40.0933 105.653 40.42L105.303 40.38C105.303 39.7867 105.39 39.2867 105.563 38.88C105.736 38.4667 105.986 38.1533 106.313 37.94C106.64 37.7267 107.026 37.62 107.473 37.62V38.8ZM104.353 37.67H105.653V43H104.353V37.67ZM109.896 41.26C109.896 41.5267 109.946 41.71 110.046 41.81C110.146 41.91 110.283 41.96 110.456 41.96C110.563 41.96 110.68 41.9433 110.806 41.91C110.933 41.87 111.07 41.81 111.216 41.73L111.516 42.67C111.316 42.79 111.1 42.8867 110.866 42.96C110.64 43.0267 110.41 43.06 110.176 43.06C109.89 43.06 109.626 43.0067 109.386 42.9C109.146 42.7867 108.956 42.6133 108.816 42.38C108.676 42.14 108.606 41.84 108.606 41.48V36.41H109.896V41.26ZM107.856 37.87H111.426V38.78H107.856V37.87Z" fill="#101044"/>
</svg>
