<svg width="24" height="25" viewBox="0 0 24 25" fill="none" xmlns="http://www.w3.org/2000/svg">
<g clip-path="url(#clip0_4_27343)">
<path d="M4 12.8164C4 13.0816 4.10536 13.336 4.29289 13.5235C4.48043 13.711 4.73478 13.8164 5 13.8164C5.26522 13.8164 5.51957 13.711 5.70711 13.5235C5.89464 13.336 6 13.0816 6 12.8164C6 12.5512 5.89464 12.2968 5.70711 12.1093C5.51957 11.9218 5.26522 11.8164 5 11.8164C4.73478 11.8164 4.48043 11.9218 4.29289 12.1093C4.10536 12.2968 4 12.5512 4 12.8164Z" stroke="white" stroke-width="2" stroke-linecap="round" stroke-linejoin="round"/>
<path d="M11 12.8164C11 13.0816 11.1054 13.336 11.2929 13.5235C11.4804 13.711 11.7348 13.8164 12 13.8164C12.2652 13.8164 12.5196 13.711 12.7071 13.5235C12.8946 13.336 13 13.0816 13 12.8164C13 12.5512 12.8946 12.2968 12.7071 12.1093C12.5196 11.9218 12.2652 11.8164 12 11.8164C11.7348 11.8164 11.4804 11.9218 11.2929 12.1093C11.1054 12.2968 11 12.5512 11 12.8164Z" stroke="white" stroke-width="2" stroke-linecap="round" stroke-linejoin="round"/>
<path d="M18 12.8164C18 13.0816 18.1054 13.336 18.2929 13.5235C18.4804 13.711 18.7348 13.8164 19 13.8164C19.2652 13.8164 19.5196 13.711 19.7071 13.5235C19.8946 13.336 20 13.0816 20 12.8164C20 12.5512 19.8946 12.2968 19.7071 12.1093C19.5196 11.9218 19.2652 11.8164 19 11.8164C18.7348 11.8164 18.4804 11.9218 18.2929 12.1093C18.1054 12.2968 18 12.5512 18 12.8164Z" stroke="white" stroke-width="2" stroke-linecap="round" stroke-linejoin="round"/>
</g>
<defs>
<clipPath id="clip0_4_27343">
<rect width="24" height="24" fill="white" transform="translate(0 0.816406)"/>
</clipPath>
</defs>
</svg>
