<svg width="24" height="25" viewBox="0 0 24 25" fill="none" xmlns="http://www.w3.org/2000/svg">
<g clip-path="url(#clip0_7_19681)">
<path d="M3 12.7412C3 13.9231 3.23279 15.0934 3.68508 16.1854C4.13738 17.2773 4.80031 18.2694 5.63604 19.1052C6.47177 19.9409 7.46392 20.6038 8.55585 21.0561C9.64778 21.5084 10.8181 21.7412 12 21.7412C13.1819 21.7412 14.3522 21.5084 15.4442 21.0561C16.5361 20.6038 17.5282 19.9409 18.364 19.1052C19.1997 18.2694 19.8626 17.2773 20.3149 16.1854C20.7672 15.0934 21 13.9231 21 12.7412C21 10.3543 20.0518 8.06508 18.364 6.37725C16.6761 4.68942 14.3869 3.74121 12 3.74121C9.61305 3.74121 7.32387 4.68942 5.63604 6.37725C3.94821 8.06508 3 10.3543 3 12.7412Z" stroke="#F22323" stroke-width="1.5" stroke-linecap="round" stroke-linejoin="round"/>
<path d="M12 8.74121V12.7412" stroke="#F22323" stroke-width="1.5" stroke-linecap="round" stroke-linejoin="round"/>
<path d="M12 16.7412H12.01" stroke="#F22323" stroke-width="1.5" stroke-linecap="round" stroke-linejoin="round"/>
</g>
<defs>
<clipPath id="clip0_7_19681">
<rect width="24" height="24" fill="white" transform="translate(0 0.741211)"/>
</clipPath>
</defs>
</svg>
