<svg width="35" height="35" viewBox="0 0 35 35" fill="none" xmlns="http://www.w3.org/2000/svg">
<g opacity="0.8" filter="url(#filter0_b_537_10373)">
<circle cx="17.5" cy="17.5" r="17.5" fill="#1F204F"/>
</g>
<path d="M9.35566 10.6982C9.57749 10.439 9.54196 10.0433 9.27646 9.816L8.46491 9.12121C8.19941 8.89391 7.80291 8.9198 7.58109 9.17891C7.35926 9.43802 7.39479 9.83377 7.66028 10.0611L8.47184 10.7559C8.73734 10.9832 9.13383 10.9573 9.35566 10.6982Z" fill="white"/>
<path d="M10.722 7.80905L10.9078 8.85046C10.9337 8.99549 11.0102 9.12854 11.1231 9.22514C11.2658 9.34739 11.4527 9.40137 11.6358 9.37323C11.8008 9.34785 11.9445 9.2597 12.0402 9.12508C12.1361 8.99046 12.1727 8.82544 12.1432 8.66036L11.9574 7.61895C11.9315 7.47394 11.855 7.34082 11.7422 7.24421C11.5994 7.12195 11.4125 7.06802 11.2294 7.09618C10.8888 7.1486 10.6612 7.4684 10.722 7.80905Z" fill="white"/>
<path d="M8.37232 12.4168C8.25942 12.3201 8.11614 12.2651 7.96887 12.2619L6.91132 12.2388C6.56537 12.2312 6.28446 12.5054 6.28516 12.85C6.28554 13.0352 6.36763 13.2116 6.51042 13.3338C6.62334 13.4305 6.76665 13.4855 6.91396 13.4887L7.97147 13.5118C8.13908 13.5156 8.29654 13.454 8.41482 13.3384C8.53307 13.2231 8.59799 13.0676 8.59763 12.9006C8.59725 12.7154 8.51516 12.5391 8.37232 12.4168Z" fill="white"/>
<path d="M23.7537 17.969L17.5069 24L11.2602 17.969C10.8481 17.5782 10.5236 17.1084 10.307 16.5893C10.0903 16.0702 9.98631 15.5129 10.0014 14.9527C10.0166 14.3925 10.1506 13.8414 10.3949 13.3341C10.6393 12.8268 10.9888 12.3743 11.4213 12.0051C11.8539 11.636 12.3602 11.3581 12.9083 11.1891C13.4565 11.02 14.0346 10.9635 14.6063 11.0229C15.1779 11.0824 15.7308 11.2565 16.23 11.5345C16.7292 11.8125 17.164 12.1882 17.5069 12.638C17.8514 12.1914 18.2867 11.819 18.7855 11.544C19.2844 11.269 19.8361 11.0973 20.4062 11.0397C20.9763 10.9821 21.5524 11.0399 22.0985 11.2093C22.6447 11.3788 23.149 11.6563 23.5801 12.0245C24.0111 12.3927 24.3596 12.8436 24.6036 13.3491C24.8476 13.8546 24.982 14.4038 24.9983 14.9623C25.0146 15.5207 24.9125 16.0765 24.6983 16.5947C24.4842 17.1129 24.1626 17.5824 23.7537 17.9739" fill="#675DF4"/>
<path d="M23.7537 17.969L17.5069 24L11.2602 17.969C10.8481 17.5782 10.5236 17.1084 10.307 16.5893C10.0903 16.0702 9.98631 15.5129 10.0014 14.9527C10.0166 14.3925 10.1506 13.8414 10.3949 13.3341C10.6393 12.8268 10.9888 12.3743 11.4213 12.0051C11.8539 11.636 12.3602 11.3581 12.9083 11.1891C13.4565 11.02 14.0346 10.9635 14.6063 11.0229C15.1779 11.0824 15.7308 11.2565 16.23 11.5345C16.7292 11.8125 17.164 12.1882 17.5069 12.638C17.8514 12.1914 18.2867 11.819 18.7855 11.544C19.2844 11.269 19.8361 11.0973 20.4062 11.0397C20.9763 10.9821 21.5524 11.0399 22.0985 11.2093C22.6447 11.3788 23.149 11.6563 23.5801 12.0245C24.0111 12.3927 24.3596 12.8436 24.6036 13.3491C24.8476 13.8546 24.982 14.4038 24.9983 14.9623C25.0146 15.5207 24.9125 16.0765 24.6983 16.5947C24.4842 17.1129 24.1626 17.5824 23.7537 17.9739" stroke="white" stroke-width="1.2" stroke-linecap="round" stroke-linejoin="round"/>
<defs>
<filter id="filter0_b_537_10373" x="-24" y="-24" width="83" height="83" filterUnits="userSpaceOnUse" color-interpolation-filters="sRGB">
<feFlood flood-opacity="0" result="BackgroundImageFix"/>
<feGaussianBlur in="BackgroundImageFix" stdDeviation="12"/>
<feComposite in2="SourceAlpha" operator="in" result="effect1_backgroundBlur_537_10373"/>
<feBlend mode="normal" in="SourceGraphic" in2="effect1_backgroundBlur_537_10373" result="shape"/>
</filter>
</defs>
</svg>
