<svg width="47" height="48" viewBox="0 0 47 48" fill="none" xmlns="http://www.w3.org/2000/svg">
<circle cx="23.5" cy="23.9824" r="23.5" fill="#675DF4"/>
<path fill-rule="evenodd" clip-rule="evenodd" d="M35.9603 33.203C37.8704 30.6263 39 27.4363 39 23.9824C39 15.4219 32.0603 8.48242 23.5 8.48242C14.9395 8.48242 8 15.4219 8 23.9824C8 32.5427 14.9395 39.4824 23.5 39.4824C27.9913 39.4824 32.0362 37.5722 34.8673 34.5199C35.2554 34.1012 35.6202 33.6616 35.9603 33.203ZM35.1008 31.7324C36.5845 29.5157 37.4498 26.8501 37.4498 23.9824C37.4498 16.278 31.2043 10.0324 23.4998 10.0324C15.7956 10.0324 9.54997 16.278 9.54997 23.9824C9.54997 26.8503 10.4152 29.5157 11.8991 31.7324C13.7712 28.9358 16.6277 26.8537 19.973 25.9822C18.3578 24.8629 17.3 22.9963 17.3 20.8823C17.3 17.4582 20.0759 14.6823 23.5 14.6823C26.9241 14.6823 29.7 17.4582 29.7 20.8823C29.7 22.9961 28.6421 24.8629 27.027 25.982C30.3721 26.8537 33.2288 28.9356 35.1008 31.7324ZM34.1024 33.0486C31.9272 29.4716 27.9927 27.0824 23.5002 27.0824C19.0074 27.0824 15.0728 29.4716 12.8975 33.0488C15.4561 36.0379 19.2567 37.9324 23.5 37.9324C27.7433 37.9324 31.5439 36.0379 34.1024 33.0486ZM23.5 25.5324C26.0682 25.5324 28.15 23.4507 28.15 20.8823C28.15 18.3141 26.0683 16.2323 23.5 16.2323C20.9317 16.2323 18.8499 18.3143 18.8499 20.8825C18.8499 23.4507 20.9318 25.5324 23.5 25.5324Z" fill="white" stroke="white" stroke-width="0.3"/>
</svg>
