<svg width="251" height="43" viewBox="0 0 251 43" fill="none" xmlns="http://www.w3.org/2000/svg">
<g clip-path="url(#clip0_4_15695)">
<g clip-path="url(#clip1_4_15695)">
<g clip-path="url(#clip2_4_15695)">
<path d="M66.0046 7.77073C65.9292 7.59135 65.7536 7.47461 65.559 7.47461H58.572C58.3792 7.47461 58.2047 7.58959 58.1286 7.76698L46.3326 35.2384C46.1959 35.5571 46.4294 35.9118 46.7764 35.9118H53.3396C53.5387 35.9118 53.7171 35.7898 53.7897 35.6044L55.5432 31.1077C55.6154 30.9223 55.7942 30.8002 55.993 30.8002H67.6101C67.8103 30.8002 67.9898 30.9237 68.061 31.1107L69.7776 35.6012C69.8492 35.7881 70.0283 35.9118 70.2288 35.9118H77.0808C77.4258 35.9118 77.6596 35.5602 77.526 35.2419L66.0046 7.77073ZM65.1008 25.2019H58.5528C58.2131 25.2019 57.9796 24.8602 58.103 24.5436L61.4098 16.0638C61.5704 15.6524 62.153 15.6543 62.3107 16.0668L65.552 24.5466C65.673 24.8628 65.4395 25.2019 65.1008 25.2019Z" fill="white"/>
<path d="M99.1839 27.0332C99.0377 26.804 99.1047 26.4937 99.3399 26.3577C99.9089 26.0289 100.433 25.6514 100.908 25.2225C102.963 23.3701 103.991 20.7808 103.991 17.4544C103.991 14.2898 102.963 11.8355 100.908 10.0914C98.8526 8.34662 95.9318 7.47461 92.1461 7.47461H79.8499C79.5831 7.47461 79.3672 7.6908 79.3672 7.95747V35.4288C79.3672 35.6956 79.5831 35.9119 79.8499 35.9119H86.3083C86.5747 35.9119 86.791 35.6956 86.791 35.4288V28.484C86.791 28.2172 87.0073 28.001 87.274 28.001H92.1458C92.1906 28.001 92.2334 27.9992 92.2779 27.999L96.31 35.6539C96.3935 35.8123 96.5579 35.9119 96.737 35.9119H103.963C104.344 35.9119 104.575 35.4909 104.37 35.1693L99.1839 27.0332ZM95.6752 21.0241C94.8366 21.7816 93.6602 22.1601 92.1458 22.1601H87.274C87.0073 22.1601 86.791 21.9439 86.791 21.6772V13.7992C86.791 13.5326 87.0073 13.3164 87.274 13.3164H92.1458C93.6602 13.3164 94.8366 13.6817 95.6752 14.4119C96.513 15.142 96.9326 16.2238 96.9326 17.6566C96.9326 19.1444 96.513 20.2672 95.6752 21.0241Z" fill="white"/>
<path d="M127.208 21.3278C126.315 20.6923 125.342 20.1712 124.286 19.7654C123.232 19.3602 122.163 19.0086 121.082 18.711C119.999 18.4135 119.013 18.1166 118.12 17.8184C117.228 17.5209 116.518 17.1493 115.991 16.703C115.463 16.2567 115.2 15.6822 115.2 14.9787C115.2 14.2761 115.47 13.7557 116.011 13.4171C116.552 13.0791 117.268 12.9097 118.161 12.9097C118.945 12.9097 119.858 13.0386 120.899 13.295C121.94 13.5528 123.022 13.9038 124.144 14.3501C125.099 14.7297 126.009 15.1728 126.876 15.6793C127.121 15.8226 127.435 15.7314 127.557 15.4753L129.939 10.5059C130.046 10.2816 129.97 10.0091 129.757 9.88127C128.353 9.03926 126.732 8.34512 124.895 7.79888C122.893 7.2038 120.852 6.90625 118.77 6.90625C116.498 6.90625 114.503 7.2648 112.786 7.9812C111.068 8.69764 109.744 9.71223 108.811 11.0238C107.877 12.3359 107.411 13.8702 107.411 15.628C107.411 17.0882 107.675 18.3051 108.202 19.2786C108.73 20.2521 109.439 21.0432 110.332 21.652C111.224 22.2601 112.204 22.7613 113.273 23.1528C114.341 23.5456 115.409 23.8828 116.478 24.1673C117.546 24.4512 118.526 24.7419 119.419 25.0394C120.306 25.3354 121.02 25.7047 121.56 26.1479C122.07 26.5656 122.369 27.1709 122.379 27.8297C122.393 28.6651 122.075 29.2972 121.427 29.7246C120.791 30.1442 119.919 30.3532 118.81 30.3532C117.837 30.3532 116.727 30.1709 115.484 29.8062C114.239 29.4408 113.009 28.9334 111.792 28.2849C110.766 27.7376 109.827 27.1138 108.974 26.4127C108.732 26.2139 108.37 26.2827 108.229 26.5624L105.803 31.3825C105.7 31.5866 105.751 31.8375 105.929 31.9799C106.988 32.8229 108.165 33.558 109.46 34.1869C110.88 34.8766 112.38 35.4039 113.962 35.7692C115.545 36.1338 117.133 36.3171 118.729 36.3171C120.839 36.3171 122.758 35.9852 124.489 35.323C126.22 34.6606 127.599 33.6734 128.627 32.3613C129.655 31.0498 130.168 29.4347 130.168 27.5137C130.168 26.0267 129.899 24.7824 129.358 23.7814C128.816 22.7812 128.1 21.9633 127.208 21.3278Z" fill="white"/>
<path d="M165.038 7.47464H157.749C157.565 7.47464 157.396 7.57971 157.315 7.74535L149.253 24.2284L141.151 7.7445C141.07 7.57929 140.902 7.47461 140.718 7.47461H133.428C133.162 7.47461 132.945 7.6908 132.945 7.95747V35.4288C132.945 35.6956 133.162 35.9119 133.428 35.9119H139.075C139.342 35.9119 139.558 35.6956 139.558 35.4288V19.84C139.558 19.3251 140.257 19.1678 140.477 19.6329L146.729 32.7964C146.809 32.9648 146.979 33.0721 147.165 33.0721H151.341C151.527 33.0721 151.698 32.9644 151.777 32.7954L157.993 19.6345C158.213 19.169 158.912 19.3248 158.913 19.8397L158.948 35.4299C158.948 35.6963 159.164 35.9119 159.43 35.9119H165.038C165.304 35.9119 165.521 35.6956 165.521 35.4288V7.95754C165.521 7.69087 165.304 7.47464 165.038 7.47464Z" fill="white"/>
<path d="M187.036 7.77073C186.961 7.59135 186.786 7.47461 186.591 7.47461H179.603C179.41 7.47461 179.236 7.58959 179.16 7.76698L167.364 35.2384C167.227 35.5571 167.461 35.9118 167.807 35.9118H174.372C174.57 35.9118 174.749 35.7898 174.821 35.6044L176.575 31.1077C176.648 30.9223 176.826 30.8002 177.025 30.8002H188.642C188.842 30.8002 189.022 30.9237 189.093 31.1107L190.809 35.6012C190.881 35.7881 191.06 35.9118 191.261 35.9118H198.112C198.457 35.9118 198.691 35.5602 198.557 35.2419L187.036 7.77073ZM186.133 25.2019H179.585C179.245 25.2019 179.011 24.8602 179.135 24.5436L182.442 16.0638C182.602 15.6524 183.185 15.6543 183.343 16.0668L186.584 24.5466C186.705 24.8628 186.471 25.2019 186.133 25.2019Z" fill="white"/>
<path d="M220.211 27.0332C220.065 26.804 220.132 26.4937 220.368 26.3577C220.937 26.0289 221.46 25.6514 221.936 25.2225C223.99 23.3701 225.019 20.7808 225.019 17.4544C225.019 14.2898 223.99 11.8355 221.936 10.0914C219.88 8.34662 216.959 7.47461 213.173 7.47461H200.878C200.611 7.47461 200.395 7.6908 200.395 7.95747V35.4288C200.395 35.6956 200.611 35.9119 200.878 35.9119H207.336C207.602 35.9119 207.819 35.6956 207.819 35.4288V28.484C207.819 28.2172 208.035 28.001 208.301 28.001H213.173C213.218 28.001 213.261 27.9992 213.305 27.999L217.337 35.6539C217.421 35.8123 217.586 35.9119 217.765 35.9119H224.99C225.371 35.9119 225.603 35.4909 225.397 35.1693L220.211 27.0332ZM216.703 21.0241C215.864 21.7816 214.688 22.1601 213.173 22.1601H208.301C208.035 22.1601 207.819 21.9439 207.819 21.6772V13.7992C207.819 13.5326 208.035 13.3164 208.301 13.3164H213.173C214.688 13.3164 215.864 13.6817 216.703 14.4119C217.541 15.142 217.96 16.2238 217.96 17.6566C217.96 19.1444 217.541 20.2672 216.703 21.0241Z" fill="white"/>
<path d="M250.674 12.9959V7.95747C250.674 7.6908 250.458 7.47461 250.191 7.47461H226.776C226.509 7.47461 226.293 7.6908 226.293 7.95747V12.9959C226.293 13.2626 226.509 13.4788 226.776 13.4788H234.248C234.515 13.4788 234.731 13.695 234.731 13.9616V35.4288C234.731 35.6956 234.947 35.9119 235.214 35.9119H241.672C241.939 35.9119 242.155 35.6956 242.155 35.4288V13.9616C242.155 13.695 242.371 13.4788 242.638 13.4788H250.191C250.458 13.4788 250.674 13.2626 250.674 12.9959Z" fill="white"/>
<path d="M47.5228 25.5215C47.5491 25.4353 47.5705 25.3467 47.5922 25.2582H44.5522C44.3797 25.2582 44.1858 25.2558 43.9871 25.2558C43.3624 25.2558 42.697 25.2606 42.5316 25.2773C41.6054 25.3731 40.8201 25.6651 40.1285 26.1702C39.779 26.4239 39.5083 26.7447 39.2475 27.0559C39.1301 27.1971 39.0081 27.3408 38.8812 27.4772C38.0097 28.406 36.8083 29.464 34.9339 29.9189C34.5198 30.0194 34.0721 30.0912 33.5886 30.1248C32.3606 30.2108 31.2379 30.0648 30.2062 29.6771C30.0698 29.6268 29.9357 29.5742 29.8017 29.5143C28.8489 29.0882 27.9728 28.4514 27.1685 27.5921C26.4264 26.8021 25.8591 25.9403 25.4689 25.0116C25.4545 24.9804 25.4402 24.947 25.4282 24.9134C25.0284 23.8818 24.825 22.7806 24.8178 21.6053V21.5526C24.8178 21.5311 24.8178 21.5119 24.8202 21.4904C24.825 21.2701 24.8393 21.0451 24.8585 20.8201C24.9854 19.391 25.3564 18.4694 25.7035 17.7561C27.0488 14.996 29.4306 13.3012 32.2409 13.1025C32.4133 13.0906 32.5808 13.0834 32.7484 13.081C33.5072 13.069 34.2373 13.1528 34.9339 13.33C35.8198 13.5526 36.6478 13.9308 37.4187 14.4574C38.0265 14.8739 38.5247 15.3934 39.0056 15.8936C39.9441 16.8751 40.832 17.8016 42.4744 17.9499C42.6395 17.9666 43.3361 17.9666 43.9871 17.9619H47.6255C47.5992 17.8422 47.5684 17.7225 47.5347 17.6052C47.3623 16.9541 47.1397 16.3222 46.8739 15.7094C46.1009 13.9284 45.0142 12.3748 43.6162 11.0439C42.2157 9.71298 40.5881 8.68125 38.728 7.94876C36.8679 7.21627 34.8238 6.84766 32.5976 6.84766C30.3977 6.84766 28.363 7.21627 26.4887 7.94876C24.6143 8.68125 22.977 9.7058 21.5791 11.0224C20.1811 12.3414 19.0967 13.8949 18.3211 15.6854C17.5479 17.4784 17.1602 19.4222 17.1602 21.5143C17.1602 23.6304 17.548 25.5933 18.3211 27.3958C19.0967 29.2031 20.1811 30.7782 21.5791 32.1235C22.977 33.4664 24.6143 34.5149 26.4887 35.2594C28.363 36.0061 30.3977 36.3798 32.5976 36.3798C34.8238 36.3798 36.8679 36.0061 38.728 35.2594C40.5881 34.5149 42.2157 33.4664 43.6162 32.1235C45.0142 30.7782 46.1009 29.2031 46.8739 27.3958C47.1351 26.7878 47.3528 26.163 47.5228 25.5215Z" fill="white"/>
<path d="M11.9809 21.4892C11.9809 19.6966 10.5225 18.2383 8.73006 18.2383H3.25087C1.45836 18.2383 0 19.6967 0 21.4892C0 23.2816 1.45839 24.74 3.25087 24.74H8.73006C10.5226 24.74 11.9809 23.2816 11.9809 21.4892Z" fill="white"/>
<path d="M7.74968 5.88009L11.947 9.40246C12.5319 9.89269 13.2735 10.1625 14.0354 10.1625C14.9994 10.1625 15.9075 9.73935 16.527 9.00125C17.0852 8.33606 17.3508 7.49322 17.275 6.62846C17.1995 5.76335 16.7914 4.97975 16.1261 4.42138L11.9288 0.898998C11.3441 0.408777 10.6022 0.138672 9.84038 0.138672C8.87616 0.138672 7.96811 0.562147 7.34882 1.30025C6.19684 2.67339 6.37654 4.72808 7.74968 5.88009Z" fill="white"/>
<path d="M14.0353 32.8164C13.273 32.8164 12.5314 33.0865 11.947 33.5771L7.7497 37.0993C6.37656 38.2512 6.19683 40.3058 7.3488 41.679C7.9681 42.4172 8.87615 42.8407 9.84019 42.8407C10.6026 42.8407 11.3444 42.5704 11.9288 42.0796L16.1261 38.5579C16.7914 37.9998 17.1995 37.216 17.275 36.3505C17.3508 35.4856 17.0851 34.6432 16.527 33.978C15.9077 33.2399 14.9996 32.8164 14.0353 32.8164Z" fill="white"/>
</g>
</g>
</g>
<defs>
<clipPath id="clip0_4_15695">
<rect width="251" height="42.7704" fill="white" transform="translate(0 0.136719)"/>
</clipPath>
<clipPath id="clip1_4_15695">
<rect width="251" height="42.7704" fill="white" transform="translate(0 0.136719)"/>
</clipPath>
<clipPath id="clip2_4_15695">
<rect width="251" height="42.7682" fill="white" transform="translate(0 0.138672)"/>
</clipPath>
</defs>
</svg>
