<svg width="157" height="50" viewBox="0 0 157 50" fill="none" xmlns="http://www.w3.org/2000/svg">
<g clip-path="url(#clip0_4_15828)">
<path d="M152 0.0820312H5C2.23858 0.0820312 0 2.32061 0 5.08203V44.082C0 46.8435 2.23858 49.082 5 49.082H152C154.761 49.082 157 46.8435 157 44.082V5.08203C157 2.32061 154.761 0.0820312 152 0.0820312Z" fill="black"/>
<path d="M152 0.582031H5C2.51472 0.582031 0.5 2.59675 0.5 5.08203V44.082C0.5 46.5673 2.51472 48.582 5 48.582H152C154.485 48.582 156.5 46.5673 156.5 44.082V5.08203C156.5 2.59675 154.485 0.582031 152 0.582031Z" stroke="#00A7AC" stroke-opacity="0.2"/>
<path d="M56.8952 37.2233C56.1299 37.2233 55.4252 37.102 54.7812 36.8593C54.1465 36.6073 53.5912 36.2573 53.1152 35.8093C52.6392 35.352 52.2705 34.8153 52.0092 34.1993C51.7479 33.5833 51.6172 32.9113 51.6172 32.1833C51.6172 31.4553 51.7479 30.7833 52.0092 30.1673C52.2705 29.5513 52.6392 29.0193 53.1152 28.5713C53.6005 28.114 54.1652 27.764 54.8092 27.5213C55.4532 27.2693 56.1579 27.1433 56.9232 27.1433C57.7539 27.1433 58.5005 27.2786 59.1632 27.5493C59.8352 27.82 60.3999 28.2166 60.8572 28.7393L59.7092 29.8593C59.3265 29.4766 58.9112 29.1966 58.4632 29.0193C58.0245 28.8326 57.5392 28.7393 57.0072 28.7393C56.4939 28.7393 56.0179 28.8233 55.5792 28.9913C55.1405 29.1593 54.7625 29.3973 54.4452 29.7053C54.1279 30.0133 53.8805 30.3773 53.7032 30.7973C53.5352 31.2173 53.4512 31.6793 53.4512 32.1833C53.4512 32.678 53.5352 33.1353 53.7032 33.5553C53.8805 33.9753 54.1279 34.344 54.4452 34.6613C54.7625 34.9693 55.1359 35.2073 55.5652 35.3753C55.9945 35.5433 56.4705 35.6273 56.9932 35.6273C57.4785 35.6273 57.9452 35.5526 58.3932 35.4033C58.8505 35.2446 59.2845 34.9833 59.6952 34.6193L60.7312 35.9773C60.2179 36.388 59.6205 36.7006 58.9392 36.9153C58.2672 37.1206 57.5859 37.2233 56.8952 37.2233ZM59.0092 35.7393V32.0713H60.7312V35.9773L59.0092 35.7393ZM66.3237 37.1813C65.5583 37.1813 64.877 37.018 64.2797 36.6913C63.6823 36.3553 63.211 35.898 62.8657 35.3193C62.5203 34.7406 62.3477 34.0826 62.3477 33.3453C62.3477 32.5986 62.5203 31.9406 62.8657 31.3713C63.211 30.7926 63.6823 30.34 64.2797 30.0133C64.877 29.6866 65.5583 29.5233 66.3237 29.5233C67.0983 29.5233 67.7843 29.6866 68.3817 30.0133C68.9883 30.34 69.4597 30.788 69.7957 31.3573C70.141 31.9266 70.3137 32.5893 70.3137 33.3453C70.3137 34.0826 70.141 34.7406 69.7957 35.3193C69.4597 35.898 68.9883 36.3553 68.3817 36.6913C67.7843 37.018 67.0983 37.1813 66.3237 37.1813ZM66.3237 35.6833C66.753 35.6833 67.1357 35.59 67.4717 35.4033C67.8077 35.2166 68.069 34.946 68.2557 34.5913C68.4517 34.2366 68.5497 33.8213 68.5497 33.3453C68.5497 32.86 68.4517 32.4446 68.2557 32.0993C68.069 31.7446 67.8077 31.474 67.4717 31.2873C67.1357 31.1006 66.7577 31.0073 66.3377 31.0073C65.9083 31.0073 65.5257 31.1006 65.1897 31.2873C64.863 31.474 64.6017 31.7446 64.4057 32.0993C64.2097 32.4446 64.1117 32.86 64.1117 33.3453C64.1117 33.8213 64.2097 34.2366 64.4057 34.5913C64.6017 34.946 64.863 35.2166 65.1897 35.4033C65.5257 35.59 65.9037 35.6833 66.3237 35.6833ZM75.3471 37.1813C74.5818 37.1813 73.9004 37.018 73.3031 36.6913C72.7058 36.3553 72.2344 35.898 71.8891 35.3193C71.5438 34.7406 71.3711 34.0826 71.3711 33.3453C71.3711 32.5986 71.5438 31.9406 71.8891 31.3713C72.2344 30.7926 72.7058 30.34 73.3031 30.0133C73.9004 29.6866 74.5818 29.5233 75.3471 29.5233C76.1218 29.5233 76.8078 29.6866 77.4051 30.0133C78.0118 30.34 78.4831 30.788 78.8191 31.3573C79.1644 31.9266 79.3371 32.5893 79.3371 33.3453C79.3371 34.0826 79.1644 34.7406 78.8191 35.3193C78.4831 35.898 78.0118 36.3553 77.4051 36.6913C76.8078 37.018 76.1218 37.1813 75.3471 37.1813ZM75.3471 35.6833C75.7764 35.6833 76.1591 35.59 76.4951 35.4033C76.8311 35.2166 77.0924 34.946 77.2791 34.5913C77.4751 34.2366 77.5731 33.8213 77.5731 33.3453C77.5731 32.86 77.4751 32.4446 77.2791 32.0993C77.0924 31.7446 76.8311 31.474 76.4951 31.2873C76.1591 31.1006 75.7811 31.0073 75.3611 31.0073C74.9318 31.0073 74.5491 31.1006 74.2131 31.2873C73.8864 31.474 73.6251 31.7446 73.4291 32.0993C73.2331 32.4446 73.1351 32.86 73.1351 33.3453C73.1351 33.8213 73.2331 34.2366 73.4291 34.5913C73.6251 34.946 73.8864 35.2166 74.2131 35.4033C74.5491 35.59 74.9271 35.6833 75.3471 35.6833ZM84.3985 39.8973C83.7079 39.8973 83.0312 39.804 82.3685 39.6173C81.7152 39.44 81.1785 39.1786 80.7585 38.8333L81.5425 37.5173C81.8692 37.788 82.2799 38.0026 82.7745 38.1613C83.2785 38.3293 83.7872 38.4133 84.3005 38.4133C85.1219 38.4133 85.7239 38.222 86.1065 37.8393C86.4892 37.466 86.6805 36.9013 86.6805 36.1453V34.8153L86.8205 33.1213L86.7645 31.4273V29.6073H88.4305V35.9493C88.4305 37.3026 88.0852 38.2966 87.3945 38.9313C86.7039 39.5753 85.7052 39.8973 84.3985 39.8973ZM84.1745 36.7473C83.4652 36.7473 82.8212 36.598 82.2425 36.2993C81.6732 35.9913 81.2205 35.5666 80.8845 35.0253C80.5579 34.484 80.3945 33.8493 80.3945 33.1213C80.3945 32.4026 80.5579 31.7726 80.8845 31.2313C81.2205 30.69 81.6732 30.27 82.2425 29.9713C82.8212 29.6726 83.4652 29.5233 84.1745 29.5233C84.8092 29.5233 85.3785 29.6493 85.8825 29.9013C86.3865 30.1533 86.7879 30.5453 87.0865 31.0773C87.3945 31.6093 87.5485 32.2906 87.5485 33.1213C87.5485 33.952 87.3945 34.638 87.0865 35.1793C86.7879 35.7113 86.3865 36.108 85.8825 36.3693C85.3785 36.6213 84.8092 36.7473 84.1745 36.7473ZM84.4405 35.2633C84.8792 35.2633 85.2712 35.1746 85.6165 34.9973C85.9619 34.8106 86.2279 34.5586 86.4145 34.2413C86.6105 33.9146 86.7085 33.5413 86.7085 33.1213C86.7085 32.7013 86.6105 32.3326 86.4145 32.0153C86.2279 31.6886 85.9619 31.4413 85.6165 31.2733C85.2712 31.096 84.8792 31.0073 84.4405 31.0073C84.0019 31.0073 83.6052 31.096 83.2505 31.2733C82.9052 31.4413 82.6345 31.6886 82.4385 32.0153C82.2519 32.3326 82.1585 32.7013 82.1585 33.1213C82.1585 33.5413 82.2519 33.9146 82.4385 34.2413C82.6345 34.5586 82.9052 34.8106 83.2505 34.9973C83.6052 35.1746 84.0019 35.2633 84.4405 35.2633ZM90.7312 37.0833V26.6953H92.4812V37.0833H90.7312ZM98.2921 37.1813C97.4614 37.1813 96.7334 37.018 96.1081 36.6913C95.4921 36.3553 95.0114 35.898 94.6661 35.3193C94.3301 34.7406 94.1621 34.0826 94.1621 33.3453C94.1621 32.5986 94.3254 31.9406 94.6521 31.3713C94.9881 30.7926 95.4454 30.34 96.0241 30.0133C96.6121 29.6866 97.2794 29.5233 98.0261 29.5233C98.7541 29.5233 99.4028 29.682 99.9721 29.9993C100.541 30.3166 100.989 30.7646 101.316 31.3433C101.643 31.922 101.806 32.6033 101.806 33.3873C101.806 33.462 101.801 33.546 101.792 33.6393C101.792 33.7326 101.787 33.8213 101.778 33.9053H95.5481V32.7433H100.854L100.168 33.1073C100.177 32.678 100.089 32.3 99.9021 31.9733C99.7154 31.6466 99.4588 31.39 99.1321 31.2033C98.8148 31.0166 98.4461 30.9233 98.0261 30.9233C97.5968 30.9233 97.2188 31.0166 96.8921 31.2033C96.5748 31.39 96.3228 31.6513 96.1361 31.9873C95.9588 32.314 95.8701 32.7013 95.8701 33.1493V33.4293C95.8701 33.8773 95.9728 34.274 96.1781 34.6193C96.3834 34.9646 96.6728 35.2306 97.0461 35.4173C97.4194 35.604 97.8488 35.6973 98.3341 35.6973C98.7541 35.6973 99.1321 35.632 99.4681 35.5013C99.8041 35.3706 100.103 35.1653 100.364 34.8853L101.302 35.9633C100.966 36.3553 100.541 36.6586 100.028 36.8733C99.5241 37.0786 98.9454 37.1813 98.2921 37.1813ZM107.524 37.0833V27.2833H111.556C112.424 27.2833 113.166 27.4233 113.782 27.7033C114.407 27.9833 114.888 28.3846 115.224 28.9073C115.56 29.43 115.728 30.0506 115.728 30.7693C115.728 31.488 115.56 32.1086 115.224 32.6313C114.888 33.154 114.407 33.5553 113.782 33.8353C113.166 34.1153 112.424 34.2553 111.556 34.2553H108.532L109.344 33.4013V37.0833H107.524ZM109.344 33.5973L108.532 32.7153H111.472C112.275 32.7153 112.877 32.5473 113.278 32.2113C113.689 31.866 113.894 31.3853 113.894 30.7693C113.894 30.144 113.689 29.6633 113.278 29.3273C112.877 28.9913 112.275 28.8233 111.472 28.8233H108.532L109.344 27.9273V33.5973ZM117.514 37.0833V26.6953H119.264V37.0833H117.514ZM126.167 37.0833V35.5713L126.069 35.2493V32.6033C126.069 32.09 125.915 31.6933 125.607 31.4133C125.299 31.124 124.832 30.9793 124.207 30.9793C123.787 30.9793 123.372 31.0446 122.961 31.1753C122.56 31.306 122.219 31.488 121.939 31.7213L121.253 30.4473C121.654 30.1393 122.13 29.9106 122.681 29.7613C123.241 29.6026 123.82 29.5233 124.417 29.5233C125.5 29.5233 126.335 29.7846 126.923 30.3073C127.52 30.8206 127.819 31.6186 127.819 32.7013V37.0833H126.167ZM123.815 37.1813C123.255 37.1813 122.765 37.088 122.345 36.9013C121.925 36.7053 121.598 36.4393 121.365 36.1033C121.141 35.758 121.029 35.3706 121.029 34.9413C121.029 34.5213 121.127 34.1433 121.323 33.8073C121.528 33.4713 121.86 33.2053 122.317 33.0093C122.774 32.8133 123.381 32.7153 124.137 32.7153H126.307V33.8773H124.263C123.666 33.8773 123.264 33.9753 123.059 34.1713C122.854 34.358 122.751 34.5913 122.751 34.8713C122.751 35.1886 122.877 35.4406 123.129 35.6273C123.381 35.814 123.731 35.9073 124.179 35.9073C124.608 35.9073 124.991 35.8093 125.327 35.6133C125.672 35.4173 125.92 35.128 126.069 34.7453L126.363 35.7953C126.195 36.234 125.892 36.5746 125.453 36.8173C125.024 37.06 124.478 37.1813 123.815 37.1813ZM130.544 39.8973C130.18 39.8973 129.816 39.8366 129.452 39.7153C129.088 39.594 128.785 39.426 128.542 39.2113L129.242 37.9233C129.42 38.082 129.62 38.208 129.844 38.3013C130.068 38.3946 130.297 38.4413 130.53 38.4413C130.848 38.4413 131.104 38.362 131.3 38.2033C131.496 38.0446 131.678 37.7786 131.846 37.4053L132.28 36.4253L132.42 36.2153L135.248 29.6073H136.928L133.428 37.6853C133.195 38.2453 132.934 38.6886 132.644 39.0153C132.364 39.342 132.047 39.5706 131.692 39.7013C131.347 39.832 130.964 39.8973 130.544 39.8973ZM132.084 37.3493L128.71 29.6073H130.53L133.274 36.0613L132.084 37.3493Z" fill="white"/>
<path d="M54.8165 15.206H57.4825V18.79C57.1081 18.9137 56.7208 19.0098 56.3204 19.0781C55.92 19.1465 55.4708 19.1807 54.9727 19.1807C54.2468 19.1807 53.6315 19.0374 53.1269 18.751C52.6256 18.4613 52.2448 18.043 51.9844 17.4961C51.724 16.946 51.5938 16.2835 51.5938 15.5088C51.5938 14.7633 51.7387 14.1172 52.0284 13.5703C52.3181 13.0202 52.7395 12.5954 53.2929 12.2959C53.8463 11.9932 54.5169 11.8418 55.3046 11.8418C55.692 11.8418 56.0664 11.8809 56.4277 11.959C56.7923 12.0338 57.1259 12.138 57.4287 12.2715L57.0186 13.2383C56.7777 13.1243 56.5074 13.0283 56.208 12.9502C55.9085 12.8721 55.5977 12.833 55.2754 12.833C54.7644 12.833 54.3233 12.9437 53.9522 13.165C53.5844 13.3864 53.3012 13.6989 53.1026 14.1025C52.904 14.5029 52.8046 14.9766 52.8046 15.5234C52.8046 16.054 52.8844 16.5195 53.0439 16.9199C53.2034 17.3203 53.4524 17.6328 53.791 17.8574C54.1328 18.0788 54.5739 18.1894 55.1143 18.1894C55.3845 18.1894 55.6139 18.1748 55.8027 18.1455C55.9915 18.1162 56.1656 18.0837 56.3251 18.0478V16.207H54.8165V15.206ZM63.2344 19.083H59.1915V11.9443H63.2344V12.9307H60.3633V14.8691H63.0537V15.8506H60.3633V18.0918H63.2344V19.083ZM67.2529 19.083H66.0762V12.9404H63.9864V11.9443H69.3378V12.9404H67.2529V19.083ZM73.0292 19.083V11.9443H74.2012V19.083H73.0292ZM82.0429 19.083H80.6026L77.1064 13.3848H77.0625C77.0756 13.5768 77.087 13.7803 77.0967 13.9951C77.1098 14.21 77.1194 14.4313 77.1259 14.6592C77.1357 14.887 77.1438 15.1182 77.1503 15.3525V19.083H76.0859V11.9443H77.5167L81.0079 17.6035H81.042C81.0354 17.4375 81.0274 17.2471 81.0176 17.0322C81.0079 16.8174 80.998 16.596 80.9882 16.3682C80.9817 16.137 80.9769 15.9141 80.9737 15.6992V11.9443H82.0429V19.083Z" fill="white"/>
<path fill-rule="evenodd" clip-rule="evenodd" d="M20.4537 12.4648C20.1656 12.7668 20 13.2317 20 13.8358V35.3228C20 35.9269 20.1656 36.3918 20.4645 36.6833L20.5426 36.7476L32.8861 24.708V24.4375L20.5318 12.4004L20.4537 12.4648Z" fill="url(#paint0_linear_4_15828)"/>
<path fill-rule="evenodd" clip-rule="evenodd" d="M36.9922 28.7373L32.875 24.7201V24.4391L36.9935 20.4219L37.0824 20.4758L41.9536 23.1758C43.3484 23.9427 43.3484 25.206 41.9536 25.9835L37.0824 28.6834L36.9922 28.7373Z" fill="url(#paint1_linear_4_15828)"/>
<path fill-rule="evenodd" clip-rule="evenodd" d="M37.0808 28.684L32.8747 24.5801L20.4531 36.696C20.9069 37.1714 21.6702 37.2252 22.5238 36.7603L37.0808 28.684Z" fill="url(#paint2_linear_4_15828)"/>
<path fill-rule="evenodd" clip-rule="evenodd" d="M37.0808 20.4777L22.5238 12.4119C21.6716 11.9365 20.9069 12.0009 20.4531 12.4762L32.8734 24.5802L37.0808 20.4777Z" fill="url(#paint3_linear_4_15828)"/>
<path opacity="0.2" fill-rule="evenodd" clip-rule="evenodd" d="M36.9928 28.5977L22.5355 36.6097C21.7277 37.0628 21.0074 37.0313 20.5429 36.6202L20.4648 36.6964L20.5429 36.7607C21.0074 37.1705 21.7277 37.2033 22.5355 36.7502L37.0924 28.6844L36.9928 28.5977Z" fill="black"/>
<path opacity="0.12" fill-rule="evenodd" clip-rule="evenodd" d="M41.9513 25.8435L36.9805 28.5973L37.0694 28.684L41.9406 25.984C42.638 25.5953 42.9813 25.0884 42.9813 24.5801C42.9369 25.045 42.5828 25.4876 41.9513 25.8435Z" fill="black"/>
<path opacity="0.25" fill-rule="evenodd" clip-rule="evenodd" d="M22.5244 12.552L41.9525 23.3178C42.584 23.6632 42.9381 24.1163 42.9933 24.5812C42.9933 24.0743 42.6499 23.566 41.9525 23.1773L22.5244 12.4115C21.1296 11.6341 20 12.2815 20 13.8364V13.9769C20 12.422 21.1296 11.7851 22.5244 12.552Z" fill="white"/>
</g>
<defs>
<linearGradient id="paint0_linear_4_15828" x1="31.7777" y1="13.6048" x2="12.0723" y2="18.9879" gradientUnits="userSpaceOnUse">
<stop stop-color="#00A0FF"/>
<stop offset="0.007" stop-color="#00A1FF"/>
<stop offset="0.26" stop-color="#00BEFF"/>
<stop offset="0.512" stop-color="#00D2FF"/>
<stop offset="0.76" stop-color="#00DFFF"/>
<stop offset="1" stop-color="#00E3FF"/>
</linearGradient>
<linearGradient id="paint1_linear_4_15828" x1="43.7686" y1="24.5802" x2="19.6607" y2="24.5802" gradientUnits="userSpaceOnUse">
<stop stop-color="#FFE000"/>
<stop offset="0.409" stop-color="#FFBD00"/>
<stop offset="0.775" stop-color="#FFA500"/>
<stop offset="1" stop-color="#FF9C00"/>
</linearGradient>
<linearGradient id="paint2_linear_4_15828" x1="34.7936" y1="26.8127" x2="19.4983" y2="53.2054" gradientUnits="userSpaceOnUse">
<stop stop-color="#FF3A44"/>
<stop offset="1" stop-color="#C31162"/>
</linearGradient>
<linearGradient id="paint3_linear_4_15828" x1="17.3263" y1="5.31814" x2="24.1499" y2="17.1053" gradientUnits="userSpaceOnUse">
<stop stop-color="#32A071"/>
<stop offset="0.069" stop-color="#2DA771"/>
<stop offset="0.476" stop-color="#15CF74"/>
<stop offset="0.801" stop-color="#06E775"/>
<stop offset="1" stop-color="#00F076"/>
</linearGradient>
<clipPath id="clip0_4_15828">
<rect width="157" height="49" fill="white" transform="translate(0 0.0820312)"/>
</clipPath>
</defs>
</svg>
