<svg width="231" height="82" viewBox="0 0 231 82" fill="none" xmlns="http://www.w3.org/2000/svg">
<rect width="231" height="69" rx="10" fill="white"/>
<rect x="115.727" y="56" width="18" height="18" rx="2" transform="rotate(45 115.727 56)" fill="white"/>
<rect x="15" y="17" width="34" height="34" rx="17" fill="#695DFD"/>
<g clip-path="url(#clip0_4_12268)">
<path d="M39.6303 40.8037H25.0894C23.9364 40.8023 23.002 39.868 23 38.7143V29.0894C23.0013 27.9357 23.9357 27.0013 25.0894 27H39.631C40.784 27.0013 41.7184 27.9357 41.7204 29.0894V38.7143C41.7191 39.8673 40.7847 40.8017 39.631 40.8037H39.6303ZM25.1089 39.5424H39.6115L34.9935 34.7905C34.4378 35.3623 33.9898 35.8231 33.7355 36.0874C32.97 36.8402 31.7417 36.8402 30.9761 36.0874C30.7192 35.8217 30.2752 35.3636 29.7256 34.7985L25.1089 39.5424ZM24.2613 29.1815V38.6053L28.8464 33.8938C27.3046 32.3082 25.7002 30.6595 24.2613 29.1822V29.1815ZM35.8733 33.885L40.4584 38.602V29.1802C39.1157 30.5572 37.434 32.282 35.8733 33.8857V33.885ZM30.1965 33.472C30.9452 34.2422 31.5614 34.8766 31.8829 35.2096C32.1453 35.4672 32.5657 35.4672 32.8274 35.2096C34.7392 33.2372 37.7017 30.2014 39.5927 28.2606H25.125C26.6991 29.8785 28.5659 31.7963 30.1965 33.472Z" fill="white"/>
</g>
<path d="M65.4 21.4545C66.0636 21.4545 66.6318 21.55 67.1045 21.7409C67.5864 21.9318 67.9545 22.2045 68.2091 22.5591C68.4727 22.9136 68.6045 23.3409 68.6045 23.8409C68.6045 24.3773 68.4545 24.8364 68.1545 25.2182C67.8545 25.6 67.4455 25.85 66.9273 25.9682C67.5636 26.0773 68.0636 26.3455 68.4273 26.7727C68.7909 27.2 68.9727 27.7364 68.9727 28.3818C68.9727 28.9273 68.8318 29.3955 68.55 29.7864C68.2682 30.1773 67.8682 30.4773 67.35 30.6864C66.8318 30.8955 66.2136 31 65.4955 31H61.2545V21.4545H65.4ZM65.3182 25.4227C65.8273 25.4227 66.2273 25.3091 66.5182 25.0818C66.8091 24.8455 66.9545 24.5182 66.9545 24.1C66.9545 23.6909 66.8091 23.3773 66.5182 23.1591C66.2273 22.9318 65.8273 22.8227 65.3182 22.8318H62.8636V25.4227H65.3182ZM65.3182 29.6227C65.9455 29.6318 66.4364 29.5136 66.7909 29.2682C67.1455 29.0136 67.3227 28.6545 67.3227 28.1909C67.3227 27.7545 67.1455 27.4136 66.7909 27.1682C66.4364 26.9136 65.9455 26.7909 65.3182 26.8H62.8636V29.6227H65.3182ZM70.5144 23.7591H72.0689V31H70.5144V23.7591ZM71.2917 20.7727C71.5553 20.7727 71.7735 20.8591 71.9462 21.0318C72.1189 21.2045 72.2053 21.4227 72.2053 21.6864C72.2053 21.9409 72.1189 22.1591 71.9462 22.3409C71.7735 22.5136 71.5553 22.6 71.2917 22.6C71.0371 22.6 70.8189 22.5136 70.6371 22.3409C70.4644 22.1591 70.378 21.9409 70.378 21.6864C70.378 21.4227 70.4644 21.2045 70.6371 21.0318C70.8189 20.8591 71.0371 20.7727 71.2917 20.7727ZM76.885 23.6909C77.5577 23.6909 78.1259 23.8409 78.5896 24.1409C79.0623 24.4318 79.4214 24.8545 79.6668 25.4091C79.9214 25.9545 80.0441 26.6091 80.035 27.3727C80.0441 28.1364 79.9259 28.7955 79.6805 29.35C79.435 29.9045 79.0759 30.3318 78.6032 30.6318C78.1396 30.9227 77.5759 31.0682 76.9123 31.0682C76.2214 31.0682 75.6123 30.9136 75.085 30.6045C74.5668 30.2864 74.1623 29.85 73.8714 29.2955C73.5805 28.7318 73.435 28.0864 73.435 27.3591C73.435 26.6318 73.5805 25.9955 73.8714 25.45C74.1623 24.8955 74.5668 24.4636 75.085 24.1545C75.6032 23.8455 76.2032 23.6909 76.885 23.6909ZM77.2396 24.9591C76.8032 24.9591 76.4168 25.0636 76.0805 25.2727C75.7441 25.4818 75.4805 25.7727 75.2896 26.1455C75.1077 26.5091 75.0123 26.9273 75.0032 27.4C75.0123 27.8727 75.1077 28.2909 75.2896 28.6545C75.4805 29.0182 75.7441 29.3045 76.0805 29.5136C76.4168 29.7227 76.8032 29.8273 77.2396 29.8273C77.6759 29.8273 78.0623 29.7227 78.3987 29.5136C78.735 29.3045 78.9941 29.0182 79.1759 28.6545C79.3668 28.2909 79.4623 27.8727 79.4623 27.4C79.4623 26.9182 79.3668 26.4955 79.1759 26.1318C78.9941 25.7682 78.735 25.4818 78.3987 25.2727C78.0623 25.0636 77.6759 24.9591 77.2396 24.9591ZM79.4623 20.8818H81.0305V31H79.4623V20.8818ZM91.9146 26.9091C91.9146 26.3455 91.7601 25.9045 91.451 25.5864C91.1419 25.2591 90.7146 25.0955 90.1692 25.0955C89.5237 25.1045 89.0146 25.3318 88.6419 25.7773C88.2783 26.2227 88.0964 26.7773 88.0964 27.4409H87.6601C87.6601 26.5409 87.7874 25.8182 88.0419 25.2727C88.2964 24.7273 88.6555 24.3318 89.1192 24.0864C89.5919 23.8318 90.1464 23.7045 90.7828 23.7045C91.3464 23.7045 91.8283 23.8182 92.2283 24.0455C92.6374 24.2727 92.9464 24.5955 93.1555 25.0136C93.3737 25.4227 93.4828 25.9182 93.4828 26.5V31H91.9146V26.9091ZM86.5419 23.7591H88.1101V31H86.5419V23.7591ZM98.4203 23.7045C99.1658 23.7045 99.8203 23.8591 100.384 24.1682C100.957 24.4773 101.402 24.9091 101.72 25.4636C102.039 26.0091 102.198 26.6455 102.198 27.3727C102.198 28.1 102.039 28.7409 101.72 29.2955C101.402 29.85 100.957 30.2818 100.384 30.5909C99.8203 30.9 99.1658 31.0545 98.4203 31.0545C97.6749 31.0545 97.0158 30.9 96.4431 30.5909C95.8703 30.2818 95.4249 29.85 95.1067 29.2955C94.7885 28.7409 94.6294 28.1 94.6294 27.3727C94.6294 26.6455 94.7885 26.0091 95.1067 25.4636C95.4249 24.9091 95.8703 24.4773 96.4431 24.1682C97.0158 23.8591 97.6749 23.7045 98.4203 23.7045ZM98.4203 24.9727C97.984 24.9727 97.5976 25.0773 97.2613 25.2864C96.9249 25.4864 96.6613 25.7682 96.4703 26.1318C96.2885 26.4955 96.1976 26.9136 96.1976 27.3864C96.1976 27.8682 96.2885 28.2909 96.4703 28.6545C96.6613 29.0182 96.9249 29.3045 97.2613 29.5136C97.5976 29.7136 97.984 29.8136 98.4203 29.8136C98.8567 29.8136 99.2385 29.7136 99.5658 29.5136C99.9022 29.3045 100.161 29.0182 100.343 28.6545C100.534 28.2909 100.629 27.8682 100.629 27.3864C100.629 26.9136 100.534 26.4955 100.343 26.1318C100.161 25.7682 99.9022 25.4864 99.5658 25.2864C99.2385 25.0773 98.8567 24.9727 98.4203 24.9727ZM102.149 23.7591H103.759L105.64 29.5545L107.468 23.7591H109.09L110.931 29.5545L112.786 23.7591H114.381L111.736 31H110.113L108.272 25.5182L106.431 31H104.822L102.149 23.7591ZM118.596 23.7591H120.151V31H118.596V23.7591ZM119.374 20.7727C119.637 20.7727 119.856 20.8591 120.028 21.0318C120.201 21.2045 120.287 21.4227 120.287 21.6864C120.287 21.9409 120.201 22.1591 120.028 22.3409C119.856 22.5136 119.637 22.6 119.374 22.6C119.119 22.6 118.901 22.5136 118.719 22.3409C118.546 22.1591 118.46 21.9409 118.46 21.6864C118.46 21.4227 118.546 21.2045 118.719 21.0318C118.901 20.8591 119.119 20.7727 119.374 20.7727ZM127.572 26.9091C127.572 26.3455 127.417 25.9045 127.108 25.5864C126.799 25.2591 126.372 25.0955 125.826 25.0955C125.181 25.1045 124.672 25.3318 124.299 25.7773C123.935 26.2227 123.753 26.7773 123.753 27.4409H123.317C123.317 26.5409 123.444 25.8182 123.699 25.2727C123.953 24.7273 124.312 24.3318 124.776 24.0864C125.249 23.8318 125.803 23.7045 126.44 23.7045C127.003 23.7045 127.485 23.8182 127.885 24.0455C128.294 24.2727 128.603 24.5955 128.813 25.0136C129.031 25.4227 129.14 25.9182 129.14 26.5V31H127.572V26.9091ZM122.199 23.7591H123.767V31H122.199V23.7591ZM136.212 28.7091C136.212 29.1 136.28 29.3682 136.416 29.5136C136.553 29.65 136.744 29.7182 136.989 29.7182C137.153 29.7182 137.321 29.6909 137.494 29.6364C137.675 29.5818 137.871 29.5 138.08 29.3909L138.475 30.5227C138.194 30.6955 137.903 30.8318 137.603 30.9318C137.303 31.0227 136.998 31.0682 136.689 31.0682C136.325 31.0682 135.989 31 135.68 30.8636C135.371 30.7182 135.121 30.4909 134.93 30.1818C134.748 29.8727 134.657 29.4727 134.657 28.9818V22.0409H136.212V28.7091ZM133.635 24.0182H138.353V25.1364H133.635V24.0182ZM145.106 26.9091C145.106 26.3455 144.951 25.9045 144.642 25.5864C144.333 25.2591 143.906 25.0955 143.36 25.0955C142.715 25.1045 142.206 25.3318 141.833 25.7773C141.469 26.2227 141.288 26.7773 141.288 27.4409H140.851C140.851 26.5409 140.979 25.8182 141.233 25.2727C141.488 24.7273 141.847 24.3318 142.31 24.0864C142.783 23.8318 143.338 23.7045 143.974 23.7045C144.538 23.7045 145.019 23.8182 145.419 24.0455C145.829 24.2727 146.138 24.5955 146.347 25.0136C146.565 25.4227 146.674 25.9182 146.674 26.5V31H145.106V26.9091ZM139.719 20.8818H141.288V31H139.719V20.8818ZM153.519 26.8545C153.501 26.4455 153.405 26.1 153.232 25.8182C153.069 25.5273 152.837 25.3045 152.537 25.15C152.237 24.9864 151.891 24.9045 151.501 24.9045C151.064 24.9045 150.682 25.0045 150.355 25.2045C150.037 25.4045 149.787 25.6864 149.605 26.05C149.423 26.4045 149.332 26.8227 149.332 27.3045C149.332 27.8227 149.428 28.2727 149.619 28.6545C149.819 29.0364 150.091 29.3318 150.437 29.5409C150.791 29.75 151.196 29.8545 151.651 29.8545C152.46 29.8545 153.141 29.5682 153.696 28.9955L154.528 29.8273C154.173 30.2182 153.741 30.5227 153.232 30.7409C152.723 30.95 152.155 31.0545 151.528 31.0545C150.782 31.0545 150.132 30.9 149.578 30.5909C149.023 30.2818 148.591 29.8545 148.282 29.3091C147.973 28.7545 147.819 28.1136 147.819 27.3864C147.819 26.6591 147.973 26.0227 148.282 25.4773C148.591 24.9227 149.023 24.4909 149.578 24.1818C150.132 23.8727 150.769 23.7136 151.487 23.7045C152.341 23.7045 153.028 23.8818 153.546 24.2364C154.064 24.5818 154.432 25.0727 154.651 25.7091C154.869 26.3455 154.946 27.1 154.882 27.9727H149.087V26.8545H153.519ZM67.0636 39.6636C66.7182 39.4455 66.3773 39.2727 66.0409 39.1455C65.7045 39.0182 65.3864 38.9273 65.0864 38.8727C64.7864 38.8182 64.5136 38.7909 64.2682 38.7909C63.7955 38.7909 63.4182 38.8818 63.1364 39.0636C62.8545 39.2455 62.7136 39.5091 62.7136 39.8545C62.7136 40.1636 62.8045 40.4182 62.9864 40.6182C63.1773 40.8091 63.4227 40.9682 63.7227 41.0955C64.0318 41.2136 64.3682 41.3273 64.7318 41.4364C65.1045 41.5455 65.4727 41.6682 65.8364 41.8045C66.2 41.9318 66.5364 42.1 66.8455 42.3091C67.1545 42.5182 67.4 42.7864 67.5818 43.1136C67.7636 43.4318 67.8545 43.8364 67.8545 44.3273C67.8545 44.8909 67.7 45.3818 67.3909 45.8C67.0818 46.2091 66.6545 46.5273 66.1091 46.7545C65.5727 46.9818 64.9545 47.0955 64.2545 47.0955C63.7545 47.0955 63.2682 47.0318 62.7955 46.9045C62.3227 46.7682 61.8773 46.5864 61.4591 46.3591C61.05 46.1318 60.6818 45.8682 60.3545 45.5682L61.05 44.2455C61.3773 44.5455 61.7227 44.8 62.0864 45.0091C62.4591 45.2182 62.8318 45.3773 63.2045 45.4864C63.5864 45.5955 63.9455 45.65 64.2818 45.65C64.8455 45.65 65.2818 45.5409 65.5909 45.3227C65.9091 45.1045 66.0682 44.8 66.0682 44.4091C66.0682 44.0909 65.9727 43.8364 65.7818 43.6455C65.6 43.4455 65.3545 43.2818 65.0455 43.1545C64.7455 43.0273 64.4091 42.9136 64.0364 42.8136C63.6727 42.7136 63.3045 42.6 62.9318 42.4727C62.5682 42.3364 62.2318 42.1682 61.9227 41.9682C61.6227 41.7682 61.3773 41.5091 61.1864 41.1909C61.0045 40.8727 60.9136 40.4682 60.9136 39.9773C60.9136 39.4409 61.0591 38.9773 61.35 38.5864C61.6409 38.1864 62.0455 37.8773 62.5636 37.6591C63.0909 37.4409 63.7 37.3318 64.3909 37.3318C65.0091 37.3318 65.6091 37.4227 66.1909 37.6045C66.7727 37.7864 67.2864 38.0227 67.7318 38.3136L67.0636 39.6636ZM74.6464 42.9091C74.6464 42.3364 74.4964 41.8909 74.1964 41.5727C73.8964 41.2455 73.4782 41.0818 72.9419 41.0818C72.3146 41.1 71.8191 41.3318 71.4555 41.7773C71.101 42.2227 70.9237 42.7727 70.9237 43.4273H70.4873C70.4873 42.5364 70.6101 41.8182 70.8555 41.2727C71.1101 40.7273 71.4646 40.3318 71.9191 40.0864C72.3828 39.8318 72.9282 39.7045 73.5555 39.7045C74.1101 39.7045 74.5828 39.8182 74.9737 40.0455C75.3737 40.2727 75.6782 40.5955 75.8873 41.0136C76.1055 41.4227 76.2146 41.9182 76.2146 42.5V47H74.6464V42.9091ZM79.9237 42.9091C79.9237 42.3364 79.7691 41.8909 79.4601 41.5727C79.1601 41.2455 78.7419 41.0818 78.2055 41.0818C77.5873 41.1 77.101 41.3318 76.7464 41.7773C76.3919 42.2227 76.2146 42.7727 76.2146 43.4273H75.7646C75.7646 42.5364 75.8873 41.8182 76.1328 41.2727C76.3873 40.7273 76.7419 40.3318 77.1964 40.0864C77.6601 39.8318 78.2055 39.7045 78.8328 39.7045C79.3873 39.7045 79.8601 39.8182 80.251 40.0455C80.651 40.2727 80.9555 40.5955 81.1646 41.0136C81.3828 41.4227 81.4919 41.9182 81.4919 42.5V47H79.9237V42.9091ZM69.3691 39.7591H70.9237V47H69.3691V39.7591ZM85.6914 43.7682C85.1824 43.7682 84.8051 43.8455 84.5596 44C84.3142 44.1545 84.1914 44.4091 84.1914 44.7636C84.1914 45.1 84.3142 45.3682 84.5596 45.5682C84.8142 45.7682 85.1596 45.8682 85.596 45.8682C85.9869 45.8682 86.3369 45.8 86.646 45.6636C86.9551 45.5273 87.2005 45.3455 87.3824 45.1182C87.5642 44.8818 87.6596 44.6182 87.6687 44.3273L87.9687 45.65C87.7414 46.1227 87.396 46.4773 86.9324 46.7136C86.4687 46.95 85.9142 47.0682 85.2687 47.0682C84.7505 47.0682 84.3005 46.9682 83.9187 46.7682C83.5369 46.5682 83.2414 46.3 83.0324 45.9636C82.8233 45.6182 82.7187 45.2364 82.7187 44.8182C82.7187 44.1636 82.9551 43.6409 83.4278 43.25C83.9096 42.8591 84.5869 42.6591 85.4596 42.65H87.8596V43.7682H85.6914ZM87.6551 42.4045C87.6551 41.9318 87.5096 41.5636 87.2187 41.3C86.9278 41.0364 86.496 40.9045 85.9233 40.9045C85.5778 40.9045 85.2233 40.9682 84.8596 41.0955C84.5051 41.2227 84.146 41.4091 83.7824 41.6545L83.1414 40.6455C83.4778 40.4364 83.796 40.2636 84.096 40.1273C84.396 39.9909 84.7142 39.8864 85.0505 39.8136C85.396 39.7409 85.8005 39.7045 86.2642 39.7045C87.2005 39.7045 87.9187 39.9318 88.4187 40.3864C88.9278 40.8318 89.1869 41.45 89.196 42.2409L89.2096 47H87.6687L87.6551 42.4045ZM95.1133 41.1227C94.5951 41.0955 94.1451 41.1864 93.7633 41.3955C93.3906 41.5955 93.0997 41.8773 92.8906 42.2409C92.6906 42.6045 92.5906 43.0227 92.5906 43.4955L92.1542 43.4409C92.1542 42.6318 92.2724 41.95 92.5088 41.3955C92.7451 40.8409 93.086 40.4227 93.5315 40.1409C93.977 39.85 94.5042 39.7045 95.1133 39.7045V41.1227ZM91.036 39.7591H92.6042V47H91.036V39.7591ZM97.9709 44.7091C97.9709 45.1 98.0391 45.3682 98.1754 45.5136C98.3118 45.65 98.5027 45.7182 98.7482 45.7182C98.9118 45.7182 99.08 45.6909 99.2527 45.6364C99.4345 45.5818 99.63 45.5 99.8391 45.3909L100.235 46.5227C99.9527 46.6955 99.6618 46.8318 99.3618 46.9318C99.0618 47.0227 98.7572 47.0682 98.4482 47.0682C98.0845 47.0682 97.7482 47 97.4391 46.8636C97.13 46.7182 96.88 46.4909 96.6891 46.1818C96.5072 45.8727 96.4163 45.4727 96.4163 44.9818V38.0409H97.9709V44.7091ZM95.3936 40.0182H100.112V41.1364H95.3936V40.0182ZM101.506 37.4545H103.115V41.6409H108.174V37.4545H109.783V47H108.174V43.0045H103.115V47H101.506V37.4545ZM113.261 43.85C113.261 44.4136 113.411 44.8591 113.711 45.1864C114.011 45.5045 114.424 45.6636 114.951 45.6636C115.579 45.6455 116.065 45.4136 116.411 44.9682C116.765 44.5227 116.942 43.9727 116.942 43.3182H117.365C117.365 44.2091 117.242 44.9273 116.997 45.4727C116.751 46.0182 116.401 46.4182 115.947 46.6727C115.501 46.9182 114.97 47.0455 114.351 47.0545C113.797 47.0545 113.32 46.9409 112.92 46.7136C112.529 46.4864 112.224 46.1636 112.006 45.7455C111.797 45.3273 111.692 44.8318 111.692 44.2591V39.7591H113.261V43.85ZM116.942 39.7591H118.511V47H116.942V39.7591ZM124.733 39.7045C125.424 39.7045 126.029 39.8591 126.547 40.1682C127.065 40.4773 127.469 40.9091 127.76 41.4636C128.051 42.0182 128.197 42.6636 128.197 43.4C128.197 44.1182 128.051 44.7545 127.76 45.3091C127.479 45.8545 127.079 46.2818 126.56 46.5909C126.051 46.9 125.451 47.0545 124.76 47.0545C124.097 47.0545 123.529 46.9091 123.056 46.6182C122.592 46.3273 122.238 45.9091 121.992 45.3636C121.747 44.8091 121.624 44.1545 121.624 43.4C121.624 42.6182 121.747 41.9545 121.992 41.4091C122.238 40.8545 122.592 40.4318 123.056 40.1409C123.529 39.85 124.088 39.7045 124.733 39.7045ZM124.406 40.9455C123.979 40.9455 123.597 41.05 123.26 41.2591C122.924 41.4682 122.66 41.7545 122.469 42.1182C122.288 42.4727 122.197 42.8864 122.197 43.3591C122.197 43.8318 122.288 44.2545 122.469 44.6273C122.66 44.9909 122.924 45.2773 123.26 45.4864C123.597 45.6864 123.979 45.7864 124.406 45.7864C124.842 45.7864 125.224 45.6818 125.551 45.4727C125.888 45.2636 126.147 44.9773 126.329 44.6136C126.519 44.25 126.615 43.8318 126.615 43.3591C126.615 42.8955 126.519 42.4818 126.329 42.1182C126.147 41.7545 125.888 41.4682 125.551 41.2591C125.224 41.05 124.842 40.9455 124.406 40.9455ZM120.629 36.8818H122.197V47H120.629V36.8818ZM138.236 42.9091C138.236 42.3364 138.086 41.8909 137.786 41.5727C137.486 41.2455 137.068 41.0818 136.532 41.0818C135.904 41.1 135.409 41.3318 135.045 41.7773C134.691 42.2227 134.513 42.7727 134.513 43.4273H134.077C134.077 42.5364 134.2 41.8182 134.445 41.2727C134.7 40.7273 135.054 40.3318 135.509 40.0864C135.972 39.8318 136.518 39.7045 137.145 39.7045C137.7 39.7045 138.172 39.8182 138.563 40.0455C138.963 40.2727 139.268 40.5955 139.477 41.0136C139.695 41.4227 139.804 41.9182 139.804 42.5V47H138.236V42.9091ZM143.513 42.9091C143.513 42.3364 143.359 41.8909 143.05 41.5727C142.75 41.2455 142.332 41.0818 141.795 41.0818C141.177 41.1 140.691 41.3318 140.336 41.7773C139.982 42.2227 139.804 42.7727 139.804 43.4273H139.354C139.354 42.5364 139.477 41.8182 139.722 41.2727C139.977 40.7273 140.332 40.3318 140.786 40.0864C141.25 39.8318 141.795 39.7045 142.422 39.7045C142.977 39.7045 143.45 39.8182 143.841 40.0455C144.241 40.2727 144.545 40.5955 144.754 41.0136C144.972 41.4227 145.082 41.9182 145.082 42.5V47H143.513V42.9091ZM132.959 39.7591H134.513V47H132.959V39.7591ZM149.281 43.7682C148.772 43.7682 148.395 43.8455 148.149 44C147.904 44.1545 147.781 44.4091 147.781 44.7636C147.781 45.1 147.904 45.3682 148.149 45.5682C148.404 45.7682 148.749 45.8682 149.186 45.8682C149.577 45.8682 149.927 45.8 150.236 45.6636C150.545 45.5273 150.79 45.3455 150.972 45.1182C151.154 44.8818 151.249 44.6182 151.258 44.3273L151.558 45.65C151.331 46.1227 150.986 46.4773 150.522 46.7136C150.058 46.95 149.504 47.0682 148.858 47.0682C148.34 47.0682 147.89 46.9682 147.508 46.7682C147.127 46.5682 146.831 46.3 146.622 45.9636C146.413 45.6182 146.308 45.2364 146.308 44.8182C146.308 44.1636 146.545 43.6409 147.017 43.25C147.499 42.8591 148.177 42.6591 149.049 42.65H151.449V43.7682H149.281ZM151.245 42.4045C151.245 41.9318 151.099 41.5636 150.808 41.3C150.517 41.0364 150.086 40.9045 149.513 40.9045C149.167 40.9045 148.813 40.9682 148.449 41.0955C148.095 41.2227 147.736 41.4091 147.372 41.6545L146.731 40.6455C147.067 40.4364 147.386 40.2636 147.686 40.1273C147.986 39.9909 148.304 39.8864 148.64 39.8136C148.986 39.7409 149.39 39.7045 149.854 39.7045C150.79 39.7045 151.508 39.9318 152.008 40.3864C152.517 40.8318 152.777 41.45 152.786 42.2409L152.799 47H151.258L151.245 42.4045ZM158.703 41.1227C158.185 41.0955 157.735 41.1864 157.353 41.3955C156.98 41.5955 156.689 41.8773 156.48 42.2409C156.28 42.6045 156.18 43.0227 156.18 43.4955L155.744 43.4409C155.744 42.6318 155.862 41.95 156.098 41.3955C156.335 40.8409 156.676 40.4227 157.121 40.1409C157.567 39.85 158.094 39.7045 158.703 39.7045V41.1227ZM154.626 39.7591H156.194V47H154.626V39.7591ZM159.788 36.8818H161.356V47H159.788V36.8818ZM164.561 39.7591H166.361L161.233 45.0773V43.2091L164.561 39.7591ZM163.524 42.3364L166.565 47H164.711L162.365 43.2773L163.524 42.3364ZM172.229 42.8545C172.211 42.4455 172.115 42.1 171.942 41.8182C171.779 41.5273 171.547 41.3045 171.247 41.15C170.947 40.9864 170.601 40.9045 170.211 40.9045C169.774 40.9045 169.392 41.0045 169.065 41.2045C168.747 41.4045 168.497 41.6864 168.315 42.05C168.133 42.4045 168.042 42.8227 168.042 43.3045C168.042 43.8227 168.138 44.2727 168.329 44.6545C168.529 45.0364 168.801 45.3318 169.147 45.5409C169.501 45.75 169.906 45.8545 170.361 45.8545C171.17 45.8545 171.851 45.5682 172.406 44.9955L173.238 45.8273C172.883 46.2182 172.451 46.5227 171.942 46.7409C171.433 46.95 170.865 47.0545 170.238 47.0545C169.492 47.0545 168.842 46.9 168.288 46.5909C167.733 46.2818 167.301 45.8545 166.992 45.3091C166.683 44.7545 166.529 44.1136 166.529 43.3864C166.529 42.6591 166.683 42.0227 166.992 41.4773C167.301 40.9227 167.733 40.4909 168.288 40.1818C168.842 39.8727 169.479 39.7136 170.197 39.7045C171.051 39.7045 171.738 39.8818 172.256 40.2364C172.774 40.5818 173.142 41.0727 173.361 41.7091C173.579 42.3455 173.656 43.1 173.592 43.9727H167.797V42.8545H172.229ZM176.795 44.7091C176.795 45.1 176.864 45.3682 177 45.5136C177.136 45.65 177.327 45.7182 177.573 45.7182C177.736 45.7182 177.905 45.6909 178.077 45.6364C178.259 45.5818 178.455 45.5 178.664 45.3909L179.059 46.5227C178.777 46.6955 178.486 46.8318 178.186 46.9318C177.886 47.0227 177.582 47.0682 177.273 47.0682C176.909 47.0682 176.573 47 176.264 46.8636C175.955 46.7182 175.705 46.4909 175.514 46.1818C175.332 45.8727 175.241 45.4727 175.241 44.9818V38.0409H176.795V44.7091ZM174.218 40.0182H178.936V41.1364H174.218V40.0182ZM184.408 39.7045C185.099 39.7045 185.703 39.8591 186.221 40.1682C186.739 40.4773 187.144 40.9091 187.435 41.4636C187.726 42.0182 187.871 42.6636 187.871 43.4C187.871 44.1182 187.726 44.7545 187.435 45.3091C187.153 45.8545 186.753 46.2818 186.235 46.5909C185.726 46.9 185.126 47.0545 184.435 47.0545C183.771 47.0545 183.203 46.9091 182.73 46.6182C182.267 46.3273 181.912 45.9091 181.667 45.3636C181.421 44.8091 181.299 44.1545 181.299 43.4C181.299 42.6182 181.421 41.9545 181.667 41.4091C181.912 40.8545 182.267 40.4318 182.73 40.1409C183.203 39.85 183.762 39.7045 184.408 39.7045ZM184.08 40.9455C183.653 40.9455 183.271 41.05 182.935 41.2591C182.599 41.4682 182.335 41.7545 182.144 42.1182C181.962 42.4727 181.871 42.8864 181.871 43.3591C181.871 43.8318 181.962 44.2545 182.144 44.6273C182.335 44.9909 182.599 45.2773 182.935 45.4864C183.271 45.6864 183.653 45.7864 184.08 45.7864C184.517 45.7864 184.899 45.6818 185.226 45.4727C185.562 45.2636 185.821 44.9773 186.003 44.6136C186.194 44.25 186.289 43.8318 186.289 43.3591C186.289 42.8955 186.194 42.4818 186.003 42.1182C185.821 41.7545 185.562 41.4682 185.226 41.2591C184.899 41.05 184.517 40.9455 184.08 40.9455ZM180.303 39.7591H181.871V49.6455H180.303V39.7591ZM189.299 36.8818H190.867V47H189.299V36.8818ZM195.352 43.7682C194.843 43.7682 194.466 43.8455 194.22 44C193.975 44.1545 193.852 44.4091 193.852 44.7636C193.852 45.1 193.975 45.3682 194.22 45.5682C194.475 45.7682 194.82 45.8682 195.257 45.8682C195.648 45.8682 195.998 45.8 196.307 45.6636C196.616 45.5273 196.861 45.3455 197.043 45.1182C197.225 44.8818 197.32 44.6182 197.33 44.3273L197.63 45.65C197.402 46.1227 197.057 46.4773 196.593 46.7136C196.13 46.95 195.575 47.0682 194.93 47.0682C194.411 47.0682 193.961 46.9682 193.58 46.7682C193.198 46.5682 192.902 46.3 192.693 45.9636C192.484 45.6182 192.38 45.2364 192.38 44.8182C192.38 44.1636 192.616 43.6409 193.089 43.25C193.57 42.8591 194.248 42.6591 195.12 42.65H197.52V43.7682H195.352ZM197.316 42.4045C197.316 41.9318 197.17 41.5636 196.88 41.3C196.589 41.0364 196.157 40.9045 195.584 40.9045C195.239 40.9045 194.884 40.9682 194.52 41.0955C194.166 41.2227 193.807 41.4091 193.443 41.6545L192.802 40.6455C193.139 40.4364 193.457 40.2636 193.757 40.1273C194.057 39.9909 194.375 39.8864 194.711 39.8136C195.057 39.7409 195.461 39.7045 195.925 39.7045C196.861 39.7045 197.58 39.9318 198.08 40.3864C198.589 40.8318 198.848 41.45 198.857 42.2409L198.87 47H197.33L197.316 42.4045ZM205.811 41.8318C205.556 41.5682 205.256 41.3636 204.911 41.2182C204.565 41.0727 204.174 41 203.738 41C203.32 41 202.947 41.1 202.62 41.3C202.292 41.5 202.038 41.7818 201.856 42.1455C201.674 42.5 201.583 42.9136 201.583 43.3864C201.583 43.8591 201.674 44.2773 201.856 44.6409C202.038 44.9955 202.292 45.2773 202.62 45.4864C202.947 45.6864 203.32 45.7864 203.738 45.7864C204.192 45.7864 204.601 45.7136 204.965 45.5682C205.329 45.4136 205.633 45.1909 205.879 44.9L206.751 45.7591C206.424 46.1682 205.997 46.4864 205.47 46.7136C204.951 46.9409 204.351 47.0545 203.67 47.0545C202.951 47.0545 202.315 46.9 201.761 46.5909C201.215 46.2818 200.788 45.8545 200.479 45.3091C200.17 44.7545 200.015 44.1136 200.015 43.3864C200.015 42.6591 200.17 42.0227 200.479 41.4773C200.788 40.9227 201.215 40.4909 201.761 40.1818C202.315 39.8636 202.951 39.7045 203.67 39.7045C204.324 39.7045 204.901 39.8045 205.401 40.0045C205.911 40.1955 206.333 40.4682 206.67 40.8227L205.811 41.8318ZM212.846 42.8545C212.828 42.4455 212.733 42.1 212.56 41.8182C212.396 41.5273 212.165 41.3045 211.865 41.15C211.565 40.9864 211.219 40.9045 210.828 40.9045C210.392 40.9045 210.01 41.0045 209.683 41.2045C209.365 41.4045 209.115 41.6864 208.933 42.05C208.751 42.4045 208.66 42.8227 208.66 43.3045C208.66 43.8227 208.756 44.2727 208.946 44.6545C209.146 45.0364 209.419 45.3318 209.765 45.5409C210.119 45.75 210.524 45.8545 210.978 45.8545C211.787 45.8545 212.469 45.5682 213.024 44.9955L213.856 45.8273C213.501 46.2182 213.069 46.5227 212.56 46.7409C212.051 46.95 211.483 47.0545 210.856 47.0545C210.11 47.0545 209.46 46.9 208.906 46.5909C208.351 46.2818 207.919 45.8545 207.61 45.3091C207.301 44.7545 207.146 44.1136 207.146 43.3864C207.146 42.6591 207.301 42.0227 207.61 41.4773C207.919 40.9227 208.351 40.4909 208.906 40.1818C209.46 39.8727 210.096 39.7136 210.815 39.7045C211.669 39.7045 212.356 39.8818 212.874 40.2364C213.392 40.5818 213.76 41.0727 213.978 41.7091C214.196 42.3455 214.274 43.1 214.21 43.9727H208.415V42.8545H212.846ZM215.3 37.5773H216.8V39.9227L216.54 44H215.559L215.3 39.9227V37.5773ZM216.05 45.3909C216.295 45.3909 216.5 45.4727 216.663 45.6364C216.827 45.7909 216.909 45.9955 216.909 46.25C216.909 46.5045 216.827 46.7136 216.663 46.8773C216.5 47.0409 216.295 47.1227 216.05 47.1227C215.804 47.1227 215.6 47.0409 215.436 46.8773C215.272 46.7136 215.19 46.5045 215.19 46.25C215.19 45.9955 215.272 45.7909 215.436 45.6364C215.6 45.4727 215.804 45.3909 216.05 45.3909Z" fill="#101044"/>
<defs>
<clipPath id="clip0_4_12268">
<rect width="18.7197" height="13.8037" fill="white" transform="translate(23 27)"/>
</clipPath>
</defs>
</svg>
