<svg width="163" height="82" viewBox="0 0 163 82" fill="none" xmlns="http://www.w3.org/2000/svg">
<rect width="163" height="69" rx="10" fill="white"/>
<rect x="81.7266" y="56" width="18" height="18" rx="2" transform="rotate(45 81.7266 56)" fill="white"/>
<rect x="15" y="17" width="34" height="34" rx="17" fill="#695DFD"/>
<g clip-path="url(#clip0_4_12275)">
<path d="M34.7836 40.948C34.6874 42.6483 33.2551 43.9992 31.5 43.9992C29.7449 43.9992 28.3114 42.6483 28.2164 40.948H24.1972C22.9841 40.948 22 39.9847 22 38.7941C22 37.6035 22.9817 36.6403 24.1935 36.6403C24.1923 36.6403 24.1923 32.3326 24.1923 32.3326C24.1923 29.298 26.124 26.638 28.9423 25.6042V25.5097C28.9423 24.1228 30.0884 22.998 31.5 22.998C32.9116 22.998 34.0577 24.1228 34.0577 25.5097V25.6042C36.876 26.638 38.8077 29.298 38.8077 32.3326V36.6403C40.0147 36.6403 41 37.6047 41 38.7941C41 39.9835 40.0171 40.948 38.8028 40.948H34.7836ZM33.3184 40.948H29.6816C29.7742 41.855 30.5524 42.5633 31.5 42.5633C32.4476 42.5633 33.2258 41.855 33.3184 40.948ZM29.8753 26.8127C27.3943 27.5151 25.6526 29.7551 25.6526 32.3314V36.6391C25.6526 37.4312 24.9974 38.075 24.1923 38.075C23.7879 38.075 23.4603 38.398 23.4603 38.7929C23.4603 39.1878 23.7892 39.5109 24.196 39.5109H38.8028C39.2084 39.5109 39.5385 39.1878 39.5385 38.7929C39.5385 38.398 39.2084 38.075 38.8065 38.075C38.0002 38.075 37.3462 37.4336 37.3462 36.6391V32.3314C37.3462 29.7551 35.6045 27.5151 33.1235 26.8127L32.5949 26.6632V25.5109C32.5949 24.9162 32.1041 24.4351 31.4988 24.4351C30.8935 24.4351 30.4026 24.9174 30.4026 25.5109V26.6632L29.874 26.8127H29.8753Z" fill="white"/>
</g>
<path d="M70.0636 22.6636C69.7182 22.4455 69.3773 22.2727 69.0409 22.1455C68.7045 22.0182 68.3864 21.9273 68.0864 21.8727C67.7864 21.8182 67.5136 21.7909 67.2682 21.7909C66.7955 21.7909 66.4182 21.8818 66.1364 22.0636C65.8545 22.2455 65.7136 22.5091 65.7136 22.8545C65.7136 23.1636 65.8045 23.4182 65.9864 23.6182C66.1773 23.8091 66.4227 23.9682 66.7227 24.0955C67.0318 24.2136 67.3682 24.3273 67.7318 24.4364C68.1045 24.5455 68.4727 24.6682 68.8364 24.8045C69.2 24.9318 69.5364 25.1 69.8455 25.3091C70.1545 25.5182 70.4 25.7864 70.5818 26.1136C70.7636 26.4318 70.8545 26.8364 70.8545 27.3273C70.8545 27.8909 70.7 28.3818 70.3909 28.8C70.0818 29.2091 69.6545 29.5273 69.1091 29.7545C68.5727 29.9818 67.9545 30.0955 67.2545 30.0955C66.7545 30.0955 66.2682 30.0318 65.7955 29.9045C65.3227 29.7682 64.8773 29.5864 64.4591 29.3591C64.05 29.1318 63.6818 28.8682 63.3545 28.5682L64.05 27.2455C64.3773 27.5455 64.7227 27.8 65.0864 28.0091C65.4591 28.2182 65.8318 28.3773 66.2045 28.4864C66.5864 28.5955 66.9455 28.65 67.2818 28.65C67.8455 28.65 68.2818 28.5409 68.5909 28.3227C68.9091 28.1045 69.0682 27.8 69.0682 27.4091C69.0682 27.0909 68.9727 26.8364 68.7818 26.6455C68.6 26.4455 68.3545 26.2818 68.0455 26.1545C67.7455 26.0273 67.4091 25.9136 67.0364 25.8136C66.6727 25.7136 66.3045 25.6 65.9318 25.4727C65.5682 25.3364 65.2318 25.1682 64.9227 24.9682C64.6227 24.7682 64.3773 24.5091 64.1864 24.1909C64.0045 23.8727 63.9136 23.4682 63.9136 22.9773C63.9136 22.4409 64.0591 21.9773 64.35 21.5864C64.6409 21.1864 65.0455 20.8773 65.5636 20.6591C66.0909 20.4409 66.7 20.3318 67.3909 20.3318C68.0091 20.3318 68.6091 20.4227 69.1909 20.6045C69.7727 20.7864 70.2864 21.0227 70.7318 21.3136L70.0636 22.6636ZM72.3691 22.7591H73.9237V30H72.3691V22.7591ZM73.1464 19.7727C73.4101 19.7727 73.6282 19.8591 73.801 20.0318C73.9737 20.2045 74.0601 20.4227 74.0601 20.6864C74.0601 20.9409 73.9737 21.1591 73.801 21.3409C73.6282 21.5136 73.4101 21.6 73.1464 21.6C72.8919 21.6 72.6737 21.5136 72.4919 21.3409C72.3191 21.1591 72.2328 20.9409 72.2328 20.6864C72.2328 20.4227 72.3191 20.2045 72.4919 20.0318C72.6737 19.8591 72.8919 19.7727 73.1464 19.7727ZM82.517 29.2773C82.517 29.9773 82.3625 30.5818 82.0534 31.0909C81.7443 31.6 81.308 31.9909 80.7443 32.2636C80.1807 32.5455 79.517 32.6864 78.7534 32.6864C78.1898 32.6864 77.658 32.6 77.158 32.4273C76.658 32.2636 76.1852 32.0318 75.7398 31.7318L76.408 30.6545C76.7534 30.9091 77.108 31.1045 77.4716 31.2409C77.8352 31.3864 78.2398 31.4591 78.6852 31.4591C79.1489 31.4591 79.5489 31.3682 79.8852 31.1864C80.2307 31.0136 80.4943 30.7682 80.6761 30.45C80.867 30.1318 80.9625 29.7545 80.9625 29.3182V22.7591H82.517V29.2773ZM78.508 22.7045C79.1443 22.6955 79.6852 22.8318 80.1307 23.1136C80.5852 23.3864 80.9307 23.7818 81.167 24.3C81.4034 24.8182 81.517 25.4409 81.508 26.1682C81.517 26.8955 81.4034 27.5227 81.167 28.05C80.9398 28.5682 80.6034 28.9682 80.158 29.25C79.7216 29.5227 79.1898 29.6591 78.5625 29.6591C77.908 29.6591 77.3352 29.5136 76.8443 29.2227C76.3534 28.9227 75.9716 28.5091 75.6989 27.9818C75.4261 27.4545 75.2898 26.8455 75.2898 26.1545C75.2898 25.4727 75.4216 24.8773 75.6852 24.3682C75.958 23.85 76.3352 23.4455 76.817 23.1545C77.308 22.8545 77.8716 22.7045 78.508 22.7045ZM78.8761 23.9045C78.467 23.9045 78.1034 24.0045 77.7852 24.2045C77.467 24.3955 77.217 24.6636 77.0352 25.0091C76.8625 25.3545 76.7716 25.75 76.7625 26.1955C76.7716 26.6409 76.8625 27.0364 77.0352 27.3818C77.217 27.7273 77.4625 28 77.7716 28.2C78.0898 28.3909 78.458 28.4864 78.8761 28.4864C79.2852 28.4864 79.6443 28.3909 79.9534 28.2C80.2716 28 80.517 27.7273 80.6898 27.3818C80.8716 27.0364 80.9625 26.6409 80.9625 26.1955C80.9625 25.7409 80.8716 25.3455 80.6898 25.0091C80.517 24.6636 80.2716 24.3955 79.9534 24.2045C79.6443 24.0045 79.2852 23.9045 78.8761 23.9045ZM89.7941 25.9091C89.7941 25.3455 89.6395 24.9045 89.3304 24.5864C89.0213 24.2591 88.5941 24.0955 88.0486 24.0955C87.4032 24.1045 86.8941 24.3318 86.5213 24.7773C86.1577 25.2227 85.9759 25.7773 85.9759 26.4409H85.5395C85.5395 25.5409 85.6668 24.8182 85.9213 24.2727C86.1759 23.7273 86.535 23.3318 86.9986 23.0864C87.4713 22.8318 88.0259 22.7045 88.6623 22.7045C89.2259 22.7045 89.7077 22.8182 90.1077 23.0455C90.5168 23.2727 90.8259 23.5955 91.035 24.0136C91.2532 24.4227 91.3623 24.9182 91.3623 25.5V30H89.7941V25.9091ZM84.4213 22.7591H85.9895V30H84.4213V22.7591ZM97.9298 26.85C97.9298 27.4136 98.0798 27.8591 98.3798 28.1864C98.6798 28.5045 99.0934 28.6636 99.6207 28.6636C100.248 28.6455 100.734 28.4136 101.08 27.9682C101.434 27.5227 101.612 26.9727 101.612 26.3182H102.034C102.034 27.2091 101.912 27.9273 101.666 28.4727C101.421 29.0182 101.071 29.4182 100.616 29.6727C100.171 29.9182 99.6388 30.0455 99.0207 30.0545C98.4661 30.0545 97.9888 29.9409 97.5888 29.7136C97.1979 29.4864 96.8934 29.1636 96.6752 28.7455C96.4661 28.3273 96.3616 27.8318 96.3616 27.2591V22.7591H97.9298V26.85ZM101.612 22.7591H103.18V30H101.612V22.7591ZM109.402 22.7045C110.093 22.7045 110.698 22.8591 111.216 23.1682C111.734 23.4773 112.139 23.9091 112.43 24.4636C112.72 25.0182 112.866 25.6636 112.866 26.4C112.866 27.1182 112.72 27.7545 112.43 28.3091C112.148 28.8545 111.748 29.2818 111.23 29.5909C110.72 29.9 110.12 30.0545 109.43 30.0545C108.766 30.0545 108.198 29.9091 107.725 29.6182C107.261 29.3273 106.907 28.9091 106.661 28.3636C106.416 27.8091 106.293 27.1545 106.293 26.4C106.293 25.6182 106.416 24.9545 106.661 24.4091C106.907 23.8545 107.261 23.4318 107.725 23.1409C108.198 22.85 108.757 22.7045 109.402 22.7045ZM109.075 23.9455C108.648 23.9455 108.266 24.05 107.93 24.2591C107.593 24.4682 107.33 24.7545 107.139 25.1182C106.957 25.4727 106.866 25.8864 106.866 26.3591C106.866 26.8318 106.957 27.2545 107.139 27.6273C107.33 27.9909 107.593 28.2773 107.93 28.4864C108.266 28.6864 108.648 28.7864 109.075 28.7864C109.511 28.7864 109.893 28.6818 110.22 28.4727C110.557 28.2636 110.816 27.9773 110.998 27.6136C111.189 27.25 111.284 26.8318 111.284 26.3591C111.284 25.8955 111.189 25.4818 110.998 25.1182C110.816 24.7545 110.557 24.4682 110.22 24.2591C109.893 24.05 109.511 23.9455 109.075 23.9455ZM105.298 22.7591H106.866V32.6455H105.298V22.7591ZM120.001 26.7682C119.492 26.7682 119.114 26.8455 118.869 27C118.623 27.1545 118.501 27.4091 118.501 27.7636C118.501 28.1 118.623 28.3682 118.869 28.5682C119.123 28.7682 119.469 28.8682 119.905 28.8682C120.296 28.8682 120.646 28.8 120.955 28.6636C121.264 28.5273 121.51 28.3455 121.692 28.1182C121.873 27.8818 121.969 27.6182 121.978 27.3273L122.278 28.65C122.051 29.1227 121.705 29.4773 121.242 29.7136C120.778 29.95 120.223 30.0682 119.578 30.0682C119.06 30.0682 118.61 29.9682 118.228 29.7682C117.846 29.5682 117.551 29.3 117.342 28.9636C117.133 28.6182 117.028 28.2364 117.028 27.8182C117.028 27.1636 117.264 26.6409 117.737 26.25C118.219 25.8591 118.896 25.6591 119.769 25.65H122.169V26.7682H120.001ZM121.964 25.4045C121.964 24.9318 121.819 24.5636 121.528 24.3C121.237 24.0364 120.805 23.9045 120.233 23.9045C119.887 23.9045 119.533 23.9682 119.169 24.0955C118.814 24.2227 118.455 24.4091 118.092 24.6545L117.451 23.6455C117.787 23.4364 118.105 23.2636 118.405 23.1273C118.705 22.9909 119.023 22.8864 119.36 22.8136C119.705 22.7409 120.11 22.7045 120.573 22.7045C121.51 22.7045 122.228 22.9318 122.728 23.3864C123.237 23.8318 123.496 24.45 123.505 25.2409L123.519 30H121.978L121.964 25.4045ZM130.718 25.9091C130.718 25.3455 130.564 24.9045 130.254 24.5864C129.945 24.2591 129.518 24.0955 128.973 24.0955C128.327 24.1045 127.818 24.3318 127.445 24.7773C127.082 25.2227 126.9 25.7773 126.9 26.4409H126.464C126.464 25.5409 126.591 24.8182 126.845 24.2727C127.1 23.7273 127.459 23.3318 127.923 23.0864C128.395 22.8318 128.95 22.7045 129.586 22.7045C130.15 22.7045 130.632 22.8182 131.032 23.0455C131.441 23.2727 131.75 23.5955 131.959 24.0136C132.177 24.4227 132.286 24.9182 132.286 25.5V30H130.718V25.9091ZM125.345 22.7591H126.914V30H125.345V22.7591ZM136.883 22.6909C137.556 22.6909 138.124 22.8409 138.587 23.1409C139.06 23.4318 139.419 23.8545 139.665 24.4091C139.919 24.9545 140.042 25.6091 140.033 26.3727C140.042 27.1364 139.924 27.7955 139.678 28.35C139.433 28.9045 139.074 29.3318 138.601 29.6318C138.137 29.9227 137.574 30.0682 136.91 30.0682C136.219 30.0682 135.61 29.9136 135.083 29.6045C134.565 29.2864 134.16 28.85 133.869 28.2955C133.578 27.7318 133.433 27.0864 133.433 26.3591C133.433 25.6318 133.578 24.9955 133.869 24.45C134.16 23.8955 134.565 23.4636 135.083 23.1545C135.601 22.8455 136.201 22.6909 136.883 22.6909ZM137.237 23.9591C136.801 23.9591 136.415 24.0636 136.078 24.2727C135.742 24.4818 135.478 24.7727 135.287 25.1455C135.106 25.5091 135.01 25.9273 135.001 26.4C135.01 26.8727 135.106 27.2909 135.287 27.6545C135.478 28.0182 135.742 28.3045 136.078 28.5136C136.415 28.7227 136.801 28.8273 137.237 28.8273C137.674 28.8273 138.06 28.7227 138.397 28.5136C138.733 28.3045 138.992 28.0182 139.174 27.6545C139.365 27.2909 139.46 26.8727 139.46 26.4C139.46 25.9182 139.365 25.4955 139.174 25.1318C138.992 24.7682 138.733 24.4818 138.397 24.2727C138.06 24.0636 137.674 23.9591 137.237 23.9591ZM139.46 19.8818H141.028V30H139.46V19.8818ZM70.7045 45.2773C70.7045 45.9773 70.55 46.5818 70.2409 47.0909C69.9318 47.6 69.4955 47.9909 68.9318 48.2636C68.3682 48.5455 67.7045 48.6864 66.9409 48.6864C66.3773 48.6864 65.8455 48.6 65.3455 48.4273C64.8455 48.2636 64.3727 48.0318 63.9273 47.7318L64.5955 46.6545C64.9409 46.9091 65.2955 47.1045 65.6591 47.2409C66.0227 47.3864 66.4273 47.4591 66.8727 47.4591C67.3364 47.4591 67.7364 47.3682 68.0727 47.1864C68.4182 47.0136 68.6818 46.7682 68.8636 46.45C69.0545 46.1318 69.15 45.7545 69.15 45.3182V38.7591H70.7045V45.2773ZM66.6955 38.7045C67.3318 38.6955 67.8727 38.8318 68.3182 39.1136C68.7727 39.3864 69.1182 39.7818 69.3545 40.3C69.5909 40.8182 69.7045 41.4409 69.6955 42.1682C69.7045 42.8955 69.5909 43.5227 69.3545 44.05C69.1273 44.5682 68.7909 44.9682 68.3455 45.25C67.9091 45.5227 67.3773 45.6591 66.75 45.6591C66.0955 45.6591 65.5227 45.5136 65.0318 45.2227C64.5409 44.9227 64.1591 44.5091 63.8864 43.9818C63.6136 43.4545 63.4773 42.8455 63.4773 42.1545C63.4773 41.4727 63.6091 40.8773 63.8727 40.3682C64.1455 39.85 64.5227 39.4455 65.0045 39.1545C65.4955 38.8545 66.0591 38.7045 66.6955 38.7045ZM67.0636 39.9045C66.6545 39.9045 66.2909 40.0045 65.9727 40.2045C65.6545 40.3955 65.4045 40.6636 65.2227 41.0091C65.05 41.3545 64.9591 41.75 64.95 42.1955C64.9591 42.6409 65.05 43.0364 65.2227 43.3818C65.4045 43.7273 65.65 44 65.9591 44.2C66.2773 44.3909 66.6455 44.4864 67.0636 44.4864C67.4727 44.4864 67.8318 44.3909 68.1409 44.2C68.4591 44 68.7045 43.7273 68.8773 43.3818C69.0591 43.0364 69.15 42.6409 69.15 42.1955C69.15 41.7409 69.0591 41.3455 68.8773 41.0091C68.7045 40.6636 68.4591 40.3955 68.1409 40.2045C67.8318 40.0045 67.4727 39.9045 67.0636 39.9045ZM77.627 41.8545C77.6088 41.4455 77.5134 41.1 77.3407 40.8182C77.177 40.5273 76.9452 40.3045 76.6452 40.15C76.3452 39.9864 75.9998 39.9045 75.6088 39.9045C75.1725 39.9045 74.7907 40.0045 74.4634 40.2045C74.1452 40.4045 73.8952 40.6864 73.7134 41.05C73.5316 41.4045 73.4407 41.8227 73.4407 42.3045C73.4407 42.8227 73.5361 43.2727 73.727 43.6545C73.927 44.0364 74.1998 44.3318 74.5452 44.5409C74.8998 44.75 75.3043 44.8545 75.7588 44.8545C76.5679 44.8545 77.2498 44.5682 77.8043 43.9955L78.6361 44.8273C78.2816 45.2182 77.8498 45.5227 77.3407 45.7409C76.8316 45.95 76.2634 46.0545 75.6361 46.0545C74.8907 46.0545 74.2407 45.9 73.6861 45.5909C73.1316 45.2818 72.6998 44.8545 72.3907 44.3091C72.0816 43.7545 71.927 43.1136 71.927 42.3864C71.927 41.6591 72.0816 41.0227 72.3907 40.4773C72.6998 39.9227 73.1316 39.4909 73.6861 39.1818C74.2407 38.8727 74.877 38.7136 75.5952 38.7045C76.4498 38.7045 77.1361 38.8818 77.6543 39.2364C78.1725 39.5818 78.5407 40.0727 78.7588 40.7091C78.977 41.3455 79.0543 42.1 78.9907 42.9727H73.1952V41.8545H77.627ZM82.1937 43.7091C82.1937 44.1 82.2619 44.3682 82.3983 44.5136C82.5346 44.65 82.7255 44.7182 82.971 44.7182C83.1346 44.7182 83.3028 44.6909 83.4755 44.6364C83.6574 44.5818 83.8528 44.5 84.0619 44.3909L84.4574 45.5227C84.1755 45.6955 83.8846 45.8318 83.5846 45.9318C83.2846 46.0227 82.9801 46.0682 82.671 46.0682C82.3074 46.0682 81.971 46 81.6619 45.8636C81.3528 45.7182 81.1028 45.4909 80.9119 45.1818C80.7301 44.8727 80.6392 44.4727 80.6392 43.9818V37.0409H82.1937V43.7091ZM79.6164 39.0182H84.3346V40.1364H79.6164V39.0182ZM89.104 35.8818H90.6722V46H89.104V35.8818ZM92.7848 38.7591H94.3393V46H92.7848V38.7591ZM93.5621 35.7727C93.8257 35.7727 94.0439 35.8591 94.2166 36.0318C94.3893 36.2045 94.4757 36.4227 94.4757 36.6864C94.4757 36.9409 94.3893 37.1591 94.2166 37.3409C94.0439 37.5136 93.8257 37.6 93.5621 37.6C93.3075 37.6 93.0893 37.5136 92.9075 37.3409C92.7348 37.1591 92.6484 36.9409 92.6484 36.6864C92.6484 36.4227 92.7348 36.2045 92.9075 36.0318C93.0893 35.8591 93.3075 35.7727 93.5621 35.7727ZM100.519 40.5182C100.201 40.3273 99.8509 40.1773 99.4691 40.0682C99.0963 39.95 98.7509 39.8909 98.4327 39.8909C98.1236 39.8909 97.8691 39.95 97.6691 40.0682C97.4691 40.1864 97.3691 40.3818 97.3691 40.6545C97.3691 40.8818 97.46 41.0636 97.6418 41.2C97.8327 41.3273 98.0736 41.4364 98.3645 41.5273C98.6554 41.6182 98.9645 41.7136 99.2918 41.8136C99.6191 41.9136 99.9282 42.0455 100.219 42.2091C100.519 42.3636 100.76 42.5773 100.942 42.85C101.124 43.1227 101.215 43.4818 101.215 43.9273C101.215 44.4182 101.083 44.8227 100.819 45.1409C100.565 45.45 100.224 45.6818 99.7963 45.8364C99.3782 45.9818 98.9236 46.0545 98.4327 46.0545C97.9054 46.0545 97.3782 45.9682 96.8509 45.7955C96.3236 45.6227 95.8782 45.3727 95.5145 45.0455L96.0736 43.9818C96.3918 44.2636 96.7782 44.4864 97.2327 44.65C97.6873 44.8045 98.11 44.8818 98.5009 44.8818C98.7282 44.8818 98.9282 44.8545 99.1009 44.8C99.2827 44.7364 99.4236 44.6455 99.5236 44.5273C99.6327 44.4091 99.6873 44.2545 99.6873 44.0636C99.6873 43.8091 99.5963 43.6091 99.4145 43.4636C99.2327 43.3182 98.9963 43.2 98.7054 43.1091C98.4145 43.0091 98.1054 42.9136 97.7782 42.8227C97.4509 42.7227 97.1418 42.5955 96.8509 42.4409C96.5691 42.2864 96.3373 42.0773 96.1554 41.8136C95.9736 41.55 95.8827 41.2 95.8827 40.7636C95.8827 40.2727 96.01 39.8773 96.2645 39.5773C96.5191 39.2682 96.8463 39.0455 97.2463 38.9091C97.6554 38.7636 98.0918 38.6909 98.5554 38.6909C99.01 38.6909 99.4645 38.7545 99.9191 38.8818C100.374 39.0091 100.765 39.1864 101.092 39.4136L100.519 40.5182ZM104.361 43.7091C104.361 44.1 104.429 44.3682 104.565 44.5136C104.702 44.65 104.893 44.7182 105.138 44.7182C105.302 44.7182 105.47 44.6909 105.643 44.6364C105.824 44.5818 106.02 44.5 106.229 44.3909L106.624 45.5227C106.343 45.6955 106.052 45.8318 105.752 45.9318C105.452 46.0227 105.147 46.0682 104.838 46.0682C104.474 46.0682 104.138 46 103.829 45.8636C103.52 45.7182 103.27 45.4909 103.079 45.1818C102.897 44.8727 102.806 44.4727 102.806 43.9818V37.0409H104.361V43.7091ZM101.784 39.0182H106.502V40.1364H101.784V39.0182ZM107.8 38.7591H109.355V46H107.8V38.7591ZM108.578 35.7727C108.841 35.7727 109.059 35.8591 109.232 36.0318C109.405 36.2045 109.491 36.4227 109.491 36.6864C109.491 36.9409 109.405 37.1591 109.232 37.3409C109.059 37.5136 108.841 37.6 108.578 37.6C108.323 37.6 108.105 37.5136 107.923 37.3409C107.75 37.1591 107.664 36.9409 107.664 36.6864C107.664 36.4227 107.75 36.2045 107.923 36.0318C108.105 35.8591 108.323 35.7727 108.578 35.7727ZM116.775 41.9091C116.775 41.3455 116.621 40.9045 116.312 40.5864C116.003 40.2591 115.575 40.0955 115.03 40.0955C114.385 40.1045 113.875 40.3318 113.503 40.7773C113.139 41.2227 112.957 41.7773 112.957 42.4409H112.521C112.521 41.5409 112.648 40.8182 112.903 40.2727C113.157 39.7273 113.516 39.3318 113.98 39.0864C114.453 38.8318 115.007 38.7045 115.644 38.7045C116.207 38.7045 116.689 38.8182 117.089 39.0455C117.498 39.2727 117.807 39.5955 118.016 40.0136C118.235 40.4227 118.344 40.9182 118.344 41.5V46H116.775V41.9091ZM111.403 38.7591H112.971V46H111.403V38.7591ZM126.718 45.2773C126.718 45.9773 126.563 46.5818 126.254 47.0909C125.945 47.6 125.508 47.9909 124.945 48.2636C124.381 48.5455 123.718 48.6864 122.954 48.6864C122.39 48.6864 121.858 48.6 121.358 48.4273C120.858 48.2636 120.386 48.0318 119.94 47.7318L120.608 46.6545C120.954 46.9091 121.308 47.1045 121.672 47.2409C122.036 47.3864 122.44 47.4591 122.886 47.4591C123.349 47.4591 123.749 47.3682 124.086 47.1864C124.431 47.0136 124.695 46.7682 124.877 46.45C125.068 46.1318 125.163 45.7545 125.163 45.3182V38.7591H126.718V45.2773ZM122.708 38.7045C123.345 38.6955 123.886 38.8318 124.331 39.1136C124.786 39.3864 125.131 39.7818 125.368 40.3C125.604 40.8182 125.718 41.4409 125.708 42.1682C125.718 42.8955 125.604 43.5227 125.368 44.05C125.14 44.5682 124.804 44.9682 124.358 45.25C123.922 45.5227 123.39 45.6591 122.763 45.6591C122.108 45.6591 121.536 45.5136 121.045 45.2227C120.554 44.9227 120.172 44.5091 119.899 43.9818C119.627 43.4545 119.49 42.8455 119.49 42.1545C119.49 41.4727 119.622 40.8773 119.886 40.3682C120.158 39.85 120.536 39.4455 121.018 39.1545C121.508 38.8545 122.072 38.7045 122.708 38.7045ZM123.077 39.9045C122.668 39.9045 122.304 40.0045 121.986 40.2045C121.668 40.3955 121.418 40.6636 121.236 41.0091C121.063 41.3545 120.972 41.75 120.963 42.1955C120.972 42.6409 121.063 43.0364 121.236 43.3818C121.418 43.7273 121.663 44 121.972 44.2C122.29 44.3909 122.658 44.4864 123.077 44.4864C123.486 44.4864 123.845 44.3909 124.154 44.2C124.472 44 124.718 43.7273 124.89 43.3818C125.072 43.0364 125.163 42.6409 125.163 42.1955C125.163 41.7409 125.072 41.3455 124.89 41.0091C124.718 40.6636 124.472 40.3955 124.154 40.2045C123.845 40.0045 123.486 39.9045 123.077 39.9045ZM128.349 36.5773H129.849V38.9227L129.59 43H128.608L128.349 38.9227V36.5773ZM129.099 44.3909C129.345 44.3909 129.549 44.4727 129.713 44.6364C129.876 44.7909 129.958 44.9955 129.958 45.25C129.958 45.5045 129.876 45.7136 129.713 45.8773C129.549 46.0409 129.345 46.1227 129.099 46.1227C128.854 46.1227 128.649 46.0409 128.485 45.8773C128.322 45.7136 128.24 45.5045 128.24 45.25C128.24 44.9955 128.322 44.7909 128.485 44.6364C128.649 44.4727 128.854 44.3909 129.099 44.3909Z" fill="#101044"/>
<defs>
<clipPath id="clip0_4_12275">
<rect width="19" height="21" fill="white" transform="translate(22 23)"/>
</clipPath>
</defs>
</svg>
