<svg width="220" height="82" viewBox="0 0 220 82" fill="none" xmlns="http://www.w3.org/2000/svg">
<rect width="220" height="69" rx="10" fill="white"/>
<rect x="109.727" y="56" width="18" height="18" rx="2" transform="rotate(45 109.727 56)" fill="white"/>
<rect x="15" y="17" width="34" height="34" rx="17" fill="#695DFD"/>
<g clip-path="url(#clip0_4_12389)">
<path d="M39.6303 40.8037H25.0894C23.9364 40.8023 23.002 39.868 23 38.7143V29.0894C23.0013 27.9357 23.9357 27.0013 25.0894 27H39.631C40.784 27.0013 41.7184 27.9357 41.7204 29.0894V38.7143C41.7191 39.8673 40.7847 40.8017 39.631 40.8037H39.6303ZM25.1089 39.5424H39.6115L34.9935 34.7905C34.4378 35.3623 33.9898 35.8231 33.7355 36.0874C32.97 36.8402 31.7417 36.8402 30.9761 36.0874C30.7192 35.8217 30.2752 35.3636 29.7256 34.7985L25.1089 39.5424ZM24.2613 29.1815V38.6053L28.8464 33.8938C27.3046 32.3082 25.7002 30.6595 24.2613 29.1822V29.1815ZM35.8733 33.885L40.4584 38.602V29.1802C39.1157 30.5572 37.434 32.282 35.8733 33.8857V33.885ZM30.1965 33.472C30.9452 34.2422 31.5614 34.8766 31.8829 35.2096C32.1453 35.4672 32.5657 35.4672 32.8274 35.2096C34.7392 33.2372 37.7017 30.2014 39.5927 28.2606H25.125C26.6991 29.8785 28.5659 31.7963 30.1965 33.472Z" fill="white"/>
</g>
<path d="M67.2273 20.4545H68.8773L73.05 30H71.3318L68.0045 22.0773L64.6909 30H63.0136L67.2273 20.4545ZM65.1136 26.4273H70.8273V27.7909H65.1136V26.4273ZM79.1974 27.7091C79.1974 28.1 79.2656 28.3682 79.402 28.5136C79.5384 28.65 79.7293 28.7182 79.9747 28.7182C80.1384 28.7182 80.3065 28.6909 80.4793 28.6364C80.6611 28.5818 80.8565 28.5 81.0656 28.3909L81.4611 29.5227C81.1793 29.6955 80.8884 29.8318 80.5884 29.9318C80.2884 30.0227 79.9838 30.0682 79.6747 30.0682C79.3111 30.0682 78.9747 30 78.6656 29.8636C78.3565 29.7182 78.1065 29.4909 77.9156 29.1818C77.7338 28.8727 77.6429 28.4727 77.6429 27.9818V21.0409H79.1974V27.7091ZM76.6202 23.0182H81.3384V24.1364H76.6202V23.0182ZM86.7142 24.1227C86.196 24.0955 85.746 24.1864 85.3642 24.3955C84.9914 24.5955 84.7005 24.8773 84.4914 25.2409C84.2914 25.6045 84.1914 26.0227 84.1914 26.4955L83.7551 26.4409C83.7551 25.6318 83.8733 24.95 84.1096 24.3955C84.346 23.8409 84.6869 23.4227 85.1324 23.1409C85.5778 22.85 86.1051 22.7045 86.7142 22.7045V24.1227ZM82.6369 22.7591H84.2051V30H82.6369V22.7591ZM89.8106 26.7682C89.3015 26.7682 88.9242 26.8455 88.6788 27C88.4333 27.1545 88.3106 27.4091 88.3106 27.7636C88.3106 28.1 88.4333 28.3682 88.6788 28.5682C88.9333 28.7682 89.2788 28.8682 89.7151 28.8682C90.106 28.8682 90.456 28.8 90.7651 28.6636C91.0742 28.5273 91.3197 28.3455 91.5015 28.1182C91.6833 27.8818 91.7788 27.6182 91.7879 27.3273L92.0879 28.65C91.8606 29.1227 91.5151 29.4773 91.0515 29.7136C90.5879 29.95 90.0333 30.0682 89.3879 30.0682C88.8697 30.0682 88.4197 29.9682 88.0379 29.7682C87.656 29.5682 87.3606 29.3 87.1515 28.9636C86.9424 28.6182 86.8379 28.2364 86.8379 27.8182C86.8379 27.1636 87.0742 26.6409 87.5469 26.25C88.0288 25.8591 88.706 25.6591 89.5788 25.65H91.9788V26.7682H89.8106ZM91.7742 25.4045C91.7742 24.9318 91.6288 24.5636 91.3379 24.3C91.0469 24.0364 90.6151 23.9045 90.0424 23.9045C89.6969 23.9045 89.3424 23.9682 88.9788 24.0955C88.6242 24.2227 88.2651 24.4091 87.9015 24.6545L87.2606 23.6455C87.5969 23.4364 87.9151 23.2636 88.2151 23.1273C88.5151 22.9909 88.8333 22.8864 89.1697 22.8136C89.5151 22.7409 89.9197 22.7045 90.3833 22.7045C91.3197 22.7045 92.0379 22.9318 92.5379 23.3864C93.0469 23.8318 93.306 24.45 93.3151 25.2409L93.3288 30H91.7879L91.7742 25.4045ZM97.9234 22.6909C98.5961 22.6909 99.1643 22.8409 99.6279 23.1409C100.101 23.4318 100.46 23.8545 100.705 24.4091C100.96 24.9545 101.082 25.6091 101.073 26.3727C101.082 27.1364 100.964 27.7955 100.719 28.35C100.473 28.9045 100.114 29.3318 99.6415 29.6318C99.1779 29.9227 98.6143 30.0682 97.9506 30.0682C97.2597 30.0682 96.6506 29.9136 96.1234 29.6045C95.6052 29.2864 95.2006 28.85 94.9097 28.2955C94.6188 27.7318 94.4734 27.0864 94.4734 26.3591C94.4734 25.6318 94.6188 24.9955 94.9097 24.45C95.2006 23.8955 95.6052 23.4636 96.1234 23.1545C96.6415 22.8455 97.2415 22.6909 97.9234 22.6909ZM98.2779 23.9591C97.8415 23.9591 97.4552 24.0636 97.1188 24.2727C96.7825 24.4818 96.5188 24.7727 96.3279 25.1455C96.1461 25.5091 96.0506 25.9273 96.0415 26.4C96.0506 26.8727 96.1461 27.2909 96.3279 27.6545C96.5188 28.0182 96.7825 28.3045 97.1188 28.5136C97.4552 28.7227 97.8415 28.8273 98.2779 28.8273C98.7143 28.8273 99.1006 28.7227 99.437 28.5136C99.7734 28.3045 100.032 28.0182 100.214 27.6545C100.405 27.2909 100.501 26.8727 100.501 26.4C100.501 25.9182 100.405 25.4955 100.214 25.1318C100.032 24.7682 99.7734 24.4818 99.437 24.2727C99.1006 24.0636 98.7143 23.9591 98.2779 23.9591ZM100.501 19.8818H102.069V30H100.501V19.8818ZM109.196 25.8545C109.178 25.4455 109.082 25.1 108.909 24.8182C108.746 24.5273 108.514 24.3045 108.214 24.15C107.914 23.9864 107.568 23.9045 107.178 23.9045C106.741 23.9045 106.359 24.0045 106.032 24.2045C105.714 24.4045 105.464 24.6864 105.282 25.05C105.1 25.4045 105.009 25.8227 105.009 26.3045C105.009 26.8227 105.105 27.2727 105.296 27.6545C105.496 28.0364 105.768 28.3318 106.114 28.5409C106.468 28.75 106.873 28.8545 107.328 28.8545C108.137 28.8545 108.818 28.5682 109.373 27.9955L110.205 28.8273C109.85 29.2182 109.418 29.5227 108.909 29.7409C108.4 29.95 107.832 30.0545 107.205 30.0545C106.459 30.0545 105.809 29.9 105.255 29.5909C104.7 29.2818 104.268 28.8545 103.959 28.3091C103.65 27.7545 103.496 27.1136 103.496 26.3864C103.496 25.6591 103.65 25.0227 103.959 24.4773C104.268 23.9227 104.7 23.4909 105.255 23.1818C105.809 22.8727 106.446 22.7136 107.164 22.7045C108.018 22.7045 108.705 22.8818 109.223 23.2364C109.741 23.5818 110.109 24.0727 110.328 24.7091C110.546 25.3455 110.623 26.1 110.559 26.9727H104.764V25.8545H109.196ZM119.497 22.7045C120.188 22.7045 120.792 22.8591 121.311 23.1682C121.829 23.4773 122.233 23.9091 122.524 24.4636C122.815 25.0182 122.961 25.6636 122.961 26.4C122.961 27.1182 122.815 27.7545 122.524 28.3091C122.242 28.8545 121.842 29.2818 121.324 29.5909C120.815 29.9 120.215 30.0545 119.524 30.0545C118.861 30.0545 118.292 29.9091 117.82 29.6182C117.356 29.3273 117.001 28.9091 116.756 28.3636C116.511 27.8091 116.388 27.1545 116.388 26.4C116.388 25.6182 116.511 24.9545 116.756 24.4091C117.001 23.8545 117.356 23.4318 117.82 23.1409C118.292 22.85 118.851 22.7045 119.497 22.7045ZM119.17 23.9455C118.742 23.9455 118.361 24.05 118.024 24.2591C117.688 24.4682 117.424 24.7545 117.233 25.1182C117.051 25.4727 116.961 25.8864 116.961 26.3591C116.961 26.8318 117.051 27.2545 117.233 27.6273C117.424 27.9909 117.688 28.2773 118.024 28.4864C118.361 28.6864 118.742 28.7864 119.17 28.7864C119.606 28.7864 119.988 28.6818 120.315 28.4727C120.651 28.2636 120.911 27.9773 121.092 27.6136C121.283 27.25 121.379 26.8318 121.379 26.3591C121.379 25.8955 121.283 25.4818 121.092 25.1182C120.911 24.7545 120.651 24.4682 120.315 24.2591C119.988 24.05 119.606 23.9455 119.17 23.9455ZM115.392 19.8818H116.961V30H115.392V19.8818ZM125.656 26.85C125.656 27.4136 125.806 27.8591 126.106 28.1864C126.406 28.5045 126.82 28.6636 127.347 28.6636C127.975 28.6455 128.461 28.4136 128.806 27.9682C129.161 27.5227 129.338 26.9727 129.338 26.3182H129.761C129.761 27.2091 129.638 27.9273 129.393 28.4727C129.147 29.0182 128.797 29.4182 128.343 29.6727C127.897 29.9182 127.365 30.0455 126.747 30.0545C126.193 30.0545 125.715 29.9409 125.315 29.7136C124.925 29.4864 124.62 29.1636 124.402 28.7455C124.193 28.3273 124.088 27.8318 124.088 27.2591V22.7591H125.656V26.85ZM129.338 22.7591H130.906V30H129.338V22.7591ZM135.806 31.0227C135.579 31.5773 135.265 31.9955 134.865 32.2773C134.465 32.5682 133.993 32.7136 133.447 32.7136C133.12 32.7136 132.82 32.6636 132.547 32.5636C132.283 32.4636 132.024 32.3136 131.77 32.1136L132.438 30.9545C132.765 31.1909 133.079 31.3091 133.379 31.3091C133.615 31.3091 133.829 31.2409 134.02 31.1045C134.211 30.9682 134.365 30.7591 134.483 30.4773L134.729 29.9045L131.729 22.7591H133.352L135.52 28.35L137.538 22.7591H139.106L135.806 31.0227ZM144.68 25.8545C144.661 25.4455 144.566 25.1 144.393 24.8182C144.23 24.5273 143.998 24.3045 143.698 24.15C143.398 23.9864 143.052 23.9045 142.661 23.9045C142.225 23.9045 141.843 24.0045 141.516 24.2045C141.198 24.4045 140.948 24.6864 140.766 25.05C140.584 25.4045 140.493 25.8227 140.493 26.3045C140.493 26.8227 140.589 27.2727 140.78 27.6545C140.98 28.0364 141.252 28.3318 141.598 28.5409C141.952 28.75 142.357 28.8545 142.811 28.8545C143.62 28.8545 144.302 28.5682 144.857 27.9955L145.689 28.8273C145.334 29.2182 144.902 29.5227 144.393 29.7409C143.884 29.95 143.316 30.0545 142.689 30.0545C141.943 30.0545 141.293 29.9 140.739 29.5909C140.184 29.2818 139.752 28.8545 139.443 28.3091C139.134 27.7545 138.98 27.1136 138.98 26.3864C138.98 25.6591 139.134 25.0227 139.443 24.4773C139.752 23.9227 140.184 23.4909 140.739 23.1818C141.293 22.8727 141.93 22.7136 142.648 22.7045C143.502 22.7045 144.189 22.8818 144.707 23.2364C145.225 23.5818 145.593 24.0727 145.811 24.7091C146.03 25.3455 146.107 26.1 146.043 26.9727H140.248V25.8545H144.68ZM151.483 24.1227C150.964 24.0955 150.514 24.1864 150.133 24.3955C149.76 24.5955 149.469 24.8773 149.26 25.2409C149.06 25.6045 148.96 26.0227 148.96 26.4955L148.524 26.4409C148.524 25.6318 148.642 24.95 148.878 24.3955C149.114 23.8409 149.455 23.4227 149.901 23.1409C150.346 22.85 150.874 22.7045 151.483 22.7045V24.1227ZM147.405 22.7591H148.974V30H147.405V22.7591ZM155.902 22.7591H157.457V30H155.902V22.7591ZM156.679 19.7727C156.943 19.7727 157.161 19.8591 157.334 20.0318C157.507 20.2045 157.593 20.4227 157.593 20.6864C157.593 20.9409 157.507 21.1591 157.334 21.3409C157.161 21.5136 156.943 21.6 156.679 21.6C156.425 21.6 156.207 21.5136 156.025 21.3409C155.852 21.1591 155.766 20.9409 155.766 20.6864C155.766 20.4227 155.852 20.2045 156.025 20.0318C156.207 19.8591 156.425 19.7727 156.679 19.7727ZM163.636 24.5182C163.318 24.3273 162.968 24.1773 162.586 24.0682C162.214 23.95 161.868 23.8909 161.55 23.8909C161.241 23.8909 160.986 23.95 160.786 24.0682C160.586 24.1864 160.486 24.3818 160.486 24.6545C160.486 24.8818 160.577 25.0636 160.759 25.2C160.95 25.3273 161.191 25.4364 161.482 25.5273C161.773 25.6182 162.082 25.7136 162.409 25.8136C162.736 25.9136 163.045 26.0455 163.336 26.2091C163.636 26.3636 163.877 26.5773 164.059 26.85C164.241 27.1227 164.332 27.4818 164.332 27.9273C164.332 28.4182 164.2 28.8227 163.936 29.1409C163.682 29.45 163.341 29.6818 162.914 29.8364C162.495 29.9818 162.041 30.0545 161.55 30.0545C161.023 30.0545 160.495 29.9682 159.968 29.7955C159.441 29.6227 158.995 29.3727 158.632 29.0455L159.191 27.9818C159.509 28.2636 159.895 28.4864 160.35 28.65C160.804 28.8045 161.227 28.8818 161.618 28.8818C161.845 28.8818 162.045 28.8545 162.218 28.8C162.4 28.7364 162.541 28.6455 162.641 28.5273C162.75 28.4091 162.804 28.2545 162.804 28.0636C162.804 27.8091 162.714 27.6091 162.532 27.4636C162.35 27.3182 162.114 27.2 161.823 27.1091C161.532 27.0091 161.223 26.9136 160.895 26.8227C160.568 26.7227 160.259 26.5955 159.968 26.4409C159.686 26.2864 159.454 26.0773 159.273 25.8136C159.091 25.55 159 25.2 159 24.7636C159 24.2727 159.127 23.8773 159.382 23.5773C159.636 23.2682 159.964 23.0455 160.364 22.9091C160.773 22.7636 161.209 22.6909 161.673 22.6909C162.127 22.6909 162.582 22.7545 163.036 22.8818C163.491 23.0091 163.882 23.1864 164.209 23.4136L163.636 24.5182ZM64.1591 38.7591H65.7136V46H64.1591V38.7591ZM64.9364 35.7727C65.2 35.7727 65.4182 35.8591 65.5909 36.0318C65.7636 36.2045 65.85 36.4227 65.85 36.6864C65.85 36.9409 65.7636 37.1591 65.5909 37.3409C65.4182 37.5136 65.2 37.6 64.9364 37.6C64.6818 37.6 64.4636 37.5136 64.2818 37.3409C64.1091 37.1591 64.0227 36.9409 64.0227 36.6864C64.0227 36.4227 64.1091 36.2045 64.2818 36.0318C64.4636 35.8591 64.6818 35.7727 64.9364 35.7727ZM73.1343 41.9091C73.1343 41.3455 72.9797 40.9045 72.6706 40.5864C72.3615 40.2591 71.9343 40.0955 71.3888 40.0955C70.7434 40.1045 70.2343 40.3318 69.8615 40.7773C69.4979 41.2227 69.3161 41.7773 69.3161 42.4409H68.8797C68.8797 41.5409 69.007 40.8182 69.2615 40.2727C69.5161 39.7273 69.8752 39.3318 70.3388 39.0864C70.8115 38.8318 71.3661 38.7045 72.0025 38.7045C72.5661 38.7045 73.0479 38.8182 73.4479 39.0455C73.857 39.2727 74.1661 39.5955 74.3752 40.0136C74.5934 40.4227 74.7025 40.9182 74.7025 41.5V46H73.1343V41.9091ZM67.7615 38.7591H69.3297V46H67.7615V38.7591ZM78.3718 43.7091C78.3718 44.1 78.44 44.3682 78.5763 44.5136C78.7127 44.65 78.9036 44.7182 79.1491 44.7182C79.3127 44.7182 79.4809 44.6909 79.6536 44.6364C79.8354 44.5818 80.0309 44.5 80.24 44.3909L80.6354 45.5227C80.3536 45.6955 80.0627 45.8318 79.7627 45.9318C79.4627 46.0227 79.1582 46.0682 78.8491 46.0682C78.4854 46.0682 78.1491 46 77.84 45.8636C77.5309 45.7182 77.2809 45.4909 77.09 45.1818C76.9082 44.8727 76.8173 44.4727 76.8173 43.9818V37.0409H78.3718V43.7091ZM75.7945 39.0182H80.5127V40.1364H75.7945V39.0182ZM86.7495 41.8545C86.7314 41.4455 86.6359 41.1 86.4632 40.8182C86.2995 40.5273 86.0677 40.3045 85.7677 40.15C85.4677 39.9864 85.1223 39.9045 84.7314 39.9045C84.295 39.9045 83.9132 40.0045 83.5859 40.2045C83.2677 40.4045 83.0177 40.6864 82.8359 41.05C82.6541 41.4045 82.5632 41.8227 82.5632 42.3045C82.5632 42.8227 82.6586 43.2727 82.8495 43.6545C83.0495 44.0364 83.3223 44.3318 83.6677 44.5409C84.0223 44.75 84.4268 44.8545 84.8814 44.8545C85.6904 44.8545 86.3723 44.5682 86.9268 43.9955L87.7586 44.8273C87.4041 45.2182 86.9723 45.5227 86.4632 45.7409C85.9541 45.95 85.3859 46.0545 84.7586 46.0545C84.0132 46.0545 83.3632 45.9 82.8086 45.5909C82.2541 45.2818 81.8223 44.8545 81.5132 44.3091C81.2041 43.7545 81.0495 43.1136 81.0495 42.3864C81.0495 41.6591 81.2041 41.0227 81.5132 40.4773C81.8223 39.9227 82.2541 39.4909 82.8086 39.1818C83.3632 38.8727 83.9995 38.7136 84.7177 38.7045C85.5723 38.7045 86.2586 38.8818 86.7768 39.2364C87.295 39.5818 87.6632 40.0727 87.8814 40.7091C88.0995 41.3455 88.1768 42.1 88.1132 42.9727H82.3177V41.8545H86.7495ZM93.5526 40.1227C93.0344 40.0955 92.5844 40.1864 92.2026 40.3955C91.8299 40.5955 91.539 40.8773 91.3299 41.2409C91.1299 41.6045 91.0299 42.0227 91.0299 42.4955L90.5935 42.4409C90.5935 41.6318 90.7117 40.95 90.948 40.3955C91.1844 39.8409 91.5253 39.4227 91.9708 39.1409C92.4162 38.85 92.9435 38.7045 93.5526 38.7045V40.1227ZM89.4753 38.7591H91.0435V46H89.4753V38.7591ZM99.5874 41.8545C99.5692 41.4455 99.4738 41.1 99.3011 40.8182C99.1374 40.5273 98.9056 40.3045 98.6056 40.15C98.3056 39.9864 97.9602 39.9045 97.5692 39.9045C97.1329 39.9045 96.7511 40.0045 96.4238 40.2045C96.1056 40.4045 95.8556 40.6864 95.6738 41.05C95.492 41.4045 95.4011 41.8227 95.4011 42.3045C95.4011 42.8227 95.4965 43.2727 95.6874 43.6545C95.8874 44.0364 96.1602 44.3318 96.5056 44.5409C96.8602 44.75 97.2647 44.8545 97.7192 44.8545C98.5283 44.8545 99.2102 44.5682 99.7647 43.9955L100.597 44.8273C100.242 45.2182 99.8102 45.5227 99.3011 45.7409C98.792 45.95 98.2238 46.0545 97.5965 46.0545C96.8511 46.0545 96.2011 45.9 95.6465 45.5909C95.092 45.2818 94.6602 44.8545 94.3511 44.3091C94.042 43.7545 93.8874 43.1136 93.8874 42.3864C93.8874 41.6591 94.042 41.0227 94.3511 40.4773C94.6602 39.9227 95.092 39.4909 95.6465 39.1818C96.2011 38.8727 96.8374 38.7136 97.5556 38.7045C98.4102 38.7045 99.0965 38.8818 99.6147 39.2364C100.133 39.5818 100.501 40.0727 100.719 40.7091C100.937 41.3455 101.015 42.1 100.951 42.9727H95.1556V41.8545H99.5874ZM106.445 40.5182C106.127 40.3273 105.777 40.1773 105.395 40.0682C105.022 39.95 104.677 39.8909 104.359 39.8909C104.05 39.8909 103.795 39.95 103.595 40.0682C103.395 40.1864 103.295 40.3818 103.295 40.6545C103.295 40.8818 103.386 41.0636 103.568 41.2C103.759 41.3273 104 41.4364 104.29 41.5273C104.581 41.6182 104.89 41.7136 105.218 41.8136C105.545 41.9136 105.854 42.0455 106.145 42.2091C106.445 42.3636 106.686 42.5773 106.868 42.85C107.05 43.1227 107.14 43.4818 107.14 43.9273C107.14 44.4182 107.009 44.8227 106.745 45.1409C106.49 45.45 106.15 45.6818 105.722 45.8364C105.304 45.9818 104.85 46.0545 104.359 46.0545C103.831 46.0545 103.304 45.9682 102.777 45.7955C102.25 45.6227 101.804 45.3727 101.44 45.0455L102 43.9818C102.318 44.2636 102.704 44.4864 103.159 44.65C103.613 44.8045 104.036 44.8818 104.427 44.8818C104.654 44.8818 104.854 44.8545 105.027 44.8C105.209 44.7364 105.35 44.6455 105.45 44.5273C105.559 44.4091 105.613 44.2545 105.613 44.0636C105.613 43.8091 105.522 43.6091 105.34 43.4636C105.159 43.3182 104.922 43.2 104.631 43.1091C104.34 43.0091 104.031 42.9136 103.704 42.8227C103.377 42.7227 103.068 42.5955 102.777 42.4409C102.495 42.2864 102.263 42.0773 102.081 41.8136C101.9 41.55 101.809 41.2 101.809 40.7636C101.809 40.2727 101.936 39.8773 102.19 39.5773C102.445 39.2682 102.772 39.0455 103.172 38.9091C103.581 38.7636 104.018 38.6909 104.481 38.6909C104.936 38.6909 105.39 38.7545 105.845 38.8818C106.3 39.0091 106.69 39.1864 107.018 39.4136L106.445 40.5182ZM110.287 43.7091C110.287 44.1 110.355 44.3682 110.491 44.5136C110.628 44.65 110.819 44.7182 111.064 44.7182C111.228 44.7182 111.396 44.6909 111.569 44.6364C111.75 44.5818 111.946 44.5 112.155 44.3909L112.55 45.5227C112.269 45.6955 111.978 45.8318 111.678 45.9318C111.378 46.0227 111.073 46.0682 110.764 46.0682C110.4 46.0682 110.064 46 109.755 45.8636C109.446 45.7182 109.196 45.4909 109.005 45.1818C108.823 44.8727 108.732 44.4727 108.732 43.9818V37.0409H110.287V43.7091ZM107.709 39.0182H112.428V40.1364H107.709V39.0182ZM118.664 41.8545C118.646 41.4455 118.551 41.1 118.378 40.8182C118.214 40.5273 117.983 40.3045 117.683 40.15C117.383 39.9864 117.037 39.9045 116.646 39.9045C116.21 39.9045 115.828 40.0045 115.501 40.2045C115.183 40.4045 114.933 40.6864 114.751 41.05C114.569 41.4045 114.478 41.8227 114.478 42.3045C114.478 42.8227 114.574 43.2727 114.764 43.6545C114.964 44.0364 115.237 44.3318 115.583 44.5409C115.937 44.75 116.342 44.8545 116.796 44.8545C117.605 44.8545 118.287 44.5682 118.842 43.9955L119.674 44.8273C119.319 45.2182 118.887 45.5227 118.378 45.7409C117.869 45.95 117.301 46.0545 116.674 46.0545C115.928 46.0545 115.278 45.9 114.724 45.5909C114.169 45.2818 113.737 44.8545 113.428 44.3091C113.119 43.7545 112.964 43.1136 112.964 42.3864C112.964 41.6591 113.119 41.0227 113.428 40.4773C113.737 39.9227 114.169 39.4909 114.724 39.1818C115.278 38.8727 115.914 38.7136 116.633 38.7045C117.487 38.7045 118.174 38.8818 118.692 39.2364C119.21 39.5818 119.578 40.0727 119.796 40.7091C120.014 41.3455 120.092 42.1 120.028 42.9727H114.233V41.8545H118.664ZM124.158 38.6909C124.831 38.6909 125.399 38.8409 125.863 39.1409C126.336 39.4318 126.695 39.8545 126.94 40.4091C127.195 40.9545 127.318 41.6091 127.308 42.3727C127.318 43.1364 127.199 43.7955 126.954 44.35C126.708 44.9045 126.349 45.3318 125.877 45.6318C125.413 45.9227 124.849 46.0682 124.186 46.0682C123.495 46.0682 122.886 45.9136 122.358 45.6045C121.84 45.2864 121.436 44.85 121.145 44.2955C120.854 43.7318 120.708 43.0864 120.708 42.3591C120.708 41.6318 120.854 40.9955 121.145 40.45C121.436 39.8955 121.84 39.4636 122.358 39.1545C122.877 38.8455 123.477 38.6909 124.158 38.6909ZM124.513 39.9591C124.077 39.9591 123.69 40.0636 123.354 40.2727C123.018 40.4818 122.754 40.7727 122.563 41.1455C122.381 41.5091 122.286 41.9273 122.277 42.4C122.286 42.8727 122.381 43.2909 122.563 43.6545C122.754 44.0182 123.018 44.3045 123.354 44.5136C123.69 44.7227 124.077 44.8273 124.513 44.8273C124.949 44.8273 125.336 44.7227 125.672 44.5136C126.008 44.3045 126.268 44.0182 126.449 43.6545C126.64 43.2909 126.736 42.8727 126.736 42.4C126.736 41.9182 126.64 41.4955 126.449 41.1318C126.268 40.7682 126.008 40.4818 125.672 40.2727C125.336 40.0636 124.949 39.9591 124.513 39.9591ZM126.736 35.8818H128.304V46H126.736V35.8818ZM133.815 38.7591H135.37V46H133.815V38.7591ZM134.593 35.7727C134.856 35.7727 135.074 35.8591 135.247 36.0318C135.42 36.2045 135.506 36.4227 135.506 36.6864C135.506 36.9409 135.42 37.1591 135.247 37.3409C135.074 37.5136 134.856 37.6 134.593 37.6C134.338 37.6 134.12 37.5136 133.938 37.3409C133.765 37.1591 133.679 36.9409 133.679 36.6864C133.679 36.4227 133.765 36.2045 133.938 36.0318C134.12 35.8591 134.338 35.7727 134.593 35.7727ZM142.791 41.9091C142.791 41.3455 142.636 40.9045 142.327 40.5864C142.018 40.2591 141.591 40.0955 141.045 40.0955C140.4 40.1045 139.891 40.3318 139.518 40.7773C139.154 41.2227 138.972 41.7773 138.972 42.4409H138.536C138.536 41.5409 138.663 40.8182 138.918 40.2727C139.172 39.7273 139.531 39.3318 139.995 39.0864C140.468 38.8318 141.022 38.7045 141.659 38.7045C142.222 38.7045 142.704 38.8182 143.104 39.0455C143.513 39.2727 143.822 39.5955 144.031 40.0136C144.25 40.4227 144.359 40.9182 144.359 41.5V46H142.791V41.9091ZM137.418 38.7591H138.986V46H137.418V38.7591ZM152.44 47.0227C152.213 47.5773 151.899 47.9955 151.499 48.2773C151.099 48.5682 150.626 48.7136 150.081 48.7136C149.753 48.7136 149.453 48.6636 149.181 48.5636C148.917 48.4636 148.658 48.3136 148.403 48.1136L149.072 46.9545C149.399 47.1909 149.713 47.3091 150.013 47.3091C150.249 47.3091 150.463 47.2409 150.653 47.1045C150.844 46.9682 150.999 46.7591 151.117 46.4773L151.363 45.9045L148.363 38.7591H149.985L152.153 44.35L154.172 38.7591H155.74L152.44 47.0227ZM159.404 38.7045C160.15 38.7045 160.804 38.8591 161.368 39.1682C161.941 39.4773 162.386 39.9091 162.704 40.4636C163.022 41.0091 163.181 41.6455 163.181 42.3727C163.181 43.1 163.022 43.7409 162.704 44.2955C162.386 44.85 161.941 45.2818 161.368 45.5909C160.804 45.9 160.15 46.0545 159.404 46.0545C158.659 46.0545 158 45.9 157.427 45.5909C156.854 45.2818 156.409 44.85 156.091 44.2955C155.772 43.7409 155.613 43.1 155.613 42.3727C155.613 41.6455 155.772 41.0091 156.091 40.4636C156.409 39.9091 156.854 39.4773 157.427 39.1682C158 38.8591 158.659 38.7045 159.404 38.7045ZM159.404 39.9727C158.968 39.9727 158.581 40.0773 158.245 40.2864C157.909 40.4864 157.645 40.7682 157.454 41.1318C157.272 41.4955 157.181 41.9136 157.181 42.3864C157.181 42.8682 157.272 43.2909 157.454 43.6545C157.645 44.0182 157.909 44.3045 158.245 44.5136C158.581 44.7136 158.968 44.8136 159.404 44.8136C159.841 44.8136 160.222 44.7136 160.55 44.5136C160.886 44.3045 161.145 44.0182 161.327 43.6545C161.518 43.2909 161.613 42.8682 161.613 42.3864C161.613 41.9136 161.518 41.4955 161.327 41.1318C161.145 40.7682 160.886 40.4864 160.55 40.2864C160.222 40.0773 159.841 39.9727 159.404 39.9727ZM165.881 42.85C165.881 43.4136 166.031 43.8591 166.331 44.1864C166.631 44.5045 167.045 44.6636 167.572 44.6636C168.2 44.6455 168.686 44.4136 169.031 43.9682C169.386 43.5227 169.563 42.9727 169.563 42.3182H169.986C169.986 43.2091 169.863 43.9273 169.618 44.4727C169.372 45.0182 169.022 45.4182 168.568 45.6727C168.122 45.9182 167.591 46.0455 166.972 46.0545C166.418 46.0545 165.941 45.9409 165.541 45.7136C165.15 45.4864 164.845 45.1636 164.627 44.7455C164.418 44.3273 164.313 43.8318 164.313 43.2591V38.7591H165.881V42.85ZM169.563 38.7591H171.131V46H169.563V38.7591ZM177.259 40.1227C176.74 40.0955 176.29 40.1864 175.909 40.3955C175.536 40.5955 175.245 40.8773 175.036 41.2409C174.836 41.6045 174.736 42.0227 174.736 42.4955L174.299 42.4409C174.299 41.6318 174.418 40.95 174.654 40.3955C174.89 39.8409 175.231 39.4227 175.677 39.1409C176.122 38.85 176.649 38.7045 177.259 38.7045V40.1227ZM173.181 38.7591H174.749V46H173.181V38.7591ZM186.792 40.8318C186.537 40.5682 186.237 40.3636 185.892 40.2182C185.546 40.0727 185.155 40 184.719 40C184.301 40 183.928 40.1 183.601 40.3C183.273 40.5 183.019 40.7818 182.837 41.1455C182.655 41.5 182.564 41.9136 182.564 42.3864C182.564 42.8591 182.655 43.2773 182.837 43.6409C183.019 43.9955 183.273 44.2773 183.601 44.4864C183.928 44.6864 184.301 44.7864 184.719 44.7864C185.173 44.7864 185.582 44.7136 185.946 44.5682C186.31 44.4136 186.614 44.1909 186.86 43.9L187.732 44.7591C187.405 45.1682 186.978 45.4864 186.451 45.7136C185.932 45.9409 185.332 46.0545 184.651 46.0545C183.932 46.0545 183.296 45.9 182.742 45.5909C182.196 45.2818 181.769 44.8545 181.46 44.3091C181.151 43.7545 180.996 43.1136 180.996 42.3864C180.996 41.6591 181.151 41.0227 181.46 40.4773C181.769 39.9227 182.196 39.4909 182.742 39.1818C183.296 38.8636 183.932 38.7045 184.651 38.7045C185.305 38.7045 185.882 38.8045 186.382 39.0045C186.892 39.1955 187.314 39.4682 187.651 39.8227L186.792 40.8318ZM191.169 42.7682C190.66 42.7682 190.282 42.8455 190.037 43C189.791 43.1545 189.669 43.4091 189.669 43.7636C189.669 44.1 189.791 44.3682 190.037 44.5682C190.291 44.7682 190.637 44.8682 191.073 44.8682C191.464 44.8682 191.814 44.8 192.123 44.6636C192.432 44.5273 192.678 44.3455 192.86 44.1182C193.041 43.8818 193.137 43.6182 193.146 43.3273L193.446 44.65C193.219 45.1227 192.873 45.4773 192.41 45.7136C191.946 45.95 191.391 46.0682 190.746 46.0682C190.228 46.0682 189.778 45.9682 189.396 45.7682C189.014 45.5682 188.719 45.3 188.51 44.9636C188.301 44.6182 188.196 44.2364 188.196 43.8182C188.196 43.1636 188.432 42.6409 188.905 42.25C189.387 41.8591 190.064 41.6591 190.937 41.65H193.337V42.7682H191.169ZM193.132 41.4045C193.132 40.9318 192.987 40.5636 192.696 40.3C192.405 40.0364 191.973 39.9045 191.401 39.9045C191.055 39.9045 190.701 39.9682 190.337 40.0955C189.982 40.2227 189.623 40.4091 189.26 40.6545L188.619 39.6455C188.955 39.4364 189.273 39.2636 189.573 39.1273C189.873 38.9909 190.191 38.8864 190.528 38.8136C190.873 38.7409 191.278 38.7045 191.741 38.7045C192.678 38.7045 193.396 38.9318 193.896 39.3864C194.405 39.8318 194.664 40.45 194.673 41.2409L194.687 46H193.146L193.132 41.4045ZM200.591 40.1227C200.072 40.0955 199.622 40.1864 199.241 40.3955C198.868 40.5955 198.577 40.8773 198.368 41.2409C198.168 41.6045 198.068 42.0227 198.068 42.4955L197.632 42.4409C197.632 41.6318 197.75 40.95 197.986 40.3955C198.222 39.8409 198.563 39.4227 199.009 39.1409C199.454 38.85 199.982 38.7045 200.591 38.7045V40.1227ZM196.513 38.7591H198.082V46H196.513V38.7591Z" fill="#101044"/>
<defs>
<clipPath id="clip0_4_12389">
<rect width="18.7197" height="13.8037" fill="white" transform="translate(23 27)"/>
</clipPath>
</defs>
</svg>
