<svg width="289" height="159" viewBox="0 0 289 159" fill="none" xmlns="http://www.w3.org/2000/svg">
<path d="M238.225 50.6627C240.799 53.3495 245.133 53.3888 247.887 50.7504L256.306 42.6854C259.06 40.047 259.207 35.7144 256.633 33.0277C254.059 30.3409 249.724 30.3016 246.97 32.94L238.551 41.0049C235.797 43.6434 235.651 47.9759 238.225 50.6627Z" fill="#695DFD"/>
<path d="M267.612 68.6039L255.953 69.1916C254.33 69.2745 252.799 69.9307 251.642 71.0389C250.178 72.4411 249.435 74.4247 249.602 76.4819C249.752 78.3357 250.614 80.0423 252.027 81.2866C253.439 82.5319 255.235 83.1657 257.083 83.0726L268.741 82.4849C270.365 82.4023 271.896 81.7463 273.053 80.6381C274.517 79.2357 275.26 77.2515 275.093 75.1946C274.781 71.3682 271.425 68.4111 267.612 68.6039Z" fill="#695DFD"/>
<path d="M218.446 36.3882C219.603 35.2795 220.324 33.7776 220.475 32.1592L221.563 20.5376C221.919 16.7359 219.109 13.2561 215.299 12.7809C213.251 12.5256 211.237 13.1831 209.773 14.5853C208.616 15.6942 207.895 17.1963 207.744 18.8153L206.656 30.4364C206.483 32.2782 207.04 34.0997 208.224 35.565C209.406 37.0298 211.074 37.963 212.92 38.193C214.967 38.4483 216.981 37.7909 218.446 36.3882Z" fill="#695DFD"/>
<g filter="url(#filter0_d_246_9851)">
<rect x="20" y="60" width="208" height="79" rx="10" fill="white"/>
</g>
<path d="M62.2029 78.568C61.8082 78.3227 61.4029 78.12 60.9869 77.96C60.5815 77.8 60.1975 77.688 59.8349 77.624C59.4722 77.5493 59.1415 77.512 58.8429 77.512C58.3415 77.512 57.9362 77.608 57.6269 77.8C57.3282 77.992 57.1789 78.2747 57.1789 78.648C57.1789 78.9893 57.2855 79.2667 57.4989 79.48C57.7229 79.6933 58.0109 79.8693 58.3629 80.008C58.7255 80.1467 59.1202 80.28 59.5469 80.408C59.9735 80.536 60.4002 80.68 60.8269 80.84C61.2535 80.9893 61.6429 81.1867 61.9949 81.432C62.3575 81.6773 62.6455 81.992 62.8589 82.376C63.0722 82.76 63.1789 83.24 63.1789 83.816C63.1789 84.5093 62.9922 85.1013 62.6189 85.592C62.2455 86.0827 61.7335 86.4613 61.0829 86.728C60.4429 86.9947 59.7122 87.128 58.8909 87.128C58.2935 87.128 57.7069 87.0533 57.1309 86.904C56.5655 86.744 56.0269 86.5307 55.5149 86.264C55.0135 85.9973 54.5602 85.688 54.1549 85.336L55.0509 83.592C55.4349 83.944 55.8509 84.248 56.2989 84.504C56.7469 84.7493 57.1949 84.9413 57.6429 85.08C58.1015 85.208 58.5282 85.272 58.9229 85.272C59.5309 85.272 60.0002 85.1547 60.3309 84.92C60.6722 84.6853 60.8429 84.3547 60.8429 83.928C60.8429 83.576 60.7309 83.2933 60.5069 83.08C60.2935 82.8667 60.0109 82.6907 59.6589 82.552C59.3069 82.4027 58.9122 82.2747 58.4749 82.168C58.0482 82.0507 57.6215 81.9173 57.1949 81.768C56.7682 81.608 56.3735 81.4107 56.0109 81.176C55.6589 80.9307 55.3709 80.6213 55.1469 80.248C54.9335 79.8747 54.8269 79.4 54.8269 78.824C54.8269 78.1733 55.0029 77.6133 55.3549 77.144C55.7069 76.664 56.1922 76.296 56.8109 76.04C57.4402 75.7733 58.1762 75.64 59.0189 75.64C59.7655 75.64 60.4909 75.7467 61.1949 75.96C61.9095 76.1733 62.5335 76.456 63.0669 76.808L62.2029 78.568ZM70.5857 82.088C70.5644 81.64 70.4631 81.2613 70.2817 80.952C70.1004 80.632 69.8444 80.3867 69.5137 80.216C69.1937 80.0347 68.8257 79.944 68.4097 79.944C67.9297 79.944 67.5137 80.056 67.1617 80.28C66.8097 80.504 66.5324 80.8187 66.3297 81.224C66.1377 81.6293 66.0417 82.0987 66.0417 82.632C66.0417 83.2187 66.1484 83.7253 66.3617 84.152C66.5857 84.5787 66.8897 84.9093 67.2737 85.144C67.6577 85.368 68.1004 85.48 68.6017 85.48C69.5084 85.48 70.2817 85.1547 70.9217 84.504L72.0257 85.608C71.5991 86.0773 71.0817 86.44 70.4737 86.696C69.8657 86.952 69.1884 87.08 68.4417 87.08C67.5457 87.08 66.7671 86.8987 66.1057 86.536C65.4551 86.1627 64.9431 85.656 64.5697 85.016C64.2071 84.3653 64.0257 83.608 64.0257 82.744C64.0257 81.88 64.2071 81.1227 64.5697 80.472C64.9431 79.8213 65.4551 79.3147 66.1057 78.952C66.7671 78.5893 67.5244 78.4027 68.3777 78.392C69.3911 78.392 70.2071 78.6 70.8257 79.016C71.4551 79.432 71.9031 80.0187 72.1697 80.776C72.4364 81.5227 72.5324 82.4133 72.4577 83.448H65.7377V82.088H70.5857ZM76.3745 84.216C76.3745 84.6427 76.4545 84.936 76.6145 85.096C76.7745 85.256 76.9932 85.336 77.2705 85.336C77.4412 85.336 77.6278 85.3093 77.8305 85.256C78.0332 85.192 78.2518 85.096 78.4865 84.968L78.9665 86.472C78.6465 86.664 78.2998 86.8187 77.9265 86.936C77.5638 87.0427 77.1958 87.096 76.8225 87.096C76.3638 87.096 75.9425 87.0107 75.5585 86.84C75.1745 86.6587 74.8705 86.3813 74.6465 86.008C74.4225 85.624 74.3105 85.144 74.3105 84.568V76.456H76.3745V84.216ZM73.1105 78.792H78.8225V80.248H73.1105V78.792ZM90.3836 82.232C90.3836 81.6027 90.2183 81.112 89.8876 80.76C89.5676 80.408 89.1143 80.232 88.5276 80.232C87.8556 80.2427 87.3223 80.4933 86.9276 80.984C86.5436 81.464 86.3516 82.0667 86.3516 82.792H85.7916C85.7916 81.7573 85.9356 80.92 86.2236 80.28C86.5116 79.6293 86.9223 79.1547 87.4556 78.856C87.9996 78.5467 88.6343 78.392 89.3596 78.392C90.0103 78.392 90.565 78.5253 91.0236 78.792C91.493 79.0587 91.8503 79.4373 92.0956 79.928C92.3516 80.408 92.4796 80.9893 92.4796 81.672V87H90.3836V82.232ZM96.5116 82.232C96.5116 81.6027 96.3463 81.112 96.0156 80.76C95.685 80.408 95.2263 80.232 94.6396 80.232C93.9676 80.2427 93.4396 80.4933 93.0556 80.984C92.6716 81.464 92.4796 82.0667 92.4796 82.792H91.9196C91.9196 81.7573 92.0636 80.92 92.3516 80.28C92.6396 79.6293 93.0503 79.1547 93.5836 78.856C94.117 78.5467 94.7516 78.392 95.4876 78.392C96.1276 78.392 96.677 78.5253 97.1356 78.792C97.605 79.0587 97.9676 79.4373 98.2236 79.928C98.4796 80.408 98.6076 80.9893 98.6076 81.672V87H96.5116V82.232ZM84.2716 78.472H86.3516V87H84.2716V78.472ZM103.488 83.24C102.944 83.24 102.539 83.3253 102.272 83.496C102.005 83.6667 101.872 83.9493 101.872 84.344C101.872 84.7067 102.005 85 102.272 85.224C102.549 85.448 102.923 85.56 103.392 85.56C103.808 85.56 104.181 85.4907 104.512 85.352C104.853 85.2027 105.12 85.0053 105.312 84.76C105.515 84.504 105.632 84.2213 105.664 83.912L106.016 85.4C105.76 85.9547 105.365 86.376 104.832 86.664C104.299 86.952 103.653 87.096 102.896 87.096C102.288 87.096 101.76 86.9787 101.312 86.744C100.864 86.5093 100.517 86.1947 100.272 85.8C100.027 85.3947 99.9039 84.9413 99.9039 84.44C99.9039 83.6507 100.187 83.032 100.752 82.584C101.317 82.1253 102.117 81.8907 103.152 81.88H105.888V83.24H103.488ZM105.648 81.624C105.648 81.112 105.483 80.712 105.152 80.424C104.832 80.1253 104.352 79.976 103.712 79.976C103.317 79.976 102.901 80.0507 102.464 80.2C102.037 80.3387 101.605 80.5413 101.168 80.808L100.416 79.464C100.821 79.2187 101.211 79.0213 101.584 78.872C101.957 78.712 102.347 78.5947 102.752 78.52C103.168 78.4347 103.643 78.392 104.176 78.392C105.296 78.392 106.16 78.6587 106.768 79.192C107.376 79.7253 107.685 80.4613 107.696 81.4L107.712 87H105.664L105.648 81.624ZM108.813 78.472H111.213L112.989 81.304L114.813 78.472H117.101L114.381 82.632L117.293 87H114.893L112.989 83.944L110.925 87H108.605L111.597 82.632L108.813 78.472ZM118.499 78.472H120.579V87H118.499V78.472ZM119.523 74.84C119.864 74.84 120.147 74.952 120.371 75.176C120.595 75.4 120.707 75.6827 120.707 76.024C120.707 76.3547 120.595 76.6373 120.371 76.872C120.147 77.096 119.864 77.208 119.523 77.208C119.192 77.208 118.915 77.096 118.691 76.872C118.467 76.6373 118.355 76.3547 118.355 76.024C118.355 75.6827 118.467 75.4 118.691 75.176C118.915 74.952 119.192 74.84 119.523 74.84ZM128.947 82.232C128.947 81.6027 128.782 81.112 128.451 80.76C128.131 80.408 127.678 80.232 127.091 80.232C126.419 80.2427 125.886 80.4933 125.491 80.984C125.107 81.464 124.915 82.0667 124.915 82.792H124.355C124.355 81.7573 124.499 80.92 124.787 80.28C125.075 79.6293 125.486 79.1547 126.019 78.856C126.563 78.5467 127.198 78.392 127.923 78.392C128.574 78.392 129.129 78.5253 129.587 78.792C130.057 79.0587 130.414 79.4373 130.659 79.928C130.915 80.408 131.043 80.9893 131.043 81.672V87H128.947V82.232ZM135.075 82.232C135.075 81.6027 134.91 81.112 134.579 80.76C134.249 80.408 133.79 80.232 133.203 80.232C132.531 80.2427 132.003 80.4933 131.619 80.984C131.235 81.464 131.043 82.0667 131.043 82.792H130.483C130.483 81.7573 130.627 80.92 130.915 80.28C131.203 79.6293 131.614 79.1547 132.147 78.856C132.681 78.5467 133.315 78.392 134.051 78.392C134.691 78.392 135.241 78.5253 135.699 78.792C136.169 79.0587 136.531 79.4373 136.787 79.928C137.043 80.408 137.171 80.9893 137.171 81.672V87H135.075V82.232ZM122.835 78.472H124.915V87H122.835V78.472ZM140.996 83.224C140.996 83.8427 141.156 84.3333 141.476 84.696C141.806 85.048 142.26 85.224 142.836 85.224C143.508 85.2027 144.03 84.952 144.404 84.472C144.788 83.992 144.98 83.3893 144.98 82.664H145.524C145.524 83.6987 145.38 84.5413 145.092 85.192C144.804 85.832 144.398 86.3067 143.876 86.616C143.353 86.9147 142.729 87.0693 142.004 87.08C141.364 87.08 140.809 86.9467 140.34 86.68C139.881 86.4133 139.524 86.0347 139.268 85.544C139.022 85.0427 138.9 84.456 138.9 83.784V78.472H140.996V83.224ZM144.98 78.472H147.076V87H144.98V78.472ZM155.464 82.232C155.464 81.6027 155.298 81.112 154.968 80.76C154.648 80.408 154.194 80.232 153.608 80.232C152.936 80.2427 152.402 80.4933 152.008 80.984C151.624 81.464 151.432 82.0667 151.432 82.792H150.872C150.872 81.7573 151.016 80.92 151.304 80.28C151.592 79.6293 152.002 79.1547 152.536 78.856C153.08 78.5467 153.714 78.392 154.44 78.392C155.09 78.392 155.645 78.5253 156.104 78.792C156.573 79.0587 156.93 79.4373 157.176 79.928C157.432 80.408 157.56 80.9893 157.56 81.672V87H155.464V82.232ZM161.592 82.232C161.592 81.6027 161.426 81.112 161.096 80.76C160.765 80.408 160.306 80.232 159.72 80.232C159.048 80.2427 158.52 80.4933 158.136 80.984C157.752 81.464 157.56 82.0667 157.56 82.792H157C157 81.7573 157.144 80.92 157.432 80.28C157.72 79.6293 158.13 79.1547 158.664 78.856C159.197 78.5467 159.832 78.392 160.568 78.392C161.208 78.392 161.757 78.5253 162.216 78.792C162.685 79.0587 163.048 79.4373 163.304 79.928C163.56 80.408 163.688 80.9893 163.688 81.672V87H161.592V82.232ZM149.352 78.472H151.432V87H149.352V78.472ZM174.72 78.392C175.531 78.392 176.24 78.5733 176.848 78.936C177.456 79.2987 177.926 79.8107 178.256 80.472C178.598 81.1227 178.768 81.8853 178.768 82.76C178.768 83.6133 178.603 84.3653 178.272 85.016C177.942 85.656 177.472 86.1627 176.864 86.536C176.267 86.8987 175.563 87.08 174.752 87.08C173.995 87.08 173.344 86.9093 172.8 86.568C172.256 86.216 171.84 85.7147 171.552 85.064C171.264 84.4133 171.12 83.6453 171.12 82.76C171.12 81.8427 171.259 81.0587 171.536 80.408C171.824 79.7573 172.24 79.2613 172.784 78.92C173.328 78.568 173.974 78.392 174.72 78.392ZM174.256 80.04C173.787 80.04 173.366 80.1573 172.992 80.392C172.63 80.616 172.347 80.9307 172.144 81.336C171.942 81.7307 171.84 82.1893 171.84 82.712C171.84 83.2347 171.942 83.6987 172.144 84.104C172.347 84.5093 172.63 84.824 172.992 85.048C173.366 85.272 173.787 85.384 174.256 85.384C174.736 85.384 175.152 85.272 175.504 85.048C175.867 84.8133 176.15 84.4987 176.352 84.104C176.555 83.6987 176.656 83.2347 176.656 82.712C176.656 82.1893 176.555 81.7307 176.352 81.336C176.15 80.9307 175.867 80.616 175.504 80.392C175.152 80.1573 174.736 80.04 174.256 80.04ZM169.76 75.128H171.84V87H169.76V75.128ZM180.251 78.472H182.331V87H180.251V78.472ZM181.275 74.84C181.616 74.84 181.899 74.952 182.123 75.176C182.347 75.4 182.459 75.6827 182.459 76.024C182.459 76.3547 182.347 76.6373 182.123 76.872C181.899 77.096 181.616 77.208 181.275 77.208C180.944 77.208 180.667 77.096 180.443 76.872C180.219 76.6373 180.107 76.3547 180.107 76.024C180.107 75.6827 180.219 75.4 180.443 75.176C180.667 74.952 180.944 74.84 181.275 74.84ZM187.835 78.376C188.614 78.376 189.275 78.552 189.819 78.904C190.363 79.256 190.779 79.7573 191.067 80.408C191.355 81.048 191.494 81.8213 191.483 82.728C191.494 83.624 191.355 84.4027 191.067 85.064C190.79 85.7147 190.379 86.216 189.835 86.568C189.291 86.9093 188.641 87.08 187.883 87.08C187.073 87.08 186.358 86.8987 185.739 86.536C185.131 86.1627 184.657 85.6453 184.315 84.984C183.974 84.3227 183.803 83.5653 183.803 82.712C183.803 81.848 183.974 81.0907 184.315 80.44C184.657 79.7893 185.126 79.2827 185.723 78.92C186.331 78.5573 187.035 78.376 187.835 78.376ZM188.331 80.056C187.862 80.056 187.441 80.1733 187.067 80.408C186.705 80.6427 186.422 80.9627 186.219 81.368C186.017 81.7733 185.91 82.2373 185.899 82.76C185.91 83.2827 186.017 83.7467 186.219 84.152C186.422 84.5573 186.705 84.8773 187.067 85.112C187.441 85.336 187.862 85.448 188.331 85.448C188.811 85.448 189.233 85.336 189.595 85.112C189.969 84.8773 190.257 84.5573 190.459 84.152C190.662 83.7467 190.763 83.2827 190.763 82.76C190.763 82.2267 190.662 81.7627 190.459 81.368C190.257 80.9627 189.969 80.6427 189.595 80.408C189.233 80.1733 188.811 80.056 188.331 80.056ZM190.763 75.128H192.843V87H190.763V75.128Z" fill="#101044"/>
<path d="M35.31 102.21H39.38V102.85H35.31V102.21ZM38.39 98.93C38.79 98.93 39.17 99.0067 39.53 99.16C39.89 99.3067 40.2033 99.5233 40.47 99.81L39.87 100.96C39.4367 100.493 39 100.26 38.56 100.26C38.2733 100.26 38.0533 100.343 37.9 100.51C37.7533 100.677 37.68 100.927 37.68 101.26V105.49L36.99 104.8H40.33V106H35.31V104.8H36.79L36.09 105.49V101.23C36.09 100.497 36.29 99.93 36.69 99.53C37.0967 99.13 37.6633 98.93 38.39 98.93ZM43.9064 98.94C44.8864 98.94 45.6397 99.2467 46.1664 99.86C46.6931 100.473 46.9564 101.35 46.9564 102.49C46.9564 103.637 46.6931 104.52 46.1664 105.14C45.6397 105.753 44.8864 106.06 43.9064 106.06C42.9197 106.06 42.1597 105.753 41.6264 105.14C41.0997 104.52 40.8364 103.64 40.8364 102.5C40.8364 101.353 41.0997 100.473 41.6264 99.86C42.1597 99.2467 42.9197 98.94 43.9064 98.94ZM43.9064 100.1C43.4131 100.1 43.0464 100.29 42.8064 100.67C42.5731 101.05 42.4564 101.66 42.4564 102.5C42.4564 103.327 42.5731 103.933 42.8064 104.32C43.0464 104.707 43.4131 104.9 43.9064 104.9C44.3931 104.9 44.7531 104.707 44.9864 104.32C45.2197 103.933 45.3364 103.327 45.3364 102.5C45.3364 101.66 45.2197 101.05 44.9864 100.67C44.7531 100.29 44.3931 100.1 43.9064 100.1Z" fill="#101044"/>
<path d="M161.485 102.21H165.555V102.85H161.485V102.21ZM164.565 98.93C164.965 98.93 165.345 99.0067 165.705 99.16C166.065 99.3067 166.378 99.5233 166.645 99.81L166.045 100.96C165.612 100.493 165.175 100.26 164.735 100.26C164.448 100.26 164.228 100.343 164.075 100.51C163.928 100.677 163.855 100.927 163.855 101.26V105.49L163.165 104.8H166.505V106H161.485V104.8H162.965L162.265 105.49V101.23C162.265 100.497 162.465 99.93 162.865 99.53C163.272 99.13 163.838 98.93 164.565 98.93ZM166.471 99H169.461V106H167.881V99.6L168.571 100.29H166.471V99ZM171.627 106.07C171.301 106.077 171.061 106.003 170.907 105.85C170.754 105.697 170.677 105.52 170.677 105.32C170.677 105.093 170.747 104.91 170.887 104.77C171.034 104.63 171.221 104.56 171.447 104.56C171.647 104.56 171.821 104.627 171.967 104.76C172.121 104.887 172.197 105.07 172.197 105.31C172.197 105.423 172.174 105.53 172.127 105.63C172.087 105.73 172.044 105.827 171.997 105.92L171.287 107.17H170.537L171.227 105.36L171.627 106.07ZM174.791 102.25L174.211 101.56C174.358 101.56 174.518 101.56 174.691 101.56C174.865 101.553 175.031 101.55 175.191 101.55C175.351 101.55 175.478 101.55 175.571 101.55C176.118 101.55 176.591 101.64 176.991 101.82C177.391 102 177.701 102.25 177.921 102.57C178.141 102.89 178.251 103.257 178.251 103.67C178.251 104.157 178.135 104.58 177.901 104.94C177.668 105.293 177.341 105.57 176.921 105.77C176.508 105.97 176.018 106.07 175.451 106.07C174.998 106.07 174.525 105.993 174.031 105.84C173.545 105.68 173.115 105.477 172.741 105.23L173.351 104.08C173.638 104.307 173.945 104.49 174.271 104.63C174.605 104.763 174.941 104.83 175.281 104.83C175.675 104.83 175.985 104.737 176.211 104.55C176.438 104.363 176.551 104.107 176.551 103.78C176.551 103.473 176.441 103.233 176.221 103.06C176.001 102.88 175.668 102.79 175.221 102.79C175.141 102.79 175.021 102.793 174.861 102.8C174.701 102.8 174.525 102.803 174.331 102.81C174.138 102.817 173.951 102.823 173.771 102.83C173.591 102.837 173.445 102.847 173.331 102.86V99H177.931V100.27H174.091L174.791 99.58V102.25ZM181.962 98.94C182.942 98.94 183.695 99.2467 184.222 99.86C184.749 100.473 185.012 101.35 185.012 102.49C185.012 103.637 184.749 104.52 184.222 105.14C183.695 105.753 182.942 106.06 181.962 106.06C180.975 106.06 180.215 105.753 179.682 105.14C179.155 104.52 178.892 103.64 178.892 102.5C178.892 101.353 179.155 100.473 179.682 99.86C180.215 99.2467 180.975 98.94 181.962 98.94ZM181.962 100.1C181.469 100.1 181.102 100.29 180.862 100.67C180.629 101.05 180.512 101.66 180.512 102.5C180.512 103.327 180.629 103.933 180.862 104.32C181.102 104.707 181.469 104.9 181.962 104.9C182.449 104.9 182.809 104.707 183.042 104.32C183.275 103.933 183.392 103.327 183.392 102.5C183.392 101.66 183.275 101.05 183.042 100.67C182.809 100.29 182.449 100.1 181.962 100.1ZM188.813 98.94C189.793 98.94 190.546 99.2467 191.073 99.86C191.599 100.473 191.863 101.35 191.863 102.49C191.863 103.637 191.599 104.52 191.073 105.14C190.546 105.753 189.793 106.06 188.813 106.06C187.826 106.06 187.066 105.753 186.533 105.14C186.006 104.52 185.743 103.64 185.743 102.5C185.743 101.353 186.006 100.473 186.533 99.86C187.066 99.2467 187.826 98.94 188.813 98.94ZM188.813 100.1C188.319 100.1 187.953 100.29 187.713 100.67C187.479 101.05 187.363 101.66 187.363 102.5C187.363 103.327 187.479 103.933 187.713 104.32C187.953 104.707 188.319 104.9 188.813 104.9C189.299 104.9 189.659 104.707 189.893 104.32C190.126 103.933 190.243 103.327 190.243 102.5C190.243 101.66 190.126 101.05 189.893 100.67C189.659 100.29 189.299 100.1 188.813 100.1ZM193.483 106.07C193.157 106.077 192.917 106.003 192.763 105.85C192.61 105.697 192.533 105.52 192.533 105.32C192.533 105.093 192.603 104.91 192.743 104.77C192.89 104.63 193.077 104.56 193.303 104.56C193.503 104.56 193.677 104.627 193.823 104.76C193.977 104.887 194.053 105.07 194.053 105.31C194.053 105.423 194.03 105.53 193.983 105.63C193.943 105.73 193.9 105.827 193.853 105.92L193.143 107.17H192.393L193.083 105.36L193.483 106.07ZM197.788 98.94C198.768 98.94 199.521 99.2467 200.048 99.86C200.574 100.473 200.838 101.35 200.838 102.49C200.838 103.637 200.574 104.52 200.048 105.14C199.521 105.753 198.768 106.06 197.788 106.06C196.801 106.06 196.041 105.753 195.508 105.14C194.981 104.52 194.718 103.64 194.718 102.5C194.718 101.353 194.981 100.473 195.508 99.86C196.041 99.2467 196.801 98.94 197.788 98.94ZM197.788 100.1C197.294 100.1 196.928 100.29 196.688 100.67C196.454 101.05 196.338 101.66 196.338 102.5C196.338 103.327 196.454 103.933 196.688 104.32C196.928 104.707 197.294 104.9 197.788 104.9C198.274 104.9 198.634 104.707 198.868 104.32C199.101 103.933 199.218 103.327 199.218 102.5C199.218 101.66 199.101 101.05 198.868 100.67C198.634 100.29 198.274 100.1 197.788 100.1ZM204.638 98.94C205.618 98.94 206.372 99.2467 206.898 99.86C207.425 100.473 207.688 101.35 207.688 102.49C207.688 103.637 207.425 104.52 206.898 105.14C206.372 105.753 205.618 106.06 204.638 106.06C203.652 106.06 202.892 105.753 202.358 105.14C201.832 104.52 201.568 103.64 201.568 102.5C201.568 101.353 201.832 100.473 202.358 99.86C202.892 99.2467 203.652 98.94 204.638 98.94ZM204.638 100.1C204.145 100.1 203.778 100.29 203.538 100.67C203.305 101.05 203.188 101.66 203.188 102.5C203.188 103.327 203.305 103.933 203.538 104.32C203.778 104.707 204.145 104.9 204.638 104.9C205.125 104.9 205.485 104.707 205.718 104.32C205.952 103.933 206.068 103.327 206.068 102.5C206.068 101.66 205.952 101.05 205.718 100.67C205.485 100.29 205.125 100.1 204.638 100.1ZM211.489 98.94C212.469 98.94 213.223 99.2467 213.749 99.86C214.276 100.473 214.539 101.35 214.539 102.49C214.539 103.637 214.276 104.52 213.749 105.14C213.223 105.753 212.469 106.06 211.489 106.06C210.503 106.06 209.743 105.753 209.209 105.14C208.683 104.52 208.419 103.64 208.419 102.5C208.419 101.353 208.683 100.473 209.209 99.86C209.743 99.2467 210.503 98.94 211.489 98.94ZM211.489 100.1C210.996 100.1 210.629 100.29 210.389 100.67C210.156 101.05 210.039 101.66 210.039 102.5C210.039 103.327 210.156 103.933 210.389 104.32C210.629 104.707 210.996 104.9 211.489 104.9C211.976 104.9 212.336 104.707 212.569 104.32C212.803 103.933 212.919 103.327 212.919 102.5C212.919 101.66 212.803 101.05 212.569 100.67C212.336 100.29 211.976 100.1 211.489 100.1Z" fill="#101044"/>
<path d="M41 119H211" stroke="#EEF0FF" stroke-width="10" stroke-linecap="round"/>
<path d="M41 119.15H134.013" stroke="#695DFD" stroke-width="10" stroke-linecap="round"/>
<line x1="137" y1="111" x2="137" y2="126" stroke="#695DFD" stroke-width="4" stroke-linecap="round"/>
<defs>
<filter id="filter0_d_246_9851" x="0" y="50" width="238" height="109" filterUnits="userSpaceOnUse" color-interpolation-filters="sRGB">
<feFlood flood-opacity="0" result="BackgroundImageFix"/>
<feColorMatrix in="SourceAlpha" type="matrix" values="0 0 0 0 0 0 0 0 0 0 0 0 0 0 0 0 0 0 127 0" result="hardAlpha"/>
<feOffset dx="-5" dy="5"/>
<feGaussianBlur stdDeviation="7.5"/>
<feComposite in2="hardAlpha" operator="out"/>
<feColorMatrix type="matrix" values="0 0 0 0 0 0 0 0 0 0 0 0 0 0 0 0 0 0 0.06 0"/>
<feBlend mode="normal" in2="BackgroundImageFix" result="effect1_dropShadow_246_9851"/>
<feBlend mode="normal" in="SourceGraphic" in2="effect1_dropShadow_246_9851" result="shape"/>
</filter>
</defs>
</svg>
