<svg width="220" height="82" viewBox="0 0 220 82" fill="none" xmlns="http://www.w3.org/2000/svg">
<rect width="220" height="69" rx="10" fill="white"/>
<rect x="109.727" y="56" width="18" height="18" rx="2" transform="rotate(45 109.727 56)" fill="white"/>
<rect x="15" y="17" width="34" height="34" rx="17" fill="#695DFD"/>
<g clip-path="url(#clip0_4_12389)">
<path d="M39.6303 40.8037H25.0894C23.9364 40.8023 23.002 39.868 23 38.7143V29.0894C23.0013 27.9357 23.9357 27.0013 25.0894 27H39.631C40.784 27.0013 41.7184 27.9357 41.7204 29.0894V38.7143C41.7191 39.8673 40.7847 40.8017 39.631 40.8037H39.6303ZM25.1089 39.5424H39.6115L34.9935 34.7905C34.4378 35.3623 33.9898 35.8231 33.7355 36.0874C32.97 36.8402 31.7417 36.8402 30.9761 36.0874C30.7192 35.8217 30.2752 35.3636 29.7256 34.7985L25.1089 39.5424ZM24.2613 29.1815V38.6053L28.8464 33.8938C27.3046 32.3082 25.7002 30.6595 24.2613 29.1822V29.1815ZM35.8733 33.885L40.4584 38.602V29.1802C39.1157 30.5572 37.434 32.282 35.8733 33.8857V33.885ZM30.1965 33.472C30.9452 34.2422 31.5614 34.8766 31.8829 35.2096C32.1453 35.4672 32.5657 35.4672 32.8274 35.2096C34.7392 33.2372 37.7017 30.2014 39.5927 28.2606H25.125C26.6991 29.8785 28.5659 31.7963 30.1965 33.472Z" fill="white"/>
</g>
<path d="M67.2273 20.4545H68.8773L73.05 30H71.3318L68.0045 22.0773L64.6909 30H63.0136L67.2273 20.4545ZM65.1136 26.4273H70.8273V27.7909H65.1136V26.4273ZM81.5293 22.7045C82.2202 22.7045 82.8247 22.8591 83.3429 23.1682C83.8611 23.4773 84.2656 23.9091 84.5565 24.4636C84.8474 25.0182 84.9929 25.6636 84.9929 26.4C84.9929 27.1182 84.8474 27.7545 84.5565 28.3091C84.2747 28.8545 83.8747 29.2818 83.3565 29.5909C82.8474 29.9 82.2474 30.0545 81.5565 30.0545C80.8929 30.0545 80.3247 29.9091 79.852 29.6182C79.3884 29.3273 79.0338 28.9091 78.7884 28.3636C78.5429 27.8091 78.4202 27.1545 78.4202 26.4C78.4202 25.6182 78.5429 24.9545 78.7884 24.4091C79.0338 23.8545 79.3884 23.4318 79.852 23.1409C80.3247 22.85 80.8838 22.7045 81.5293 22.7045ZM81.202 23.9455C80.7747 23.9455 80.3929 24.05 80.0565 24.2591C79.7202 24.4682 79.4565 24.7545 79.2656 25.1182C79.0838 25.4727 78.9929 25.8864 78.9929 26.3591C78.9929 26.8318 79.0838 27.2545 79.2656 27.6273C79.4565 27.9909 79.7202 28.2773 80.0565 28.4864C80.3929 28.6864 80.7747 28.7864 81.202 28.7864C81.6384 28.7864 82.0202 28.6818 82.3474 28.4727C82.6838 28.2636 82.9429 27.9773 83.1247 27.6136C83.3156 27.25 83.4111 26.8318 83.4111 26.3591C83.4111 25.8955 83.3156 25.4818 83.1247 25.1182C82.9429 24.7545 82.6838 24.4682 82.3474 24.2591C82.0202 24.05 81.6384 23.9455 81.202 23.9455ZM77.4247 22.7591H78.9929V32.6455H77.4247V22.7591ZM90.4295 24.1227C89.9114 24.0955 89.4614 24.1864 89.0795 24.3955C88.7068 24.5955 88.4159 24.8773 88.2068 25.2409C88.0068 25.6045 87.9068 26.0227 87.9068 26.4955L87.4705 26.4409C87.4705 25.6318 87.5886 24.95 87.825 24.3955C88.0614 23.8409 88.4023 23.4227 88.8477 23.1409C89.2932 22.85 89.8205 22.7045 90.4295 22.7045V24.1227ZM86.3523 22.7591H87.9205V30H86.3523V22.7591ZM91.4462 22.7591H93.0007V30H91.4462V22.7591ZM92.2235 19.7727C92.4871 19.7727 92.7053 19.8591 92.878 20.0318C93.0507 20.2045 93.1371 20.4227 93.1371 20.6864C93.1371 20.9409 93.0507 21.1591 92.878 21.3409C92.7053 21.5136 92.4871 21.6 92.2235 21.6C91.9689 21.6 91.7507 21.5136 91.5689 21.3409C91.3962 21.1591 91.3098 20.9409 91.3098 20.6864C91.3098 20.4227 91.3962 20.2045 91.5689 20.0318C91.7507 19.8591 91.9689 19.7727 92.2235 19.7727ZM93.9032 22.7591H95.5396L97.5577 28.5545L99.5487 22.7591H101.117L98.335 30H96.7123L93.9032 22.7591ZM104.113 26.7682C103.604 26.7682 103.227 26.8455 102.981 27C102.736 27.1545 102.613 27.4091 102.613 27.7636C102.613 28.1 102.736 28.3682 102.981 28.5682C103.236 28.7682 103.581 28.8682 104.018 28.8682C104.409 28.8682 104.759 28.8 105.068 28.6636C105.377 28.5273 105.622 28.3455 105.804 28.1182C105.986 27.8818 106.081 27.6182 106.091 27.3273L106.391 28.65C106.163 29.1227 105.818 29.4773 105.354 29.7136C104.891 29.95 104.336 30.0682 103.691 30.0682C103.172 30.0682 102.722 29.9682 102.341 29.7682C101.959 29.5682 101.663 29.3 101.454 28.9636C101.245 28.6182 101.141 28.2364 101.141 27.8182C101.141 27.1636 101.377 26.6409 101.85 26.25C102.331 25.8591 103.009 25.6591 103.881 25.65H106.281V26.7682H104.113ZM106.077 25.4045C106.077 24.9318 105.931 24.5636 105.641 24.3C105.35 24.0364 104.918 23.9045 104.345 23.9045C104 23.9045 103.645 23.9682 103.281 24.0955C102.927 24.2227 102.568 24.4091 102.204 24.6545L101.563 23.6455C101.9 23.4364 102.218 23.2636 102.518 23.1273C102.818 22.9909 103.136 22.8864 103.472 22.8136C103.818 22.7409 104.222 22.7045 104.686 22.7045C105.622 22.7045 106.341 22.9318 106.841 23.3864C107.35 23.8318 107.609 24.45 107.618 25.2409L107.631 30H106.091L106.077 25.4045ZM111.299 27.7091C111.299 28.1 111.367 28.3682 111.503 28.5136C111.64 28.65 111.831 28.7182 112.076 28.7182C112.24 28.7182 112.408 28.6909 112.581 28.6364C112.762 28.5818 112.958 28.5 113.167 28.3909L113.562 29.5227C113.281 29.6955 112.99 29.8318 112.69 29.9318C112.39 30.0227 112.085 30.0682 111.776 30.0682C111.412 30.0682 111.076 30 110.767 29.8636C110.458 29.7182 110.208 29.4909 110.017 29.1818C109.835 28.8727 109.744 28.4727 109.744 27.9818V21.0409H111.299V27.7091ZM108.722 23.0182H113.44V24.1364H108.722V23.0182ZM119.677 25.8545C119.658 25.4455 119.563 25.1 119.39 24.8182C119.227 24.5273 118.995 24.3045 118.695 24.15C118.395 23.9864 118.049 23.9045 117.658 23.9045C117.222 23.9045 116.84 24.0045 116.513 24.2045C116.195 24.4045 115.945 24.6864 115.763 25.05C115.581 25.4045 115.49 25.8227 115.49 26.3045C115.49 26.8227 115.586 27.2727 115.777 27.6545C115.977 28.0364 116.249 28.3318 116.595 28.5409C116.949 28.75 117.354 28.8545 117.808 28.8545C118.617 28.8545 119.299 28.5682 119.854 27.9955L120.686 28.8273C120.331 29.2182 119.899 29.5227 119.39 29.7409C118.881 29.95 118.313 30.0545 117.686 30.0545C116.94 30.0545 116.29 29.9 115.736 29.5909C115.181 29.2818 114.749 28.8545 114.44 28.3091C114.131 27.7545 113.977 27.1136 113.977 26.3864C113.977 25.6591 114.131 25.0227 114.44 24.4773C114.749 23.9227 115.181 23.4909 115.736 23.1818C116.29 22.8727 116.927 22.7136 117.645 22.7045C118.499 22.7045 119.186 22.8818 119.704 23.2364C120.222 23.5818 120.59 24.0727 120.808 24.7091C121.027 25.3455 121.104 26.1 121.04 26.9727H115.245V25.8545H119.677ZM129.978 22.7045C130.669 22.7045 131.273 22.8591 131.791 23.1682C132.31 23.4773 132.714 23.9091 133.005 24.4636C133.296 25.0182 133.441 25.6636 133.441 26.4C133.441 27.1182 133.296 27.7545 133.005 28.3091C132.723 28.8545 132.323 29.2818 131.805 29.5909C131.296 29.9 130.696 30.0545 130.005 30.0545C129.341 30.0545 128.773 29.9091 128.3 29.6182C127.837 29.3273 127.482 28.9091 127.237 28.3636C126.991 27.8091 126.869 27.1545 126.869 26.4C126.869 25.6182 126.991 24.9545 127.237 24.4091C127.482 23.8545 127.837 23.4318 128.3 23.1409C128.773 22.85 129.332 22.7045 129.978 22.7045ZM129.65 23.9455C129.223 23.9455 128.841 24.05 128.505 24.2591C128.169 24.4682 127.905 24.7545 127.714 25.1182C127.532 25.4727 127.441 25.8864 127.441 26.3591C127.441 26.8318 127.532 27.2545 127.714 27.6273C127.905 27.9909 128.169 28.2773 128.505 28.4864C128.841 28.6864 129.223 28.7864 129.65 28.7864C130.087 28.7864 130.469 28.6818 130.796 28.4727C131.132 28.2636 131.391 27.9773 131.573 27.6136C131.764 27.25 131.86 26.8318 131.86 26.3591C131.86 25.8955 131.764 25.4818 131.573 25.1182C131.391 24.7545 131.132 24.4682 130.796 24.2591C130.469 24.05 130.087 23.9455 129.65 23.9455ZM125.873 19.8818H127.441V30H125.873V19.8818ZM136.137 26.85C136.137 27.4136 136.287 27.8591 136.587 28.1864C136.887 28.5045 137.301 28.6636 137.828 28.6636C138.455 28.6455 138.942 28.4136 139.287 27.9682C139.642 27.5227 139.819 26.9727 139.819 26.3182H140.242C140.242 27.2091 140.119 27.9273 139.874 28.4727C139.628 29.0182 139.278 29.4182 138.824 29.6727C138.378 29.9182 137.846 30.0455 137.228 30.0545C136.674 30.0545 136.196 29.9409 135.796 29.7136C135.405 29.4864 135.101 29.1636 134.883 28.7455C134.674 28.3273 134.569 27.8318 134.569 27.2591V22.7591H136.137V26.85ZM139.819 22.7591H141.387V30H139.819V22.7591ZM146.287 31.0227C146.06 31.5773 145.746 31.9955 145.346 32.2773C144.946 32.5682 144.473 32.7136 143.928 32.7136C143.601 32.7136 143.301 32.6636 143.028 32.5636C142.764 32.4636 142.505 32.3136 142.251 32.1136L142.919 30.9545C143.246 31.1909 143.56 31.3091 143.86 31.3091C144.096 31.3091 144.31 31.2409 144.501 31.1045C144.692 30.9682 144.846 30.7591 144.964 30.4773L145.21 29.9045L142.21 22.7591H143.832L146.001 28.35L148.019 22.7591H149.587L146.287 31.0227ZM155.16 25.8545C155.142 25.4455 155.047 25.1 154.874 24.8182C154.71 24.5273 154.479 24.3045 154.179 24.15C153.879 23.9864 153.533 23.9045 153.142 23.9045C152.706 23.9045 152.324 24.0045 151.997 24.2045C151.679 24.4045 151.429 24.6864 151.247 25.05C151.065 25.4045 150.974 25.8227 150.974 26.3045C150.974 26.8227 151.069 27.2727 151.26 27.6545C151.46 28.0364 151.733 28.3318 152.079 28.5409C152.433 28.75 152.838 28.8545 153.292 28.8545C154.101 28.8545 154.783 28.5682 155.338 27.9955L156.169 28.8273C155.815 29.2182 155.383 29.5227 154.874 29.7409C154.365 29.95 153.797 30.0545 153.169 30.0545C152.424 30.0545 151.774 29.9 151.219 29.5909C150.665 29.2818 150.233 28.8545 149.924 28.3091C149.615 27.7545 149.46 27.1136 149.46 26.3864C149.46 25.6591 149.615 25.0227 149.924 24.4773C150.233 23.9227 150.665 23.4909 151.219 23.1818C151.774 22.8727 152.41 22.7136 153.129 22.7045C153.983 22.7045 154.669 22.8818 155.188 23.2364C155.706 23.5818 156.074 24.0727 156.292 24.7091C156.51 25.3455 156.588 26.1 156.524 26.9727H150.729V25.8545H155.16ZM161.963 24.1227C161.445 24.0955 160.995 24.1864 160.613 24.3955C160.241 24.5955 159.95 24.8773 159.741 25.2409C159.541 25.6045 159.441 26.0227 159.441 26.4955L159.004 26.4409C159.004 25.6318 159.123 24.95 159.359 24.3955C159.595 23.8409 159.936 23.4227 160.382 23.1409C160.827 22.85 161.354 22.7045 161.963 22.7045V24.1227ZM157.886 22.7591H159.454V30H157.886V22.7591ZM166.383 22.7591H167.937V30H166.383V22.7591ZM167.16 19.7727C167.424 19.7727 167.642 19.8591 167.815 20.0318C167.987 20.2045 168.074 20.4227 168.074 20.6864C168.074 20.9409 167.987 21.1591 167.815 21.3409C167.642 21.5136 167.424 21.6 167.16 21.6C166.906 21.6 166.687 21.5136 166.506 21.3409C166.333 21.1591 166.246 20.9409 166.246 20.6864C166.246 20.4227 166.333 20.2045 166.506 20.0318C166.687 19.8591 166.906 19.7727 167.16 19.7727ZM174.117 24.5182C173.799 24.3273 173.449 24.1773 173.067 24.0682C172.694 23.95 172.349 23.8909 172.031 23.8909C171.722 23.8909 171.467 23.95 171.267 24.0682C171.067 24.1864 170.967 24.3818 170.967 24.6545C170.967 24.8818 171.058 25.0636 171.24 25.2C171.431 25.3273 171.672 25.4364 171.963 25.5273C172.253 25.6182 172.563 25.7136 172.89 25.8136C173.217 25.9136 173.526 26.0455 173.817 26.2091C174.117 26.3636 174.358 26.5773 174.54 26.85C174.722 27.1227 174.813 27.4818 174.813 27.9273C174.813 28.4182 174.681 28.8227 174.417 29.1409C174.163 29.45 173.822 29.6818 173.394 29.8364C172.976 29.9818 172.522 30.0545 172.031 30.0545C171.503 30.0545 170.976 29.9682 170.449 29.7955C169.922 29.6227 169.476 29.3727 169.113 29.0455L169.672 27.9818C169.99 28.2636 170.376 28.4864 170.831 28.65C171.285 28.8045 171.708 28.8818 172.099 28.8818C172.326 28.8818 172.526 28.8545 172.699 28.8C172.881 28.7364 173.022 28.6455 173.122 28.5273C173.231 28.4091 173.285 28.2545 173.285 28.0636C173.285 27.8091 173.194 27.6091 173.013 27.4636C172.831 27.3182 172.594 27.2 172.303 27.1091C172.013 27.0091 171.703 26.9136 171.376 26.8227C171.049 26.7227 170.74 26.5955 170.449 26.4409C170.167 26.2864 169.935 26.0773 169.753 25.8136C169.572 25.55 169.481 25.2 169.481 24.7636C169.481 24.2727 169.608 23.8773 169.863 23.5773C170.117 23.2682 170.444 23.0455 170.844 22.9091C171.253 22.7636 171.69 22.6909 172.153 22.6909C172.608 22.6909 173.063 22.7545 173.517 22.8818C173.972 23.0091 174.363 23.1864 174.69 23.4136L174.117 24.5182ZM64.1591 38.7591H65.7136V46H64.1591V38.7591ZM64.9364 35.7727C65.2 35.7727 65.4182 35.8591 65.5909 36.0318C65.7636 36.2045 65.85 36.4227 65.85 36.6864C65.85 36.9409 65.7636 37.1591 65.5909 37.3409C65.4182 37.5136 65.2 37.6 64.9364 37.6C64.6818 37.6 64.4636 37.5136 64.2818 37.3409C64.1091 37.1591 64.0227 36.9409 64.0227 36.6864C64.0227 36.4227 64.1091 36.2045 64.2818 36.0318C64.4636 35.8591 64.6818 35.7727 64.9364 35.7727ZM73.1343 41.9091C73.1343 41.3455 72.9797 40.9045 72.6706 40.5864C72.3615 40.2591 71.9343 40.0955 71.3888 40.0955C70.7434 40.1045 70.2343 40.3318 69.8615 40.7773C69.4979 41.2227 69.3161 41.7773 69.3161 42.4409H68.8797C68.8797 41.5409 69.007 40.8182 69.2615 40.2727C69.5161 39.7273 69.8752 39.3318 70.3388 39.0864C70.8115 38.8318 71.3661 38.7045 72.0025 38.7045C72.5661 38.7045 73.0479 38.8182 73.4479 39.0455C73.857 39.2727 74.1661 39.5955 74.3752 40.0136C74.5934 40.4227 74.7025 40.9182 74.7025 41.5V46H73.1343V41.9091ZM67.7615 38.7591H69.3297V46H67.7615V38.7591ZM78.3718 43.7091C78.3718 44.1 78.44 44.3682 78.5763 44.5136C78.7127 44.65 78.9036 44.7182 79.1491 44.7182C79.3127 44.7182 79.4809 44.6909 79.6536 44.6364C79.8354 44.5818 80.0309 44.5 80.24 44.3909L80.6354 45.5227C80.3536 45.6955 80.0627 45.8318 79.7627 45.9318C79.4627 46.0227 79.1582 46.0682 78.8491 46.0682C78.4854 46.0682 78.1491 46 77.84 45.8636C77.5309 45.7182 77.2809 45.4909 77.09 45.1818C76.9082 44.8727 76.8173 44.4727 76.8173 43.9818V37.0409H78.3718V43.7091ZM75.7945 39.0182H80.5127V40.1364H75.7945V39.0182ZM86.7495 41.8545C86.7314 41.4455 86.6359 41.1 86.4632 40.8182C86.2995 40.5273 86.0677 40.3045 85.7677 40.15C85.4677 39.9864 85.1223 39.9045 84.7314 39.9045C84.295 39.9045 83.9132 40.0045 83.5859 40.2045C83.2677 40.4045 83.0177 40.6864 82.8359 41.05C82.6541 41.4045 82.5632 41.8227 82.5632 42.3045C82.5632 42.8227 82.6586 43.2727 82.8495 43.6545C83.0495 44.0364 83.3223 44.3318 83.6677 44.5409C84.0223 44.75 84.4268 44.8545 84.8814 44.8545C85.6904 44.8545 86.3723 44.5682 86.9268 43.9955L87.7586 44.8273C87.4041 45.2182 86.9723 45.5227 86.4632 45.7409C85.9541 45.95 85.3859 46.0545 84.7586 46.0545C84.0132 46.0545 83.3632 45.9 82.8086 45.5909C82.2541 45.2818 81.8223 44.8545 81.5132 44.3091C81.2041 43.7545 81.0495 43.1136 81.0495 42.3864C81.0495 41.6591 81.2041 41.0227 81.5132 40.4773C81.8223 39.9227 82.2541 39.4909 82.8086 39.1818C83.3632 38.8727 83.9995 38.7136 84.7177 38.7045C85.5723 38.7045 86.2586 38.8818 86.7768 39.2364C87.295 39.5818 87.6632 40.0727 87.8814 40.7091C88.0995 41.3455 88.1768 42.1 88.1132 42.9727H82.3177V41.8545H86.7495ZM93.5526 40.1227C93.0344 40.0955 92.5844 40.1864 92.2026 40.3955C91.8299 40.5955 91.539 40.8773 91.3299 41.2409C91.1299 41.6045 91.0299 42.0227 91.0299 42.4955L90.5935 42.4409C90.5935 41.6318 90.7117 40.95 90.948 40.3955C91.1844 39.8409 91.5253 39.4227 91.9708 39.1409C92.4162 38.85 92.9435 38.7045 93.5526 38.7045V40.1227ZM89.4753 38.7591H91.0435V46H89.4753V38.7591ZM99.5874 41.8545C99.5692 41.4455 99.4738 41.1 99.3011 40.8182C99.1374 40.5273 98.9056 40.3045 98.6056 40.15C98.3056 39.9864 97.9602 39.9045 97.5692 39.9045C97.1329 39.9045 96.7511 40.0045 96.4238 40.2045C96.1056 40.4045 95.8556 40.6864 95.6738 41.05C95.492 41.4045 95.4011 41.8227 95.4011 42.3045C95.4011 42.8227 95.4965 43.2727 95.6874 43.6545C95.8874 44.0364 96.1602 44.3318 96.5056 44.5409C96.8602 44.75 97.2647 44.8545 97.7192 44.8545C98.5283 44.8545 99.2102 44.5682 99.7647 43.9955L100.597 44.8273C100.242 45.2182 99.8102 45.5227 99.3011 45.7409C98.792 45.95 98.2238 46.0545 97.5965 46.0545C96.8511 46.0545 96.2011 45.9 95.6465 45.5909C95.092 45.2818 94.6602 44.8545 94.3511 44.3091C94.042 43.7545 93.8874 43.1136 93.8874 42.3864C93.8874 41.6591 94.042 41.0227 94.3511 40.4773C94.6602 39.9227 95.092 39.4909 95.6465 39.1818C96.2011 38.8727 96.8374 38.7136 97.5556 38.7045C98.4102 38.7045 99.0965 38.8818 99.6147 39.2364C100.133 39.5818 100.501 40.0727 100.719 40.7091C100.937 41.3455 101.015 42.1 100.951 42.9727H95.1556V41.8545H99.5874ZM106.445 40.5182C106.127 40.3273 105.777 40.1773 105.395 40.0682C105.022 39.95 104.677 39.8909 104.359 39.8909C104.05 39.8909 103.795 39.95 103.595 40.0682C103.395 40.1864 103.295 40.3818 103.295 40.6545C103.295 40.8818 103.386 41.0636 103.568 41.2C103.759 41.3273 104 41.4364 104.29 41.5273C104.581 41.6182 104.89 41.7136 105.218 41.8136C105.545 41.9136 105.854 42.0455 106.145 42.2091C106.445 42.3636 106.686 42.5773 106.868 42.85C107.05 43.1227 107.14 43.4818 107.14 43.9273C107.14 44.4182 107.009 44.8227 106.745 45.1409C106.49 45.45 106.15 45.6818 105.722 45.8364C105.304 45.9818 104.85 46.0545 104.359 46.0545C103.831 46.0545 103.304 45.9682 102.777 45.7955C102.25 45.6227 101.804 45.3727 101.44 45.0455L102 43.9818C102.318 44.2636 102.704 44.4864 103.159 44.65C103.613 44.8045 104.036 44.8818 104.427 44.8818C104.654 44.8818 104.854 44.8545 105.027 44.8C105.209 44.7364 105.35 44.6455 105.45 44.5273C105.559 44.4091 105.613 44.2545 105.613 44.0636C105.613 43.8091 105.522 43.6091 105.34 43.4636C105.159 43.3182 104.922 43.2 104.631 43.1091C104.34 43.0091 104.031 42.9136 103.704 42.8227C103.377 42.7227 103.068 42.5955 102.777 42.4409C102.495 42.2864 102.263 42.0773 102.081 41.8136C101.9 41.55 101.809 41.2 101.809 40.7636C101.809 40.2727 101.936 39.8773 102.19 39.5773C102.445 39.2682 102.772 39.0455 103.172 38.9091C103.581 38.7636 104.018 38.6909 104.481 38.6909C104.936 38.6909 105.39 38.7545 105.845 38.8818C106.3 39.0091 106.69 39.1864 107.018 39.4136L106.445 40.5182ZM110.287 43.7091C110.287 44.1 110.355 44.3682 110.491 44.5136C110.628 44.65 110.819 44.7182 111.064 44.7182C111.228 44.7182 111.396 44.6909 111.569 44.6364C111.75 44.5818 111.946 44.5 112.155 44.3909L112.55 45.5227C112.269 45.6955 111.978 45.8318 111.678 45.9318C111.378 46.0227 111.073 46.0682 110.764 46.0682C110.4 46.0682 110.064 46 109.755 45.8636C109.446 45.7182 109.196 45.4909 109.005 45.1818C108.823 44.8727 108.732 44.4727 108.732 43.9818V37.0409H110.287V43.7091ZM107.709 39.0182H112.428V40.1364H107.709V39.0182ZM118.664 41.8545C118.646 41.4455 118.551 41.1 118.378 40.8182C118.214 40.5273 117.983 40.3045 117.683 40.15C117.383 39.9864 117.037 39.9045 116.646 39.9045C116.21 39.9045 115.828 40.0045 115.501 40.2045C115.183 40.4045 114.933 40.6864 114.751 41.05C114.569 41.4045 114.478 41.8227 114.478 42.3045C114.478 42.8227 114.574 43.2727 114.764 43.6545C114.964 44.0364 115.237 44.3318 115.583 44.5409C115.937 44.75 116.342 44.8545 116.796 44.8545C117.605 44.8545 118.287 44.5682 118.842 43.9955L119.674 44.8273C119.319 45.2182 118.887 45.5227 118.378 45.7409C117.869 45.95 117.301 46.0545 116.674 46.0545C115.928 46.0545 115.278 45.9 114.724 45.5909C114.169 45.2818 113.737 44.8545 113.428 44.3091C113.119 43.7545 112.964 43.1136 112.964 42.3864C112.964 41.6591 113.119 41.0227 113.428 40.4773C113.737 39.9227 114.169 39.4909 114.724 39.1818C115.278 38.8727 115.914 38.7136 116.633 38.7045C117.487 38.7045 118.174 38.8818 118.692 39.2364C119.21 39.5818 119.578 40.0727 119.796 40.7091C120.014 41.3455 120.092 42.1 120.028 42.9727H114.233V41.8545H118.664ZM124.158 38.6909C124.831 38.6909 125.399 38.8409 125.863 39.1409C126.336 39.4318 126.695 39.8545 126.94 40.4091C127.195 40.9545 127.318 41.6091 127.308 42.3727C127.318 43.1364 127.199 43.7955 126.954 44.35C126.708 44.9045 126.349 45.3318 125.877 45.6318C125.413 45.9227 124.849 46.0682 124.186 46.0682C123.495 46.0682 122.886 45.9136 122.358 45.6045C121.84 45.2864 121.436 44.85 121.145 44.2955C120.854 43.7318 120.708 43.0864 120.708 42.3591C120.708 41.6318 120.854 40.9955 121.145 40.45C121.436 39.8955 121.84 39.4636 122.358 39.1545C122.877 38.8455 123.477 38.6909 124.158 38.6909ZM124.513 39.9591C124.077 39.9591 123.69 40.0636 123.354 40.2727C123.018 40.4818 122.754 40.7727 122.563 41.1455C122.381 41.5091 122.286 41.9273 122.277 42.4C122.286 42.8727 122.381 43.2909 122.563 43.6545C122.754 44.0182 123.018 44.3045 123.354 44.5136C123.69 44.7227 124.077 44.8273 124.513 44.8273C124.949 44.8273 125.336 44.7227 125.672 44.5136C126.008 44.3045 126.268 44.0182 126.449 43.6545C126.64 43.2909 126.736 42.8727 126.736 42.4C126.736 41.9182 126.64 41.4955 126.449 41.1318C126.268 40.7682 126.008 40.4818 125.672 40.2727C125.336 40.0636 124.949 39.9591 124.513 39.9591ZM126.736 35.8818H128.304V46H126.736V35.8818ZM133.815 38.7591H135.37V46H133.815V38.7591ZM134.593 35.7727C134.856 35.7727 135.074 35.8591 135.247 36.0318C135.42 36.2045 135.506 36.4227 135.506 36.6864C135.506 36.9409 135.42 37.1591 135.247 37.3409C135.074 37.5136 134.856 37.6 134.593 37.6C134.338 37.6 134.12 37.5136 133.938 37.3409C133.765 37.1591 133.679 36.9409 133.679 36.6864C133.679 36.4227 133.765 36.2045 133.938 36.0318C134.12 35.8591 134.338 35.7727 134.593 35.7727ZM142.791 41.9091C142.791 41.3455 142.636 40.9045 142.327 40.5864C142.018 40.2591 141.591 40.0955 141.045 40.0955C140.4 40.1045 139.891 40.3318 139.518 40.7773C139.154 41.2227 138.972 41.7773 138.972 42.4409H138.536C138.536 41.5409 138.663 40.8182 138.918 40.2727C139.172 39.7273 139.531 39.3318 139.995 39.0864C140.468 38.8318 141.022 38.7045 141.659 38.7045C142.222 38.7045 142.704 38.8182 143.104 39.0455C143.513 39.2727 143.822 39.5955 144.031 40.0136C144.25 40.4227 144.359 40.9182 144.359 41.5V46H142.791V41.9091ZM137.418 38.7591H138.986V46H137.418V38.7591ZM152.44 47.0227C152.213 47.5773 151.899 47.9955 151.499 48.2773C151.099 48.5682 150.626 48.7136 150.081 48.7136C149.753 48.7136 149.453 48.6636 149.181 48.5636C148.917 48.4636 148.658 48.3136 148.403 48.1136L149.072 46.9545C149.399 47.1909 149.713 47.3091 150.013 47.3091C150.249 47.3091 150.463 47.2409 150.653 47.1045C150.844 46.9682 150.999 46.7591 151.117 46.4773L151.363 45.9045L148.363 38.7591H149.985L152.153 44.35L154.172 38.7591H155.74L152.44 47.0227ZM159.404 38.7045C160.15 38.7045 160.804 38.8591 161.368 39.1682C161.941 39.4773 162.386 39.9091 162.704 40.4636C163.022 41.0091 163.181 41.6455 163.181 42.3727C163.181 43.1 163.022 43.7409 162.704 44.2955C162.386 44.85 161.941 45.2818 161.368 45.5909C160.804 45.9 160.15 46.0545 159.404 46.0545C158.659 46.0545 158 45.9 157.427 45.5909C156.854 45.2818 156.409 44.85 156.091 44.2955C155.772 43.7409 155.613 43.1 155.613 42.3727C155.613 41.6455 155.772 41.0091 156.091 40.4636C156.409 39.9091 156.854 39.4773 157.427 39.1682C158 38.8591 158.659 38.7045 159.404 38.7045ZM159.404 39.9727C158.968 39.9727 158.581 40.0773 158.245 40.2864C157.909 40.4864 157.645 40.7682 157.454 41.1318C157.272 41.4955 157.181 41.9136 157.181 42.3864C157.181 42.8682 157.272 43.2909 157.454 43.6545C157.645 44.0182 157.909 44.3045 158.245 44.5136C158.581 44.7136 158.968 44.8136 159.404 44.8136C159.841 44.8136 160.222 44.7136 160.55 44.5136C160.886 44.3045 161.145 44.0182 161.327 43.6545C161.518 43.2909 161.613 42.8682 161.613 42.3864C161.613 41.9136 161.518 41.4955 161.327 41.1318C161.145 40.7682 160.886 40.4864 160.55 40.2864C160.222 40.0773 159.841 39.9727 159.404 39.9727ZM165.881 42.85C165.881 43.4136 166.031 43.8591 166.331 44.1864C166.631 44.5045 167.045 44.6636 167.572 44.6636C168.2 44.6455 168.686 44.4136 169.031 43.9682C169.386 43.5227 169.563 42.9727 169.563 42.3182H169.986C169.986 43.2091 169.863 43.9273 169.618 44.4727C169.372 45.0182 169.022 45.4182 168.568 45.6727C168.122 45.9182 167.591 46.0455 166.972 46.0545C166.418 46.0545 165.941 45.9409 165.541 45.7136C165.15 45.4864 164.845 45.1636 164.627 44.7455C164.418 44.3273 164.313 43.8318 164.313 43.2591V38.7591H165.881V42.85ZM169.563 38.7591H171.131V46H169.563V38.7591ZM177.259 40.1227C176.74 40.0955 176.29 40.1864 175.909 40.3955C175.536 40.5955 175.245 40.8773 175.036 41.2409C174.836 41.6045 174.736 42.0227 174.736 42.4955L174.299 42.4409C174.299 41.6318 174.418 40.95 174.654 40.3955C174.89 39.8409 175.231 39.4227 175.677 39.1409C176.122 38.85 176.649 38.7045 177.259 38.7045V40.1227ZM173.181 38.7591H174.749V46H173.181V38.7591ZM186.792 40.8318C186.537 40.5682 186.237 40.3636 185.892 40.2182C185.546 40.0727 185.155 40 184.719 40C184.301 40 183.928 40.1 183.601 40.3C183.273 40.5 183.019 40.7818 182.837 41.1455C182.655 41.5 182.564 41.9136 182.564 42.3864C182.564 42.8591 182.655 43.2773 182.837 43.6409C183.019 43.9955 183.273 44.2773 183.601 44.4864C183.928 44.6864 184.301 44.7864 184.719 44.7864C185.173 44.7864 185.582 44.7136 185.946 44.5682C186.31 44.4136 186.614 44.1909 186.86 43.9L187.732 44.7591C187.405 45.1682 186.978 45.4864 186.451 45.7136C185.932 45.9409 185.332 46.0545 184.651 46.0545C183.932 46.0545 183.296 45.9 182.742 45.5909C182.196 45.2818 181.769 44.8545 181.46 44.3091C181.151 43.7545 180.996 43.1136 180.996 42.3864C180.996 41.6591 181.151 41.0227 181.46 40.4773C181.769 39.9227 182.196 39.4909 182.742 39.1818C183.296 38.8636 183.932 38.7045 184.651 38.7045C185.305 38.7045 185.882 38.8045 186.382 39.0045C186.892 39.1955 187.314 39.4682 187.651 39.8227L186.792 40.8318ZM191.169 42.7682C190.66 42.7682 190.282 42.8455 190.037 43C189.791 43.1545 189.669 43.4091 189.669 43.7636C189.669 44.1 189.791 44.3682 190.037 44.5682C190.291 44.7682 190.637 44.8682 191.073 44.8682C191.464 44.8682 191.814 44.8 192.123 44.6636C192.432 44.5273 192.678 44.3455 192.86 44.1182C193.041 43.8818 193.137 43.6182 193.146 43.3273L193.446 44.65C193.219 45.1227 192.873 45.4773 192.41 45.7136C191.946 45.95 191.391 46.0682 190.746 46.0682C190.228 46.0682 189.778 45.9682 189.396 45.7682C189.014 45.5682 188.719 45.3 188.51 44.9636C188.301 44.6182 188.196 44.2364 188.196 43.8182C188.196 43.1636 188.432 42.6409 188.905 42.25C189.387 41.8591 190.064 41.6591 190.937 41.65H193.337V42.7682H191.169ZM193.132 41.4045C193.132 40.9318 192.987 40.5636 192.696 40.3C192.405 40.0364 191.973 39.9045 191.401 39.9045C191.055 39.9045 190.701 39.9682 190.337 40.0955C189.982 40.2227 189.623 40.4091 189.26 40.6545L188.619 39.6455C188.955 39.4364 189.273 39.2636 189.573 39.1273C189.873 38.9909 190.191 38.8864 190.528 38.8136C190.873 38.7409 191.278 38.7045 191.741 38.7045C192.678 38.7045 193.396 38.9318 193.896 39.3864C194.405 39.8318 194.664 40.45 194.673 41.2409L194.687 46H193.146L193.132 41.4045ZM200.591 40.1227C200.072 40.0955 199.622 40.1864 199.241 40.3955C198.868 40.5955 198.577 40.8773 198.368 41.2409C198.168 41.6045 198.068 42.0227 198.068 42.4955L197.632 42.4409C197.632 41.6318 197.75 40.95 197.986 40.3955C198.222 39.8409 198.563 39.4227 199.009 39.1409C199.454 38.85 199.982 38.7045 200.591 38.7045V40.1227ZM196.513 38.7591H198.082V46H196.513V38.7591Z" fill="#101044"/>
<defs>
<clipPath id="clip0_4_12389">
<rect width="18.7197" height="13.8037" fill="white" transform="translate(23 27)"/>
</clipPath>
</defs>
</svg>
