<svg width="255" height="82" viewBox="0 0 255 82" fill="none" xmlns="http://www.w3.org/2000/svg">
<rect width="255" height="69" rx="10" fill="white"/>
<rect x="127.727" y="56" width="18" height="18" rx="2" transform="rotate(45 127.727 56)" fill="white"/>
<rect x="15" y="17" width="34" height="34" rx="17" fill="#695DFD"/>
<g clip-path="url(#clip0_242_420)">
<path d="M34.7836 40.948C34.6874 42.6483 33.2551 43.9992 31.5 43.9992C29.7449 43.9992 28.3114 42.6483 28.2164 40.948H24.1972C22.9841 40.948 22 39.9847 22 38.7941C22 37.6035 22.9817 36.6403 24.1935 36.6403C24.1923 36.6403 24.1923 32.3326 24.1923 32.3326C24.1923 29.298 26.124 26.638 28.9423 25.6042V25.5097C28.9423 24.1228 30.0884 22.998 31.5 22.998C32.9116 22.998 34.0577 24.1228 34.0577 25.5097V25.6042C36.876 26.638 38.8077 29.298 38.8077 32.3326V36.6403C40.0147 36.6403 41 37.6047 41 38.7941C41 39.9835 40.0171 40.948 38.8028 40.948H34.7836ZM33.3184 40.948H29.6816C29.7742 41.855 30.5524 42.5633 31.5 42.5633C32.4476 42.5633 33.2258 41.855 33.3184 40.948ZM29.8753 26.8127C27.3943 27.5151 25.6526 29.7551 25.6526 32.3314V36.6391C25.6526 37.4312 24.9974 38.075 24.1923 38.075C23.7879 38.075 23.4603 38.398 23.4603 38.7929C23.4603 39.1878 23.7892 39.5109 24.196 39.5109H38.8028C39.2084 39.5109 39.5385 39.1878 39.5385 38.7929C39.5385 38.398 39.2084 38.075 38.8065 38.075C38.0002 38.075 37.3462 37.4336 37.3462 36.6391V32.3314C37.3462 29.7551 35.6045 27.5151 33.1235 26.8127L32.5949 26.6632V25.5109C32.5949 24.9162 32.1041 24.4351 31.4988 24.4351C30.8935 24.4351 30.4026 24.9174 30.4026 25.5109V26.6632L29.874 26.8127H29.8753Z" fill="white"/>
</g>
<path d="M67.1591 25.0909C67.5227 24.7182 67.8136 24.3455 68.0318 23.9727C68.2591 23.6 68.3727 23.2727 68.3727 22.9909C68.3727 22.5909 68.2227 22.2818 67.9227 22.0636C67.6318 21.8364 67.2227 21.7227 66.6955 21.7227C66.2682 21.7227 65.8136 21.8273 65.3318 22.0364C64.8591 22.2455 64.4182 22.5318 64.0091 22.8955L63.3545 21.7364C63.8909 21.3182 64.4591 20.9909 65.0591 20.7545C65.6682 20.5091 66.2864 20.3864 66.9136 20.3864C67.5409 20.3864 68.0864 20.4864 68.55 20.6864C69.0227 20.8773 69.3909 21.1545 69.6545 21.5182C69.9182 21.8727 70.05 22.2909 70.05 22.7727C70.05 23.2455 69.8818 23.75 69.5455 24.2864C69.2091 24.8136 68.7773 25.35 68.25 25.8955L65.1409 29.1273L64.9227 28.6364H70.5136V30H63.5182V28.8682L67.1591 25.0909ZM80.6385 25.9091C80.6385 25.3455 80.484 24.9045 80.1749 24.5864C79.8658 24.2591 79.4385 24.0955 78.8931 24.0955C78.2476 24.1045 77.7385 24.3318 77.3658 24.7773C77.0022 25.2227 76.8203 25.7773 76.8203 26.4409H76.384C76.384 25.5409 76.5113 24.8182 76.7658 24.2727C77.0203 23.7273 77.3794 23.3318 77.8431 23.0864C78.3158 22.8318 78.8703 22.7045 79.5067 22.7045C80.0703 22.7045 80.5522 22.8182 80.9522 23.0455C81.3613 23.2727 81.6703 23.5955 81.8794 24.0136C82.0976 24.4227 82.2067 24.9182 82.2067 25.5V30H80.6385V25.9091ZM75.2658 22.7591H76.834V30H75.2658V22.7591ZM89.0533 25.8545C89.0352 25.4455 88.9397 25.1 88.767 24.8182C88.6033 24.5273 88.3715 24.3045 88.0715 24.15C87.7715 23.9864 87.4261 23.9045 87.0352 23.9045C86.5988 23.9045 86.217 24.0045 85.8897 24.2045C85.5715 24.4045 85.3215 24.6864 85.1397 25.05C84.9579 25.4045 84.867 25.8227 84.867 26.3045C84.867 26.8227 84.9624 27.2727 85.1533 27.6545C85.3533 28.0364 85.6261 28.3318 85.9715 28.5409C86.3261 28.75 86.7306 28.8545 87.1852 28.8545C87.9942 28.8545 88.6761 28.5682 89.2306 27.9955L90.0624 28.8273C89.7079 29.2182 89.2761 29.5227 88.767 29.7409C88.2579 29.95 87.6897 30.0545 87.0624 30.0545C86.317 30.0545 85.667 29.9 85.1124 29.5909C84.5579 29.2818 84.1261 28.8545 83.817 28.3091C83.5079 27.7545 83.3533 27.1136 83.3533 26.3864C83.3533 25.6591 83.5079 25.0227 83.817 24.4773C84.1261 23.9227 84.5579 23.4909 85.1124 23.1818C85.667 22.8727 86.3033 22.7136 87.0215 22.7045C87.8761 22.7045 88.5624 22.8818 89.0806 23.2364C89.5988 23.5818 89.967 24.0727 90.1852 24.7091C90.4033 25.3455 90.4806 26.1 90.417 26.9727H84.6215V25.8545H89.0533ZM90.3673 22.7591H91.9764L93.8582 28.5545L95.6855 22.7591H97.3082L99.1491 28.5545L101.004 22.7591H102.599L99.9537 30H98.331L96.4901 24.5182L94.6491 30H93.0401L90.3673 22.7591ZM111.928 24.8318C111.673 24.5682 111.373 24.3636 111.028 24.2182C110.682 24.0727 110.292 24 109.855 24C109.437 24 109.064 24.1 108.737 24.3C108.41 24.5 108.155 24.7818 107.973 25.1455C107.792 25.5 107.701 25.9136 107.701 26.3864C107.701 26.8591 107.792 27.2773 107.973 27.6409C108.155 27.9955 108.41 28.2773 108.737 28.4864C109.064 28.6864 109.437 28.7864 109.855 28.7864C110.31 28.7864 110.719 28.7136 111.082 28.5682C111.446 28.4136 111.751 28.1909 111.996 27.9L112.869 28.7591C112.542 29.1682 112.114 29.4864 111.587 29.7136C111.069 29.9409 110.469 30.0545 109.787 30.0545C109.069 30.0545 108.432 29.9 107.878 29.5909C107.332 29.2818 106.905 28.8545 106.596 28.3091C106.287 27.7545 106.132 27.1136 106.132 26.3864C106.132 25.6591 106.287 25.0227 106.596 24.4773C106.905 23.9227 107.332 23.4909 107.878 23.1818C108.432 22.8636 109.069 22.7045 109.787 22.7045C110.442 22.7045 111.019 22.8045 111.519 23.0045C112.028 23.1955 112.451 23.4682 112.787 23.8227L111.928 24.8318ZM116.305 26.7682C115.796 26.7682 115.419 26.8455 115.173 27C114.928 27.1545 114.805 27.4091 114.805 27.7636C114.805 28.1 114.928 28.3682 115.173 28.5682C115.428 28.7682 115.773 28.8682 116.21 28.8682C116.601 28.8682 116.951 28.8 117.26 28.6636C117.569 28.5273 117.814 28.3455 117.996 28.1182C118.178 27.8818 118.273 27.6182 118.282 27.3273L118.582 28.65C118.355 29.1227 118.01 29.4773 117.546 29.7136C117.082 29.95 116.528 30.0682 115.882 30.0682C115.364 30.0682 114.914 29.9682 114.532 29.7682C114.151 29.5682 113.855 29.3 113.646 28.9636C113.437 28.6182 113.332 28.2364 113.332 27.8182C113.332 27.1636 113.569 26.6409 114.041 26.25C114.523 25.8591 115.201 25.6591 116.073 25.65H118.473V26.7682H116.305ZM118.269 25.4045C118.269 24.9318 118.123 24.5636 117.832 24.3C117.541 24.0364 117.11 23.9045 116.537 23.9045C116.191 23.9045 115.837 23.9682 115.473 24.0955C115.119 24.2227 114.76 24.4091 114.396 24.6545L113.755 23.6455C114.091 23.4364 114.41 23.2636 114.71 23.1273C115.01 22.9909 115.328 22.8864 115.664 22.8136C116.01 22.7409 116.414 22.7045 116.878 22.7045C117.814 22.7045 118.532 22.9318 119.032 23.3864C119.541 23.8318 119.801 24.45 119.81 25.2409L119.823 30H118.282L118.269 25.4045ZM125.727 24.1227C125.209 24.0955 124.759 24.1864 124.377 24.3955C124.004 24.5955 123.713 24.8773 123.504 25.2409C123.304 25.6045 123.204 26.0227 123.204 26.4955L122.768 26.4409C122.768 25.6318 122.886 24.95 123.122 24.3955C123.359 23.8409 123.7 23.4227 124.145 23.1409C124.591 22.85 125.118 22.7045 125.727 22.7045V24.1227ZM121.65 22.7591H123.218V30H121.65V22.7591ZM130.875 24.5182C130.557 24.3273 130.207 24.1773 129.825 24.0682C129.453 23.95 129.107 23.8909 128.789 23.8909C128.48 23.8909 128.225 23.95 128.025 24.0682C127.825 24.1864 127.725 24.3818 127.725 24.6545C127.725 24.8818 127.816 25.0636 127.998 25.2C128.189 25.3273 128.43 25.4364 128.721 25.5273C129.012 25.6182 129.321 25.7136 129.648 25.8136C129.975 25.9136 130.285 26.0455 130.575 26.2091C130.875 26.3636 131.116 26.5773 131.298 26.85C131.48 27.1227 131.571 27.4818 131.571 27.9273C131.571 28.4182 131.439 28.8227 131.175 29.1409C130.921 29.45 130.58 29.6818 130.153 29.8364C129.735 29.9818 129.28 30.0545 128.789 30.0545C128.262 30.0545 127.735 29.9682 127.207 29.7955C126.68 29.6227 126.235 29.3727 125.871 29.0455L126.43 27.9818C126.748 28.2636 127.135 28.4864 127.589 28.65C128.044 28.8045 128.466 28.8818 128.857 28.8818C129.085 28.8818 129.285 28.8545 129.457 28.8C129.639 28.7364 129.78 28.6455 129.88 28.5273C129.989 28.4091 130.044 28.2545 130.044 28.0636C130.044 27.8091 129.953 27.6091 129.771 27.4636C129.589 27.3182 129.353 27.2 129.062 27.1091C128.771 27.0091 128.462 26.9136 128.135 26.8227C127.807 26.7227 127.498 26.5955 127.207 26.4409C126.925 26.2864 126.694 26.0773 126.512 25.8136C126.33 25.55 126.239 25.2 126.239 24.7636C126.239 24.2727 126.366 23.8773 126.621 23.5773C126.875 23.2682 127.203 23.0455 127.603 22.9091C128.012 22.7636 128.448 22.6909 128.912 22.6909C129.366 22.6909 129.821 22.7545 130.275 22.8818C130.73 23.0091 131.121 23.1864 131.448 23.4136L130.875 24.5182ZM138.12 27.7091C138.12 28.1 138.188 28.3682 138.324 28.5136C138.461 28.65 138.652 28.7182 138.897 28.7182C139.061 28.7182 139.229 28.6909 139.402 28.6364C139.583 28.5818 139.779 28.5 139.988 28.3909L140.383 29.5227C140.102 29.6955 139.811 29.8318 139.511 29.9318C139.211 30.0227 138.906 30.0682 138.597 30.0682C138.233 30.0682 137.897 30 137.588 29.8636C137.279 29.7182 137.029 29.4909 136.838 29.1818C136.656 28.8727 136.565 28.4727 136.565 27.9818V21.0409H138.12V27.7091ZM135.543 23.0182H140.261V24.1364H135.543V23.0182ZM147.014 25.9091C147.014 25.3455 146.859 24.9045 146.55 24.5864C146.241 24.2591 145.814 24.0955 145.268 24.0955C144.623 24.1045 144.114 24.3318 143.741 24.7773C143.377 25.2227 143.196 25.7773 143.196 26.4409H142.759C142.759 25.5409 142.887 24.8182 143.141 24.2727C143.396 23.7273 143.755 23.3318 144.218 23.0864C144.691 22.8318 145.246 22.7045 145.882 22.7045C146.446 22.7045 146.927 22.8182 147.327 23.0455C147.737 23.2727 148.046 23.5955 148.255 24.0136C148.473 24.4227 148.582 24.9182 148.582 25.5V30H147.014V25.9091ZM141.627 19.8818H143.196V30H141.627V19.8818ZM152.781 26.7682C152.272 26.7682 151.895 26.8455 151.649 27C151.404 27.1545 151.281 27.4091 151.281 27.7636C151.281 28.1 151.404 28.3682 151.649 28.5682C151.904 28.7682 152.249 28.8682 152.686 28.8682C153.077 28.8682 153.427 28.8 153.736 28.6636C154.045 28.5273 154.29 28.3455 154.472 28.1182C154.654 27.8818 154.749 27.6182 154.759 27.3273L155.059 28.65C154.831 29.1227 154.486 29.4773 154.022 29.7136C153.559 29.95 153.004 30.0682 152.359 30.0682C151.84 30.0682 151.39 29.9682 151.009 29.7682C150.627 29.5682 150.331 29.3 150.122 28.9636C149.913 28.6182 149.809 28.2364 149.809 27.8182C149.809 27.1636 150.045 26.6409 150.518 26.25C150.999 25.8591 151.677 25.6591 152.549 25.65H154.949V26.7682H152.781ZM154.745 25.4045C154.745 24.9318 154.599 24.5636 154.309 24.3C154.018 24.0364 153.586 23.9045 153.013 23.9045C152.668 23.9045 152.313 23.9682 151.949 24.0955C151.595 24.2227 151.236 24.4091 150.872 24.6545L150.231 23.6455C150.568 23.4364 150.886 23.2636 151.186 23.1273C151.486 22.9909 151.804 22.8864 152.14 22.8136C152.486 22.7409 152.89 22.7045 153.354 22.7045C154.29 22.7045 155.009 22.9318 155.509 23.3864C156.018 23.8318 156.277 24.45 156.286 25.2409L156.299 30H154.759L154.745 25.4045ZM159.967 27.7091C159.967 28.1 160.035 28.3682 160.171 28.5136C160.308 28.65 160.499 28.7182 160.744 28.7182C160.908 28.7182 161.076 28.6909 161.249 28.6364C161.43 28.5818 161.626 28.5 161.835 28.3909L162.23 29.5227C161.949 29.6955 161.658 29.8318 161.358 29.9318C161.058 30.0227 160.753 30.0682 160.444 30.0682C160.08 30.0682 159.744 30 159.435 29.8636C159.126 29.7182 158.876 29.4909 158.685 29.1818C158.503 28.8727 158.412 28.4727 158.412 27.9818V21.0409H159.967V27.7091ZM157.39 23.0182H162.108V24.1364H157.39V23.0182ZM172.086 25.9091C172.086 25.3364 171.936 24.8909 171.636 24.5727C171.336 24.2455 170.918 24.0818 170.382 24.0818C169.754 24.1 169.259 24.3318 168.895 24.7773C168.541 25.2227 168.363 25.7727 168.363 26.4273H167.927C167.927 25.5364 168.05 24.8182 168.295 24.2727C168.55 23.7273 168.904 23.3318 169.359 23.0864C169.823 22.8318 170.368 22.7045 170.995 22.7045C171.55 22.7045 172.023 22.8182 172.413 23.0455C172.813 23.2727 173.118 23.5955 173.327 24.0136C173.545 24.4227 173.654 24.9182 173.654 25.5V30H172.086V25.9091ZM177.363 25.9091C177.363 25.3364 177.209 24.8909 176.9 24.5727C176.6 24.2455 176.182 24.0818 175.645 24.0818C175.027 24.1 174.541 24.3318 174.186 24.7773C173.832 25.2227 173.654 25.7727 173.654 26.4273H173.204C173.204 25.5364 173.327 24.8182 173.573 24.2727C173.827 23.7273 174.182 23.3318 174.636 23.0864C175.1 22.8318 175.645 22.7045 176.273 22.7045C176.827 22.7045 177.3 22.8182 177.691 23.0455C178.091 23.2727 178.395 23.5955 178.604 24.0136C178.823 24.4227 178.932 24.9182 178.932 25.5V30H177.363V25.9091ZM166.809 22.7591H168.363V30H166.809V22.7591ZM183.131 26.7682C182.622 26.7682 182.245 26.8455 181.999 27C181.754 27.1545 181.631 27.4091 181.631 27.7636C181.631 28.1 181.754 28.3682 181.999 28.5682C182.254 28.7682 182.599 28.8682 183.036 28.8682C183.427 28.8682 183.777 28.8 184.086 28.6636C184.395 28.5273 184.64 28.3455 184.822 28.1182C185.004 27.8818 185.099 27.6182 185.109 27.3273L185.409 28.65C185.181 29.1227 184.836 29.4773 184.372 29.7136C183.909 29.95 183.354 30.0682 182.709 30.0682C182.19 30.0682 181.74 29.9682 181.359 29.7682C180.977 29.5682 180.681 29.3 180.472 28.9636C180.263 28.6182 180.159 28.2364 180.159 27.8182C180.159 27.1636 180.395 26.6409 180.868 26.25C181.349 25.8591 182.027 25.6591 182.899 25.65H185.299V26.7682H183.131ZM185.095 25.4045C185.095 24.9318 184.949 24.5636 184.659 24.3C184.368 24.0364 183.936 23.9045 183.363 23.9045C183.018 23.9045 182.663 23.9682 182.299 24.0955C181.945 24.2227 181.586 24.4091 181.222 24.6545L180.581 23.6455C180.918 23.4364 181.236 23.2636 181.536 23.1273C181.836 22.9909 182.154 22.8864 182.49 22.8136C182.836 22.7409 183.24 22.7045 183.704 22.7045C184.64 22.7045 185.359 22.9318 185.859 23.3864C186.368 23.8318 186.627 24.45 186.636 25.2409L186.649 30H185.109L185.095 25.4045ZM190.317 27.7091C190.317 28.1 190.385 28.3682 190.521 28.5136C190.658 28.65 190.849 28.7182 191.094 28.7182C191.258 28.7182 191.426 28.6909 191.599 28.6364C191.78 28.5818 191.976 28.5 192.185 28.3909L192.58 29.5227C192.299 29.6955 192.008 29.8318 191.708 29.9318C191.408 30.0227 191.103 30.0682 190.794 30.0682C190.43 30.0682 190.094 30 189.785 29.8636C189.476 29.7182 189.226 29.4909 189.035 29.1818C188.853 28.8727 188.762 28.4727 188.762 27.9818V21.0409H190.317V27.7091ZM187.739 23.0182H192.458V24.1364H187.739V23.0182ZM198.79 24.8318C198.535 24.5682 198.235 24.3636 197.89 24.2182C197.545 24.0727 197.154 24 196.717 24C196.299 24 195.926 24.1 195.599 24.3C195.272 24.5 195.017 24.7818 194.835 25.1455C194.654 25.5 194.563 25.9136 194.563 26.3864C194.563 26.8591 194.654 27.2773 194.835 27.6409C195.017 27.9955 195.272 28.2773 195.599 28.4864C195.926 28.6864 196.299 28.7864 196.717 28.7864C197.172 28.7864 197.581 28.7136 197.945 28.5682C198.308 28.4136 198.613 28.1909 198.858 27.9L199.731 28.7591C199.404 29.1682 198.976 29.4864 198.449 29.7136C197.931 29.9409 197.331 30.0545 196.649 30.0545C195.931 30.0545 195.295 29.9 194.74 29.5909C194.195 29.2818 193.767 28.8545 193.458 28.3091C193.149 27.7545 192.994 27.1136 192.994 26.3864C192.994 25.6591 193.149 25.0227 193.458 24.4773C193.767 23.9227 194.195 23.4909 194.74 23.1818C195.295 22.8636 195.931 22.7045 196.649 22.7045C197.304 22.7045 197.881 22.8045 198.381 23.0045C198.89 23.1955 199.313 23.4682 199.649 23.8227L198.79 24.8318ZM206.555 25.9091C206.555 25.3455 206.401 24.9045 206.092 24.5864C205.782 24.2591 205.355 24.0955 204.81 24.0955C204.164 24.1045 203.655 24.3318 203.282 24.7773C202.919 25.2227 202.737 25.7773 202.737 26.4409H202.301C202.301 25.5409 202.428 24.8182 202.682 24.2727C202.937 23.7273 203.296 23.3318 203.76 23.0864C204.232 22.8318 204.787 22.7045 205.423 22.7045C205.987 22.7045 206.469 22.8182 206.869 23.0455C207.278 23.2727 207.587 23.5955 207.796 24.0136C208.014 24.4227 208.123 24.9182 208.123 25.5V30H206.555V25.9091ZM201.169 19.8818H202.737V30H201.169V19.8818ZM216.203 31.0227C215.975 31.5773 215.662 31.9955 215.262 32.2773C214.862 32.5682 214.389 32.7136 213.844 32.7136C213.516 32.7136 213.216 32.6636 212.944 32.5636C212.68 32.4636 212.421 32.3136 212.166 32.1136L212.834 30.9545C213.162 31.1909 213.475 31.3091 213.775 31.3091C214.012 31.3091 214.225 31.2409 214.416 31.1045C214.607 30.9682 214.762 30.7591 214.88 30.4773L215.125 29.9045L212.125 22.7591H213.748L215.916 28.35L217.934 22.7591H219.503L216.203 31.0227ZM223.167 22.7045C223.912 22.7045 224.567 22.8591 225.131 23.1682C225.703 23.4773 226.149 23.9091 226.467 24.4636C226.785 25.0091 226.944 25.6455 226.944 26.3727C226.944 27.1 226.785 27.7409 226.467 28.2955C226.149 28.85 225.703 29.2818 225.131 29.5909C224.567 29.9 223.912 30.0545 223.167 30.0545C222.422 30.0545 221.762 29.9 221.19 29.5909C220.617 29.2818 220.172 28.85 219.853 28.2955C219.535 27.7409 219.376 27.1 219.376 26.3727C219.376 25.6455 219.535 25.0091 219.853 24.4636C220.172 23.9091 220.617 23.4773 221.19 23.1682C221.762 22.8591 222.422 22.7045 223.167 22.7045ZM223.167 23.9727C222.731 23.9727 222.344 24.0773 222.008 24.2864C221.672 24.4864 221.408 24.7682 221.217 25.1318C221.035 25.4955 220.944 25.9136 220.944 26.3864C220.944 26.8682 221.035 27.2909 221.217 27.6545C221.408 28.0182 221.672 28.3045 222.008 28.5136C222.344 28.7136 222.731 28.8136 223.167 28.8136C223.603 28.8136 223.985 28.7136 224.312 28.5136C224.649 28.3045 224.908 28.0182 225.09 27.6545C225.281 27.2909 225.376 26.8682 225.376 26.3864C225.376 25.9136 225.281 25.4955 225.09 25.1318C224.908 24.7682 224.649 24.4864 224.312 24.2864C223.985 24.0773 223.603 23.9727 223.167 23.9727ZM229.644 26.85C229.644 27.4136 229.794 27.8591 230.094 28.1864C230.394 28.5045 230.808 28.6636 231.335 28.6636C231.962 28.6455 232.449 28.4136 232.794 27.9682C233.149 27.5227 233.326 26.9727 233.326 26.3182H233.749C233.749 27.2091 233.626 27.9273 233.381 28.4727C233.135 29.0182 232.785 29.4182 232.331 29.6727C231.885 29.9182 231.353 30.0455 230.735 30.0545C230.181 30.0545 229.703 29.9409 229.303 29.7136C228.912 29.4864 228.608 29.1636 228.39 28.7455C228.181 28.3273 228.076 27.8318 228.076 27.2591V22.7591H229.644V26.85ZM233.326 22.7591H234.894V30H233.326V22.7591ZM241.021 24.1227C240.503 24.0955 240.053 24.1864 239.671 24.3955C239.299 24.5955 239.008 24.8773 238.799 25.2409C238.599 25.6045 238.499 26.0227 238.499 26.4955L238.062 26.4409C238.062 25.6318 238.18 24.95 238.417 24.3955C238.653 23.8409 238.994 23.4227 239.44 23.1409C239.885 22.85 240.412 22.7045 241.021 22.7045V24.1227ZM236.944 22.7591H238.512V30H236.944V22.7591ZM69.2727 40.8318C69.0182 40.5682 68.7182 40.3636 68.3727 40.2182C68.0273 40.0727 67.6364 40 67.2 40C66.7818 40 66.4091 40.1 66.0818 40.3C65.7545 40.5 65.5 40.7818 65.3182 41.1455C65.1364 41.5 65.0455 41.9136 65.0455 42.3864C65.0455 42.8591 65.1364 43.2773 65.3182 43.6409C65.5 43.9955 65.7545 44.2773 66.0818 44.4864C66.4091 44.6864 66.7818 44.7864 67.2 44.7864C67.6545 44.7864 68.0636 44.7136 68.4273 44.5682C68.7909 44.4136 69.0955 44.1909 69.3409 43.9L70.2136 44.7591C69.8864 45.1682 69.4591 45.4864 68.9318 45.7136C68.4136 45.9409 67.8136 46.0545 67.1318 46.0545C66.4136 46.0545 65.7773 45.9 65.2227 45.5909C64.6773 45.2818 64.25 44.8545 63.9409 44.3091C63.6318 43.7545 63.4773 43.1136 63.4773 42.3864C63.4773 41.6591 63.6318 41.0227 63.9409 40.4773C64.25 39.9227 64.6773 39.4909 65.2227 39.1818C65.7773 38.8636 66.4136 38.7045 67.1318 38.7045C67.7864 38.7045 68.3636 38.8045 68.8636 39.0045C69.3727 39.1955 69.7955 39.4682 70.1318 39.8227L69.2727 40.8318ZM75.6607 40.1227C75.1425 40.0955 74.6925 40.1864 74.3107 40.3955C73.938 40.5955 73.6471 40.8773 73.438 41.2409C73.238 41.6045 73.138 42.0227 73.138 42.4955L72.7016 42.4409C72.7016 41.6318 72.8198 40.95 73.0562 40.3955C73.2925 39.8409 73.6335 39.4227 74.0789 39.1409C74.5244 38.85 75.0516 38.7045 75.6607 38.7045V40.1227ZM71.5835 38.7591H73.1516V46H71.5835V38.7591ZM76.6774 38.7591H78.2319V46H76.6774V38.7591ZM77.4547 35.7727C77.7183 35.7727 77.9365 35.8591 78.1092 36.0318C78.2819 36.2045 78.3683 36.4227 78.3683 36.6864C78.3683 36.9409 78.2819 37.1591 78.1092 37.3409C77.9365 37.5136 77.7183 37.6 77.4547 37.6C77.2001 37.6 76.9819 37.5136 76.8001 37.3409C76.6274 37.1591 76.541 36.9409 76.541 36.6864C76.541 36.4227 76.6274 36.2045 76.8001 36.0318C76.9819 35.8591 77.2001 35.7727 77.4547 35.7727ZM82.1207 43.7091C82.1207 44.1 82.1889 44.3682 82.3253 44.5136C82.4616 44.65 82.6526 44.7182 82.898 44.7182C83.0616 44.7182 83.2298 44.6909 83.4026 44.6364C83.5844 44.5818 83.7798 44.5 83.9889 44.3909L84.3844 45.5227C84.1026 45.6955 83.8116 45.8318 83.5116 45.9318C83.2116 46.0227 82.9071 46.0682 82.598 46.0682C82.2344 46.0682 81.898 46 81.5889 45.8636C81.2798 45.7182 81.0298 45.4909 80.8389 45.1818C80.6571 44.8727 80.5662 44.4727 80.5662 43.9818V37.0409H82.1207V43.7091ZM79.5435 39.0182H84.2616V40.1364H79.5435V39.0182ZM90.4985 41.8545C90.4803 41.4455 90.3848 41.1 90.2121 40.8182C90.0485 40.5273 89.8167 40.3045 89.5167 40.15C89.2167 39.9864 88.8712 39.9045 88.4803 39.9045C88.0439 39.9045 87.6621 40.0045 87.3348 40.2045C87.0167 40.4045 86.7667 40.6864 86.5848 41.05C86.403 41.4045 86.3121 41.8227 86.3121 42.3045C86.3121 42.8227 86.4076 43.2727 86.5985 43.6545C86.7985 44.0364 87.0712 44.3318 87.4167 44.5409C87.7712 44.75 88.1757 44.8545 88.6303 44.8545C89.4394 44.8545 90.1212 44.5682 90.6757 43.9955L91.5076 44.8273C91.153 45.2182 90.7212 45.5227 90.2121 45.7409C89.703 45.95 89.1348 46.0545 88.5076 46.0545C87.7621 46.0545 87.1121 45.9 86.5576 45.5909C86.003 45.2818 85.5712 44.8545 85.2621 44.3091C84.953 43.7545 84.7985 43.1136 84.7985 42.3864C84.7985 41.6591 84.953 41.0227 85.2621 40.4773C85.5712 39.9227 86.003 39.4909 86.5576 39.1818C87.1121 38.8727 87.7485 38.7136 88.4667 38.7045C89.3212 38.7045 90.0076 38.8818 90.5257 39.2364C91.0439 39.5818 91.4121 40.0727 91.6303 40.7091C91.8485 41.3455 91.9257 42.1 91.8621 42.9727H86.0667V41.8545H90.4985ZM97.3015 40.1227C96.7833 40.0955 96.3333 40.1864 95.9515 40.3955C95.5788 40.5955 95.2879 40.8773 95.0788 41.2409C94.8788 41.6045 94.7788 42.0227 94.7788 42.4955L94.3424 42.4409C94.3424 41.6318 94.4606 40.95 94.697 40.3955C94.9333 39.8409 95.2743 39.4227 95.7197 39.1409C96.1652 38.85 96.6924 38.7045 97.3015 38.7045V40.1227ZM93.2243 38.7591H94.7924V46H93.2243V38.7591ZM98.3182 38.7591H99.8727V46H98.3182V38.7591ZM99.0955 35.7727C99.3591 35.7727 99.5773 35.8591 99.75 36.0318C99.9227 36.2045 100.009 36.4227 100.009 36.6864C100.009 36.9409 99.9227 37.1591 99.75 37.3409C99.5773 37.5136 99.3591 37.6 99.0955 37.6C98.8409 37.6 98.6227 37.5136 98.4409 37.3409C98.2682 37.1591 98.1818 36.9409 98.1818 36.6864C98.1818 36.4227 98.2682 36.2045 98.4409 36.0318C98.6227 35.8591 98.8409 35.7727 99.0955 35.7727ZM104.293 42.7682C103.784 42.7682 103.407 42.8455 103.162 43C102.916 43.1545 102.793 43.4091 102.793 43.7636C102.793 44.1 102.916 44.3682 103.162 44.5682C103.416 44.7682 103.762 44.8682 104.198 44.8682C104.589 44.8682 104.939 44.8 105.248 44.6636C105.557 44.5273 105.802 44.3455 105.984 44.1182C106.166 43.8818 106.262 43.6182 106.271 43.3273L106.571 44.65C106.343 45.1227 105.998 45.4773 105.534 45.7136C105.071 45.95 104.516 46.0682 103.871 46.0682C103.352 46.0682 102.902 45.9682 102.521 45.7682C102.139 45.5682 101.843 45.3 101.634 44.9636C101.425 44.6182 101.321 44.2364 101.321 43.8182C101.321 43.1636 101.557 42.6409 102.03 42.25C102.512 41.8591 103.189 41.6591 104.062 41.65H106.462V42.7682H104.293ZM106.257 41.4045C106.257 40.9318 106.112 40.5636 105.821 40.3C105.53 40.0364 105.098 39.9045 104.525 39.9045C104.18 39.9045 103.825 39.9682 103.462 40.0955C103.107 40.2227 102.748 40.4091 102.384 40.6545L101.743 39.6455C102.08 39.4364 102.398 39.2636 102.698 39.1273C102.998 38.9909 103.316 38.8864 103.652 38.8136C103.998 38.7409 104.402 38.7045 104.866 38.7045C105.802 38.7045 106.521 38.9318 107.021 39.3864C107.53 39.8318 107.789 40.45 107.798 41.2409L107.812 46H106.271L106.257 41.4045ZM118.495 41.9091C118.495 41.3455 118.341 40.9045 118.032 40.5864C117.722 40.2591 117.295 40.0955 116.75 40.0955C116.104 40.1045 115.595 40.3318 115.222 40.7773C114.859 41.2227 114.677 41.7773 114.677 42.4409H114.241C114.241 41.5409 114.368 40.8182 114.622 40.2727C114.877 39.7273 115.236 39.3318 115.7 39.0864C116.172 38.8318 116.727 38.7045 117.363 38.7045C117.927 38.7045 118.409 38.8182 118.809 39.0455C119.218 39.2727 119.527 39.5955 119.736 40.0136C119.954 40.4227 120.063 40.9182 120.063 41.5V46H118.495V41.9091ZM113.109 35.8818H114.677V46H113.109V35.8818ZM124.263 42.7682C123.754 42.7682 123.376 42.8455 123.131 43C122.885 43.1545 122.763 43.4091 122.763 43.7636C122.763 44.1 122.885 44.3682 123.131 44.5682C123.385 44.7682 123.731 44.8682 124.167 44.8682C124.558 44.8682 124.908 44.8 125.217 44.6636C125.526 44.5273 125.772 44.3455 125.954 44.1182C126.135 43.8818 126.231 43.6182 126.24 43.3273L126.54 44.65C126.313 45.1227 125.967 45.4773 125.504 45.7136C125.04 45.95 124.485 46.0682 123.84 46.0682C123.322 46.0682 122.872 45.9682 122.49 45.7682C122.108 45.5682 121.813 45.3 121.604 44.9636C121.394 44.6182 121.29 44.2364 121.29 43.8182C121.29 43.1636 121.526 42.6409 121.999 42.25C122.481 41.8591 123.158 41.6591 124.031 41.65H126.431V42.7682H124.263ZM126.226 41.4045C126.226 40.9318 126.081 40.5636 125.79 40.3C125.499 40.0364 125.067 39.9045 124.494 39.9045C124.149 39.9045 123.794 39.9682 123.431 40.0955C123.076 40.2227 122.717 40.4091 122.354 40.6545L121.713 39.6455C122.049 39.4364 122.367 39.2636 122.667 39.1273C122.967 38.9909 123.285 38.8864 123.622 38.8136C123.967 38.7409 124.372 38.7045 124.835 38.7045C125.772 38.7045 126.49 38.9318 126.99 39.3864C127.499 39.8318 127.758 40.45 127.767 41.2409L127.781 46H126.24L126.226 41.4045ZM128.249 38.7591H129.885L131.903 44.5545L133.894 38.7591H135.462L132.681 46H131.058L128.249 38.7591ZM141.038 41.8545C141.02 41.4455 140.924 41.1 140.751 40.8182C140.588 40.5273 140.356 40.3045 140.056 40.15C139.756 39.9864 139.41 39.9045 139.02 39.9045C138.583 39.9045 138.201 40.0045 137.874 40.2045C137.556 40.4045 137.306 40.6864 137.124 41.05C136.942 41.4045 136.851 41.8227 136.851 42.3045C136.851 42.8227 136.947 43.2727 137.138 43.6545C137.338 44.0364 137.61 44.3318 137.956 44.5409C138.31 44.75 138.715 44.8545 139.17 44.8545C139.979 44.8545 140.66 44.5682 141.215 43.9955L142.047 44.8273C141.692 45.2182 141.26 45.5227 140.751 45.7409C140.242 45.95 139.674 46.0545 139.047 46.0545C138.301 46.0545 137.651 45.9 137.097 45.5909C136.542 45.2818 136.11 44.8545 135.801 44.3091C135.492 43.7545 135.338 43.1136 135.338 42.3864C135.338 41.6591 135.492 41.0227 135.801 40.4773C136.11 39.9227 136.542 39.4909 137.097 39.1818C137.651 38.8727 138.288 38.7136 139.006 38.7045C139.86 38.7045 140.547 38.8818 141.065 39.2364C141.583 39.5818 141.951 40.0727 142.17 40.7091C142.388 41.3455 142.465 42.1 142.401 42.9727H136.606V41.8545H141.038ZM151.339 38.7045C152.03 38.7045 152.634 38.8591 153.153 39.1682C153.671 39.4773 154.075 39.9091 154.366 40.4636C154.657 41.0182 154.803 41.6636 154.803 42.4C154.803 43.1182 154.657 43.7545 154.366 44.3091C154.084 44.8545 153.684 45.2818 153.166 45.5909C152.657 45.9 152.057 46.0545 151.366 46.0545C150.703 46.0545 150.134 45.9091 149.662 45.6182C149.198 45.3273 148.843 44.9091 148.598 44.3636C148.353 43.8091 148.23 43.1545 148.23 42.4C148.23 41.6182 148.353 40.9545 148.598 40.4091C148.843 39.8545 149.198 39.4318 149.662 39.1409C150.134 38.85 150.693 38.7045 151.339 38.7045ZM151.012 39.9455C150.584 39.9455 150.203 40.05 149.866 40.2591C149.53 40.4682 149.266 40.7545 149.075 41.1182C148.893 41.4727 148.803 41.8864 148.803 42.3591C148.803 42.8318 148.893 43.2545 149.075 43.6273C149.266 43.9909 149.53 44.2773 149.866 44.4864C150.203 44.6864 150.584 44.7864 151.012 44.7864C151.448 44.7864 151.83 44.6818 152.157 44.4727C152.493 44.2636 152.753 43.9773 152.934 43.6136C153.125 43.25 153.221 42.8318 153.221 42.3591C153.221 41.8955 153.125 41.4818 152.934 41.1182C152.753 40.7545 152.493 40.4682 152.157 40.2591C151.83 40.05 151.448 39.9455 151.012 39.9455ZM147.234 35.8818H148.803V46H147.234V35.8818ZM161.18 41.8545C161.162 41.4455 161.066 41.1 160.894 40.8182C160.73 40.5273 160.498 40.3045 160.198 40.15C159.898 39.9864 159.553 39.9045 159.162 39.9045C158.726 39.9045 158.344 40.0045 158.016 40.2045C157.698 40.4045 157.448 40.6864 157.266 41.05C157.085 41.4045 156.994 41.8227 156.994 42.3045C156.994 42.8227 157.089 43.2727 157.28 43.6545C157.48 44.0364 157.753 44.3318 158.098 44.5409C158.453 44.75 158.857 44.8545 159.312 44.8545C160.121 44.8545 160.803 44.5682 161.357 43.9955L162.189 44.8273C161.835 45.2182 161.403 45.5227 160.894 45.7409C160.385 45.95 159.816 46.0545 159.189 46.0545C158.444 46.0545 157.794 45.9 157.239 45.5909C156.685 45.2818 156.253 44.8545 155.944 44.3091C155.635 43.7545 155.48 43.1136 155.48 42.3864C155.48 41.6591 155.635 41.0227 155.944 40.4773C156.253 39.9227 156.685 39.4909 157.239 39.1818C157.794 38.8727 158.43 38.7136 159.148 38.7045C160.003 38.7045 160.689 38.8818 161.207 39.2364C161.726 39.5818 162.094 40.0727 162.312 40.7091C162.53 41.3455 162.607 42.1 162.544 42.9727H156.748V41.8545H161.18ZM168.924 41.8545C168.906 41.4455 168.81 41.1 168.638 40.8182C168.474 40.5273 168.242 40.3045 167.942 40.15C167.642 39.9864 167.297 39.9045 166.906 39.9045C166.47 39.9045 166.088 40.0045 165.76 40.2045C165.442 40.4045 165.192 40.6864 165.01 41.05C164.829 41.4045 164.738 41.8227 164.738 42.3045C164.738 42.8227 164.833 43.2727 165.024 43.6545C165.224 44.0364 165.497 44.3318 165.842 44.5409C166.197 44.75 166.601 44.8545 167.056 44.8545C167.865 44.8545 168.547 44.5682 169.101 43.9955L169.933 44.8273C169.579 45.2182 169.147 45.5227 168.638 45.7409C168.129 45.95 167.56 46.0545 166.933 46.0545C166.188 46.0545 165.538 45.9 164.983 45.5909C164.429 45.2818 163.997 44.8545 163.688 44.3091C163.379 43.7545 163.224 43.1136 163.224 42.3864C163.224 41.6591 163.379 41.0227 163.688 40.4773C163.997 39.9227 164.429 39.4909 164.983 39.1818C165.538 38.8727 166.174 38.7136 166.892 38.7045C167.747 38.7045 168.433 38.8818 168.951 39.2364C169.47 39.5818 169.838 40.0727 170.056 40.7091C170.274 41.3455 170.351 42.1 170.288 42.9727H164.492V41.8545H168.924ZM177.023 41.9091C177.023 41.3455 176.868 40.9045 176.559 40.5864C176.25 40.2591 175.823 40.0955 175.277 40.0955C174.632 40.1045 174.123 40.3318 173.75 40.7773C173.386 41.2227 173.204 41.7773 173.204 42.4409H172.768C172.768 41.5409 172.895 40.8182 173.15 40.2727C173.404 39.7273 173.763 39.3318 174.227 39.0864C174.7 38.8318 175.254 38.7045 175.891 38.7045C176.454 38.7045 176.936 38.8182 177.336 39.0455C177.745 39.2727 178.054 39.5955 178.263 40.0136C178.482 40.4227 178.591 40.9182 178.591 41.5V46H177.023V41.9091ZM171.65 38.7591H173.218V46H171.65V38.7591ZM183.89 35.8818H185.458V46H183.89V35.8818ZM187.571 38.7591H189.125V46H187.571V38.7591ZM188.348 35.7727C188.612 35.7727 188.83 35.8591 189.003 36.0318C189.175 36.2045 189.262 36.4227 189.262 36.6864C189.262 36.9409 189.175 37.1591 189.003 37.3409C188.83 37.5136 188.612 37.6 188.348 37.6C188.094 37.6 187.875 37.5136 187.694 37.3409C187.521 37.1591 187.434 36.9409 187.434 36.6864C187.434 36.4227 187.521 36.2045 187.694 36.0318C187.875 35.8591 188.094 35.7727 188.348 35.7727ZM195.305 40.5182C194.987 40.3273 194.637 40.1773 194.255 40.0682C193.882 39.95 193.537 39.8909 193.219 39.8909C192.91 39.8909 192.655 39.95 192.455 40.0682C192.255 40.1864 192.155 40.3818 192.155 40.6545C192.155 40.8818 192.246 41.0636 192.428 41.2C192.619 41.3273 192.86 41.4364 193.151 41.5273C193.441 41.6182 193.751 41.7136 194.078 41.8136C194.405 41.9136 194.714 42.0455 195.005 42.2091C195.305 42.3636 195.546 42.5773 195.728 42.85C195.91 43.1227 196.001 43.4818 196.001 43.9273C196.001 44.4182 195.869 44.8227 195.605 45.1409C195.351 45.45 195.01 45.6818 194.582 45.8364C194.164 45.9818 193.71 46.0545 193.219 46.0545C192.691 46.0545 192.164 45.9682 191.637 45.7955C191.11 45.6227 190.664 45.3727 190.301 45.0455L190.86 43.9818C191.178 44.2636 191.564 44.4864 192.019 44.65C192.473 44.8045 192.896 44.8818 193.287 44.8818C193.514 44.8818 193.714 44.8545 193.887 44.8C194.069 44.7364 194.21 44.6455 194.31 44.5273C194.419 44.4091 194.473 44.2545 194.473 44.0636C194.473 43.8091 194.382 43.6091 194.201 43.4636C194.019 43.3182 193.782 43.2 193.491 43.1091C193.201 43.0091 192.891 42.9136 192.564 42.8227C192.237 42.7227 191.928 42.5955 191.637 42.4409C191.355 42.2864 191.123 42.0773 190.941 41.8136C190.76 41.55 190.669 41.2 190.669 40.7636C190.669 40.2727 190.796 39.8773 191.051 39.5773C191.305 39.2682 191.632 39.0455 192.032 38.9091C192.441 38.7636 192.878 38.6909 193.341 38.6909C193.796 38.6909 194.251 38.7545 194.705 38.8818C195.16 39.0091 195.551 39.1864 195.878 39.4136L195.305 40.5182ZM199.147 43.7091C199.147 44.1 199.215 44.3682 199.351 44.5136C199.488 44.65 199.679 44.7182 199.924 44.7182C200.088 44.7182 200.256 44.6909 200.429 44.6364C200.61 44.5818 200.806 44.5 201.015 44.3909L201.41 45.5227C201.129 45.6955 200.838 45.8318 200.538 45.9318C200.238 46.0227 199.933 46.0682 199.624 46.0682C199.26 46.0682 198.924 46 198.615 45.8636C198.306 45.7182 198.056 45.4909 197.865 45.1818C197.683 44.8727 197.592 44.4727 197.592 43.9818V37.0409H199.147V43.7091ZM196.57 39.0182H201.288V40.1364H196.57V39.0182ZM207.525 41.8545C207.506 41.4455 207.411 41.1 207.238 40.8182C207.075 40.5273 206.843 40.3045 206.543 40.15C206.243 39.9864 205.897 39.9045 205.506 39.9045C205.07 39.9045 204.688 40.0045 204.361 40.2045C204.043 40.4045 203.793 40.6864 203.611 41.05C203.429 41.4045 203.338 41.8227 203.338 42.3045C203.338 42.8227 203.434 43.2727 203.625 43.6545C203.825 44.0364 204.097 44.3318 204.443 44.5409C204.797 44.75 205.202 44.8545 205.656 44.8545C206.465 44.8545 207.147 44.5682 207.702 43.9955L208.534 44.8273C208.179 45.2182 207.747 45.5227 207.238 45.7409C206.729 45.95 206.161 46.0545 205.534 46.0545C204.788 46.0545 204.138 45.9 203.584 45.5909C203.029 45.2818 202.597 44.8545 202.288 44.3091C201.979 43.7545 201.825 43.1136 201.825 42.3864C201.825 41.6591 201.979 41.0227 202.288 40.4773C202.597 39.9227 203.029 39.4909 203.584 39.1818C204.138 38.8727 204.775 38.7136 205.493 38.7045C206.347 38.7045 207.034 38.8818 207.552 39.2364C208.07 39.5818 208.438 40.0727 208.656 40.7091C208.875 41.3455 208.952 42.1 208.888 42.9727H203.093V41.8545H207.525ZM213.019 38.6909C213.691 38.6909 214.259 38.8409 214.723 39.1409C215.196 39.4318 215.555 39.8545 215.8 40.4091C216.055 40.9545 216.178 41.6091 216.169 42.3727C216.178 43.1364 216.059 43.7955 215.814 44.35C215.569 44.9045 215.209 45.3318 214.737 45.6318C214.273 45.9227 213.709 46.0682 213.046 46.0682C212.355 46.0682 211.746 45.9136 211.219 45.6045C210.7 45.2864 210.296 44.85 210.005 44.2955C209.714 43.7318 209.569 43.0864 209.569 42.3591C209.569 41.6318 209.714 40.9955 210.005 40.45C210.296 39.8955 210.7 39.4636 211.219 39.1545C211.737 38.8455 212.337 38.6909 213.019 38.6909ZM213.373 39.9591C212.937 39.9591 212.55 40.0636 212.214 40.2727C211.878 40.4818 211.614 40.7727 211.423 41.1455C211.241 41.5091 211.146 41.9273 211.137 42.4C211.146 42.8727 211.241 43.2909 211.423 43.6545C211.614 44.0182 211.878 44.3045 212.214 44.5136C212.55 44.7227 212.937 44.8273 213.373 44.8273C213.809 44.8273 214.196 44.7227 214.532 44.5136C214.869 44.3045 215.128 44.0182 215.309 43.6545C215.5 43.2909 215.596 42.8727 215.596 42.4C215.596 41.9182 215.5 41.4955 215.309 41.1318C215.128 40.7682 214.869 40.4818 214.532 40.2727C214.196 40.0636 213.809 39.9591 213.373 39.9591ZM215.596 35.8818H217.164V46H215.596V35.8818Z" fill="#101044"/>
<defs>
<clipPath id="clip0_242_420">
<rect width="19" height="21" fill="white" transform="translate(22 23)"/>
</clipPath>
</defs>
</svg>
