<svg width="163" height="82" viewBox="0 0 163 82" fill="none" xmlns="http://www.w3.org/2000/svg">
<rect width="154" height="69" rx="10" fill="white"/>
<rect x="76.7266" y="56" width="18" height="18" rx="2" transform="rotate(45 76.7266 56)" fill="white"/>
<rect x="15" y="17" width="34" height="34" rx="17" fill="#695DFD"/>
<g clip-path="url(#clip0_4_12396)">
<path d="M34.7836 40.948C34.6874 42.6483 33.2551 43.9992 31.5 43.9992C29.7449 43.9992 28.3114 42.6483 28.2164 40.948H24.1972C22.9841 40.948 22 39.9847 22 38.7941C22 37.6035 22.9817 36.6403 24.1935 36.6403C24.1923 36.6403 24.1923 32.3326 24.1923 32.3326C24.1923 29.298 26.124 26.638 28.9423 25.6042V25.5097C28.9423 24.1228 30.0884 22.998 31.5 22.998C32.9116 22.998 34.0577 24.1228 34.0577 25.5097V25.6042C36.876 26.638 38.8077 29.298 38.8077 32.3326V36.6403C40.0147 36.6403 41 37.6047 41 38.7941C41 39.9835 40.0171 40.948 38.8028 40.948H34.7836ZM33.3184 40.948H29.6816C29.7742 41.855 30.5524 42.5633 31.5 42.5633C32.4476 42.5633 33.2258 41.855 33.3184 40.948ZM29.8753 26.8127C27.3943 27.5151 25.6526 29.7551 25.6526 32.3314V36.6391C25.6526 37.4312 24.9974 38.075 24.1923 38.075C23.7879 38.075 23.4603 38.398 23.4603 38.7929C23.4603 39.1878 23.7892 39.5109 24.196 39.5109H38.8028C39.2084 39.5109 39.5385 39.1878 39.5385 38.7929C39.5385 38.398 39.2084 38.075 38.8065 38.075C38.0002 38.075 37.3462 37.4336 37.3462 36.6391V32.3314C37.3462 29.7551 35.6045 27.5151 33.1235 26.8127L32.5949 26.6632V25.5109C32.5949 24.9162 32.1041 24.4351 31.4988 24.4351C30.8935 24.4351 30.4026 24.9174 30.4026 25.5109V26.6632L29.874 26.8127H29.8753Z" fill="white"/>
</g>
<path d="M63.0136 20.4545H64.6364L67.3636 25.1727L70.0364 20.4545H71.6727L67.4727 27.9818H67.2409L63.0136 20.4545ZM66.5727 25.9773H68.1682V30H66.5727V25.9773ZM74.9456 22.7045C75.691 22.7045 76.3456 22.8591 76.9092 23.1682C77.4819 23.4773 77.9274 23.9091 78.2456 24.4636C78.5637 25.0091 78.7228 25.6455 78.7228 26.3727C78.7228 27.1 78.5637 27.7409 78.2456 28.2955C77.9274 28.85 77.4819 29.2818 76.9092 29.5909C76.3456 29.9 75.691 30.0545 74.9456 30.0545C74.2001 30.0545 73.541 29.9 72.9683 29.5909C72.3956 29.2818 71.9501 28.85 71.6319 28.2955C71.3137 27.7409 71.1547 27.1 71.1547 26.3727C71.1547 25.6455 71.3137 25.0091 71.6319 24.4636C71.9501 23.9091 72.3956 23.4773 72.9683 23.1682C73.541 22.8591 74.2001 22.7045 74.9456 22.7045ZM74.9456 23.9727C74.5092 23.9727 74.1228 24.0773 73.7865 24.2864C73.4501 24.4864 73.1865 24.7682 72.9956 25.1318C72.8137 25.4955 72.7228 25.9136 72.7228 26.3864C72.7228 26.8682 72.8137 27.2909 72.9956 27.6545C73.1865 28.0182 73.4501 28.3045 73.7865 28.5136C74.1228 28.7136 74.5092 28.8136 74.9456 28.8136C75.3819 28.8136 75.7637 28.7136 76.091 28.5136C76.4274 28.3045 76.6865 28.0182 76.8683 27.6545C77.0592 27.2909 77.1547 26.8682 77.1547 26.3864C77.1547 25.9136 77.0592 25.4955 76.8683 25.1318C76.6865 24.7682 76.4274 24.4864 76.091 24.2864C75.7637 24.0773 75.3819 23.9727 74.9456 23.9727ZM81.4228 26.85C81.4228 27.4136 81.5728 27.8591 81.8728 28.1864C82.1728 28.5045 82.5865 28.6636 83.1137 28.6636C83.741 28.6455 84.2274 28.4136 84.5728 27.9682C84.9274 27.5227 85.1047 26.9727 85.1047 26.3182H85.5274C85.5274 27.2091 85.4047 27.9273 85.1592 28.4727C84.9137 29.0182 84.5637 29.4182 84.1092 29.6727C83.6637 29.9182 83.1319 30.0455 82.5137 30.0545C81.9592 30.0545 81.4819 29.9409 81.0819 29.7136C80.691 29.4864 80.3865 29.1636 80.1683 28.7455C79.9592 28.3273 79.8547 27.8318 79.8547 27.2591V22.7591H81.4228V26.85ZM85.1047 22.7591H86.6728V30H85.1047V22.7591ZM97.5799 25.9091C97.5799 25.3455 97.4254 24.9045 97.1163 24.5864C96.8072 24.2591 96.3799 24.0955 95.8344 24.0955C95.189 24.1045 94.6799 24.3318 94.3072 24.7773C93.9435 25.2227 93.7617 25.7773 93.7617 26.4409H93.3254C93.3254 25.5409 93.4526 24.8182 93.7072 24.2727C93.9617 23.7273 94.3208 23.3318 94.7844 23.0864C95.2572 22.8318 95.8117 22.7045 96.4481 22.7045C97.0117 22.7045 97.4935 22.8182 97.8935 23.0455C98.3026 23.2727 98.6117 23.5955 98.8208 24.0136C99.039 24.4227 99.1481 24.9182 99.1481 25.5V30H97.5799V25.9091ZM92.1935 19.8818H93.7617V30H92.1935V19.8818ZM103.347 26.7682C102.838 26.7682 102.461 26.8455 102.216 27C101.97 27.1545 101.847 27.4091 101.847 27.7636C101.847 28.1 101.97 28.3682 102.216 28.5682C102.47 28.7682 102.816 28.8682 103.252 28.8682C103.643 28.8682 103.993 28.8 104.302 28.6636C104.611 28.5273 104.856 28.3455 105.038 28.1182C105.22 27.8818 105.316 27.6182 105.325 27.3273L105.625 28.65C105.397 29.1227 105.052 29.4773 104.588 29.7136C104.125 29.95 103.57 30.0682 102.925 30.0682C102.406 30.0682 101.956 29.9682 101.575 29.7682C101.193 29.5682 100.897 29.3 100.688 28.9636C100.479 28.6182 100.375 28.2364 100.375 27.8182C100.375 27.1636 100.611 26.6409 101.084 26.25C101.566 25.8591 102.243 25.6591 103.116 25.65H105.516V26.7682H103.347ZM105.311 25.4045C105.311 24.9318 105.166 24.5636 104.875 24.3C104.584 24.0364 104.152 23.9045 103.579 23.9045C103.234 23.9045 102.879 23.9682 102.516 24.0955C102.161 24.2227 101.802 24.4091 101.438 24.6545L100.797 23.6455C101.134 23.4364 101.452 23.2636 101.752 23.1273C102.052 22.9909 102.37 22.8864 102.706 22.8136C103.052 22.7409 103.456 22.7045 103.92 22.7045C104.856 22.7045 105.575 22.9318 106.075 23.3864C106.584 23.8318 106.843 24.45 106.852 25.2409L106.866 30H105.325L105.311 25.4045ZM107.333 22.7591H108.97L110.988 28.5545L112.979 22.7591H114.547L111.765 30H110.143L107.333 22.7591ZM120.122 25.8545C120.104 25.4455 120.009 25.1 119.836 24.8182C119.672 24.5273 119.441 24.3045 119.141 24.15C118.841 23.9864 118.495 23.9045 118.104 23.9045C117.668 23.9045 117.286 24.0045 116.959 24.2045C116.641 24.4045 116.391 24.6864 116.209 25.05C116.027 25.4045 115.936 25.8227 115.936 26.3045C115.936 26.8227 116.032 27.2727 116.222 27.6545C116.422 28.0364 116.695 28.3318 117.041 28.5409C117.395 28.75 117.8 28.8545 118.254 28.8545C119.063 28.8545 119.745 28.5682 120.3 27.9955L121.132 28.8273C120.777 29.2182 120.345 29.5227 119.836 29.7409C119.327 29.95 118.759 30.0545 118.132 30.0545C117.386 30.0545 116.736 29.9 116.182 29.5909C115.627 29.2818 115.195 28.8545 114.886 28.3091C114.577 27.7545 114.422 27.1136 114.422 26.3864C114.422 25.6591 114.577 25.0227 114.886 24.4773C115.195 23.9227 115.627 23.4909 116.182 23.1818C116.736 22.8727 117.372 22.7136 118.091 22.7045C118.945 22.7045 119.632 22.8818 120.15 23.2364C120.668 23.5818 121.036 24.0727 121.254 24.7091C121.472 25.3455 121.55 26.1 121.486 26.9727H115.691V25.8545H120.122ZM128.624 26.7682C128.115 26.7682 127.737 26.8455 127.492 27C127.246 27.1545 127.124 27.4091 127.124 27.7636C127.124 28.1 127.246 28.3682 127.492 28.5682C127.746 28.7682 128.092 28.8682 128.528 28.8682C128.919 28.8682 129.269 28.8 129.578 28.6636C129.887 28.5273 130.133 28.3455 130.315 28.1182C130.496 27.8818 130.592 27.6182 130.601 27.3273L130.901 28.65C130.674 29.1227 130.328 29.4773 129.865 29.7136C129.401 29.95 128.846 30.0682 128.201 30.0682C127.683 30.0682 127.233 29.9682 126.851 29.7682C126.469 29.5682 126.174 29.3 125.965 28.9636C125.755 28.6182 125.651 28.2364 125.651 27.8182C125.651 27.1636 125.887 26.6409 126.36 26.25C126.842 25.8591 127.519 25.6591 128.392 25.65H130.792V26.7682H128.624ZM130.587 25.4045C130.587 24.9318 130.442 24.5636 130.151 24.3C129.86 24.0364 129.428 23.9045 128.855 23.9045C128.51 23.9045 128.155 23.9682 127.792 24.0955C127.437 24.2227 127.078 24.4091 126.715 24.6545L126.074 23.6455C126.41 23.4364 126.728 23.2636 127.028 23.1273C127.328 22.9909 127.646 22.8864 127.983 22.8136C128.328 22.7409 128.733 22.7045 129.196 22.7045C130.133 22.7045 130.851 22.9318 131.351 23.3864C131.86 23.8318 132.119 24.45 132.128 25.2409L132.142 30H130.601L130.587 25.4045ZM69.5318 41.9091C69.5318 41.3455 69.3773 40.9045 69.0682 40.5864C68.7591 40.2591 68.3318 40.0955 67.7864 40.0955C67.1409 40.1045 66.6318 40.3318 66.2591 40.7773C65.8955 41.2227 65.7136 41.7773 65.7136 42.4409H65.2773C65.2773 41.5409 65.4045 40.8182 65.6591 40.2727C65.9136 39.7273 66.2727 39.3318 66.7364 39.0864C67.2091 38.8318 67.7636 38.7045 68.4 38.7045C68.9636 38.7045 69.4455 38.8182 69.8455 39.0455C70.2545 39.2727 70.5636 39.5955 70.7727 40.0136C70.9909 40.4227 71.1 40.9182 71.1 41.5V46H69.5318V41.9091ZM64.1591 38.7591H65.7273V46H64.1591V38.7591ZM77.9466 41.8545C77.9284 41.4455 77.833 41.1 77.6603 40.8182C77.4966 40.5273 77.2648 40.3045 76.9648 40.15C76.6648 39.9864 76.3194 39.9045 75.9284 39.9045C75.4921 39.9045 75.1103 40.0045 74.783 40.2045C74.4648 40.4045 74.2148 40.6864 74.033 41.05C73.8512 41.4045 73.7603 41.8227 73.7603 42.3045C73.7603 42.8227 73.8557 43.2727 74.0466 43.6545C74.2466 44.0364 74.5194 44.3318 74.8648 44.5409C75.2194 44.75 75.6239 44.8545 76.0784 44.8545C76.8875 44.8545 77.5694 44.5682 78.1239 43.9955L78.9557 44.8273C78.6012 45.2182 78.1694 45.5227 77.6603 45.7409C77.1512 45.95 76.583 46.0545 75.9557 46.0545C75.2103 46.0545 74.5603 45.9 74.0057 45.5909C73.4512 45.2818 73.0194 44.8545 72.7103 44.3091C72.4012 43.7545 72.2466 43.1136 72.2466 42.3864C72.2466 41.6591 72.4012 41.0227 72.7103 40.4773C73.0194 39.9227 73.4512 39.4909 74.0057 39.1818C74.5603 38.8727 75.1966 38.7136 75.9148 38.7045C76.7694 38.7045 77.4557 38.8818 77.9739 39.2364C78.4921 39.5818 78.8603 40.0727 79.0784 40.7091C79.2966 41.3455 79.3739 42.1 79.3103 42.9727H73.5148V41.8545H77.9466ZM79.2606 38.7591H80.8697L82.7515 44.5545L84.5788 38.7591H86.2015L88.0424 44.5545L89.897 38.7591H91.4924L88.847 46H87.2243L85.3833 40.5182L83.5424 46H81.9333L79.2606 38.7591ZM98.8167 38.7045C99.5621 38.7045 100.217 38.8591 100.78 39.1682C101.353 39.4773 101.798 39.9091 102.117 40.4636C102.435 41.0091 102.594 41.6455 102.594 42.3727C102.594 43.1 102.435 43.7409 102.117 44.2955C101.798 44.85 101.353 45.2818 100.78 45.5909C100.217 45.9 99.5621 46.0545 98.8167 46.0545C98.0712 46.0545 97.4121 45.9 96.8394 45.5909C96.2667 45.2818 95.8212 44.85 95.503 44.2955C95.1848 43.7409 95.0257 43.1 95.0257 42.3727C95.0257 41.6455 95.1848 41.0091 95.503 40.4636C95.8212 39.9091 96.2667 39.4773 96.8394 39.1682C97.4121 38.8591 98.0712 38.7045 98.8167 38.7045ZM98.8167 39.9727C98.3803 39.9727 97.9939 40.0773 97.6576 40.2864C97.3212 40.4864 97.0576 40.7682 96.8667 41.1318C96.6848 41.4955 96.5939 41.9136 96.5939 42.3864C96.5939 42.8682 96.6848 43.2909 96.8667 43.6545C97.0576 44.0182 97.3212 44.3045 97.6576 44.5136C97.9939 44.7136 98.3803 44.8136 98.8167 44.8136C99.253 44.8136 99.6348 44.7136 99.9621 44.5136C100.298 44.3045 100.558 44.0182 100.739 43.6545C100.93 43.2909 101.026 42.8682 101.026 42.3864C101.026 41.9136 100.93 41.4955 100.739 41.1318C100.558 40.7682 100.298 40.4864 99.9621 40.2864C99.6348 40.0773 99.253 39.9727 98.8167 39.9727ZM104.191 38.3091C104.191 37.7364 104.309 37.2682 104.546 36.9045C104.791 36.5318 105.105 36.2591 105.486 36.0864C105.868 35.9045 106.268 35.8136 106.686 35.8136C106.905 35.8136 107.123 35.8455 107.341 35.9091C107.568 35.9636 107.777 36.0409 107.968 36.1409L107.641 37.3409C107.514 37.2864 107.368 37.2364 107.205 37.1909C107.05 37.1364 106.891 37.1091 106.727 37.1091C106.555 37.1091 106.391 37.1455 106.236 37.2182C106.091 37.2818 105.973 37.3909 105.882 37.5455C105.791 37.6909 105.746 37.8818 105.746 38.1182V46H104.191V38.3091ZM103.236 39.0182H107.641V40.1364H103.236V39.0182ZM109.114 38.3091C109.114 37.7364 109.232 37.2682 109.468 36.9045C109.714 36.5318 110.027 36.2591 110.409 36.0864C110.791 35.9045 111.191 35.8136 111.609 35.8136C111.827 35.8136 112.046 35.8455 112.264 35.9091C112.491 35.9636 112.7 36.0409 112.891 36.1409L112.564 37.3409C112.436 37.2864 112.291 37.2364 112.127 37.1909C111.973 37.1364 111.814 37.1091 111.65 37.1091C111.477 37.1091 111.314 37.1455 111.159 37.2182C111.014 37.2818 110.896 37.3909 110.805 37.5455C110.714 37.6909 110.668 37.8818 110.668 38.1182V46H109.114V38.3091ZM108.159 39.0182H112.564V40.1364H108.159V39.0182ZM118.264 41.8545C118.246 41.4455 118.151 41.1 117.978 40.8182C117.814 40.5273 117.583 40.3045 117.283 40.15C116.983 39.9864 116.637 39.9045 116.246 39.9045C115.81 39.9045 115.428 40.0045 115.101 40.2045C114.783 40.4045 114.533 40.6864 114.351 41.05C114.169 41.4045 114.078 41.8227 114.078 42.3045C114.078 42.8227 114.174 43.2727 114.364 43.6545C114.564 44.0364 114.837 44.3318 115.183 44.5409C115.537 44.75 115.942 44.8545 116.396 44.8545C117.205 44.8545 117.887 44.5682 118.442 43.9955L119.274 44.8273C118.919 45.2182 118.487 45.5227 117.978 45.7409C117.469 45.95 116.901 46.0545 116.274 46.0545C115.528 46.0545 114.878 45.9 114.324 45.5909C113.769 45.2818 113.337 44.8545 113.028 44.3091C112.719 43.7545 112.564 43.1136 112.564 42.3864C112.564 41.6591 112.719 41.0227 113.028 40.4773C113.337 39.9227 113.769 39.4909 114.324 39.1818C114.878 38.8727 115.514 38.7136 116.233 38.7045C117.087 38.7045 117.774 38.8818 118.292 39.2364C118.81 39.5818 119.178 40.0727 119.396 40.7091C119.614 41.3455 119.692 42.1 119.628 42.9727H113.833V41.8545H118.264ZM125.068 40.1227C124.549 40.0955 124.099 40.1864 123.718 40.3955C123.345 40.5955 123.054 40.8773 122.845 41.2409C122.645 41.6045 122.545 42.0227 122.545 42.4955L122.108 42.4409C122.108 41.6318 122.227 40.95 122.463 40.3955C122.699 39.8409 123.04 39.4227 123.486 39.1409C123.931 38.85 124.458 38.7045 125.068 38.7045V40.1227ZM120.99 38.7591H122.558V46H120.99V38.7591Z" fill="#101044"/>
<defs>
<clipPath id="clip0_4_12396">
<rect width="19" height="21" fill="white" transform="translate(22 23)"/>
</clipPath>
</defs>
</svg>
