<svg width="231" height="82" viewBox="0 0 231 82" fill="none" xmlns="http://www.w3.org/2000/svg">
<rect width="231" height="69" rx="10" fill="white"/>
<rect x="115.727" y="56" width="18" height="18" rx="2" transform="rotate(45 115.727 56)" fill="white"/>
<rect x="15" y="17" width="34" height="34" rx="17" fill="#695DFD"/>
<g clip-path="url(#clip0_4_12268)">
<path d="M39.6303 40.8037H25.0894C23.9364 40.8023 23.002 39.868 23 38.7143V29.0894C23.0013 27.9357 23.9357 27.0013 25.0894 27H39.631C40.784 27.0013 41.7184 27.9357 41.7204 29.0894V38.7143C41.7191 39.8673 40.7847 40.8017 39.631 40.8037H39.6303ZM25.1089 39.5424H39.6115L34.9935 34.7905C34.4378 35.3623 33.9898 35.8231 33.7355 36.0874C32.97 36.8402 31.7417 36.8402 30.9761 36.0874C30.7192 35.8217 30.2752 35.3636 29.7256 34.7985L25.1089 39.5424ZM24.2613 29.1815V38.6053L28.8464 33.8938C27.3046 32.3082 25.7002 30.6595 24.2613 29.1822V29.1815ZM35.8733 33.885L40.4584 38.602V29.1802C39.1157 30.5572 37.434 32.282 35.8733 33.8857V33.885ZM30.1965 33.472C30.9452 34.2422 31.5614 34.8766 31.8829 35.2096C32.1453 35.4672 32.5657 35.4672 32.8274 35.2096C34.7392 33.2372 37.7017 30.2014 39.5927 28.2606H25.125C26.6991 29.8785 28.5659 31.7963 30.1965 33.472Z" fill="white"/>
</g>
<path d="M70.0636 22.6636C69.7182 22.4455 69.3773 22.2727 69.0409 22.1455C68.7045 22.0182 68.3864 21.9273 68.0864 21.8727C67.7864 21.8182 67.5136 21.7909 67.2682 21.7909C66.7955 21.7909 66.4182 21.8818 66.1364 22.0636C65.8545 22.2455 65.7136 22.5091 65.7136 22.8545C65.7136 23.1636 65.8045 23.4182 65.9864 23.6182C66.1773 23.8091 66.4227 23.9682 66.7227 24.0955C67.0318 24.2136 67.3682 24.3273 67.7318 24.4364C68.1045 24.5455 68.4727 24.6682 68.8364 24.8045C69.2 24.9318 69.5364 25.1 69.8455 25.3091C70.1545 25.5182 70.4 25.7864 70.5818 26.1136C70.7636 26.4318 70.8545 26.8364 70.8545 27.3273C70.8545 27.8909 70.7 28.3818 70.3909 28.8C70.0818 29.2091 69.6545 29.5273 69.1091 29.7545C68.5727 29.9818 67.9545 30.0955 67.2545 30.0955C66.7545 30.0955 66.2682 30.0318 65.7955 29.9045C65.3227 29.7682 64.8773 29.5864 64.4591 29.3591C64.05 29.1318 63.6818 28.8682 63.3545 28.5682L64.05 27.2455C64.3773 27.5455 64.7227 27.8 65.0864 28.0091C65.4591 28.2182 65.8318 28.3773 66.2045 28.4864C66.5864 28.5955 66.9455 28.65 67.2818 28.65C67.8455 28.65 68.2818 28.5409 68.5909 28.3227C68.9091 28.1045 69.0682 27.8 69.0682 27.4091C69.0682 27.0909 68.9727 26.8364 68.7818 26.6455C68.6 26.4455 68.3545 26.2818 68.0455 26.1545C67.7455 26.0273 67.4091 25.9136 67.0364 25.8136C66.6727 25.7136 66.3045 25.6 65.9318 25.4727C65.5682 25.3364 65.2318 25.1682 64.9227 24.9682C64.6227 24.7682 64.3773 24.5091 64.1864 24.1909C64.0045 23.8727 63.9136 23.4682 63.9136 22.9773C63.9136 22.4409 64.0591 21.9773 64.35 21.5864C64.6409 21.1864 65.0455 20.8773 65.5636 20.6591C66.0909 20.4409 66.7 20.3318 67.3909 20.3318C68.0091 20.3318 68.6091 20.4227 69.1909 20.6045C69.7727 20.7864 70.2864 21.0227 70.7318 21.3136L70.0636 22.6636ZM77.3873 25.8545C77.3691 25.4455 77.2737 25.1 77.101 24.8182C76.9373 24.5273 76.7055 24.3045 76.4055 24.15C76.1055 23.9864 75.7601 23.9045 75.3691 23.9045C74.9328 23.9045 74.551 24.0045 74.2237 24.2045C73.9055 24.4045 73.6555 24.6864 73.4737 25.05C73.2919 25.4045 73.201 25.8227 73.201 26.3045C73.201 26.8227 73.2964 27.2727 73.4873 27.6545C73.6873 28.0364 73.9601 28.3318 74.3055 28.5409C74.6601 28.75 75.0646 28.8545 75.5191 28.8545C76.3282 28.8545 77.0101 28.5682 77.5646 27.9955L78.3964 28.8273C78.0419 29.2182 77.6101 29.5227 77.101 29.7409C76.5919 29.95 76.0237 30.0545 75.3964 30.0545C74.651 30.0545 74.001 29.9 73.4464 29.5909C72.8919 29.2818 72.4601 28.8545 72.151 28.3091C71.8419 27.7545 71.6873 27.1136 71.6873 26.3864C71.6873 25.6591 71.8419 25.0227 72.151 24.4773C72.4601 23.9227 72.8919 23.4909 73.4464 23.1818C74.001 22.8727 74.6373 22.7136 75.3555 22.7045C76.2101 22.7045 76.8964 22.8818 77.4146 23.2364C77.9328 23.5818 78.301 24.0727 78.5191 24.7091C78.7373 25.3455 78.8146 26.1 78.751 26.9727H72.9555V25.8545H77.3873ZM85.4858 25.9091C85.4858 25.3455 85.3313 24.9045 85.0222 24.5864C84.7131 24.2591 84.2858 24.0955 83.7404 24.0955C83.0949 24.1045 82.5858 24.3318 82.2131 24.7773C81.8495 25.2227 81.6676 25.7773 81.6676 26.4409H81.2313C81.2313 25.5409 81.3586 24.8182 81.6131 24.2727C81.8676 23.7273 82.2267 23.3318 82.6904 23.0864C83.1631 22.8318 83.7176 22.7045 84.354 22.7045C84.9176 22.7045 85.3995 22.8182 85.7995 23.0455C86.2086 23.2727 86.5177 23.5955 86.7267 24.0136C86.9449 24.4227 87.054 24.9182 87.054 25.5V30H85.4858V25.9091ZM80.1131 22.7591H81.6813V30H80.1131V22.7591ZM91.6506 22.6909C92.3234 22.6909 92.8915 22.8409 93.3552 23.1409C93.8279 23.4318 94.187 23.8545 94.4325 24.4091C94.687 24.9545 94.8097 25.6091 94.8006 26.3727C94.8097 27.1364 94.6916 27.7955 94.4461 28.35C94.2006 28.9045 93.8416 29.3318 93.3688 29.6318C92.9052 29.9227 92.3415 30.0682 91.6779 30.0682C90.987 30.0682 90.3779 29.9136 89.8506 29.6045C89.3325 29.2864 88.9279 28.85 88.637 28.2955C88.3461 27.7318 88.2006 27.0864 88.2006 26.3591C88.2006 25.6318 88.3461 24.9955 88.637 24.45C88.9279 23.8955 89.3325 23.4636 89.8506 23.1545C90.3688 22.8455 90.9688 22.6909 91.6506 22.6909ZM92.0052 23.9591C91.5688 23.9591 91.1825 24.0636 90.8461 24.2727C90.5097 24.4818 90.2461 24.7727 90.0552 25.1455C89.8734 25.5091 89.7779 25.9273 89.7688 26.4C89.7779 26.8727 89.8734 27.2909 90.0552 27.6545C90.2461 28.0182 90.5097 28.3045 90.8461 28.5136C91.1825 28.7227 91.5688 28.8273 92.0052 28.8273C92.4415 28.8273 92.8279 28.7227 93.1643 28.5136C93.5006 28.3045 93.7597 28.0182 93.9416 27.6545C94.1325 27.2909 94.2279 26.8727 94.2279 26.4C94.2279 25.9182 94.1325 25.4955 93.9416 25.1318C93.7597 24.7682 93.5006 24.4818 93.1643 24.2727C92.8279 24.0636 92.4415 23.9591 92.0052 23.9591ZM94.2279 19.8818H95.7961V30H94.2279V19.8818ZM103.68 26.7682C103.171 26.7682 102.794 26.8455 102.548 27C102.303 27.1545 102.18 27.4091 102.18 27.7636C102.18 28.1 102.303 28.3682 102.548 28.5682C102.803 28.7682 103.148 28.8682 103.585 28.8682C103.976 28.8682 104.326 28.8 104.635 28.6636C104.944 28.5273 105.189 28.3455 105.371 28.1182C105.553 27.8818 105.648 27.6182 105.658 27.3273L105.958 28.65C105.73 29.1227 105.385 29.4773 104.921 29.7136C104.458 29.95 103.903 30.0682 103.258 30.0682C102.739 30.0682 102.289 29.9682 101.908 29.7682C101.526 29.5682 101.23 29.3 101.021 28.9636C100.812 28.6182 100.708 28.2364 100.708 27.8182C100.708 27.1636 100.944 26.6409 101.417 26.25C101.898 25.8591 102.576 25.6591 103.448 25.65H105.848V26.7682H103.68ZM105.644 25.4045C105.644 24.9318 105.498 24.5636 105.208 24.3C104.917 24.0364 104.485 23.9045 103.912 23.9045C103.567 23.9045 103.212 23.9682 102.848 24.0955C102.494 24.2227 102.135 24.4091 101.771 24.6545L101.13 23.6455C101.467 23.4364 101.785 23.2636 102.085 23.1273C102.385 22.9909 102.703 22.8864 103.039 22.8136C103.385 22.7409 103.789 22.7045 104.253 22.7045C105.189 22.7045 105.908 22.9318 106.408 23.3864C106.917 23.8318 107.176 24.45 107.185 25.2409L107.198 30H105.658L105.644 25.4045ZM114.398 25.9091C114.398 25.3455 114.243 24.9045 113.934 24.5864C113.625 24.2591 113.198 24.0955 112.652 24.0955C112.007 24.1045 111.498 24.3318 111.125 24.7773C110.761 25.2227 110.579 25.7773 110.579 26.4409H110.143C110.143 25.5409 110.27 24.8182 110.525 24.2727C110.779 23.7273 111.138 23.3318 111.602 23.0864C112.075 22.8318 112.629 22.7045 113.266 22.7045C113.829 22.7045 114.311 22.8182 114.711 23.0455C115.12 23.2727 115.429 23.5955 115.638 24.0136C115.857 24.4227 115.966 24.9182 115.966 25.5V30H114.398V25.9091ZM109.025 22.7591H110.593V30H109.025V22.7591ZM120.562 22.6909C121.235 22.6909 121.803 22.8409 122.267 23.1409C122.74 23.4318 123.099 23.8545 123.344 24.4091C123.599 24.9545 123.721 25.6091 123.712 26.3727C123.721 27.1364 123.603 27.7955 123.358 28.35C123.112 28.9045 122.753 29.3318 122.281 29.6318C121.817 29.9227 121.253 30.0682 120.59 30.0682C119.899 30.0682 119.29 29.9136 118.762 29.6045C118.244 29.2864 117.84 28.85 117.549 28.2955C117.258 27.7318 117.112 27.0864 117.112 26.3591C117.112 25.6318 117.258 24.9955 117.549 24.45C117.84 23.8955 118.244 23.4636 118.762 23.1545C119.281 22.8455 119.881 22.6909 120.562 22.6909ZM120.917 23.9591C120.481 23.9591 120.094 24.0636 119.758 24.2727C119.421 24.4818 119.158 24.7727 118.967 25.1455C118.785 25.5091 118.69 25.9273 118.681 26.4C118.69 26.8727 118.785 27.2909 118.967 27.6545C119.158 28.0182 119.421 28.3045 119.758 28.5136C120.094 28.7227 120.481 28.8273 120.917 28.8273C121.353 28.8273 121.74 28.7227 122.076 28.5136C122.412 28.3045 122.671 28.0182 122.853 27.6545C123.044 27.2909 123.14 26.8727 123.14 26.4C123.14 25.9182 123.044 25.4955 122.853 25.1318C122.671 24.7682 122.412 24.4818 122.076 24.2727C121.74 24.0636 121.353 23.9591 120.917 23.9591ZM123.14 19.8818H124.708V30H123.14V19.8818ZM134.297 24.1227C133.778 24.0955 133.328 24.1864 132.947 24.3955C132.574 24.5955 132.283 24.8773 132.074 25.2409C131.874 25.6045 131.774 26.0227 131.774 26.4955L131.337 26.4409C131.337 25.6318 131.456 24.95 131.692 24.3955C131.928 23.8409 132.269 23.4227 132.715 23.1409C133.16 22.85 133.687 22.7045 134.297 22.7045V24.1227ZM130.219 22.7591H131.787V30H130.219V22.7591ZM140.331 25.8545C140.313 25.4455 140.218 25.1 140.045 24.8182C139.881 24.5273 139.65 24.3045 139.35 24.15C139.05 23.9864 138.704 23.9045 138.313 23.9045C137.877 23.9045 137.495 24.0045 137.168 24.2045C136.85 24.4045 136.6 24.6864 136.418 25.05C136.236 25.4045 136.145 25.8227 136.145 26.3045C136.145 26.8227 136.24 27.2727 136.431 27.6545C136.631 28.0364 136.904 28.3318 137.25 28.5409C137.604 28.75 138.009 28.8545 138.463 28.8545C139.272 28.8545 139.954 28.5682 140.509 27.9955L141.34 28.8273C140.986 29.2182 140.554 29.5227 140.045 29.7409C139.536 29.95 138.968 30.0545 138.34 30.0545C137.595 30.0545 136.945 29.9 136.39 29.5909C135.836 29.2818 135.404 28.8545 135.095 28.3091C134.786 27.7545 134.631 27.1136 134.631 26.3864C134.631 25.6591 134.786 25.0227 135.095 24.4773C135.404 23.9227 135.836 23.4909 136.39 23.1818C136.945 22.8727 137.581 22.7136 138.3 22.7045C139.154 22.7045 139.84 22.8818 140.359 23.2364C140.877 23.5818 141.245 24.0727 141.463 24.7091C141.681 25.3455 141.759 26.1 141.695 26.9727H135.9V25.8545H140.331ZM148.171 24.8318C147.916 24.5682 147.616 24.3636 147.271 24.2182C146.925 24.0727 146.534 24 146.098 24C145.68 24 145.307 24.1 144.98 24.3C144.653 24.5 144.398 24.7818 144.216 25.1455C144.034 25.5 143.944 25.9136 143.944 26.3864C143.944 26.8591 144.034 27.2773 144.216 27.6409C144.398 27.9955 144.653 28.2773 144.98 28.4864C145.307 28.6864 145.68 28.7864 146.098 28.7864C146.553 28.7864 146.962 28.7136 147.325 28.5682C147.689 28.4136 147.994 28.1909 148.239 27.9L149.112 28.7591C148.784 29.1682 148.357 29.4864 147.83 29.7136C147.312 29.9409 146.712 30.0545 146.03 30.0545C145.312 30.0545 144.675 29.9 144.121 29.5909C143.575 29.2818 143.148 28.8545 142.839 28.3091C142.53 27.7545 142.375 27.1136 142.375 26.3864C142.375 25.6591 142.53 25.0227 142.839 24.4773C143.148 23.9227 143.575 23.4909 144.121 23.1818C144.675 22.8636 145.312 22.7045 146.03 22.7045C146.684 22.7045 147.262 22.8045 147.762 23.0045C148.271 23.1955 148.694 23.4682 149.03 23.8227L148.171 24.8318ZM155.207 25.8545C155.189 25.4455 155.093 25.1 154.92 24.8182C154.757 24.5273 154.525 24.3045 154.225 24.15C153.925 23.9864 153.579 23.9045 153.189 23.9045C152.752 23.9045 152.37 24.0045 152.043 24.2045C151.725 24.4045 151.475 24.6864 151.293 25.05C151.111 25.4045 151.02 25.8227 151.02 26.3045C151.02 26.8227 151.116 27.2727 151.307 27.6545C151.507 28.0364 151.779 28.3318 152.125 28.5409C152.479 28.75 152.884 28.8545 153.339 28.8545C154.148 28.8545 154.829 28.5682 155.384 27.9955L156.216 28.8273C155.861 29.2182 155.429 29.5227 154.92 29.7409C154.411 29.95 153.843 30.0545 153.216 30.0545C152.47 30.0545 151.82 29.9 151.266 29.5909C150.711 29.2818 150.279 28.8545 149.97 28.3091C149.661 27.7545 149.507 27.1136 149.507 26.3864C149.507 25.6591 149.661 25.0227 149.97 24.4773C150.279 23.9227 150.711 23.4909 151.266 23.1818C151.82 22.8727 152.457 22.7136 153.175 22.7045C154.029 22.7045 154.716 22.8818 155.234 23.2364C155.752 23.5818 156.12 24.0727 156.339 24.7091C156.557 25.3455 156.634 26.1 156.57 26.9727H150.775V25.8545H155.207ZM157.933 22.7591H159.487V30H157.933V22.7591ZM158.71 19.7727C158.973 19.7727 159.192 19.8591 159.364 20.0318C159.537 20.2045 159.623 20.4227 159.623 20.6864C159.623 20.9409 159.537 21.1591 159.364 21.3409C159.192 21.5136 158.973 21.6 158.71 21.6C158.455 21.6 158.237 21.5136 158.055 21.3409C157.883 21.1591 157.796 20.9409 157.796 20.6864C157.796 20.4227 157.883 20.2045 158.055 20.0318C158.237 19.8591 158.455 19.7727 158.71 19.7727ZM160.39 22.7591H162.026L164.044 28.5545L166.035 22.7591H167.603L164.821 30H163.199L160.39 22.7591ZM173.179 25.8545C173.16 25.4455 173.065 25.1 172.892 24.8182C172.729 24.5273 172.497 24.3045 172.197 24.15C171.897 23.9864 171.551 23.9045 171.16 23.9045C170.724 23.9045 170.342 24.0045 170.015 24.2045C169.697 24.4045 169.447 24.6864 169.265 25.05C169.083 25.4045 168.992 25.8227 168.992 26.3045C168.992 26.8227 169.088 27.2727 169.279 27.6545C169.479 28.0364 169.751 28.3318 170.097 28.5409C170.451 28.75 170.856 28.8545 171.31 28.8545C172.119 28.8545 172.801 28.5682 173.356 27.9955L174.188 28.8273C173.833 29.2182 173.401 29.5227 172.892 29.7409C172.383 29.95 171.815 30.0545 171.188 30.0545C170.442 30.0545 169.792 29.9 169.238 29.5909C168.683 29.2818 168.251 28.8545 167.942 28.3091C167.633 27.7545 167.479 27.1136 167.479 26.3864C167.479 25.6591 167.633 25.0227 167.942 24.4773C168.251 23.9227 168.683 23.4909 169.238 23.1818C169.792 22.8727 170.429 22.7136 171.147 22.7045C172.001 22.7045 172.688 22.8818 173.206 23.2364C173.724 23.5818 174.092 24.0727 174.31 24.7091C174.529 25.3455 174.606 26.1 174.542 26.9727H168.747V25.8545H173.179ZM182.416 22.7045C183.162 22.7045 183.816 22.8591 184.38 23.1682C184.952 23.4773 185.398 23.9091 185.716 24.4636C186.034 25.0091 186.193 25.6455 186.193 26.3727C186.193 27.1 186.034 27.7409 185.716 28.2955C185.398 28.85 184.952 29.2818 184.38 29.5909C183.816 29.9 183.162 30.0545 182.416 30.0545C181.671 30.0545 181.012 29.9 180.439 29.5909C179.866 29.2818 179.421 28.85 179.102 28.2955C178.784 27.7409 178.625 27.1 178.625 26.3727C178.625 25.6455 178.784 25.0091 179.102 24.4636C179.421 23.9091 179.866 23.4773 180.439 23.1682C181.012 22.8591 181.671 22.7045 182.416 22.7045ZM182.416 23.9727C181.98 23.9727 181.593 24.0773 181.257 24.2864C180.921 24.4864 180.657 24.7682 180.466 25.1318C180.284 25.4955 180.193 25.9136 180.193 26.3864C180.193 26.8682 180.284 27.2909 180.466 27.6545C180.657 28.0182 180.921 28.3045 181.257 28.5136C181.593 28.7136 181.98 28.8136 182.416 28.8136C182.852 28.8136 183.234 28.7136 183.562 28.5136C183.898 28.3045 184.157 28.0182 184.339 27.6545C184.53 27.2909 184.625 26.8682 184.625 26.3864C184.625 25.9136 184.53 25.4955 184.339 25.1318C184.157 24.7682 183.898 24.4864 183.562 24.2864C183.234 24.0773 182.852 23.9727 182.416 23.9727ZM187.79 22.3091C187.79 21.7364 187.909 21.2682 188.145 20.9045C188.39 20.5318 188.704 20.2591 189.086 20.0864C189.468 19.9045 189.868 19.8136 190.286 19.8136C190.504 19.8136 190.722 19.8455 190.94 19.9091C191.168 19.9636 191.377 20.0409 191.568 20.1409L191.24 21.3409C191.113 21.2864 190.968 21.2364 190.804 21.1909C190.65 21.1364 190.49 21.1091 190.327 21.1091C190.154 21.1091 189.99 21.1455 189.836 21.2182C189.69 21.2818 189.572 21.3909 189.481 21.5455C189.39 21.6909 189.345 21.8818 189.345 22.1182V30H187.79V22.3091ZM186.836 23.0182H191.24V24.1364H186.836V23.0182ZM192.713 22.3091C192.713 21.7364 192.831 21.2682 193.068 20.9045C193.313 20.5318 193.627 20.2591 194.009 20.0864C194.39 19.9045 194.79 19.8136 195.209 19.8136C195.427 19.8136 195.645 19.8455 195.863 19.9091C196.09 19.9636 196.3 20.0409 196.49 20.1409L196.163 21.3409C196.036 21.2864 195.89 21.2364 195.727 21.1909C195.572 21.1364 195.413 21.1091 195.25 21.1091C195.077 21.1091 194.913 21.1455 194.759 21.2182C194.613 21.2818 194.495 21.3909 194.404 21.5455C194.313 21.6909 194.268 21.8818 194.268 22.1182V30H192.713V22.3091ZM191.759 23.0182H196.163V24.1364H191.759V23.0182ZM201.864 25.8545C201.846 25.4455 201.75 25.1 201.578 24.8182C201.414 24.5273 201.182 24.3045 200.882 24.15C200.582 23.9864 200.237 23.9045 199.846 23.9045C199.409 23.9045 199.028 24.0045 198.7 24.2045C198.382 24.4045 198.132 24.6864 197.95 25.05C197.768 25.4045 197.678 25.8227 197.678 26.3045C197.678 26.8227 197.773 27.2727 197.964 27.6545C198.164 28.0364 198.437 28.3318 198.782 28.5409C199.137 28.75 199.541 28.8545 199.996 28.8545C200.805 28.8545 201.487 28.5682 202.041 27.9955L202.873 28.8273C202.518 29.2182 202.087 29.5227 201.578 29.7409C201.068 29.95 200.5 30.0545 199.873 30.0545C199.128 30.0545 198.478 29.9 197.923 29.5909C197.368 29.2818 196.937 28.8545 196.628 28.3091C196.318 27.7545 196.164 27.1136 196.164 26.3864C196.164 25.6591 196.318 25.0227 196.628 24.4773C196.937 23.9227 197.368 23.4909 197.923 23.1818C198.478 22.8727 199.114 22.7136 199.832 22.7045C200.687 22.7045 201.373 22.8818 201.891 23.2364C202.409 23.5818 202.778 24.0727 202.996 24.7091C203.214 25.3455 203.291 26.1 203.228 26.9727H197.432V25.8545H201.864ZM208.667 24.1227C208.149 24.0955 207.699 24.1864 207.317 24.3955C206.944 24.5955 206.653 24.8773 206.444 25.2409C206.244 25.6045 206.144 26.0227 206.144 26.4955L205.708 26.4409C205.708 25.6318 205.826 24.95 206.062 24.3955C206.299 23.8409 206.64 23.4227 207.085 23.1409C207.531 22.85 208.058 22.7045 208.667 22.7045V24.1227ZM204.59 22.7591H206.158V30H204.59V22.7591ZM213.815 24.5182C213.497 24.3273 213.147 24.1773 212.765 24.0682C212.393 23.95 212.047 23.8909 211.729 23.8909C211.42 23.8909 211.165 23.95 210.965 24.0682C210.765 24.1864 210.665 24.3818 210.665 24.6545C210.665 24.8818 210.756 25.0636 210.938 25.2C211.129 25.3273 211.37 25.4364 211.661 25.5273C211.952 25.6182 212.261 25.7136 212.588 25.8136C212.915 25.9136 213.225 26.0455 213.515 26.2091C213.815 26.3636 214.056 26.5773 214.238 26.85C214.42 27.1227 214.511 27.4818 214.511 27.9273C214.511 28.4182 214.379 28.8227 214.115 29.1409C213.861 29.45 213.52 29.6818 213.093 29.8364C212.675 29.9818 212.22 30.0545 211.729 30.0545C211.202 30.0545 210.675 29.9682 210.147 29.7955C209.62 29.6227 209.175 29.3727 208.811 29.0455L209.37 27.9818C209.688 28.2636 210.075 28.4864 210.529 28.65C210.984 28.8045 211.406 28.8818 211.797 28.8818C212.025 28.8818 212.225 28.8545 212.397 28.8C212.579 28.7364 212.72 28.6455 212.82 28.5273C212.929 28.4091 212.984 28.2545 212.984 28.0636C212.984 27.8091 212.893 27.6091 212.711 27.4636C212.529 27.3182 212.293 27.2 212.002 27.1091C211.711 27.0091 211.402 26.9136 211.075 26.8227C210.747 26.7227 210.438 26.5955 210.147 26.4409C209.865 26.2864 209.634 26.0773 209.452 25.8136C209.27 25.55 209.179 25.2 209.179 24.7636C209.179 24.2727 209.306 23.8773 209.561 23.5773C209.815 23.2682 210.143 23.0455 210.543 22.9091C210.952 22.7636 211.388 22.6909 211.852 22.6909C212.306 22.6909 212.761 22.7545 213.215 22.8818C213.67 23.0091 214.061 23.1864 214.388 23.4136L213.815 24.5182ZM64.4591 38.3091C64.4591 37.7364 64.5773 37.2682 64.8136 36.9045C65.0591 36.5318 65.3727 36.2591 65.7545 36.0864C66.1364 35.9045 66.5364 35.8136 66.9545 35.8136C67.1727 35.8136 67.3909 35.8455 67.6091 35.9091C67.8364 35.9636 68.0455 36.0409 68.2364 36.1409L67.9091 37.3409C67.7818 37.2864 67.6364 37.2364 67.4727 37.1909C67.3182 37.1364 67.1591 37.1091 66.9955 37.1091C66.8227 37.1091 66.6591 37.1455 66.5045 37.2182C66.3591 37.2818 66.2409 37.3909 66.15 37.5455C66.0591 37.6909 66.0136 37.8818 66.0136 38.1182V46H64.4591V38.3091ZM63.5045 39.0182H67.9091V40.1364H63.5045V39.0182ZM72.8109 40.1227C72.2928 40.0955 71.8428 40.1864 71.4609 40.3955C71.0882 40.5955 70.7973 40.8773 70.5882 41.2409C70.3882 41.6045 70.2882 42.0227 70.2882 42.4955L69.8518 42.4409C69.8518 41.6318 69.97 40.95 70.2064 40.3955C70.4428 39.8409 70.7837 39.4227 71.2291 39.1409C71.6746 38.85 72.2018 38.7045 72.8109 38.7045V40.1227ZM68.7337 38.7591H70.3018V46H68.7337V38.7591ZM76.9367 38.7045C77.6821 38.7045 78.3367 38.8591 78.9003 39.1682C79.473 39.4773 79.9185 39.9091 80.2367 40.4636C80.5549 41.0091 80.714 41.6455 80.714 42.3727C80.714 43.1 80.5549 43.7409 80.2367 44.2955C79.9185 44.85 79.473 45.2818 78.9003 45.5909C78.3367 45.9 77.6821 46.0545 76.9367 46.0545C76.1912 46.0545 75.5321 45.9 74.9594 45.5909C74.3867 45.2818 73.9412 44.85 73.623 44.2955C73.3049 43.7409 73.1458 43.1 73.1458 42.3727C73.1458 41.6455 73.3049 41.0091 73.623 40.4636C73.9412 39.9091 74.3867 39.4773 74.9594 39.1682C75.5321 38.8591 76.1912 38.7045 76.9367 38.7045ZM76.9367 39.9727C76.5003 39.9727 76.114 40.0773 75.7776 40.2864C75.4412 40.4864 75.1776 40.7682 74.9867 41.1318C74.8049 41.4955 74.714 41.9136 74.714 42.3864C74.714 42.8682 74.8049 43.2909 74.9867 43.6545C75.1776 44.0182 75.4412 44.3045 75.7776 44.5136C76.114 44.7136 76.5003 44.8136 76.9367 44.8136C77.373 44.8136 77.7549 44.7136 78.0821 44.5136C78.4185 44.3045 78.6776 44.0182 78.8594 43.6545C79.0503 43.2909 79.1458 42.8682 79.1458 42.3864C79.1458 41.9136 79.0503 41.4955 78.8594 41.1318C78.6776 40.7682 78.4185 40.4864 78.0821 40.2864C77.7549 40.0773 77.373 39.9727 76.9367 39.9727ZM87.3549 41.9091C87.3549 41.3364 87.2049 40.8909 86.9049 40.5727C86.6049 40.2455 86.1867 40.0818 85.6503 40.0818C85.023 40.1 84.5276 40.3318 84.164 40.7773C83.8094 41.2227 83.6321 41.7727 83.6321 42.4273H83.1958C83.1958 41.5364 83.3185 40.8182 83.564 40.2727C83.8185 39.7273 84.173 39.3318 84.6276 39.0864C85.0912 38.8318 85.6367 38.7045 86.264 38.7045C86.8185 38.7045 87.2912 38.8182 87.6821 39.0455C88.0821 39.2727 88.3867 39.5955 88.5958 40.0136C88.814 40.4227 88.923 40.9182 88.923 41.5V46H87.3549V41.9091ZM92.6321 41.9091C92.6321 41.3364 92.4776 40.8909 92.1685 40.5727C91.8685 40.2455 91.4503 40.0818 90.914 40.0818C90.2958 40.1 89.8094 40.3318 89.4549 40.7773C89.1003 41.2227 88.923 41.7727 88.923 42.4273H88.473C88.473 41.5364 88.5958 40.8182 88.8412 40.2727C89.0958 39.7273 89.4503 39.3318 89.9049 39.0864C90.3685 38.8318 90.914 38.7045 91.5412 38.7045C92.0958 38.7045 92.5685 38.8182 92.9594 39.0455C93.3594 39.2727 93.664 39.5955 93.873 40.0136C94.0912 40.4227 94.2003 40.9182 94.2003 41.5V46H92.6321V41.9091ZM82.0776 38.7591H83.6321V46H82.0776V38.7591ZM103.603 38.7045C104.294 38.7045 104.898 38.8591 105.416 39.1682C105.934 39.4773 106.339 39.9091 106.63 40.4636C106.921 41.0182 107.066 41.6636 107.066 42.4C107.066 43.1182 106.921 43.7545 106.63 44.3091C106.348 44.8545 105.948 45.2818 105.43 45.5909C104.921 45.9 104.321 46.0545 103.63 46.0545C102.966 46.0545 102.398 45.9091 101.925 45.6182C101.462 45.3273 101.107 44.9091 100.862 44.3636C100.616 43.8091 100.494 43.1545 100.494 42.4C100.494 41.6182 100.616 40.9545 100.862 40.4091C101.107 39.8545 101.462 39.4318 101.925 39.1409C102.398 38.85 102.957 38.7045 103.603 38.7045ZM103.275 39.9455C102.848 39.9455 102.466 40.05 102.13 40.2591C101.794 40.4682 101.53 40.7545 101.339 41.1182C101.157 41.4727 101.066 41.8864 101.066 42.3591C101.066 42.8318 101.157 43.2545 101.339 43.6273C101.53 43.9909 101.794 44.2773 102.13 44.4864C102.466 44.6864 102.848 44.7864 103.275 44.7864C103.712 44.7864 104.094 44.6818 104.421 44.4727C104.757 44.2636 105.016 43.9773 105.198 43.6136C105.389 43.25 105.484 42.8318 105.484 42.3591C105.484 41.8955 105.389 41.4818 105.198 41.1182C105.016 40.7545 104.757 40.4682 104.421 40.2591C104.094 40.05 103.712 39.9455 103.275 39.9455ZM99.498 38.7591H101.066V48.6455H99.498V38.7591ZM112.503 40.1227C111.985 40.0955 111.535 40.1864 111.153 40.3955C110.78 40.5955 110.489 40.8773 110.28 41.2409C110.08 41.6045 109.98 42.0227 109.98 42.4955L109.544 42.4409C109.544 41.6318 109.662 40.95 109.898 40.3955C110.135 39.8409 110.476 39.4227 110.921 39.1409C111.367 38.85 111.894 38.7045 112.503 38.7045V40.1227ZM108.426 38.7591H109.994V46H108.426V38.7591ZM113.52 38.7591H115.074V46H113.52V38.7591ZM114.297 35.7727C114.56 35.7727 114.779 35.8591 114.951 36.0318C115.124 36.2045 115.21 36.4227 115.21 36.6864C115.21 36.9409 115.124 37.1591 114.951 37.3409C114.779 37.5136 114.56 37.6 114.297 37.6C114.042 37.6 113.824 37.5136 113.642 37.3409C113.47 37.1591 113.383 36.9409 113.383 36.6864C113.383 36.4227 113.47 36.2045 113.642 36.0318C113.824 35.8591 114.042 35.7727 114.297 35.7727ZM115.977 38.7591H117.613L119.631 44.5545L121.622 38.7591H123.19L120.408 46H118.786L115.977 38.7591ZM126.187 42.7682C125.678 42.7682 125.3 42.8455 125.055 43C124.809 43.1545 124.687 43.4091 124.687 43.7636C124.687 44.1 124.809 44.3682 125.055 44.5682C125.309 44.7682 125.655 44.8682 126.091 44.8682C126.482 44.8682 126.832 44.8 127.141 44.6636C127.45 44.5273 127.696 44.3455 127.878 44.1182C128.059 43.8818 128.155 43.6182 128.164 43.3273L128.464 44.65C128.237 45.1227 127.891 45.4773 127.428 45.7136C126.964 45.95 126.409 46.0682 125.764 46.0682C125.246 46.0682 124.796 45.9682 124.414 45.7682C124.032 45.5682 123.737 45.3 123.528 44.9636C123.318 44.6182 123.214 44.2364 123.214 43.8182C123.214 43.1636 123.45 42.6409 123.923 42.25C124.405 41.8591 125.082 41.6591 125.955 41.65H128.355V42.7682H126.187ZM128.15 41.4045C128.15 40.9318 128.005 40.5636 127.714 40.3C127.423 40.0364 126.991 39.9045 126.418 39.9045C126.073 39.9045 125.718 39.9682 125.355 40.0955C125 40.2227 124.641 40.4091 124.278 40.6545L123.637 39.6455C123.973 39.4364 124.291 39.2636 124.591 39.1273C124.891 38.9909 125.209 38.8864 125.546 38.8136C125.891 38.7409 126.296 38.7045 126.759 38.7045C127.696 38.7045 128.414 38.9318 128.914 39.3864C129.423 39.8318 129.682 40.45 129.691 41.2409L129.705 46H128.164L128.15 41.4045ZM133.372 43.7091C133.372 44.1 133.44 44.3682 133.577 44.5136C133.713 44.65 133.904 44.7182 134.149 44.7182C134.313 44.7182 134.481 44.6909 134.654 44.6364C134.836 44.5818 135.031 44.5 135.24 44.3909L135.636 45.5227C135.354 45.6955 135.063 45.8318 134.763 45.9318C134.463 46.0227 134.159 46.0682 133.849 46.0682C133.486 46.0682 133.149 46 132.84 45.8636C132.531 45.7182 132.281 45.4909 132.09 45.1818C131.909 44.8727 131.818 44.4727 131.818 43.9818V37.0409H133.372V43.7091ZM130.795 39.0182H135.513V40.1364H130.795V39.0182ZM141.75 41.8545C141.732 41.4455 141.636 41.1 141.464 40.8182C141.3 40.5273 141.068 40.3045 140.768 40.15C140.468 39.9864 140.123 39.9045 139.732 39.9045C139.295 39.9045 138.914 40.0045 138.586 40.2045C138.268 40.4045 138.018 40.6864 137.836 41.05C137.654 41.4045 137.564 41.8227 137.564 42.3045C137.564 42.8227 137.659 43.2727 137.85 43.6545C138.05 44.0364 138.323 44.3318 138.668 44.5409C139.023 44.75 139.427 44.8545 139.882 44.8545C140.691 44.8545 141.373 44.5682 141.927 43.9955L142.759 44.8273C142.404 45.2182 141.973 45.5227 141.464 45.7409C140.954 45.95 140.386 46.0545 139.759 46.0545C139.014 46.0545 138.364 45.9 137.809 45.5909C137.254 45.2818 136.823 44.8545 136.514 44.3091C136.204 43.7545 136.05 43.1136 136.05 42.3864C136.05 41.6591 136.204 41.0227 136.514 40.4773C136.823 39.9227 137.254 39.4909 137.809 39.1818C138.364 38.8727 139 38.7136 139.718 38.7045C140.573 38.7045 141.259 38.8818 141.777 39.2364C142.295 39.5818 142.664 40.0727 142.882 40.7091C143.1 41.3455 143.177 42.1 143.114 42.9727H137.318V41.8545H141.75ZM152.051 38.7045C152.742 38.7045 153.347 38.8591 153.865 39.1682C154.383 39.4773 154.787 39.9091 155.078 40.4636C155.369 41.0182 155.515 41.6636 155.515 42.4C155.515 43.1182 155.369 43.7545 155.078 44.3091C154.797 44.8545 154.397 45.2818 153.878 45.5909C153.369 45.9 152.769 46.0545 152.078 46.0545C151.415 46.0545 150.847 45.9091 150.374 45.6182C149.91 45.3273 149.556 44.9091 149.31 44.3636C149.065 43.8091 148.942 43.1545 148.942 42.4C148.942 41.6182 149.065 40.9545 149.31 40.4091C149.556 39.8545 149.91 39.4318 150.374 39.1409C150.847 38.85 151.406 38.7045 152.051 38.7045ZM151.724 39.9455C151.297 39.9455 150.915 40.05 150.578 40.2591C150.242 40.4682 149.978 40.7545 149.787 41.1182C149.606 41.4727 149.515 41.8864 149.515 42.3591C149.515 42.8318 149.606 43.2545 149.787 43.6273C149.978 43.9909 150.242 44.2773 150.578 44.4864C150.915 44.6864 151.297 44.7864 151.724 44.7864C152.16 44.7864 152.542 44.6818 152.869 44.4727C153.206 44.2636 153.465 43.9773 153.647 43.6136C153.837 43.25 153.933 42.8318 153.933 42.3591C153.933 41.8955 153.837 41.4818 153.647 41.1182C153.465 40.7545 153.206 40.4682 152.869 40.2591C152.542 40.05 152.16 39.9455 151.724 39.9455ZM147.947 35.8818H149.515V46H147.947V35.8818ZM158.21 42.85C158.21 43.4136 158.36 43.8591 158.66 44.1864C158.96 44.5045 159.374 44.6636 159.901 44.6636C160.529 44.6455 161.015 44.4136 161.36 43.9682C161.715 43.5227 161.892 42.9727 161.892 42.3182H162.315C162.315 43.2091 162.192 43.9273 161.947 44.4727C161.701 45.0182 161.351 45.4182 160.897 45.6727C160.451 45.9182 159.92 46.0455 159.301 46.0545C158.747 46.0545 158.27 45.9409 157.87 45.7136C157.479 45.4864 157.174 45.1636 156.956 44.7455C156.747 44.3273 156.642 43.8318 156.642 43.2591V38.7591H158.21V42.85ZM161.892 38.7591H163.46V46H161.892V38.7591ZM168.36 47.0227C168.133 47.5773 167.819 47.9955 167.419 48.2773C167.019 48.5682 166.547 48.7136 166.001 48.7136C165.674 48.7136 165.374 48.6636 165.101 48.5636C164.838 48.4636 164.578 48.3136 164.324 48.1136L164.992 46.9545C165.319 47.1909 165.633 47.3091 165.933 47.3091C166.169 47.3091 166.383 47.2409 166.574 47.1045C166.765 46.9682 166.919 46.7591 167.038 46.4773L167.283 45.9045L164.283 38.7591H165.906L168.074 44.35L170.092 38.7591H171.66L168.36 47.0227ZM177.234 41.8545C177.216 41.4455 177.12 41.1 176.947 40.8182C176.784 40.5273 176.552 40.3045 176.252 40.15C175.952 39.9864 175.606 39.9045 175.216 39.9045C174.779 39.9045 174.397 40.0045 174.07 40.2045C173.752 40.4045 173.502 40.6864 173.32 41.05C173.138 41.4045 173.047 41.8227 173.047 42.3045C173.047 42.8227 173.143 43.2727 173.334 43.6545C173.534 44.0364 173.806 44.3318 174.152 44.5409C174.506 44.75 174.911 44.8545 175.366 44.8545C176.175 44.8545 176.856 44.5682 177.411 43.9955L178.243 44.8273C177.888 45.2182 177.456 45.5227 176.947 45.7409C176.438 45.95 175.87 46.0545 175.243 46.0545C174.497 46.0545 173.847 45.9 173.293 45.5909C172.738 45.2818 172.306 44.8545 171.997 44.3091C171.688 43.7545 171.534 43.1136 171.534 42.3864C171.534 41.6591 171.688 41.0227 171.997 40.4773C172.306 39.9227 172.738 39.4909 173.293 39.1818C173.847 38.8727 174.484 38.7136 175.202 38.7045C176.056 38.7045 176.743 38.8818 177.261 39.2364C177.779 39.5818 178.147 40.0727 178.366 40.7091C178.584 41.3455 178.661 42.1 178.597 42.9727H172.802V41.8545H177.234ZM184.037 40.1227C183.519 40.0955 183.069 40.1864 182.687 40.3955C182.314 40.5955 182.023 40.8773 181.814 41.2409C181.614 41.6045 181.514 42.0227 181.514 42.4955L181.078 42.4409C181.078 41.6318 181.196 40.95 181.432 40.3955C181.669 39.8409 182.01 39.4227 182.455 39.1409C182.9 38.85 183.428 38.7045 184.037 38.7045V40.1227ZM179.96 38.7591H181.528V46H179.96V38.7591ZM189.185 40.5182C188.867 40.3273 188.517 40.1773 188.135 40.0682C187.763 39.95 187.417 39.8909 187.099 39.8909C186.79 39.8909 186.535 39.95 186.335 40.0682C186.135 40.1864 186.035 40.3818 186.035 40.6545C186.035 40.8818 186.126 41.0636 186.308 41.2C186.499 41.3273 186.74 41.4364 187.031 41.5273C187.322 41.6182 187.631 41.7136 187.958 41.8136C188.285 41.9136 188.594 42.0455 188.885 42.2091C189.185 42.3636 189.426 42.5773 189.608 42.85C189.79 43.1227 189.881 43.4818 189.881 43.9273C189.881 44.4182 189.749 44.8227 189.485 45.1409C189.231 45.45 188.89 45.6818 188.463 45.8364C188.044 45.9818 187.59 46.0545 187.099 46.0545C186.572 46.0545 186.044 45.9682 185.517 45.7955C184.99 45.6227 184.544 45.3727 184.181 45.0455L184.74 43.9818C185.058 44.2636 185.444 44.4864 185.899 44.65C186.353 44.8045 186.776 44.8818 187.167 44.8818C187.394 44.8818 187.594 44.8545 187.767 44.8C187.949 44.7364 188.09 44.6455 188.19 44.5273C188.299 44.4091 188.353 44.2545 188.353 44.0636C188.353 43.8091 188.263 43.6091 188.081 43.4636C187.899 43.3182 187.663 43.2 187.372 43.1091C187.081 43.0091 186.772 42.9136 186.444 42.8227C186.117 42.7227 185.808 42.5955 185.517 42.4409C185.235 42.2864 185.003 42.0773 184.822 41.8136C184.64 41.55 184.549 41.2 184.549 40.7636C184.549 40.2727 184.676 39.8773 184.931 39.5773C185.185 39.2682 185.513 39.0455 185.913 38.9091C186.322 38.7636 186.758 38.6909 187.222 38.6909C187.676 38.6909 188.131 38.7545 188.585 38.8818C189.04 39.0091 189.431 39.1864 189.758 39.4136L189.185 40.5182Z" fill="#101044"/>
<defs>
<clipPath id="clip0_4_12268">
<rect width="18.7197" height="13.8037" fill="white" transform="translate(23 27)"/>
</clipPath>
</defs>
</svg>
