<svg width="163" height="82" viewBox="0 0 163 82" fill="none" xmlns="http://www.w3.org/2000/svg">
<rect width="163" height="69" rx="10" fill="white"/>
<rect x="81.7266" y="56" width="18" height="18" rx="2" transform="rotate(45 81.7266 56)" fill="white"/>
<rect x="15" y="17" width="34" height="34" rx="17" fill="#695DFD"/>
<g clip-path="url(#clip0_4_12275)">
<path d="M34.7836 40.948C34.6874 42.6483 33.2551 43.9992 31.5 43.9992C29.7449 43.9992 28.3114 42.6483 28.2164 40.948H24.1972C22.9841 40.948 22 39.9847 22 38.7941C22 37.6035 22.9817 36.6403 24.1935 36.6403C24.1923 36.6403 24.1923 32.3326 24.1923 32.3326C24.1923 29.298 26.124 26.638 28.9423 25.6042V25.5097C28.9423 24.1228 30.0884 22.998 31.5 22.998C32.9116 22.998 34.0577 24.1228 34.0577 25.5097V25.6042C36.876 26.638 38.8077 29.298 38.8077 32.3326V36.6403C40.0147 36.6403 41 37.6047 41 38.7941C41 39.9835 40.0171 40.948 38.8028 40.948H34.7836ZM33.3184 40.948H29.6816C29.7742 41.855 30.5524 42.5633 31.5 42.5633C32.4476 42.5633 33.2258 41.855 33.3184 40.948ZM29.8753 26.8127C27.3943 27.5151 25.6526 29.7551 25.6526 32.3314V36.6391C25.6526 37.4312 24.9974 38.075 24.1923 38.075C23.7879 38.075 23.4603 38.398 23.4603 38.7929C23.4603 39.1878 23.7892 39.5109 24.196 39.5109H38.8028C39.2084 39.5109 39.5385 39.1878 39.5385 38.7929C39.5385 38.398 39.2084 38.075 38.8065 38.075C38.0002 38.075 37.3462 37.4336 37.3462 36.6391V32.3314C37.3462 29.7551 35.6045 27.5151 33.1235 26.8127L32.5949 26.6632V25.5109C32.5949 24.9162 32.1041 24.4351 31.4988 24.4351C30.8935 24.4351 30.4026 24.9174 30.4026 25.5109V26.6632L29.874 26.8127H29.8753Z" fill="white"/>
</g>
<path d="M71.3318 22.8136C70.9682 22.4682 70.5409 22.2 70.05 22.0091C69.5682 21.8091 69.0773 21.7091 68.5773 21.7091C68.0864 21.7091 67.6318 21.8 67.2136 21.9818C66.7955 22.1636 66.4273 22.4136 66.1091 22.7318C65.7909 23.05 65.5409 23.4227 65.3591 23.85C65.1864 24.2682 65.1 24.7227 65.1 25.2136C65.1 25.7045 65.1864 26.1636 65.3591 26.5909C65.5409 27.0182 65.7909 27.3955 66.1091 27.7227C66.4273 28.0409 66.7955 28.2909 67.2136 28.4727C67.6409 28.6545 68.1 28.7455 68.5909 28.7455C69.0364 28.7455 69.4955 28.6545 69.9682 28.4727C70.45 28.2909 70.8818 28.0455 71.2636 27.7364L72.1909 28.8545C71.8727 29.1 71.5045 29.3182 71.0864 29.5091C70.6773 29.7 70.25 29.85 69.8045 29.9591C69.3591 30.0591 68.9182 30.1091 68.4818 30.1091C67.7727 30.1091 67.1136 29.9864 66.5045 29.7409C65.9045 29.4864 65.3727 29.1364 64.9091 28.6909C64.4545 28.2455 64.1 27.7273 63.8455 27.1364C63.5909 26.5364 63.4636 25.8955 63.4636 25.2136C63.4636 24.5318 63.5909 23.9 63.8455 23.3182C64.1091 22.7273 64.4727 22.2091 64.9364 21.7636C65.4 21.3182 65.9409 20.9727 66.5591 20.7273C67.1864 20.4818 67.8591 20.3591 68.5773 20.3591C69.0318 20.3591 69.4773 20.4136 69.9136 20.5227C70.3591 20.6318 70.7818 20.7864 71.1818 20.9864C71.5818 21.1864 71.9364 21.4273 72.2455 21.7091L71.3318 22.8136ZM70.7864 25.3364H72.1909V28.8545H70.7864V25.3364ZM79.1185 25.8545C79.1003 25.4455 79.0049 25.1 78.8321 24.8182C78.6685 24.5273 78.4367 24.3045 78.1367 24.15C77.8367 23.9864 77.4912 23.9045 77.1003 23.9045C76.664 23.9045 76.2821 24.0045 75.9549 24.2045C75.6367 24.4045 75.3867 24.6864 75.2049 25.05C75.023 25.4045 74.9321 25.8227 74.9321 26.3045C74.9321 26.8227 75.0276 27.2727 75.2185 27.6545C75.4185 28.0364 75.6912 28.3318 76.0367 28.5409C76.3912 28.75 76.7958 28.8545 77.2503 28.8545C78.0594 28.8545 78.7412 28.5682 79.2958 27.9955L80.1276 28.8273C79.773 29.2182 79.3412 29.5227 78.8321 29.7409C78.323 29.95 77.7549 30.0545 77.1276 30.0545C76.3821 30.0545 75.7321 29.9 75.1776 29.5909C74.623 29.2818 74.1912 28.8545 73.8821 28.3091C73.573 27.7545 73.4185 27.1136 73.4185 26.3864C73.4185 25.6591 73.573 25.0227 73.8821 24.4773C74.1912 23.9227 74.623 23.4909 75.1776 23.1818C75.7321 22.8727 76.3685 22.7136 77.0867 22.7045C77.9412 22.7045 78.6276 22.8818 79.1458 23.2364C79.664 23.5818 80.0321 24.0727 80.2503 24.7091C80.4685 25.3455 80.5458 26.1 80.4821 26.9727H74.6867V25.8545H79.1185ZM83.6852 27.7091C83.6852 28.1 83.7534 28.3682 83.8897 28.5136C84.0261 28.65 84.217 28.7182 84.4625 28.7182C84.6261 28.7182 84.7943 28.6909 84.967 28.6364C85.1488 28.5818 85.3443 28.5 85.5534 28.3909L85.9488 29.5227C85.667 29.6955 85.3761 29.8318 85.0761 29.9318C84.7761 30.0227 84.4716 30.0682 84.1625 30.0682C83.7988 30.0682 83.4625 30 83.1534 29.8636C82.8443 29.7182 82.5943 29.4909 82.4034 29.1818C82.2216 28.8727 82.1306 28.4727 82.1306 27.9818V21.0409H83.6852V27.7091ZM81.1079 23.0182H85.8261V24.1364H81.1079V23.0182ZM90.5273 22.7591H92.0819V30H90.5273V22.7591ZM91.3046 19.7727C91.5683 19.7727 91.7864 19.8591 91.9592 20.0318C92.1319 20.2045 92.2183 20.4227 92.2183 20.6864C92.2183 20.9409 92.1319 21.1591 91.9592 21.3409C91.7864 21.5136 91.5683 21.6 91.3046 21.6C91.0501 21.6 90.8319 21.5136 90.6501 21.3409C90.4773 21.1591 90.391 20.9409 90.391 20.6864C90.391 20.4227 90.4773 20.2045 90.6501 20.0318C90.8319 19.8591 91.0501 19.7727 91.3046 19.7727ZM99.5025 25.9091C99.5025 25.3455 99.348 24.9045 99.0389 24.5864C98.7298 24.2591 98.3025 24.0955 97.7571 24.0955C97.1116 24.1045 96.6025 24.3318 96.2298 24.7773C95.8662 25.2227 95.6843 25.7773 95.6843 26.4409H95.248C95.248 25.5409 95.3752 24.8182 95.6298 24.2727C95.8843 23.7273 96.2434 23.3318 96.7071 23.0864C97.1798 22.8318 97.7343 22.7045 98.3707 22.7045C98.9343 22.7045 99.4162 22.8182 99.8162 23.0455C100.225 23.2727 100.534 23.5955 100.743 24.0136C100.962 24.4227 101.071 24.9182 101.071 25.5V30H99.5025V25.9091ZM94.1298 22.7591H95.698V30H94.1298V22.7591ZM107.031 24.5182C106.713 24.3273 106.363 24.1773 105.981 24.0682C105.608 23.95 105.263 23.8909 104.945 23.8909C104.636 23.8909 104.381 23.95 104.181 24.0682C103.981 24.1864 103.881 24.3818 103.881 24.6545C103.881 24.8818 103.972 25.0636 104.154 25.2C104.345 25.3273 104.586 25.4364 104.876 25.5273C105.167 25.6182 105.476 25.7136 105.804 25.8136C106.131 25.9136 106.44 26.0455 106.731 26.2091C107.031 26.3636 107.272 26.5773 107.454 26.85C107.636 27.1227 107.726 27.4818 107.726 27.9273C107.726 28.4182 107.595 28.8227 107.331 29.1409C107.076 29.45 106.736 29.6818 106.308 29.8364C105.89 29.9818 105.436 30.0545 104.945 30.0545C104.417 30.0545 103.89 29.9682 103.363 29.7955C102.836 29.6227 102.39 29.3727 102.026 29.0455L102.586 27.9818C102.904 28.2636 103.29 28.4864 103.745 28.65C104.199 28.8045 104.622 28.8818 105.013 28.8818C105.24 28.8818 105.44 28.8545 105.613 28.8C105.795 28.7364 105.936 28.6455 106.036 28.5273C106.145 28.4091 106.199 28.2545 106.199 28.0636C106.199 27.8091 106.108 27.6091 105.926 27.4636C105.745 27.3182 105.508 27.2 105.217 27.1091C104.926 27.0091 104.617 26.9136 104.29 26.8227C103.963 26.7227 103.654 26.5955 103.363 26.4409C103.081 26.2864 102.849 26.0773 102.667 25.8136C102.486 25.55 102.395 25.2 102.395 24.7636C102.395 24.2727 102.522 23.8773 102.776 23.5773C103.031 23.2682 103.358 23.0455 103.758 22.9091C104.167 22.7636 104.604 22.6909 105.067 22.6909C105.522 22.6909 105.976 22.7545 106.431 22.8818C106.886 23.0091 107.276 23.1864 107.604 23.4136L107.031 24.5182ZM110.873 27.7091C110.873 28.1 110.941 28.3682 111.077 28.5136C111.214 28.65 111.405 28.7182 111.65 28.7182C111.814 28.7182 111.982 28.6909 112.155 28.6364C112.336 28.5818 112.532 28.5 112.741 28.3909L113.136 29.5227C112.855 29.6955 112.564 29.8318 112.264 29.9318C111.964 30.0227 111.659 30.0682 111.35 30.0682C110.986 30.0682 110.65 30 110.341 29.8636C110.032 29.7182 109.782 29.4909 109.591 29.1818C109.409 28.8727 109.318 28.4727 109.318 27.9818V21.0409H110.873V27.7091ZM108.295 23.0182H113.014V24.1364H108.295V23.0182ZM116.685 26.7682C116.176 26.7682 115.799 26.8455 115.553 27C115.308 27.1545 115.185 27.4091 115.185 27.7636C115.185 28.1 115.308 28.3682 115.553 28.5682C115.808 28.7682 116.153 28.8682 116.589 28.8682C116.98 28.8682 117.33 28.8 117.639 28.6636C117.949 28.5273 118.194 28.3455 118.376 28.1182C118.558 27.8818 118.653 27.6182 118.662 27.3273L118.962 28.65C118.735 29.1227 118.389 29.4773 117.926 29.7136C117.462 29.95 116.908 30.0682 116.262 30.0682C115.744 30.0682 115.294 29.9682 114.912 29.7682C114.53 29.5682 114.235 29.3 114.026 28.9636C113.817 28.6182 113.712 28.2364 113.712 27.8182C113.712 27.1636 113.949 26.6409 114.421 26.25C114.903 25.8591 115.58 25.6591 116.453 25.65H118.853V26.7682H116.685ZM118.649 25.4045C118.649 24.9318 118.503 24.5636 118.212 24.3C117.921 24.0364 117.489 23.9045 116.917 23.9045C116.571 23.9045 116.217 23.9682 115.853 24.0955C115.499 24.2227 115.139 24.4091 114.776 24.6545L114.135 23.6455C114.471 23.4364 114.789 23.2636 115.089 23.1273C115.389 22.9909 115.708 22.8864 116.044 22.8136C116.389 22.7409 116.794 22.7045 117.258 22.7045C118.194 22.7045 118.912 22.9318 119.412 23.3864C119.921 23.8318 120.18 24.45 120.189 25.2409L120.203 30H118.662L118.649 25.4045ZM127.402 25.9091C127.402 25.3455 127.248 24.9045 126.939 24.5864C126.629 24.2591 126.202 24.0955 125.657 24.0955C125.011 24.1045 124.502 24.3318 124.129 24.7773C123.766 25.2227 123.584 25.7773 123.584 26.4409H123.148C123.148 25.5409 123.275 24.8182 123.529 24.2727C123.784 23.7273 124.143 23.3318 124.607 23.0864C125.079 22.8318 125.634 22.7045 126.27 22.7045C126.834 22.7045 127.316 22.8182 127.716 23.0455C128.125 23.2727 128.434 23.5955 128.643 24.0136C128.861 24.4227 128.97 24.9182 128.97 25.5V30H127.402V25.9091ZM122.029 22.7591H123.598V30H122.029V22.7591ZM132.64 27.7091C132.64 28.1 132.708 28.3682 132.844 28.5136C132.981 28.65 133.172 28.7182 133.417 28.7182C133.581 28.7182 133.749 28.6909 133.922 28.6364C134.103 28.5818 134.299 28.5 134.508 28.3909L134.903 29.5227C134.622 29.6955 134.331 29.8318 134.031 29.9318C133.731 30.0227 133.426 30.0682 133.117 30.0682C132.753 30.0682 132.417 30 132.108 29.8636C131.799 29.7182 131.549 29.4909 131.358 29.1818C131.176 28.8727 131.085 28.4727 131.085 27.9818V21.0409H132.64V27.7091ZM130.062 23.0182H134.781V24.1364H130.062V23.0182ZM69.5318 41.9091C69.5318 41.3455 69.3773 40.9045 69.0682 40.5864C68.7591 40.2591 68.3318 40.0955 67.7864 40.0955C67.1409 40.1045 66.6318 40.3318 66.2591 40.7773C65.8955 41.2227 65.7136 41.7773 65.7136 42.4409H65.2773C65.2773 41.5409 65.4045 40.8182 65.6591 40.2727C65.9136 39.7273 66.2727 39.3318 66.7364 39.0864C67.2091 38.8318 67.7636 38.7045 68.4 38.7045C68.9636 38.7045 69.4455 38.8182 69.8455 39.0455C70.2545 39.2727 70.5636 39.5955 70.7727 40.0136C70.9909 40.4227 71.1 40.9182 71.1 41.5V46H69.5318V41.9091ZM64.1591 38.7591H65.7273V46H64.1591V38.7591ZM76.0375 38.7045C76.783 38.7045 77.4375 38.8591 78.0012 39.1682C78.5739 39.4773 79.0194 39.9091 79.3375 40.4636C79.6557 41.0091 79.8148 41.6455 79.8148 42.3727C79.8148 43.1 79.6557 43.7409 79.3375 44.2955C79.0194 44.85 78.5739 45.2818 78.0012 45.5909C77.4375 45.9 76.783 46.0545 76.0375 46.0545C75.2921 46.0545 74.633 45.9 74.0603 45.5909C73.4875 45.2818 73.0421 44.85 72.7239 44.2955C72.4057 43.7409 72.2466 43.1 72.2466 42.3727C72.2466 41.6455 72.4057 41.0091 72.7239 40.4636C73.0421 39.9091 73.4875 39.4773 74.0603 39.1682C74.633 38.8591 75.2921 38.7045 76.0375 38.7045ZM76.0375 39.9727C75.6012 39.9727 75.2148 40.0773 74.8784 40.2864C74.5421 40.4864 74.2784 40.7682 74.0875 41.1318C73.9057 41.4955 73.8148 41.9136 73.8148 42.3864C73.8148 42.8682 73.9057 43.2909 74.0875 43.6545C74.2784 44.0182 74.5421 44.3045 74.8784 44.5136C75.2148 44.7136 75.6012 44.8136 76.0375 44.8136C76.4739 44.8136 76.8557 44.7136 77.183 44.5136C77.5194 44.3045 77.7784 44.0182 77.9603 43.6545C78.1512 43.2909 78.2466 42.8682 78.2466 42.3864C78.2466 41.9136 78.1512 41.4955 77.9603 41.1318C77.7784 40.7682 77.5194 40.4864 77.183 40.2864C76.8557 40.0773 76.4739 39.9727 76.0375 39.9727ZM83.0194 43.7091C83.0194 44.1 83.0875 44.3682 83.2239 44.5136C83.3603 44.65 83.5512 44.7182 83.7966 44.7182C83.9603 44.7182 84.1284 44.6909 84.3012 44.6364C84.483 44.5818 84.6784 44.5 84.8875 44.3909L85.283 45.5227C85.0012 45.6955 84.7103 45.8318 84.4103 45.9318C84.1103 46.0227 83.8057 46.0682 83.4966 46.0682C83.133 46.0682 82.7966 46 82.4875 45.8636C82.1784 45.7182 81.9284 45.4909 81.7375 45.1818C81.5557 44.8727 81.4648 44.4727 81.4648 43.9818V37.0409H83.0194V43.7091ZM80.4421 39.0182H85.1603V40.1364H80.4421V39.0182ZM86.4588 38.7591H88.0134V46H86.4588V38.7591ZM87.2361 35.7727C87.4997 35.7727 87.7179 35.8591 87.8906 36.0318C88.0634 36.2045 88.1497 36.4227 88.1497 36.6864C88.1497 36.9409 88.0634 37.1591 87.8906 37.3409C87.7179 37.5136 87.4997 37.6 87.2361 37.6C86.9815 37.6 86.7634 37.5136 86.5815 37.3409C86.4088 37.1591 86.3224 36.9409 86.3224 36.6864C86.3224 36.4227 86.4088 36.2045 86.5815 36.0318C86.7634 35.8591 86.9815 35.7727 87.2361 35.7727ZM90.3613 38.3091C90.3613 37.7364 90.4794 37.2682 90.7158 36.9045C90.9613 36.5318 91.2749 36.2591 91.6567 36.0864C92.0385 35.9045 92.4385 35.8136 92.8567 35.8136C93.0749 35.8136 93.2931 35.8455 93.5113 35.9091C93.7385 35.9636 93.9476 36.0409 94.1385 36.1409L93.8113 37.3409C93.684 37.2864 93.5385 37.2364 93.3749 37.1909C93.2203 37.1364 93.0613 37.1091 92.8976 37.1091C92.7249 37.1091 92.5613 37.1455 92.4067 37.2182C92.2613 37.2818 92.1431 37.3909 92.0522 37.5455C91.9613 37.6909 91.9158 37.8818 91.9158 38.1182V46H90.3613V38.3091ZM89.4067 39.0182H93.8113V40.1364H89.4067V39.0182ZM94.9022 38.7591H96.4567V46H94.9022V38.7591ZM95.6794 35.7727C95.9431 35.7727 96.1613 35.8591 96.334 36.0318C96.5067 36.2045 96.5931 36.4227 96.5931 36.6864C96.5931 36.9409 96.5067 37.1591 96.334 37.3409C96.1613 37.5136 95.9431 37.6 95.6794 37.6C95.4249 37.6 95.2067 37.5136 95.0249 37.3409C94.8522 37.1591 94.7658 36.9409 94.7658 36.6864C94.7658 36.4227 94.8522 36.2045 95.0249 36.0318C95.2067 35.8591 95.4249 35.7727 95.6794 35.7727ZM103.611 40.8318C103.357 40.5682 103.057 40.3636 102.711 40.2182C102.366 40.0727 101.975 40 101.539 40C101.12 40 100.748 40.1 100.42 40.3C100.093 40.5 99.8386 40.7818 99.6568 41.1455C99.475 41.5 99.3841 41.9136 99.3841 42.3864C99.3841 42.8591 99.475 43.2773 99.6568 43.6409C99.8386 43.9955 100.093 44.2773 100.42 44.4864C100.748 44.6864 101.12 44.7864 101.539 44.7864C101.993 44.7864 102.402 44.7136 102.766 44.5682C103.13 44.4136 103.434 44.1909 103.68 43.9L104.552 44.7591C104.225 45.1682 103.798 45.4864 103.27 45.7136C102.752 45.9409 102.152 46.0545 101.47 46.0545C100.752 46.0545 100.116 45.9 99.5613 45.5909C99.0159 45.2818 98.5886 44.8545 98.2795 44.3091C97.9704 43.7545 97.8159 43.1136 97.8159 42.3864C97.8159 41.6591 97.9704 41.0227 98.2795 40.4773C98.5886 39.9227 99.0159 39.4909 99.5613 39.1818C100.116 38.8636 100.752 38.7045 101.47 38.7045C102.125 38.7045 102.702 38.8045 103.202 39.0045C103.711 39.1955 104.134 39.4682 104.47 39.8227L103.611 40.8318ZM107.988 42.7682C107.479 42.7682 107.102 42.8455 106.857 43C106.611 43.1545 106.488 43.4091 106.488 43.7636C106.488 44.1 106.611 44.3682 106.857 44.5682C107.111 44.7682 107.457 44.8682 107.893 44.8682C108.284 44.8682 108.634 44.8 108.943 44.6636C109.252 44.5273 109.498 44.3455 109.679 44.1182C109.861 43.8818 109.957 43.6182 109.966 43.3273L110.266 44.65C110.038 45.1227 109.693 45.4773 109.229 45.7136C108.766 45.95 108.211 46.0682 107.566 46.0682C107.048 46.0682 106.598 45.9682 106.216 45.7682C105.834 45.5682 105.538 45.3 105.329 44.9636C105.12 44.6182 105.016 44.2364 105.016 43.8182C105.016 43.1636 105.252 42.6409 105.725 42.25C106.207 41.8591 106.884 41.6591 107.757 41.65H110.157V42.7682H107.988ZM109.952 41.4045C109.952 40.9318 109.807 40.5636 109.516 40.3C109.225 40.0364 108.793 39.9045 108.22 39.9045C107.875 39.9045 107.52 39.9682 107.157 40.0955C106.802 40.2227 106.443 40.4091 106.079 40.6545L105.438 39.6455C105.775 39.4364 106.093 39.2636 106.393 39.1273C106.693 38.9909 107.011 38.8864 107.348 38.8136C107.693 38.7409 108.098 38.7045 108.561 38.7045C109.498 38.7045 110.216 38.9318 110.716 39.3864C111.225 39.8318 111.484 40.45 111.493 41.2409L111.507 46H109.966L109.952 41.4045ZM115.174 43.7091C115.174 44.1 115.242 44.3682 115.379 44.5136C115.515 44.65 115.706 44.7182 115.951 44.7182C116.115 44.7182 116.283 44.6909 116.456 44.6364C116.638 44.5818 116.833 44.5 117.042 44.3909L117.438 45.5227C117.156 45.6955 116.865 45.8318 116.565 45.9318C116.265 46.0227 115.96 46.0682 115.651 46.0682C115.288 46.0682 114.951 46 114.642 45.8636C114.333 45.7182 114.083 45.4909 113.892 45.1818C113.71 44.8727 113.619 44.4727 113.619 43.9818V37.0409H115.174V43.7091ZM112.597 39.0182H117.315V40.1364H112.597V39.0182ZM118.613 38.7591H120.168V46H118.613V38.7591ZM119.391 35.7727C119.654 35.7727 119.873 35.8591 120.045 36.0318C120.218 36.2045 120.304 36.4227 120.304 36.6864C120.304 36.9409 120.218 37.1591 120.045 37.3409C119.873 37.5136 119.654 37.6 119.391 37.6C119.136 37.6 118.918 37.5136 118.736 37.3409C118.563 37.1591 118.477 36.9409 118.477 36.6864C118.477 36.4227 118.563 36.2045 118.736 36.0318C118.918 35.8591 119.136 35.7727 119.391 35.7727ZM125.325 38.7045C126.07 38.7045 126.725 38.8591 127.289 39.1682C127.861 39.4773 128.307 39.9091 128.625 40.4636C128.943 41.0091 129.102 41.6455 129.102 42.3727C129.102 43.1 128.943 43.7409 128.625 44.2955C128.307 44.85 127.861 45.2818 127.289 45.5909C126.725 45.9 126.07 46.0545 125.325 46.0545C124.58 46.0545 123.92 45.9 123.348 45.5909C122.775 45.2818 122.33 44.85 122.011 44.2955C121.693 43.7409 121.534 43.1 121.534 42.3727C121.534 41.6455 121.693 41.0091 122.011 40.4636C122.33 39.9091 122.775 39.4773 123.348 39.1682C123.92 38.8591 124.58 38.7045 125.325 38.7045ZM125.325 39.9727C124.889 39.9727 124.502 40.0773 124.166 40.2864C123.83 40.4864 123.566 40.7682 123.375 41.1318C123.193 41.4955 123.102 41.9136 123.102 42.3864C123.102 42.8682 123.193 43.2909 123.375 43.6545C123.566 44.0182 123.83 44.3045 124.166 44.5136C124.502 44.7136 124.889 44.8136 125.325 44.8136C125.761 44.8136 126.143 44.7136 126.47 44.5136C126.807 44.3045 127.066 44.0182 127.248 43.6545C127.439 43.2909 127.534 42.8682 127.534 42.3864C127.534 41.9136 127.439 41.4955 127.248 41.1318C127.066 40.7682 126.807 40.4864 126.47 40.2864C126.143 40.0773 125.761 39.9727 125.325 39.9727ZM135.839 41.9091C135.839 41.3455 135.684 40.9045 135.375 40.5864C135.066 40.2591 134.639 40.0955 134.093 40.0955C133.448 40.1045 132.939 40.3318 132.566 40.7773C132.202 41.2227 132.02 41.7773 132.02 42.4409H131.584C131.584 41.5409 131.711 40.8182 131.966 40.2727C132.22 39.7273 132.58 39.3318 133.043 39.0864C133.516 38.8318 134.07 38.7045 134.707 38.7045C135.27 38.7045 135.752 38.8182 136.152 39.0455C136.561 39.2727 136.87 39.5955 137.08 40.0136C137.298 40.4227 137.407 40.9182 137.407 41.5V46H135.839V41.9091ZM130.466 38.7591H132.034V46H130.466V38.7591ZM143.367 40.5182C143.049 40.3273 142.699 40.1773 142.317 40.0682C141.944 39.95 141.599 39.8909 141.281 39.8909C140.972 39.8909 140.717 39.95 140.517 40.0682C140.317 40.1864 140.217 40.3818 140.217 40.6545C140.217 40.8818 140.308 41.0636 140.49 41.2C140.681 41.3273 140.922 41.4364 141.213 41.5273C141.503 41.6182 141.813 41.7136 142.14 41.8136C142.467 41.9136 142.776 42.0455 143.067 42.2091C143.367 42.3636 143.608 42.5773 143.79 42.85C143.972 43.1227 144.063 43.4818 144.063 43.9273C144.063 44.4182 143.931 44.8227 143.667 45.1409C143.413 45.45 143.072 45.6818 142.644 45.8364C142.226 45.9818 141.772 46.0545 141.281 46.0545C140.753 46.0545 140.226 45.9682 139.699 45.7955C139.172 45.6227 138.726 45.3727 138.363 45.0455L138.922 43.9818C139.24 44.2636 139.626 44.4864 140.081 44.65C140.535 44.8045 140.958 44.8818 141.349 44.8818C141.576 44.8818 141.776 44.8545 141.949 44.8C142.131 44.7364 142.272 44.6455 142.372 44.5273C142.481 44.4091 142.535 44.2545 142.535 44.0636C142.535 43.8091 142.444 43.6091 142.263 43.4636C142.081 43.3182 141.844 43.2 141.553 43.1091C141.263 43.0091 140.953 42.9136 140.626 42.8227C140.299 42.7227 139.99 42.5955 139.699 42.4409C139.417 42.2864 139.185 42.0773 139.003 41.8136C138.822 41.55 138.731 41.2 138.731 40.7636C138.731 40.2727 138.858 39.8773 139.113 39.5773C139.367 39.2682 139.694 39.0455 140.094 38.9091C140.503 38.7636 140.94 38.6909 141.403 38.6909C141.858 38.6909 142.313 38.7545 142.767 38.8818C143.222 39.0091 143.613 39.1864 143.94 39.4136L143.367 40.5182Z" fill="#101044"/>
<defs>
<clipPath id="clip0_4_12275">
<rect width="19" height="21" fill="white" transform="translate(22 23)"/>
</clipPath>
</defs>
</svg>
