<svg width="919" height="209" viewBox="0 0 919 209" fill="none" xmlns="http://www.w3.org/2000/svg">
<path d="M1503.71 126.681C1458.81 157.469 1365.37 182.43 1200.01 198.467C1109.2 207.294 1012.67 209.928 913.883 207.685C701.611 202.816 489.537 197.666 277.265 192.762C186.119 190.637 124.258 181.559 79.05 168.807C15.8798 151.015 -4.46961 131.152 1.11559 110.114C4.39028 97.833 18.1246 85.533 44.9413 73.8785C94.9719 52.0728 171.844 37.741 296.291 32.2386C497.94 23.2865 699.18 13.7828 899.408 3.73448C1110.09 -6.8197 1295.73 8.13672 1404.45 33.5649C1463.75 47.438 1500.75 63.1045 1514.63 80.6087C1522.59 89.9749 1531.45 108.095 1503.71 126.681Z" fill="#695DFD"/>
</svg>
