<svg width="135" height="54" viewBox="0 0 135 54" fill="none" xmlns="http://www.w3.org/2000/svg">
<path d="M32.2744 43.8403C32.2744 41.4592 31.4253 39.1424 29.8831 37.3168L18.8109 24.2052C15.1895 19.9158 8.72997 19.3543 4.41326 22.9529C2.0929 24.8875 0.761633 27.7241 0.761632 30.7356C0.761632 33.1172 1.61076 35.4346 3.15406 37.2601L14.2251 50.3717C15.9793 52.4501 18.4438 53.7249 21.1646 53.9606C23.8831 54.1975 26.5317 53.3677 28.6228 51.624C30.9431 49.6894 32.2744 46.8529 32.2744 43.8403Z" fill="white"/>
<path d="M116.951 24.2051L105.878 37.3167C104.336 39.1439 103.488 41.4608 103.488 43.8407C103.488 46.8522 104.818 49.6888 107.139 51.6239C109.23 53.3677 111.88 54.1975 114.598 53.9606C117.318 53.7249 119.781 52.4501 121.537 50.3717L132.61 37.2601C134.151 35.4335 135 33.1161 135 30.7361C135 27.7241 133.669 24.8875 131.348 22.9529C127.032 19.3543 120.572 19.9157 116.951 24.2051Z" fill="white"/>
<path d="M67.8809 37.4265C73.516 37.4265 78.1006 32.8707 78.1006 27.2713L78.1006 10.1552C78.1006 4.55568 73.5159 -2.00405e-07 67.8809 -4.46718e-07C62.2459 -6.9303e-07 57.6612 4.55579 57.6612 10.1552L57.6612 27.2713C57.6612 32.8708 62.2459 37.4265 67.8809 37.4265Z" fill="#99F22B"/>
</svg>
