<svg width="39" height="27" viewBox="0 0 39 27" fill="none" xmlns="http://www.w3.org/2000/svg">
<rect x="1.24883" y="0.805475" width="37.3365" height="25.7207" rx="4.56335" fill="white"/>
<rect x="1.24883" y="0.805475" width="37.3365" height="25.7207" rx="4.56335" stroke="#F2F4F7" stroke-width="0.8297"/>
<path fill-rule="evenodd" clip-rule="evenodd" d="M24.7044 20.779C28.8472 20.779 32.2056 17.4606 32.2056 13.3671C32.2056 9.27354 28.8472 5.95508 24.7044 5.95508C22.8477 5.95508 21.1485 6.62163 19.8386 7.72577C18.5288 6.62165 16.8296 5.95511 14.9729 5.95511C10.8301 5.95511 7.47168 9.27357 7.47168 13.3671C7.47168 17.4606 10.8301 20.7791 14.9729 20.7791C16.8296 20.7791 18.5288 20.1125 19.8387 19.0084C21.1486 20.1125 22.8477 20.779 24.7044 20.779Z" fill="#ED0006"/>
<path fill-rule="evenodd" clip-rule="evenodd" d="M19.8389 19.0085C21.4518 17.649 22.4745 15.6261 22.4745 13.3671C22.4745 11.1081 21.4518 9.08511 19.8389 7.72562C21.1487 6.62157 22.8478 5.95508 24.7044 5.95508C28.8473 5.95508 32.2057 9.27354 32.2057 13.3671C32.2057 17.4606 28.8473 20.779 24.7044 20.779C22.8478 20.779 21.1487 20.1126 19.8389 19.0085Z" fill="#F9A000"/>
<path fill-rule="evenodd" clip-rule="evenodd" d="M19.8386 19.0081C21.4514 17.6486 22.4741 15.6258 22.4741 13.3669C22.4741 11.108 21.4514 9.08508 19.8386 7.72559C18.2258 9.08508 17.2031 11.108 17.2031 13.3669C17.2031 15.6258 18.2258 17.6486 19.8386 19.0081Z" fill="#FF5E00"/>
</svg>
