<svg width="1440" height="644" viewBox="0 0 1440 644" fill="none" xmlns="http://www.w3.org/2000/svg">
<g clip-path="url(#clip0_4_54246)">
<rect y="-24.002" width="70.1905" height="70.1905" stroke="white" stroke-opacity="0.06" stroke-width="1.40381"/>
<rect x="70.1914" y="-24.002" width="70.1905" height="70.1905" stroke="white" stroke-opacity="0.06" stroke-width="1.40381"/>
<rect x="140.383" y="-24.002" width="70.1905" height="70.1905" stroke="white" stroke-opacity="0.06" stroke-width="1.40381"/>
<rect x="210.57" y="-24.002" width="70.1905" height="70.1905" stroke="white" stroke-opacity="0.06" stroke-width="1.40381"/>
<rect x="280.762" y="-24.002" width="70.1905" height="70.1905" stroke="white" stroke-opacity="0.06" stroke-width="1.40381"/>
<rect x="350.953" y="-24.002" width="70.1905" height="70.1905" stroke="white" stroke-opacity="0.06" stroke-width="1.40381"/>
<rect x="421.145" y="-24.002" width="70.1905" height="70.1905" stroke="white" stroke-opacity="0.06" stroke-width="1.40381"/>
<rect x="491.332" y="-24.002" width="70.1905" height="70.1905" stroke="white" stroke-opacity="0.06" stroke-width="1.40381"/>
<rect x="561.523" y="-24.002" width="70.1905" height="70.1905" stroke="white" stroke-opacity="0.06" stroke-width="1.40381"/>
<rect x="631.715" y="-24.002" width="70.1905" height="70.1905" stroke="white" stroke-opacity="0.06" stroke-width="1.40381"/>
<rect x="701.906" y="-24.002" width="70.1905" height="70.1905" stroke="white" stroke-opacity="0.06" stroke-width="1.40381"/>
<rect x="772.094" y="-24.002" width="70.1905" height="70.1905" stroke="white" stroke-opacity="0.06" stroke-width="1.40381"/>
<rect x="842.285" y="-24.002" width="70.1905" height="70.1905" stroke="white" stroke-opacity="0.06" stroke-width="1.40381"/>
<rect x="912.477" y="-24.002" width="70.1905" height="70.1905" stroke="white" stroke-opacity="0.06" stroke-width="1.40381"/>
<rect x="982.668" y="-24.002" width="70.1905" height="70.1905" stroke="white" stroke-opacity="0.06" stroke-width="1.40381"/>
<rect x="1052.86" y="-24.002" width="70.1905" height="70.1905" stroke="white" stroke-opacity="0.06" stroke-width="1.40381"/>
<rect x="1123.05" y="-24.002" width="70.1905" height="70.1905" stroke="white" stroke-opacity="0.06" stroke-width="1.40381"/>
<rect x="1193.24" y="-24.002" width="70.1905" height="70.1905" stroke="white" stroke-opacity="0.06" stroke-width="1.40381"/>
<rect x="1263.43" y="-24.002" width="70.1905" height="70.1905" stroke="white" stroke-opacity="0.06" stroke-width="1.40381"/>
<rect x="1333.62" y="-24.002" width="70.1905" height="70.1905" stroke="white" stroke-opacity="0.06" stroke-width="1.40381"/>
<rect x="1403.81" y="-24.002" width="70.1905" height="70.1905" stroke="white" stroke-opacity="0.06" stroke-width="1.40381"/>
<rect y="46.1943" width="70.1905" height="70.1905" stroke="white" stroke-opacity="0.06" stroke-width="1.40381"/>
<rect x="70.1914" y="46.1943" width="70.1905" height="70.1905" stroke="white" stroke-opacity="0.06" stroke-width="1.40381"/>
<rect x="140.383" y="46.1943" width="70.1905" height="70.1905" fill="white" fill-opacity="0.05" stroke="white" stroke-opacity="0.06" stroke-width="1.40381"/>
<rect x="210.57" y="46.1943" width="70.1905" height="70.1905" stroke="white" stroke-opacity="0.06" stroke-width="1.40381"/>
<rect x="280.762" y="46.1943" width="70.1905" height="70.1905" stroke="white" stroke-opacity="0.06" stroke-width="1.40381"/>
<rect x="350.953" y="46.1943" width="70.1905" height="70.1905" stroke="white" stroke-opacity="0.06" stroke-width="1.40381"/>
<rect x="421.145" y="46.1943" width="70.1905" height="70.1905" stroke="white" stroke-opacity="0.06" stroke-width="1.40381"/>
<rect x="491.332" y="46.1943" width="70.1905" height="70.1905" stroke="white" stroke-opacity="0.06" stroke-width="1.40381"/>
<rect x="561.523" y="46.1943" width="70.1905" height="70.1905" stroke="white" stroke-opacity="0.06" stroke-width="1.40381"/>
<rect x="631.715" y="46.1943" width="70.1905" height="70.1905" fill="white" fill-opacity="0.05" stroke="white" stroke-opacity="0.06" stroke-width="1.40381"/>
<rect x="701.906" y="46.1943" width="70.1905" height="70.1905" stroke="white" stroke-opacity="0.06" stroke-width="1.40381"/>
<rect x="772.094" y="46.1943" width="70.1905" height="70.1905" stroke="white" stroke-opacity="0.06" stroke-width="1.40381"/>
<rect x="842.285" y="46.1943" width="70.1905" height="70.1905" stroke="white" stroke-opacity="0.06" stroke-width="1.40381"/>
<rect x="912.477" y="46.1943" width="70.1905" height="70.1905" stroke="white" stroke-opacity="0.06" stroke-width="1.40381"/>
<rect x="982.668" y="46.1943" width="70.1905" height="70.1905" stroke="white" stroke-opacity="0.06" stroke-width="1.40381"/>
<rect x="1052.86" y="46.1943" width="70.1905" height="70.1905" stroke="white" stroke-opacity="0.06" stroke-width="1.40381"/>
<rect x="1123.05" y="46.1943" width="70.1905" height="70.1905" stroke="white" stroke-opacity="0.06" stroke-width="1.40381"/>
<rect x="1193.24" y="46.1943" width="70.1905" height="70.1905" stroke="white" stroke-opacity="0.06" stroke-width="1.40381"/>
<rect x="1263.43" y="46.1943" width="70.1905" height="70.1905" stroke="white" stroke-opacity="0.06" stroke-width="1.40381"/>
<rect x="1333.62" y="46.1943" width="70.1905" height="70.1905" stroke="white" stroke-opacity="0.06" stroke-width="1.40381"/>
<rect x="1403.81" y="46.1943" width="70.1905" height="70.1905" stroke="white" stroke-opacity="0.06" stroke-width="1.40381"/>
<rect y="116.392" width="70.1905" height="70.1905" stroke="white" stroke-opacity="0.06" stroke-width="1.40381"/>
<rect x="70.1914" y="116.392" width="70.1905" height="70.1905" stroke="white" stroke-opacity="0.06" stroke-width="1.40381"/>
<rect x="140.383" y="116.392" width="70.1905" height="70.1905" stroke="white" stroke-opacity="0.06" stroke-width="1.40381"/>
<rect x="210.57" y="116.392" width="70.1905" height="70.1905" stroke="white" stroke-opacity="0.06" stroke-width="1.40381"/>
<rect x="280.762" y="116.392" width="70.1905" height="70.1905" stroke="white" stroke-opacity="0.06" stroke-width="1.40381"/>
<rect x="350.953" y="116.392" width="70.1905" height="70.1905" stroke="white" stroke-opacity="0.06" stroke-width="1.40381"/>
<rect x="421.145" y="116.392" width="70.1905" height="70.1905" stroke="white" stroke-opacity="0.06" stroke-width="1.40381"/>
<rect x="491.332" y="116.392" width="70.1905" height="70.1905" stroke="white" stroke-opacity="0.06" stroke-width="1.40381"/>
<rect x="561.523" y="116.392" width="70.1905" height="70.1905" stroke="white" stroke-opacity="0.06" stroke-width="1.40381"/>
<rect x="631.715" y="116.392" width="70.1905" height="70.1905" stroke="white" stroke-opacity="0.06" stroke-width="1.40381"/>
<rect x="701.906" y="116.392" width="70.1905" height="70.1905" stroke="white" stroke-opacity="0.06" stroke-width="1.40381"/>
<rect x="772.094" y="116.392" width="70.1905" height="70.1905" stroke="white" stroke-opacity="0.06" stroke-width="1.40381"/>
<rect x="842.285" y="116.392" width="70.1905" height="70.1905" stroke="white" stroke-opacity="0.06" stroke-width="1.40381"/>
<rect x="912.477" y="116.392" width="70.1905" height="70.1905" stroke="white" stroke-opacity="0.06" stroke-width="1.40381"/>
<rect x="982.668" y="116.392" width="70.1905" height="70.1905" stroke="white" stroke-opacity="0.06" stroke-width="1.40381"/>
<rect x="1052.86" y="116.392" width="70.1905" height="70.1905" stroke="white" stroke-opacity="0.06" stroke-width="1.40381"/>
<rect x="1123.05" y="116.392" width="70.1905" height="70.1905" fill="white" fill-opacity="0.05" stroke="white" stroke-opacity="0.06" stroke-width="1.40381"/>
<rect x="1193.24" y="116.392" width="70.1905" height="70.1905" stroke="white" stroke-opacity="0.06" stroke-width="1.40381"/>
<rect x="1263.43" y="116.392" width="70.1905" height="70.1905" stroke="white" stroke-opacity="0.06" stroke-width="1.40381"/>
<rect x="1333.62" y="116.392" width="70.1905" height="70.1905" stroke="white" stroke-opacity="0.06" stroke-width="1.40381"/>
<rect x="1403.81" y="116.392" width="70.1905" height="70.1905" stroke="white" stroke-opacity="0.06" stroke-width="1.40381"/>
<rect y="186.547" width="70.1905" height="70.1905" stroke="white" stroke-opacity="0.06" stroke-width="1.40381"/>
<rect x="70.1914" y="186.547" width="70.1905" height="70.1905" stroke="white" stroke-opacity="0.06" stroke-width="1.40381"/>
<rect x="140.383" y="186.547" width="70.1905" height="70.1905" stroke="white" stroke-opacity="0.06" stroke-width="1.40381"/>
<rect x="210.57" y="186.547" width="70.1905" height="70.1905" stroke="white" stroke-opacity="0.06" stroke-width="1.40381"/>
<rect x="280.762" y="186.547" width="70.1905" height="70.1905" stroke="white" stroke-opacity="0.06" stroke-width="1.40381"/>
<rect x="350.953" y="186.547" width="70.1905" height="70.1905" stroke="white" stroke-opacity="0.06" stroke-width="1.40381"/>
<rect x="421.145" y="186.547" width="70.1905" height="70.1905" stroke="white" stroke-opacity="0.06" stroke-width="1.40381"/>
<rect x="491.332" y="186.547" width="70.1905" height="70.1905" stroke="white" stroke-opacity="0.06" stroke-width="1.40381"/>
<rect x="561.523" y="186.547" width="70.1905" height="70.1905" stroke="white" stroke-opacity="0.06" stroke-width="1.40381"/>
<rect x="631.715" y="186.547" width="70.1905" height="70.1905" stroke="white" stroke-opacity="0.06" stroke-width="1.40381"/>
<rect x="701.906" y="186.547" width="70.1905" height="70.1905" stroke="white" stroke-opacity="0.06" stroke-width="1.40381"/>
<rect x="772.094" y="186.547" width="70.1905" height="70.1905" stroke="white" stroke-opacity="0.06" stroke-width="1.40381"/>
<rect x="842.285" y="186.547" width="70.1905" height="70.1905" stroke="white" stroke-opacity="0.06" stroke-width="1.40381"/>
<rect x="912.477" y="186.547" width="70.1905" height="70.1905" stroke="white" stroke-opacity="0.06" stroke-width="1.40381"/>
<rect x="982.668" y="186.547" width="70.1905" height="70.1905" stroke="white" stroke-opacity="0.06" stroke-width="1.40381"/>
<rect x="1052.86" y="186.547" width="70.1905" height="70.1905" stroke="white" stroke-opacity="0.06" stroke-width="1.40381"/>
<rect x="1123.05" y="186.547" width="70.1905" height="70.1905" stroke="white" stroke-opacity="0.06" stroke-width="1.40381"/>
<rect x="1193.24" y="186.547" width="70.1905" height="70.1905" stroke="white" stroke-opacity="0.06" stroke-width="1.40381"/>
<rect x="1263.43" y="186.547" width="70.1905" height="70.1905" stroke="white" stroke-opacity="0.06" stroke-width="1.40381"/>
<rect x="1333.62" y="186.547" width="70.1905" height="70.1905" stroke="white" stroke-opacity="0.06" stroke-width="1.40381"/>
<rect x="1403.81" y="186.547" width="70.1905" height="70.1905" stroke="white" stroke-opacity="0.06" stroke-width="1.40381"/>
<rect y="256.744" width="70.1905" height="70.1905" stroke="white" stroke-opacity="0.06" stroke-width="1.40381"/>
<rect x="70.1914" y="256.744" width="70.1905" height="70.1905" stroke="white" stroke-opacity="0.06" stroke-width="1.40381"/>
<rect x="140.383" y="256.744" width="70.1905" height="70.1905" stroke="white" stroke-opacity="0.06" stroke-width="1.40381"/>
<rect x="210.57" y="256.744" width="70.1905" height="70.1905" fill="white" fill-opacity="0.05" stroke="white" stroke-opacity="0.06" stroke-width="1.40381"/>
<rect x="280.762" y="256.744" width="70.1905" height="70.1905" stroke="white" stroke-opacity="0.06" stroke-width="1.40381"/>
<rect x="350.953" y="256.744" width="70.1905" height="70.1905" stroke="white" stroke-opacity="0.06" stroke-width="1.40381"/>
<rect x="421.145" y="256.744" width="70.1905" height="70.1905" stroke="white" stroke-opacity="0.06" stroke-width="1.40381"/>
<rect x="491.332" y="256.744" width="70.1905" height="70.1905" stroke="white" stroke-opacity="0.06" stroke-width="1.40381"/>
<rect x="561.523" y="256.744" width="70.1905" height="70.1905" stroke="white" stroke-opacity="0.06" stroke-width="1.40381"/>
<rect x="631.715" y="256.744" width="70.1905" height="70.1905" stroke="white" stroke-opacity="0.06" stroke-width="1.40381"/>
<rect x="701.906" y="256.744" width="70.1905" height="70.1905" stroke="white" stroke-opacity="0.06" stroke-width="1.40381"/>
<rect x="772.094" y="256.744" width="70.1905" height="70.1905" stroke="white" stroke-opacity="0.06" stroke-width="1.40381"/>
<rect x="842.285" y="256.744" width="70.1905" height="70.1905" fill="white" fill-opacity="0.05" stroke="white" stroke-opacity="0.06" stroke-width="1.40381"/>
<rect x="912.477" y="256.744" width="70.1905" height="70.1905" stroke="white" stroke-opacity="0.06" stroke-width="1.40381"/>
<rect x="982.668" y="256.744" width="70.1905" height="70.1905" stroke="white" stroke-opacity="0.06" stroke-width="1.40381"/>
<rect x="1052.86" y="256.744" width="70.1905" height="70.1905" stroke="white" stroke-opacity="0.06" stroke-width="1.40381"/>
<rect x="1123.05" y="256.744" width="70.1905" height="70.1905" stroke="white" stroke-opacity="0.06" stroke-width="1.40381"/>
<rect x="1193.24" y="256.744" width="70.1905" height="70.1905" stroke="white" stroke-opacity="0.06" stroke-width="1.40381"/>
<rect x="1263.43" y="256.744" width="70.1905" height="70.1905" stroke="white" stroke-opacity="0.06" stroke-width="1.40381"/>
<rect x="1333.62" y="256.744" width="70.1905" height="70.1905" stroke="white" stroke-opacity="0.06" stroke-width="1.40381"/>
<rect x="1403.81" y="256.744" width="70.1905" height="70.1905" stroke="white" stroke-opacity="0.06" stroke-width="1.40381"/>
<rect y="326.94" width="70.1905" height="70.1905" stroke="white" stroke-opacity="0.06" stroke-width="1.40381"/>
<rect x="70.1914" y="326.94" width="70.1905" height="70.1905" stroke="white" stroke-opacity="0.06" stroke-width="1.40381"/>
<rect x="140.383" y="326.94" width="70.1905" height="70.1905" stroke="white" stroke-opacity="0.06" stroke-width="1.40381"/>
<rect x="210.57" y="326.94" width="70.1905" height="70.1905" stroke="white" stroke-opacity="0.06" stroke-width="1.40381"/>
<rect x="280.762" y="326.94" width="70.1905" height="70.1905" stroke="white" stroke-opacity="0.06" stroke-width="1.40381"/>
<rect x="350.953" y="326.94" width="70.1905" height="70.1905" stroke="white" stroke-opacity="0.06" stroke-width="1.40381"/>
<rect x="421.145" y="326.94" width="70.1905" height="70.1905" stroke="white" stroke-opacity="0.06" stroke-width="1.40381"/>
<rect x="491.332" y="326.94" width="70.1905" height="70.1905" stroke="white" stroke-opacity="0.06" stroke-width="1.40381"/>
<rect x="561.523" y="326.94" width="70.1905" height="70.1905" stroke="white" stroke-opacity="0.06" stroke-width="1.40381"/>
<rect x="631.715" y="326.94" width="70.1905" height="70.1905" stroke="white" stroke-opacity="0.06" stroke-width="1.40381"/>
<rect x="701.906" y="326.94" width="70.1905" height="70.1905" stroke="white" stroke-opacity="0.06" stroke-width="1.40381"/>
<rect x="772.094" y="326.94" width="70.1905" height="70.1905" stroke="white" stroke-opacity="0.06" stroke-width="1.40381"/>
<rect x="842.285" y="326.94" width="70.1905" height="70.1905" stroke="white" stroke-opacity="0.06" stroke-width="1.40381"/>
<rect x="912.477" y="326.94" width="70.1905" height="70.1905" stroke="white" stroke-opacity="0.06" stroke-width="1.40381"/>
<rect x="982.668" y="326.94" width="70.1905" height="70.1905" stroke="white" stroke-opacity="0.06" stroke-width="1.40381"/>
<rect x="1052.86" y="326.94" width="70.1905" height="70.1905" stroke="white" stroke-opacity="0.06" stroke-width="1.40381"/>
<rect x="1123.05" y="326.94" width="70.1905" height="70.1905" stroke="white" stroke-opacity="0.06" stroke-width="1.40381"/>
<rect x="1193.24" y="326.94" width="70.1905" height="70.1905" stroke="white" stroke-opacity="0.06" stroke-width="1.40381"/>
<rect x="1263.43" y="326.94" width="70.1905" height="70.1905" fill="white" fill-opacity="0.05" stroke="white" stroke-opacity="0.06" stroke-width="1.40381"/>
<rect x="1333.62" y="326.94" width="70.1905" height="70.1905" stroke="white" stroke-opacity="0.06" stroke-width="1.40381"/>
<rect x="1403.81" y="326.94" width="70.1905" height="70.1905" stroke="white" stroke-opacity="0.06" stroke-width="1.40381"/>
<rect y="397.146" width="70.1905" height="70.1905" stroke="white" stroke-opacity="0.06" stroke-width="1.40381"/>
<rect x="70.1914" y="397.146" width="70.1905" height="70.1905" stroke="white" stroke-opacity="0.06" stroke-width="1.40381"/>
<rect x="140.383" y="397.146" width="70.1905" height="70.1905" stroke="white" stroke-opacity="0.06" stroke-width="1.40381"/>
<rect x="210.57" y="397.146" width="70.1905" height="70.1905" stroke="white" stroke-opacity="0.06" stroke-width="1.40381"/>
<rect x="280.762" y="397.146" width="70.1905" height="70.1905" stroke="white" stroke-opacity="0.06" stroke-width="1.40381"/>
<rect x="350.953" y="397.146" width="70.1905" height="70.1905" stroke="white" stroke-opacity="0.06" stroke-width="1.40381"/>
<rect x="421.145" y="397.146" width="70.1905" height="70.1905" stroke="white" stroke-opacity="0.06" stroke-width="1.40381"/>
<rect x="491.332" y="397.146" width="70.1905" height="70.1905" stroke="white" stroke-opacity="0.06" stroke-width="1.40381"/>
<rect x="561.523" y="397.146" width="70.1905" height="70.1905" stroke="white" stroke-opacity="0.06" stroke-width="1.40381"/>
<rect x="631.715" y="397.146" width="70.1905" height="70.1905" stroke="white" stroke-opacity="0.06" stroke-width="1.40381"/>
<rect x="701.906" y="397.146" width="70.1905" height="70.1905" stroke="white" stroke-opacity="0.06" stroke-width="1.40381"/>
<rect x="772.094" y="397.146" width="70.1905" height="70.1905" stroke="white" stroke-opacity="0.06" stroke-width="1.40381"/>
<rect x="842.285" y="397.146" width="70.1905" height="70.1905" stroke="white" stroke-opacity="0.06" stroke-width="1.40381"/>
<rect x="912.477" y="397.146" width="70.1905" height="70.1905" stroke="white" stroke-opacity="0.06" stroke-width="1.40381"/>
<rect x="982.668" y="397.146" width="70.1905" height="70.1905" stroke="white" stroke-opacity="0.06" stroke-width="1.40381"/>
<rect x="1052.86" y="397.146" width="70.1905" height="70.1905" stroke="white" stroke-opacity="0.06" stroke-width="1.40381"/>
<rect x="1123.05" y="397.146" width="70.1905" height="70.1905" stroke="white" stroke-opacity="0.06" stroke-width="1.40381"/>
<rect x="1193.24" y="397.146" width="70.1905" height="70.1905" stroke="white" stroke-opacity="0.06" stroke-width="1.40381"/>
<rect x="1263.43" y="397.146" width="70.1905" height="70.1905" stroke="white" stroke-opacity="0.06" stroke-width="1.40381"/>
<rect x="1333.62" y="397.146" width="70.1905" height="70.1905" stroke="white" stroke-opacity="0.06" stroke-width="1.40381"/>
<rect x="1403.81" y="397.146" width="70.1905" height="70.1905" stroke="white" stroke-opacity="0.06" stroke-width="1.40381"/>
<rect y="467.351" width="70.1905" height="70.1905" stroke="white" stroke-opacity="0.06" stroke-width="1.40381"/>
<rect x="70.1914" y="467.351" width="70.1905" height="70.1905" stroke="white" stroke-opacity="0.06" stroke-width="1.40381"/>
<rect x="140.383" y="467.351" width="70.1905" height="70.1905" stroke="white" stroke-opacity="0.06" stroke-width="1.40381"/>
<rect x="210.57" y="467.351" width="70.1905" height="70.1905" stroke="white" stroke-opacity="0.06" stroke-width="1.40381"/>
<rect x="280.762" y="467.351" width="70.1905" height="70.1905" stroke="white" stroke-opacity="0.06" stroke-width="1.40381"/>
<rect x="350.953" y="467.351" width="70.1905" height="70.1905" stroke="white" stroke-opacity="0.06" stroke-width="1.40381"/>
<rect x="421.145" y="467.351" width="70.1905" height="70.1905" stroke="white" stroke-opacity="0.06" stroke-width="1.40381"/>
<rect x="491.332" y="467.351" width="70.1905" height="70.1905" stroke="white" stroke-opacity="0.06" stroke-width="1.40381"/>
<rect x="561.523" y="467.351" width="70.1905" height="70.1905" fill="white" fill-opacity="0.05" stroke="white" stroke-opacity="0.06" stroke-width="1.40381"/>
<rect x="631.715" y="467.351" width="70.1905" height="70.1905" stroke="white" stroke-opacity="0.06" stroke-width="1.40381"/>
<rect x="701.906" y="467.351" width="70.1905" height="70.1905" stroke="white" stroke-opacity="0.06" stroke-width="1.40381"/>
<rect x="772.094" y="467.351" width="70.1905" height="70.1905" stroke="white" stroke-opacity="0.06" stroke-width="1.40381"/>
<rect x="842.285" y="467.351" width="70.1905" height="70.1905" stroke="white" stroke-opacity="0.06" stroke-width="1.40381"/>
<rect x="912.477" y="467.351" width="70.1905" height="70.1905" stroke="white" stroke-opacity="0.06" stroke-width="1.40381"/>
<rect x="982.668" y="467.351" width="70.1905" height="70.1905" stroke="white" stroke-opacity="0.06" stroke-width="1.40381"/>
<rect x="1052.86" y="467.351" width="70.1905" height="70.1905" stroke="white" stroke-opacity="0.06" stroke-width="1.40381"/>
<rect x="1123.05" y="467.351" width="70.1905" height="70.1905" stroke="white" stroke-opacity="0.06" stroke-width="1.40381"/>
<rect x="1193.24" y="467.351" width="70.1905" height="70.1905" stroke="white" stroke-opacity="0.06" stroke-width="1.40381"/>
<rect x="1263.43" y="467.351" width="70.1905" height="70.1905" stroke="white" stroke-opacity="0.06" stroke-width="1.40381"/>
<rect x="1333.62" y="467.351" width="70.1905" height="70.1905" stroke="white" stroke-opacity="0.06" stroke-width="1.40381"/>
<rect x="1403.81" y="467.351" width="70.1905" height="70.1905" stroke="white" stroke-opacity="0.06" stroke-width="1.40381"/>
<rect y="537.498" width="70.1905" height="70.1905" stroke="white" stroke-opacity="0.06" stroke-width="1.40381"/>
<rect x="70.1914" y="537.498" width="70.1905" height="70.1905" stroke="white" stroke-opacity="0.06" stroke-width="1.40381"/>
<rect x="140.383" y="537.498" width="70.1905" height="70.1905" stroke="white" stroke-opacity="0.06" stroke-width="1.40381"/>
<rect x="210.57" y="537.498" width="70.1905" height="70.1905" stroke="white" stroke-opacity="0.06" stroke-width="1.40381"/>
<rect x="280.762" y="537.498" width="70.1905" height="70.1905" fill="white" fill-opacity="0.05" stroke="white" stroke-opacity="0.06" stroke-width="1.40381"/>
<rect x="350.953" y="537.498" width="70.1905" height="70.1905" stroke="white" stroke-opacity="0.06" stroke-width="1.40381"/>
<rect x="421.145" y="537.498" width="70.1905" height="70.1905" stroke="white" stroke-opacity="0.06" stroke-width="1.40381"/>
<rect x="491.332" y="537.498" width="70.1905" height="70.1905" stroke="white" stroke-opacity="0.06" stroke-width="1.40381"/>
<rect x="561.523" y="537.498" width="70.1905" height="70.1905" stroke="white" stroke-opacity="0.06" stroke-width="1.40381"/>
<rect x="631.715" y="537.498" width="70.1905" height="70.1905" stroke="white" stroke-opacity="0.06" stroke-width="1.40381"/>
<rect x="701.906" y="537.498" width="70.1905" height="70.1905" stroke="white" stroke-opacity="0.06" stroke-width="1.40381"/>
<rect x="772.094" y="537.498" width="70.1905" height="70.1905" stroke="white" stroke-opacity="0.06" stroke-width="1.40381"/>
<rect x="842.285" y="537.498" width="70.1905" height="70.1905" stroke="white" stroke-opacity="0.06" stroke-width="1.40381"/>
<rect x="912.477" y="537.498" width="70.1905" height="70.1905" stroke="white" stroke-opacity="0.06" stroke-width="1.40381"/>
<rect x="982.668" y="537.498" width="70.1905" height="70.1905" stroke="white" stroke-opacity="0.06" stroke-width="1.40381"/>
<rect x="1052.86" y="537.498" width="70.1905" height="70.1905" stroke="white" stroke-opacity="0.06" stroke-width="1.40381"/>
<rect x="1123.05" y="537.498" width="70.1905" height="70.1905" stroke="white" stroke-opacity="0.06" stroke-width="1.40381"/>
<rect x="1193.24" y="537.498" width="70.1905" height="70.1905" stroke="white" stroke-opacity="0.06" stroke-width="1.40381"/>
<rect x="1263.43" y="537.498" width="70.1905" height="70.1905" stroke="white" stroke-opacity="0.06" stroke-width="1.40381"/>
<rect x="1333.62" y="537.498" width="70.1905" height="70.1905" stroke="white" stroke-opacity="0.06" stroke-width="1.40381"/>
<rect x="1403.81" y="537.498" width="70.1905" height="70.1905" stroke="white" stroke-opacity="0.06" stroke-width="1.40381"/>
<rect y="607.694" width="70.1905" height="70.1905" stroke="white" stroke-opacity="0.06" stroke-width="1.40381"/>
<rect x="70.1914" y="607.694" width="70.1905" height="70.1905" stroke="white" stroke-opacity="0.06" stroke-width="1.40381"/>
<rect x="140.383" y="607.694" width="70.1905" height="70.1905" stroke="white" stroke-opacity="0.06" stroke-width="1.40381"/>
<rect x="210.57" y="607.694" width="70.1905" height="70.1905" stroke="white" stroke-opacity="0.06" stroke-width="1.40381"/>
<rect x="280.762" y="607.694" width="70.1905" height="70.1905" stroke="white" stroke-opacity="0.06" stroke-width="1.40381"/>
<rect x="350.953" y="607.694" width="70.1905" height="70.1905" stroke="white" stroke-opacity="0.06" stroke-width="1.40381"/>
<rect x="421.145" y="607.694" width="70.1905" height="70.1905" stroke="white" stroke-opacity="0.06" stroke-width="1.40381"/>
<rect x="491.332" y="607.694" width="70.1905" height="70.1905" stroke="white" stroke-opacity="0.06" stroke-width="1.40381"/>
<rect x="561.523" y="607.694" width="70.1905" height="70.1905" stroke="white" stroke-opacity="0.06" stroke-width="1.40381"/>
<rect x="631.715" y="607.694" width="70.1905" height="70.1905" stroke="white" stroke-opacity="0.06" stroke-width="1.40381"/>
<rect x="701.906" y="607.694" width="70.1905" height="70.1905" stroke="white" stroke-opacity="0.06" stroke-width="1.40381"/>
<rect x="772.094" y="607.694" width="70.1905" height="70.1905" stroke="white" stroke-opacity="0.06" stroke-width="1.40381"/>
<rect x="842.285" y="607.694" width="70.1905" height="70.1905" stroke="white" stroke-opacity="0.06" stroke-width="1.40381"/>
<rect x="912.477" y="607.694" width="70.1905" height="70.1905" stroke="white" stroke-opacity="0.06" stroke-width="1.40381"/>
<rect x="982.668" y="607.694" width="70.1905" height="70.1905" stroke="white" stroke-opacity="0.06" stroke-width="1.40381"/>
<rect x="1052.86" y="607.694" width="70.1905" height="70.1905" stroke="white" stroke-opacity="0.06" stroke-width="1.40381"/>
<rect x="1123.05" y="607.694" width="70.1905" height="70.1905" stroke="white" stroke-opacity="0.06" stroke-width="1.40381"/>
<rect x="1193.24" y="607.694" width="70.1905" height="70.1905" stroke="white" stroke-opacity="0.06" stroke-width="1.40381"/>
<rect x="1263.43" y="607.694" width="70.1905" height="70.1905" stroke="white" stroke-opacity="0.06" stroke-width="1.40381"/>
<rect x="1333.62" y="607.694" width="70.1905" height="70.1905" stroke="white" stroke-opacity="0.06" stroke-width="1.40381"/>
<rect x="1403.81" y="607.694" width="70.1905" height="70.1905" stroke="white" stroke-opacity="0.06" stroke-width="1.40381"/>
<g filter="url(#filter0_f_4_54246)">
<rect x="-119.324" y="-1013.79" width="1780.03" height="1401.98" fill="url(#paint0_radial_4_54246)"/>
</g>
<rect x="-316.565" y="-352.714" width="2025.7" height="1272.76" fill="url(#paint1_radial_4_54246)" stroke="#0A101F" stroke-width="1.40381"/>
</g>
<defs>
<filter id="filter0_f_4_54246" x="-540.467" y="-1434.94" width="2622.32" height="2244.26" filterUnits="userSpaceOnUse" color-interpolation-filters="sRGB">
<feFlood flood-opacity="0" result="BackgroundImageFix"/>
<feBlend mode="normal" in="SourceGraphic" in2="BackgroundImageFix" result="shape"/>
<feGaussianBlur stdDeviation="210.571" result="effect1_foregroundBlur_4_54246"/>
</filter>
<radialGradient id="paint0_radial_4_54246" cx="0" cy="0" r="1" gradientUnits="userSpaceOnUse" gradientTransform="translate(770.691 -312.805) rotate(90) scale(700.989 890.015)">
<stop offset="0.015625" stop-color="#4D76F4" stop-opacity="0.69"/>
<stop offset="0.223958" stop-color="#4D76F4" stop-opacity="0.34"/>
<stop offset="0.911458" stop-color="#4D76F4" stop-opacity="0"/>
</radialGradient>
<radialGradient id="paint1_radial_4_54246" cx="0" cy="0" r="1" gradientUnits="userSpaceOnUse" gradientTransform="translate(696.283 283.668) rotate(90) scale(635.68 1012.15)">
<stop stop-color="#0A101F" stop-opacity="0"/>
<stop offset="0.833333" stop-color="#0A101F"/>
</radialGradient>
<clipPath id="clip0_4_54246">
<rect width="1474" height="943.36" fill="white" transform="translate(0 -24.002)"/>
</clipPath>
</defs>
</svg>
