<svg width="1016" height="250" viewBox="0 0 1016 250" fill="none" xmlns="http://www.w3.org/2000/svg">
<g clip-path="url(#clip0_4_57226)">
<path d="M325.334 136.189C329.076 141.952 333.907 145.457 336.123 144.018C338.34 142.579 337.103 136.74 333.36 130.977C329.618 125.214 324.787 121.709 322.571 123.148C320.354 124.588 321.591 130.426 325.334 136.189Z" fill="#FFC466"/>
<path d="M466.472 168.327L468.81 159.606L477.963 156.808L470.512 152.08L470.74 143.003L463.342 148.267L454.62 145.93L458.054 153.887L452.411 161.617L461.208 160.929L466.472 168.327Z" fill="#FF66F0"/>
<path d="M872.977 199.064L874.891 212.463L862.449 214.377L860.535 200.978L872.977 199.064Z" fill="#FF7066"/>
<path d="M131.854 111.389C133.774 115.157 137.621 117.044 140.447 115.604C143.273 114.164 144.007 109.942 142.087 106.175C140.168 102.407 136.321 100.52 133.495 101.96C130.669 103.399 129.934 107.621 131.854 111.389Z" fill="#66FF78"/>
<path d="M21.2149 33.1293L27.9145 39.8289L20.2578 43.6572L21.2149 33.1293Z" fill="#66EBFF"/>
<path d="M795.521 159.696L770.637 163.524" stroke="#B566FF" stroke-width="2.87125" stroke-linecap="round"/>
<path d="M215.949 138.72C215.949 144.463 217.863 145.42 221.692 141.591C226.158 137.763 228.391 138.72 228.391 144.463C228.391 150.205 230.305 151.162 234.134 147.334C238.6 143.505 240.514 144.463 239.876 150.205" stroke="#A6FF66" stroke-width="2.87125" stroke-linecap="round"/>
<path d="M254.088 184.73C254.088 190.472 256.002 191.429 259.83 187.601C264.297 183.773 266.53 184.73 266.53 190.472C266.53 196.215 268.444 197.172 272.272 193.344C276.739 189.515 278.653 190.472 278.015 196.215" stroke="#A6FF66" stroke-width="2.87125" stroke-linecap="round"/>
<path d="M868.289 34.5432C870.717 31.7507 871.391 28.3624 869.795 26.9753C868.199 25.5882 864.938 26.7274 862.511 29.5199C860.083 32.3124 859.409 35.7007 861.005 37.0878C862.6 38.4749 865.862 37.3356 868.289 34.5432Z" fill="#66FF66"/>
<path d="M798.668 191.339C801.095 188.547 801.77 185.158 800.174 183.771C798.578 182.384 795.317 183.523 792.889 186.316C790.462 189.108 789.788 192.497 791.383 193.884C792.979 195.271 796.241 194.132 798.668 191.339Z" fill="#66FF66"/>
<path d="M659.094 115.21C664.836 117.762 667.708 115.848 667.708 109.467C667.708 103.725 670.579 102.13 676.321 104.682C681.426 107.234 684.297 105.32 684.935 98.9395C684.935 92.5589 687.487 90.6447 692.592 93.197" stroke="#91FF66" stroke-width="2.87125" stroke-linecap="round"/>
<path d="M589.473 272.006C595.215 274.558 598.086 272.644 598.086 266.263C598.086 260.521 600.958 258.926 606.7 261.478C611.805 264.03 614.676 262.116 615.314 255.735C615.314 249.355 617.866 247.441 622.971 249.993" stroke="#91FF66" stroke-width="2.87125" stroke-linecap="round"/>
<path d="M461.326 35.7509C464.145 40.8363 469.054 43.5046 472.29 41.7108C475.526 39.9169 475.864 34.3402 473.045 29.2548C470.227 24.1694 465.318 21.5011 462.082 23.2949C458.846 25.0887 458.507 30.6655 461.326 35.7509Z" fill="#FFAD66"/>
<path d="M982.219 81.0532L988.918 73.3966L999.446 82.0103L991.79 89.667L982.219 81.0532Z" fill="#FF6691"/>
<path d="M912.447 237.848L919.147 230.191L929.675 238.805L922.018 246.462L912.447 237.848Z" fill="#FF6691"/>
<path d="M146.311 190.432C146.311 183.56 143.74 177.99 140.569 177.99C137.397 177.99 134.826 183.56 134.826 190.432C134.826 197.304 137.397 202.874 140.569 202.874C143.74 202.874 146.311 197.304 146.311 190.432Z" fill="#FFB366"/>
<path d="M184.452 236.442C184.452 229.57 181.881 224 178.709 224C175.538 224 172.967 229.57 172.967 236.442C172.967 243.313 175.538 248.884 178.709 248.884C181.881 248.884 184.452 243.313 184.452 236.442Z" fill="#FFB366"/>
<path d="M746.647 84.2178L730.377 74.6469L742.819 62.2048L746.647 84.2178Z" fill="#8066FF"/>
<path d="M677.028 240.408L660.758 230.837L673.2 218.395L677.028 240.408Z" fill="#8066FF"/>
<path d="M32.7131 78.4932L48.0264 83.2786L44.1981 95.7207L28.8848 90.9353L32.7131 78.4932Z" fill="#EBFF66"/>
<path d="M185.259 20.4929C181.924 25.2558 182.029 31.0831 185.493 33.5086C188.957 35.9341 194.468 34.0392 197.803 29.2763C201.138 24.5134 201.034 18.6861 197.57 16.2607C194.106 13.8352 188.594 15.7301 185.259 20.4929Z" fill="#E366FF"/>
<path d="M716.081 177.448H702.682L708.424 165.963L716.081 177.448Z" fill="#9EFF66"/>
<path d="M753.356 214.296L744.743 227.695L736.129 216.21L753.356 214.296Z" fill="#FF66B0"/>
<path d="M244.494 48.3711L248.713 42.9096L255.33 44.3317L251.911 38.3361L254.222 32.7412L248.36 34.2501L243.853 30.0973L243.385 36.7805L237.457 39.2442L243.052 41.5543L244.494 48.3711Z" fill="#B066FF"/>
<path d="M918.974 170.339L899.832 173.21L897.918 164.596L917.06 161.725L918.974 170.339Z" fill="#FF669E"/>
<path d="M899.825 125.99L892.168 109.72L911.31 114.505L899.825 125.99Z" fill="#66CFFF"/>
<path d="M931.348 219.981L919.863 222.853L920.82 212.325L931.348 219.981Z" fill="#FF66CC"/>
<path d="M761.634 35.7496L765.728 40.2078L763.781 45.6943L769.45 43.3649L774.008 46.986L772.98 40.9446L778.275 37.3141L772.325 36.2042L770.832 30.9999L767.211 35.5584L761.634 35.7496Z" fill="#FF66F5"/>
<path d="M692.015 192.546L696.109 197.004L694.162 202.49L699.831 200.161L704.389 203.782L703.361 197.74L708.656 194.11L702.706 193L701.213 187.796L697.592 192.354L692.015 192.546Z" fill="#FF66F5"/>
<path d="M103.061 59.6722C104.507 63.6459 108.498 65.8413 111.975 64.5758C115.452 63.3103 117.098 59.0631 115.652 55.0894C114.206 51.1158 110.215 48.9204 106.738 50.1859C103.261 51.4514 101.615 55.6986 103.061 59.6722Z" fill="#F2FF66"/>
<path d="M594.452 113.936L595.093 110.545L597.362 108.542L593.971 107.902L593.73 104.885L591.835 107.769L588.444 107.129L590.447 109.398L588.926 113.163L592.45 111.667L594.452 113.936Z" fill="#DBFF66"/>
<path d="M960.297 10.079C959.635 14.2556 962.485 18.1776 966.661 18.8392C970.838 19.5007 974.76 16.6511 975.421 12.4745C976.083 8.29791 973.233 4.37585 969.057 3.71434C964.88 3.05283 960.958 5.90238 960.297 10.079Z" fill="#6EFF66"/>
<path d="M890.525 166.875C889.864 171.051 892.713 174.974 896.89 175.635C901.066 176.297 904.988 173.447 905.65 169.27C906.311 165.094 903.462 161.172 899.285 160.51C895.109 159.849 891.187 162.698 890.525 166.875Z" fill="#6EFF66"/>
<path d="M259.537 169.611C265.28 172.163 267.832 170.568 267.194 164.826C266.556 159.083 268.789 157.488 273.893 160.04C279.636 162.592 282.188 160.997 281.55 155.255C281.55 149.512 283.783 148.236 288.25 151.427" stroke="#FF66D1" stroke-width="3.82834" stroke-linecap="round"/>
<path d="M297.676 215.62C303.418 218.172 305.971 216.577 305.332 210.834C304.694 205.092 306.928 203.497 312.032 206.049C317.775 208.601 320.327 207.006 319.689 201.264C319.689 195.521 321.922 194.245 326.388 197.435" stroke="#FF66D1" stroke-width="3.82834" stroke-linecap="round"/>
<path d="M484.387 95.7207L449.932 88.064" stroke="#66FFC2" stroke-width="2.87125" stroke-linecap="round"/>
<path d="M525.638 84.8418L504.582 59.9576" stroke="#6966FF" stroke-width="2.87125" stroke-linecap="round"/>
<path d="M514.096 145.968C518.562 142.139 517.924 139.906 512.181 139.268C506.439 138.63 505.801 136.397 510.267 132.569C514.734 128.74 514.096 126.507 508.353 125.869C502.611 125.231 501.972 122.998 506.439 119.169" stroke="#FF66CF" stroke-width="3.82834" stroke-linecap="round"/>
<path d="M859.105 83.8224C853.612 80.6509 847.659 80.6776 845.809 83.8819C843.959 87.0863 846.912 92.2549 852.405 95.4264C857.898 98.5979 863.851 98.5713 865.701 95.3669C867.551 92.1626 864.598 86.9939 859.105 83.8224Z" fill="#9C66FF"/>
<path d="M789.486 240.618C783.993 237.447 778.04 237.473 776.19 240.678C774.34 243.882 777.293 249.051 782.786 252.222C788.279 255.394 794.232 255.367 796.082 252.163C797.932 248.958 794.979 243.79 789.486 240.618Z" fill="#9C66FF"/>
<path d="M56.2794 151.893L54.9138 144.12L59.8663 138.772L52.1888 138L49.0746 131.005L45.775 137.712L38.0017 139.078L43.3497 144.03L42.5773 151.708L49.572 148.594L56.2794 151.893Z" fill="#FFF266"/>
<path d="M116.914 182.568C111.859 184.113 108.639 188.234 109.72 191.773C110.802 195.311 115.777 196.927 120.832 195.381C125.887 193.836 129.107 189.715 128.026 186.176C126.944 182.638 121.969 181.022 116.914 182.568Z" fill="#FFE666"/>
<path d="M155.053 228.576C149.998 230.122 146.777 234.243 147.859 237.781C148.941 241.32 153.916 242.935 158.97 241.39C164.025 239.845 167.246 235.723 166.164 232.185C165.082 228.647 160.108 227.031 155.053 228.576Z" fill="#FFE666"/>
<path d="M367.477 128.821L371.877 126.941L375.543 130.163L374.971 125.412L379.371 123.532L374.749 121.968L374.176 117.217L370.955 120.883L366.682 120.626L369.04 124.198L367.477 128.821Z" fill="#6680FF"/>
<path d="M213.556 82.0677L209.727 94.5098L198.242 90.6814L201.113 79.1964L213.556 82.0677Z" fill="#8CFF66"/>
<path d="M26.9385 172.72L16.4106 182.291L8.75391 174.634L20.2389 165.064L26.9385 172.72Z" fill="#FF666B"/>
<path d="M171.449 168.973L168.578 154.616L182.934 160.359L171.449 168.973Z" fill="#FF7566"/>
<path d="M209.588 214.982L206.717 200.626L221.073 206.369L209.588 214.982Z" fill="#FF7566"/>
<path d="M889.908 77.8868L896.036 77.9574L898.818 83.0718L900.232 77.1088L906.524 75.8359L901.481 72.4892L902.14 67.1155L897.026 69.8968L891.817 67.8935L893.844 73.5972L889.908 77.8868Z" fill="#F5FF66"/>
<path d="M820.287 234.683L826.415 234.753L829.196 239.868L830.61 233.905L836.903 232.632L831.86 229.285L832.519 223.911L827.405 226.693L822.196 224.689L824.223 230.393L820.287 234.683Z" fill="#F5FF66"/>
<path d="M862.133 148.902C858.442 149.16 855.629 151.934 855.85 155.098C856.071 158.262 859.243 160.617 862.934 160.359C866.625 160.101 869.438 157.327 869.217 154.163C868.995 150.999 865.824 148.644 862.133 148.902Z" fill="#66C4FF"/>
<path d="M670.075 142.451L661.461 152.021L659.547 138.622L670.075 142.451Z" fill="#FF8C66"/>
<path d="M347.64 38.2076C347.002 32.4651 345.088 31.8271 341.897 36.2934C338.707 40.7598 336.793 40.4408 336.155 35.3364C336.793 29.5939 335.517 28.9558 332.326 33.4222C329.136 37.8886 327.222 37.2505 326.584 31.508" stroke="#667DFF" stroke-width="2.87125" stroke-linecap="round"/>
<path d="M934.227 119.856C933.589 125.598 935.184 126.237 939.012 121.77C942.84 117.942 944.435 118.899 943.797 124.641C943.159 129.746 944.754 130.384 948.583 126.556C952.411 122.727 954.006 123.365 953.368 128.47" stroke="#BF66FF" stroke-width="2.87125" stroke-linecap="round"/>
<path d="M627.008 15.2794L637.536 8.57979L647.107 24.8502L636.579 31.5498L627.008 15.2794Z" fill="#66FF73"/>
<path d="M111.217 112.919L139.929 143.546" stroke="#66C9FF" stroke-width="2.87125" stroke-linecap="round"/>
<path d="M149.355 158.929L178.068 189.556" stroke="#66C9FF" stroke-width="2.87125" stroke-linecap="round"/>
<path d="M726.532 126.105L727.489 135.676L718.875 130.89L726.532 126.105Z" fill="#9C66FF"/>
<path d="M63.2051 115.236L64.6466 112.101L67.3328 110.706L64.1974 109.265L64.6936 106.279L62.1571 108.619L59.0217 107.177L60.4162 109.864L58.0295 113.149L61.8107 112.55L63.2051 115.236Z" fill="#FF66F5"/>
<path d="M267.149 43.0518C272.253 39.2234 272.253 35.7141 267.149 32.5238C262.044 28.6955 262.044 24.8672 267.149 21.0388C272.253 17.8485 272.253 14.3392 267.149 10.5109C262.044 7.32063 262.044 3.81132 267.149 -0.0170168" stroke="#E0FF66" stroke-width="3.82834" stroke-linecap="round"/>
<path d="M203.819 92.4526L205.454 97.7884L202.252 101.345L207.018 101.773L209.934 105.686L211.713 100.849L216.409 99.925L212.852 96.7229L212.569 91.3163L208.656 94.2321L203.819 92.4526Z" fill="#A166FF"/>
<path d="M111.973 175.084L114.844 164.556L128.243 168.384L125.372 179.869L111.973 175.084Z" fill="#7AFF66"/>
<path d="M150.113 221.093L152.985 210.566L166.384 214.394L163.512 225.879L150.113 221.093Z" fill="#7AFF66"/>
<path d="M946.102 7.13681L955.842 6.50863L961.092 15.0102L964.657 6.12817L973.655 2.72659L965.449 -2.01074L965.746 -11.9986L958.416 -6.0713L949.534 -9.63644L952.011 -0.391719L946.102 7.13681Z" fill="#FF6694"/>
<path d="M787.186 97.9813L778.227 94.8967L775.311 86.7351L770.527 94.3927L761.107 94.7278L766.604 101.631L764.379 110.17L772.541 107.254L780.198 112.038L779.003 103.037L787.186 97.9813Z" fill="#666BFF"/>
<path d="M717.566 254.777L708.608 251.693L705.692 243.531L700.908 251.189L691.488 251.524L696.984 258.427L694.76 266.965L702.922 264.05L710.579 268.834L709.384 259.833L717.566 254.777Z" fill="#666BFF"/>
<path d="M688.282 106.598L680.584 107.12L675.365 100.334L673.068 108.58L665.734 110.981L672.467 115.522L672.232 124.343L679.017 119.124L687.264 121.421L683.741 113.331L688.282 106.598Z" fill="#7566FF"/>
<path d="M541.048 23.4532C543.623 22.8586 545.229 20.2891 544.634 17.7139C544.04 15.1387 541.47 13.5331 538.895 14.1276C536.32 14.7221 534.714 17.2917 535.309 19.8669C535.903 22.442 538.473 24.0477 541.048 23.4532Z" fill="#FF8266"/>
<path d="M980.11 162.566C979.283 157.345 976.074 153.515 972.941 154.011C969.809 154.507 967.94 159.142 968.766 164.362C969.593 169.583 972.803 173.413 975.935 172.917C979.068 172.421 980.937 167.787 980.11 162.566Z" fill="#66ADFF"/>
<path d="M780.208 151.157L770.637 179.869" stroke="#6966FF" stroke-width="2.87125" stroke-linecap="round"/>
<path d="M345.013 94.9764L341.014 94.2713L340.151 91.3704L338.897 94.5853L335.447 94.6641L337.878 96.4672L336.624 99.6821L339.525 98.8192L342.739 100.073L341.877 97.1723L345.013 94.9764Z" fill="#9466FF"/>
<path d="M897.342 109.948C901.308 114.2 906.089 116.186 908.022 114.384C909.955 112.581 908.308 107.673 904.342 103.42C900.377 99.1679 895.595 97.1819 893.662 98.9844C891.729 100.787 893.377 105.695 897.342 109.948Z" fill="#FF8566"/>
<path d="M645.32 10.2222L662.548 1.60843L666.376 18.8359L645.32 10.2222Z" fill="#C4FF66"/>
<path d="M206.968 196.423C202.502 200.251 202.821 203.441 207.925 205.994C213.668 208.546 214.306 211.736 209.84 215.564C204.735 218.755 205.054 221.626 210.797 224.178C216.539 226.73 217.177 229.921 212.711 233.749" stroke="#66ADFF" stroke-width="2.87125" stroke-linecap="round"/>
<path d="M245.107 242.433C240.641 246.261 240.96 249.451 246.064 252.003C251.807 254.556 252.445 257.746 247.978 261.574C242.874 264.764 243.193 267.636 248.935 270.188C254.678 272.74 255.316 275.93 250.849 279.759" stroke="#66ADFF" stroke-width="2.87125" stroke-linecap="round"/>
<path d="M152.373 96.3203L154.287 73.3503" stroke="#AD66FF" stroke-width="2.87125" stroke-linecap="round"/>
<path d="M239.455 95.1152C243.921 91.925 243.602 90.3298 238.498 90.3298C232.755 90.3298 232.117 88.7347 236.584 85.5444C241.05 82.3541 240.731 81.078 235.626 81.7161C229.884 81.078 229.246 79.4829 233.712 76.9306" stroke="#66C4FF" stroke-width="3.82834" stroke-linecap="round"/>
<path d="M81.2966 210.139C85.763 206.948 85.444 205.353 80.3395 205.353C74.597 205.353 73.959 203.758 78.4254 200.568C82.8918 197.378 82.5727 196.101 77.4683 196.739C71.7258 196.101 71.0877 194.506 75.5541 191.954" stroke="#66C4FF" stroke-width="3.82834" stroke-linecap="round"/>
<path d="M175.389 104.115L200.273 117.515" stroke="#66E0FF" stroke-width="2.87125" stroke-linecap="round"/>
<path d="M17.2305 219.139L42.1146 232.538" stroke="#66E0FF" stroke-width="2.87125" stroke-linecap="round"/>
<path d="M992.609 165.26L1004.09 167.174L1002.18 178.659L990.695 176.745L992.609 165.26Z" fill="#FF66EB"/>
<path d="M574.047 128.488C571.696 122.031 566.973 117.822 563.496 119.088C560.019 120.353 559.105 126.614 561.455 133.071C563.806 139.528 568.53 143.737 572.006 142.471C575.483 141.206 576.397 134.945 574.047 128.488Z" fill="#FF9E66"/>
<path d="M41.2949 29.2436L57.5653 22.544L59.4795 38.8145L41.2949 29.2436Z" fill="#FF6966"/>
<path d="M448.788 107.503L457.087 112.269L457.187 120.935L463.253 115.369L472.269 118.119L469.32 109.803L474.203 102.454L465.537 102.553L459.854 95.5369L458.054 104.436L448.788 107.503Z" fill="#FF8A66"/>
<path d="M792.582 208.554L810.767 213.339L800.239 227.695L792.582 208.554Z" fill="#66FF8C"/>
<path d="M987.293 96.5106L984.405 99.2001L980.152 98.7204L981.517 101.89L980.235 105.621L984.207 104.777L986.896 107.665L987.376 103.412L990.545 102.046L987.334 99.9612L987.293 96.5106Z" fill="#66FFFA"/>
<path d="M121.66 206.507L146.544 198.85" stroke="#7366FF" stroke-width="2.87125" stroke-linecap="round"/>
<path d="M159.951 252.517L184.835 244.86" stroke="#7366FF" stroke-width="2.87125" stroke-linecap="round"/>
<path d="M630.645 129.237C635.612 127.429 638.466 122.742 637.02 118.768C635.574 114.795 630.375 113.039 625.408 114.847C620.441 116.655 617.587 121.341 619.033 125.315C620.479 129.289 625.678 131.044 630.645 129.237Z" fill="#66FCFF"/>
<path d="M31.7014 86.6174L31.0016 80.9177L35.5181 78.4346L30.535 77.1179L28.8852 71.5348L26.502 75.6845L20.6856 75.4344L24.1187 79.8342L22.802 84.8173L27.4351 83.2841L31.7014 86.6174Z" fill="#66E8FF"/>
<path d="M895.97 153.838L874.914 136.61" stroke="#FF7066" stroke-width="2.87125" stroke-linecap="round"/>
<path d="M844.381 239.408L840.617 241.446L836.148 239.485L837.637 244.033L834.108 247.404L838.891 247.248L840.929 251.012L842.341 247.327L846.889 245.838L843.753 243.642L844.381 239.408Z" fill="#FFA666"/>
<path d="M926.556 99.9905C929.375 94.9051 928.662 89.1207 924.963 87.0706C921.265 85.0205 915.982 87.4811 913.163 92.5665C910.344 97.6519 911.057 103.436 914.755 105.486C918.454 107.537 923.737 105.076 926.556 99.9905Z" fill="#66FFDE"/>
<path d="M963.921 119.562C964.05 115.864 962.442 112.807 960.329 112.733C958.216 112.659 956.398 115.597 956.269 119.295C956.14 122.993 957.748 126.05 959.861 126.124C961.974 126.198 963.792 123.26 963.921 119.562Z" fill="#FF66A3"/>
<path d="M809.901 239.461C809.68 236.298 807.363 233.882 804.727 234.067C802.09 234.251 800.132 236.965 800.353 240.129C800.575 243.293 802.891 245.708 805.528 245.524C808.164 245.339 810.122 242.625 809.901 239.461Z" fill="#66FF87"/>
<path d="M946.828 62.9372C945.639 68.0876 946.763 72.7447 949.338 73.3392C951.913 73.9338 954.965 70.2405 956.154 65.0902C957.343 59.9398 956.219 55.2827 953.644 54.6882C951.069 54.0936 948.017 57.7869 946.828 62.9372Z" fill="#FF6680"/>
<path d="M877.209 219.733C876.02 224.883 877.144 229.541 879.719 230.135C882.294 230.73 885.345 227.036 886.535 221.886C887.724 216.736 886.6 212.079 884.025 211.484C881.45 210.89 878.398 214.583 877.209 219.733Z" fill="#FF6680"/>
<path d="M909.845 258.241C911.235 261.091 914.288 262.463 916.663 261.304C919.039 260.146 919.837 256.896 918.447 254.045C917.057 251.195 914.004 249.823 911.629 250.982C909.253 252.14 908.455 255.39 909.845 258.241Z" fill="#66B5FF"/>
<path d="M724.708 13.3069L711.309 26.7061" stroke="#FF668F" stroke-width="2.87125" stroke-linecap="round"/>
<path d="M655.087 170.103L641.688 183.502" stroke="#FF668F" stroke-width="2.87125" stroke-linecap="round"/>
<path d="M216.434 80.2109L224.091 91.6959L211.649 99.3525L203.992 87.8675L216.434 80.2109Z" fill="#F566FF"/>
<path d="M58.2761 195.235L65.9327 206.72L53.4907 214.377L45.834 202.892L58.2761 195.235Z" fill="#F566FF"/>
<path d="M477.779 127.201L479.693 109.017L495.007 117.63L477.779 127.201Z" fill="#66E8FF"/>
<path d="M240.467 36.998V18.8135H252.909V36.998H240.467Z" fill="#7D66FF"/>
<path d="M82.3086 152.021V133.837H94.7507V152.021H82.3086Z" fill="#7D66FF"/>
<path d="M120.449 198.031V179.847H132.891V198.031H120.449Z" fill="#7D66FF"/>
<path d="M841.486 96.6947L836.7 107.223L820.43 100.523L826.172 89.0381L841.486 96.6947Z" fill="#FFE066"/>
<path d="M771.714 252.885L766.929 263.413L750.658 256.713L756.401 245.228L771.714 252.885Z" fill="#FFE066"/>
<path d="M835.598 121.788C832.491 117.511 827.892 115.556 825.326 117.42C822.76 119.284 823.199 124.262 826.306 128.538C829.413 132.815 834.012 134.77 836.577 132.906C839.143 131.042 838.705 126.064 835.598 121.788Z" fill="#66B5FF"/>
<path d="M1007.92 162.487L1001.22 176.843L990.695 166.315L1007.92 162.487Z" fill="#FF6966"/>
<path d="M731.438 57.1486L744.837 52.3632L749.622 67.6765L736.223 71.5049L731.438 57.1486Z" fill="#C266FF"/>
<path d="M661.666 213.945L675.065 209.159L679.851 224.472L666.451 228.301L661.666 213.945Z" fill="#C266FF"/>
<path d="M353.399 107.828L338.086 96.3431" stroke="#FF66DB" stroke-width="2.87125" stroke-linecap="round"/>
<path d="M414.565 29.1279L413.607 18.6L423.178 21.4713L414.565 29.1279Z" fill="#FF66E8"/>
<path d="M255.248 32.3172C252.093 32.6487 249.76 35.0482 250.037 37.6767C250.313 40.3051 253.094 42.1671 256.248 41.8356C259.402 41.5041 261.735 39.1046 261.459 36.4761C261.183 33.8477 258.402 31.9857 255.248 32.3172Z" fill="#66FFB0"/>
<path d="M865.379 40.7052H874.95V56.9756H865.379V40.7052Z" fill="#FF9966"/>
<path d="M275.05 138.982L279.329 144.398L276.348 150.474L282.993 148.607L288.477 153.408L288.727 146.445L294.757 143.373L288.681 140.392L286.814 133.748L282.013 139.232L275.05 138.982Z" fill="#66B5FF"/>
<path d="M84.826 165.945C89.2924 162.755 88.6543 160.841 82.9118 160.203C77.8074 160.203 77.4883 158.289 81.9547 154.46C85.7831 151.27 85.145 149.675 80.0406 149.675C74.298 149.037 73.66 147.123 78.1264 143.932" stroke="#AD66FF" stroke-width="2.87125" stroke-linecap="round"/>
<path d="M877.789 45.4736L912.244 35.9028" stroke="#9EFF66" stroke-width="2.87125" stroke-linecap="round"/>
<path d="M808.17 202.269L842.625 192.698" stroke="#9EFF66" stroke-width="2.87125" stroke-linecap="round"/>
<path d="M652.911 65.5669V75.1377H634.727V65.5669H652.911Z" fill="#667AFF"/>
<path d="M415.576 10.9837L432.804 5.24124L429.932 22.4688L415.576 10.9837Z" fill="#FF6680"/>
<path d="M730.377 219.825V210.254H749.519V219.825H730.377Z" fill="#66DEFF"/>
<path d="M89.1191 100.27L95.8187 83.9998L108.261 89.7423L100.604 106.013L89.1191 100.27Z" fill="#66FF7A"/>
<path d="M563.872 82.1664C564.065 78.4714 562.511 75.3863 560.399 75.2756C558.288 75.1649 556.419 78.0706 556.226 81.7657C556.032 85.4607 557.587 88.5458 559.698 88.6564C561.81 88.7671 563.678 85.8614 563.872 82.1664Z" fill="#E066FF"/>
<path d="M136.834 196.82L130.135 181.507L138.749 177.679L145.448 192.992L136.834 196.82Z" fill="#FF66A1"/>
<path d="M174.975 242.83L168.275 227.517L176.889 223.688L183.589 239.002L174.975 242.83Z" fill="#FF66A1"/>
<path d="M596.469 18.0497C596.727 21.7407 598.219 24.6433 599.801 24.5326C601.383 24.422 602.456 21.3402 602.198 17.6491C601.94 13.958 600.448 11.0555 598.866 11.1661C597.284 11.2767 596.211 14.3586 596.469 18.0497Z" fill="#8566FF"/>
<path d="M54.6846 183.421L50.8563 196.82L35.543 192.035L40.3284 178.636L54.6846 183.421Z" fill="#66FFE8"/>
<path d="M92.0712 6.70603L91.1141 24.8906L75.8008 16.2769L92.0712 6.70603Z" fill="#66FFD6"/>
<path d="M842.349 136.708V152.021H825.121V136.708H842.349Z" fill="#FF9466"/>
<path d="M858.721 81.7969L902.747 64.5694" stroke="#A866FF" stroke-width="2.87125" stroke-linecap="round"/>
<path d="M1016.57 200.568L978.285 210.139" stroke="#FF669E" stroke-width="2.87125" stroke-linecap="round"/>
<path d="M68.9055 154.141L65.5997 156.86L61.228 154.913L63.1683 159.968L60.7368 163.076L65.0127 162.884L67.3422 167.065L68.4143 162.304L73.0795 161.238L69.0971 158.417L68.9055 154.141Z" fill="#66FF8C"/>
<path d="M107.046 200.151L103.74 202.87L99.3687 200.923L101.309 205.978L98.8774 209.086L103.153 208.894L105.483 213.074L106.555 208.313L111.22 207.247L107.238 204.427L107.046 200.151Z" fill="#66FF8C"/>
<path d="M871.64 -15.3473C867.174 -10.8809 867.812 -7.05258 873.554 -3.8623C878.659 -0.672019 879.297 3.47534 875.468 8.57979C870.364 13.0462 870.683 16.8745 876.425 20.0648C882.168 22.617 882.806 26.4454 878.34 31.5498" stroke="#E8FF66" stroke-width="2.87125" stroke-linecap="round"/>
<path d="M801.869 141.448C797.402 145.914 798.04 149.742 803.783 152.933C808.887 156.123 809.525 160.27 805.697 165.375C800.592 169.841 800.911 173.669 806.654 176.86C812.396 179.412 813.035 183.24 808.568 188.345" stroke="#E8FF66" stroke-width="2.87125" stroke-linecap="round"/>
<path d="M236.531 7.31052H246.102V25.4951H236.531V7.31052Z" fill="#66F0FF"/>
<path d="M137.092 14.1088L144.749 21.7655L134.221 23.6797L137.092 14.1088Z" fill="#FF666E"/>
<path d="M32.5119 220.546L40.1685 228.203L29.6406 230.117L32.5119 220.546Z" fill="#FF666E"/>
<path d="M946.75 238.725L960.149 240.64L958.235 259.781L944.836 257.867L946.75 238.725Z" fill="#D9FF66"/>
<path d="M251.818 111.968L259.475 102.397L264.26 113.882L251.818 111.968Z" fill="#6682FF"/>
<path d="M93.6602 226.387L101.317 216.816L106.102 228.301L93.6602 226.387Z" fill="#6682FF"/>
<path d="M173.42 100.403L194.476 127.201" stroke="#667AFF" stroke-width="3.82834" stroke-linecap="round"/>
<path d="M15.2617 214.821L36.3176 241.619" stroke="#667AFF" stroke-width="3.82834" stroke-linecap="round"/>
<path d="M524.594 32.664C526.023 25.9425 524.666 19.9592 521.564 19.2998C518.462 18.6404 514.789 23.5547 513.36 30.2761C511.932 36.9975 513.288 42.9808 516.39 43.6402C519.493 44.2996 523.166 39.3854 524.594 32.664Z" fill="#669EFF"/>
<path d="M595.423 89.195L589.322 84.4715L589.307 77.7039L582.954 81.6436L575.505 79.6302L578.364 86.7974L573.64 92.899L581.355 93.0168L586.376 98.5549L588.389 91.1059L595.423 89.195Z" fill="#CC66FF"/>
<path d="M201.104 184.672L193.447 191.372L192.49 179.887L201.104 184.672Z" fill="#66F7FF"/>
<path d="M239.395 230.682L231.738 237.382L230.781 225.897L239.395 230.682Z" fill="#66F7FF"/>
<path d="M977.238 167.881L973.301 171.207L968.177 170.651L970.209 174.983L967.963 179.208L973.536 178.92L976.863 182.857L977.419 177.733L982.201 174.855L977.976 172.609L977.238 167.881Z" fill="#FF668A"/>
<path d="M712.887 52.3638C714.592 47.9226 713.974 43.5544 711.507 42.6073C709.039 41.6601 705.657 44.4927 703.952 48.934C702.247 53.3752 702.865 57.7434 705.333 58.6905C707.8 59.6377 711.182 56.8051 712.887 52.3638Z" fill="#FFF766"/>
<path d="M643.268 209.16C644.973 204.718 644.355 200.35 641.887 199.403C639.42 198.456 636.038 201.289 634.333 205.73C632.628 210.171 633.246 214.539 635.714 215.486C638.181 216.434 641.563 213.601 643.268 209.16Z" fill="#FFF766"/>
<path d="M885.517 177.662C882.346 177.662 879.775 179.376 879.775 181.49C879.775 183.604 882.346 185.318 885.517 185.318C888.689 185.318 891.26 183.604 891.26 181.49C891.26 179.376 888.689 177.662 885.517 177.662Z" fill="#66FFC9"/>
<path d="M220.74 118.604C216.273 121.157 216.592 122.752 221.697 123.39C226.801 124.666 227.12 126.58 222.654 129.132C217.549 131.046 217.549 132.642 222.654 133.918C227.758 134.556 228.077 136.151 223.611 138.703" stroke="#FF66FA" stroke-width="3.82834" stroke-linecap="round"/>
<path d="M258.88 164.614C254.414 167.166 254.733 168.761 259.837 169.4C264.942 170.676 265.261 172.59 260.795 175.142C255.69 177.056 255.69 178.651 260.795 179.927C265.899 180.566 266.218 182.161 261.752 184.713" stroke="#FF66FA" stroke-width="3.82834" stroke-linecap="round"/>
<path d="M967.778 57.0042C962.553 59.5531 960.007 65.0855 962.092 69.3613C964.178 73.6371 970.105 75.0371 975.331 72.4882C980.556 69.9393 983.102 64.4068 981.017 60.1311C978.932 55.8553 973.004 54.4553 967.778 57.0042Z" fill="#66FFD6"/>
<path d="M898.157 213.799C892.931 216.348 890.386 221.88 892.471 226.156C894.556 230.432 900.483 231.832 905.709 229.283C910.935 226.734 913.481 221.202 911.396 216.926C909.31 212.65 903.383 211.25 898.157 213.799Z" fill="#66FFD6"/>
<path d="M950.61 99.3525L932.426 94.5671L947.739 82.125L950.61 99.3525Z" fill="#66FFD9"/>
<path d="M880.839 256.148L862.654 251.363L877.968 238.921L880.839 256.148Z" fill="#66FFD9"/>
<path d="M414.984 167.464L421.9 168.307L424.689 173.679L426.627 167.558L433.244 166.51L428.714 162.382L429.706 156.411L424.334 159.2L418.063 156.317L419.111 162.934L414.984 167.464Z" fill="#EDFF66"/>
<path d="M192.492 180.459C189.24 175.639 184.473 173.169 181.844 174.942C179.215 176.716 179.719 182.061 182.97 186.881C186.222 191.702 190.989 194.172 193.618 192.398C196.247 190.625 195.743 185.279 192.492 180.459Z" fill="#CCFF66"/>
<path d="M230.632 226.469C227.381 221.648 222.614 219.178 219.985 220.952C217.355 222.725 217.86 228.071 221.111 232.891C224.362 237.711 229.13 240.181 231.759 238.408C234.388 236.634 233.884 231.289 230.632 226.469Z" fill="#CCFF66"/>
<path d="M9.04809 97.1426L7.28166 103.676L1.23205 105.826L7.53178 109.492L7.54861 117.208L12.9982 112.092L19.5312 113.858L16.4312 107.692L21.0475 101.509L14.1646 102.592L9.04809 97.1426Z" fill="#66FFF0"/>
</g>
<defs>
<clipPath id="clip0_4_57226">
<rect width="1016" height="250" fill="white" transform="translate(0 -0.00195312)"/>
</clipPath>
</defs>
</svg>
