<svg width="184" height="59" viewBox="0 0 184 59" fill="none" xmlns="http://www.w3.org/2000/svg">
<g clip-path="url(#clip0_943_893)">
<path d="M48.3703 19.1246C48.3152 18.9923 48.1866 18.9062 48.044 18.9062H42.924C42.7825 18.9062 42.6547 18.991 42.5989 19.1219L33.9549 39.3807C33.8546 39.6158 34.0259 39.8774 34.28 39.8774H39.0896C39.2354 39.8774 39.3663 39.7874 39.4193 39.6506L40.7043 36.3346C40.7573 36.1978 40.8882 36.1078 41.034 36.1078H49.5469C49.6936 36.1078 49.8251 36.1989 49.8775 36.3368L51.1353 39.6484C51.1877 39.7863 51.3191 39.8773 51.4658 39.8773H56.4871C56.74 39.8773 56.9112 39.6181 56.8134 39.3835L48.3703 19.1246ZM47.7083 31.9794H42.9098C42.6608 31.9794 42.4896 31.7273 42.5801 31.4938L45.0034 25.2404C45.121 24.937 45.5481 24.9384 45.6636 25.2426L48.0388 31.4961C48.1274 31.7292 47.9563 31.9794 47.7083 31.9794Z" fill="#695DFD"/>
<path d="M72.6818 33.3296C72.5748 33.1606 72.6238 32.9318 72.7963 32.8315C73.2132 32.5889 73.5969 32.3105 73.9454 31.9943C75.4511 30.6282 76.2047 28.7187 76.2047 26.2657C76.2047 23.9319 75.4511 22.1219 73.9454 20.8358C72.4393 19.5491 70.2987 18.906 67.5245 18.906H58.514C58.3186 18.906 58.1602 19.0654 58.1602 19.2621V39.521C58.1602 39.7177 58.3186 39.8771 58.514 39.8771H63.2466C63.442 39.8771 63.6004 39.7177 63.6004 39.521V34.3995C63.6004 34.2028 63.7589 34.0433 63.9543 34.0433H67.5245C67.5572 34.0433 67.5887 34.042 67.6212 34.0418L70.5759 39.687C70.6371 39.8039 70.7576 39.8771 70.889 39.8771H76.1839C76.4632 39.8771 76.6324 39.5666 76.4823 39.3296L72.6818 33.3296ZM70.1107 28.8982C69.4963 29.4568 68.6342 29.7359 67.5245 29.7359H63.9543C63.7589 29.7359 63.6004 29.5765 63.6004 29.3798V23.5701C63.6004 23.3735 63.7589 23.2141 63.9543 23.2141H67.5245C68.6342 23.2141 69.4963 23.4835 70.1107 24.0219C70.7247 24.5603 71.0321 25.3582 71.0321 26.4148C71.0321 27.5119 70.7247 28.34 70.1107 28.8982Z" fill="#695DFD"/>
<path d="M93.2203 29.1225C92.5662 28.6539 91.8528 28.2696 91.0797 27.9704C90.307 27.6716 89.5238 27.4122 88.7315 27.1928C87.9383 26.9734 87.2154 26.7545 86.5612 26.5345C85.9071 26.3151 85.3872 26.0411 85.0008 25.7119C84.614 25.3828 84.4211 24.9592 84.4211 24.4404C84.4211 23.9222 84.619 23.5385 85.0154 23.2887C85.4118 23.0395 85.9368 22.9146 86.5909 22.9146C87.1656 22.9146 87.8343 23.0096 88.5974 23.1987C89.3605 23.3889 90.1533 23.6477 90.9756 23.9768C91.6751 24.2568 92.3422 24.5835 92.9773 24.957C93.157 25.0627 93.3868 24.9955 93.4767 24.8066L95.2216 21.1419C95.3004 20.9765 95.2446 20.7755 95.0883 20.6812C94.0593 20.0603 92.8719 19.5484 91.5258 19.1456C90.0588 18.7067 88.5627 18.4873 87.037 18.4873C85.3721 18.4873 83.9107 18.7517 82.6522 19.28C81.3933 19.8084 80.4227 20.5566 79.7389 21.5238C79.0552 22.4914 78.7136 23.6229 78.7136 24.9192C78.7136 25.9961 78.9065 26.8934 79.2928 27.6114C79.6796 28.3293 80.1996 28.9127 80.8537 29.3617C81.5078 29.8101 82.2257 30.1797 83.0089 30.4684C83.7916 30.758 84.5743 31.0068 85.3576 31.2166C86.1403 31.4259 86.8587 31.6403 87.5128 31.8597C88.163 32.078 88.6859 32.3503 89.082 32.6772C89.4554 32.9852 89.6747 33.4316 89.6823 33.9174C89.6919 34.5335 89.4588 34.9997 88.9842 35.3148C88.518 35.6242 87.879 35.7784 87.0666 35.7784C86.3533 35.7784 85.5404 35.6439 84.6291 35.375C83.7173 35.1055 82.8155 34.7314 81.9238 34.2531C81.172 33.8495 80.4835 33.3895 79.8584 32.8724C79.6812 32.7258 79.4163 32.7766 79.3131 32.9828L77.5345 36.5375C77.4593 36.6879 77.4967 36.873 77.6277 36.978C78.4035 37.5997 79.2658 38.1418 80.2147 38.6056C81.2551 39.1142 82.3548 39.503 83.5143 39.7725C84.6738 40.0414 85.8378 40.1764 87.0074 40.1764C88.5532 40.1764 89.9599 39.9317 91.2284 39.4433C92.4964 38.9549 93.5072 38.2269 94.2608 37.2593C95.0133 36.2921 95.3901 35.101 95.3901 33.6844C95.3901 32.5878 95.1922 31.6701 94.7958 30.932C94.3989 30.1944 93.8744 29.5912 93.2203 29.1225Z" fill="#695DFD"/>
<path d="M120.939 18.906H115.598C115.463 18.906 115.34 18.9835 115.28 19.1057L109.372 31.2612L103.435 19.105C103.376 18.9832 103.252 18.906 103.118 18.906H97.7757C97.5803 18.906 97.4219 19.0654 97.4219 19.2621V39.521C97.4219 39.7177 97.5803 39.8771 97.7757 39.8771H101.914C102.109 39.8771 102.268 39.7177 102.268 39.521V28.0249C102.268 27.6452 102.779 27.5292 102.941 27.8722L107.523 37.5797C107.581 37.7039 107.706 37.783 107.842 37.783H110.902C111.039 37.783 111.164 37.7036 111.222 37.579L115.777 27.8734C115.938 27.5301 116.45 27.645 116.451 28.0247L116.476 39.5218C116.477 39.7182 116.635 39.8771 116.83 39.8771H120.939C121.135 39.8771 121.293 39.7177 121.293 39.521V19.2621C121.293 19.0655 121.135 18.906 120.939 18.906Z" fill="#695DFD"/>
<path d="M137.062 19.1246C137.007 18.9923 136.878 18.9062 136.736 18.9062H131.615C131.474 18.9062 131.346 18.991 131.29 19.1219L122.646 39.3807C122.546 39.6158 122.717 39.8774 122.971 39.8774H127.782C127.927 39.8774 128.058 39.7874 128.111 39.6506L129.396 36.3346C129.449 36.1978 129.58 36.1078 129.726 36.1078H138.239C138.386 36.1078 138.517 36.1989 138.569 36.3368L139.827 39.6484C139.88 39.7863 140.011 39.8773 140.158 39.8773H145.179C145.431 39.8773 145.603 39.6181 145.505 39.3835L137.062 19.1246ZM136.4 31.9794H131.602C131.353 31.9794 131.182 31.7273 131.272 31.4938L133.695 25.2404C133.813 24.937 134.24 24.9384 134.356 25.2426L136.731 31.4961C136.819 31.7292 136.648 31.9794 136.4 31.9794Z" fill="#695DFD"/>
<path d="M161.373 33.3296C161.266 33.1606 161.315 32.9318 161.488 32.8315C161.905 32.5889 162.288 32.3105 162.637 31.9943C164.142 30.6282 164.896 28.7187 164.896 26.2657C164.896 23.9319 164.142 22.1219 162.637 20.8358C161.131 19.5491 158.99 18.906 156.216 18.906H147.205C147.01 18.906 146.852 19.0654 146.852 19.2621V39.521C146.852 39.7177 147.01 39.8771 147.205 39.8771H151.938C152.133 39.8771 152.292 39.7177 152.292 39.521V34.3995C152.292 34.2028 152.45 34.0433 152.646 34.0433H156.216C156.249 34.0433 156.28 34.042 156.313 34.0418L159.267 39.687C159.329 39.8039 159.449 39.8771 159.58 39.8771H164.875C165.155 39.8771 165.324 39.5666 165.174 39.3296L161.373 33.3296ZM158.802 28.8982C158.188 29.4568 157.326 29.7359 156.216 29.7359H152.646C152.45 29.7359 152.292 29.5765 152.292 29.3798V23.5701C152.292 23.3735 152.45 23.2141 152.646 23.2141H156.216C157.326 23.2141 158.188 23.4835 158.802 24.0219C159.416 24.5603 159.724 25.3582 159.724 26.4148C159.724 27.5119 159.416 28.34 158.802 28.8982Z" fill="#695DFD"/>
<path d="M183.694 22.978V19.2623C183.694 19.0657 183.536 18.9062 183.34 18.9062H166.182C165.987 18.9062 165.828 19.0657 165.828 19.2623V22.978C165.828 23.1746 165.987 23.334 166.182 23.334H171.658C171.853 23.334 172.011 23.4935 172.011 23.6901V39.5213C172.011 39.7179 172.17 39.8773 172.365 39.8773H177.098C177.293 39.8773 177.452 39.7179 177.452 39.5213V23.6901C177.452 23.4935 177.61 23.334 177.806 23.334H183.34C183.536 23.334 183.694 23.1746 183.694 22.978Z" fill="#695DFD"/>
<path d="M34.8239 32.2137C34.8432 32.1502 34.859 32.0848 34.8748 32.0195H32.647C32.5207 32.0195 32.3786 32.0178 32.233 32.0178C31.7752 32.0178 31.2875 32.0213 31.1665 32.0337C30.4876 32.1043 29.9123 32.3197 29.4053 32.6921C29.1492 32.8793 28.951 33.1158 28.7598 33.3453C28.6738 33.4494 28.5844 33.5554 28.4914 33.656C27.8529 34.3409 26.9723 35.1212 25.5988 35.4566C25.2953 35.5307 24.9673 35.5837 24.613 35.6084C23.7131 35.6719 22.8904 35.5643 22.1344 35.2783C22.0344 35.2412 21.9361 35.2024 21.8379 35.1583C21.1398 34.844 20.4977 34.3744 19.9083 33.7407C19.3645 33.1581 18.9488 32.5226 18.6629 31.8377C18.6523 31.8147 18.6418 31.7901 18.6331 31.7653C18.3401 31.0045 18.191 30.1925 18.1857 29.3257V29.2869C18.1857 29.271 18.1857 29.2569 18.1875 29.241C18.191 29.0786 18.2015 28.9126 18.2156 28.7467C18.3085 27.6928 18.5804 27.0132 18.8348 26.4871C19.8206 24.4517 21.566 23.2018 23.6254 23.0553C23.7517 23.0465 23.8745 23.0412 23.9973 23.0394C24.5533 23.0306 25.0883 23.0924 25.5988 23.223C26.2479 23.3872 26.8548 23.6661 27.4196 24.0545C27.8652 24.3617 28.2301 24.7447 28.5826 25.1136C29.2703 25.8374 29.9211 26.5206 31.1244 26.63C31.2454 26.6424 31.7559 26.6424 32.2331 26.6389H34.8994C34.8801 26.5506 34.8573 26.4623 34.8327 26.3759C34.7064 25.8957 34.5433 25.4297 34.3486 24.9778C33.782 23.6644 32.9856 22.5187 31.9612 21.5372C30.935 20.5557 29.7422 19.7948 28.3792 19.2546C27.0162 18.7145 25.5181 18.4426 23.8868 18.4426C22.2747 18.4426 20.7837 18.7145 19.4101 19.2546C18.0366 19.7948 16.8368 20.5504 15.8124 21.5213C14.7879 22.494 13.9933 23.6397 13.425 24.9601C12.8584 26.2823 12.5742 27.7158 12.5742 29.2586C12.5742 30.8192 12.8584 32.2667 13.425 33.596C13.9934 34.9288 14.788 36.0903 15.8124 37.0824C16.8368 38.0728 18.0366 38.846 19.4101 39.395C20.7837 39.9458 22.2747 40.2211 23.8868 40.2211C25.5181 40.2211 27.0162 39.9458 28.3792 39.395C29.7422 38.846 30.935 38.0728 31.9612 37.0824C32.9856 36.0903 33.782 34.9288 34.3486 33.596C34.5398 33.1476 34.6994 32.6868 34.8239 32.2137Z" fill="#695DFD"/>
<path d="M8.77963 29.2409C8.77963 27.919 7.71092 26.8435 6.39739 26.8435H2.38224C1.06868 26.8435 0 27.919 0 29.2409C0 30.5627 1.06871 31.6382 2.38224 31.6382H6.39739C7.71094 31.6382 8.77963 30.5627 8.77963 29.2409Z" fill="#695DFD"/>
<path d="M5.67804 17.7299L8.7538 20.3275C9.18242 20.689 9.72592 20.888 10.2842 20.888C10.9907 20.888 11.6561 20.5759 12.11 20.0316C12.5191 19.5411 12.7137 18.9195 12.6582 18.2818C12.6029 17.6438 12.3038 17.0659 11.8163 16.6542L8.74052 14.0566C8.31203 13.695 7.7684 13.4958 7.2101 13.4958C6.50353 13.4958 5.83811 13.8081 5.38429 14.3525C4.54012 15.3651 4.67181 16.8803 5.67804 17.7299Z" fill="#695DFD"/>
<path d="M10.2841 37.594C9.72556 37.594 9.18206 37.7932 8.75383 38.155L5.67807 40.7523C4.67183 41.6018 4.54012 43.1171 5.38429 44.1297C5.83811 44.6741 6.50353 44.9864 7.20997 44.9864C7.76866 44.9864 8.31229 44.7872 8.74052 44.4251L11.8163 41.8281C12.3038 41.4165 12.6029 40.8384 12.6582 40.2002C12.7137 39.5625 12.5191 38.9411 12.11 38.4506C11.6562 37.9063 10.9908 37.594 10.2841 37.594Z" fill="#695DFD"/>
</g>
<defs>
<clipPath id="clip0_943_893">
<rect width="183.694" height="58.4821" fill="white"/>
</clipPath>
</defs>
</svg>
