<svg width="20" height="21" viewBox="0 0 20 21" fill="none" xmlns="http://www.w3.org/2000/svg">
<path d="M10 15.4822C11.3833 15.4822 12.5625 14.9947 13.5375 14.0197C14.5125 13.0447 15 11.8655 15 10.4822C15 9.09884 14.5125 7.91968 13.5375 6.94468C12.5625 5.96968 11.3833 5.48218 10 5.48218C8.61667 5.48218 7.4375 5.96968 6.4625 6.94468C5.4875 7.91968 5 9.09884 5 10.4822C5 11.8655 5.4875 13.0447 6.4625 14.0197C7.4375 14.9947 8.61667 15.4822 10 15.4822ZM10 20.4822C8.61667 20.4822 7.31667 20.2197 6.1 19.6947C4.88333 19.1697 3.825 18.4572 2.925 17.5572C2.025 16.6572 1.3125 15.5988 0.7875 14.3822C0.2625 13.1655 0 11.8655 0 10.4822C0 9.09884 0.2625 7.79884 0.7875 6.58218C1.3125 5.36551 2.025 4.30718 2.925 3.40718C3.825 2.50718 4.88333 1.79468 6.1 1.26968C7.31667 0.744678 8.61667 0.482178 10 0.482178C11.3833 0.482178 12.6833 0.744678 13.9 1.26968C15.1167 1.79468 16.175 2.50718 17.075 3.40718C17.975 4.30718 18.6875 5.36551 19.2125 6.58218C19.7375 7.79884 20 9.09884 20 10.4822C20 11.8655 19.7375 13.1655 19.2125 14.3822C18.6875 15.5988 17.975 16.6572 17.075 17.5572C16.175 18.4572 15.1167 19.1697 13.9 19.6947C12.6833 20.2197 11.3833 20.4822 10 20.4822ZM10 18.4822C12.2333 18.4822 14.125 17.7072 15.675 16.1572C17.225 14.6072 18 12.7155 18 10.4822C18 8.24884 17.225 6.35718 15.675 4.80718C14.125 3.25718 12.2333 2.48218 10 2.48218C7.76667 2.48218 5.875 3.25718 4.325 4.80718C2.775 6.35718 2 8.24884 2 10.4822C2 12.7155 2.775 14.6072 4.325 16.1572C5.875 17.7072 7.76667 18.4822 10 18.4822Z" fill="#675DF4"/>
</svg>
