<svg width="37" height="92" viewBox="0 0 37 92" fill="none" xmlns="http://www.w3.org/2000/svg">
<path d="M25.4922 45.7343C25.4922 42.0135 22.3891 38.9863 18.5752 38.9863H6.91698C3.103 38.9863 0 42.0136 0 45.7343C0 49.455 3.10307 52.4822 6.91698 52.4822H18.5752C22.3892 52.4822 25.4922 49.455 25.4922 45.7343Z" fill="#675DF4"/>
<path d="M16.6847 12.4522L25.5099 20.0928C26.7397 21.1562 28.2991 21.7414 29.901 21.7414C31.928 21.7414 33.8373 20.8236 35.1397 19.2225C36.3134 17.7796 36.872 15.9513 36.7125 14.0755C36.5538 12.1989 35.6958 10.4992 34.2969 9.28797L25.4718 1.64733C24.2423 0.583952 22.6825 -0.00195312 21.0806 -0.00195312C19.0533 -0.00195312 17.144 0.916637 15.8419 2.51771C13.4197 5.49628 13.7976 9.95326 16.6847 12.4522Z" fill="#675DF4"/>
<path d="M29.9007 69.7266C28.2981 69.7266 26.7386 70.3124 25.5099 71.3765L16.6848 79.0162C13.7976 81.5149 13.4197 85.9719 15.8419 88.9503C17.144 90.5514 19.0533 91.4699 21.0802 91.4699C22.6832 91.4699 24.243 90.884 25.4718 89.8192L34.2969 82.1803C35.6958 80.9699 36.5538 79.2694 36.7125 77.3922C36.872 75.5164 36.3134 73.689 35.1397 72.2461C33.8376 70.6451 31.9284 69.7266 29.9007 69.7266Z" fill="#675DF4"/>
</svg>
