<svg width="305" height="231" viewBox="0 0 305 231" fill="none" xmlns="http://www.w3.org/2000/svg">
<path d="M162.441 134.924C172.737 129.686 176.745 116.839 171.376 106.285L154.964 74.0264C149.595 63.4729 136.85 59.1483 126.555 64.3861C116.259 69.6239 112.251 82.4718 117.62 93.0251L134.032 125.284C139.401 135.838 152.146 140.162 162.441 134.924Z" fill="#99F22B"/>
<path d="M242.136 63.698L233.417 98.8737C232.206 103.774 232.782 108.913 235.037 113.345C237.891 118.954 243.118 122.945 249.382 124.295C255.027 125.511 260.872 124.483 265.838 121.401C270.807 118.32 274.303 113.553 275.685 107.977L284.403 72.8017C285.615 67.9028 285.04 62.7619 282.785 58.3294C279.931 52.7196 274.702 48.7298 268.438 47.3806C256.787 44.8715 244.986 52.1913 242.136 63.698Z" fill="#99F22B"/>
<path d="M102.26 180.897C100.004 176.463 96.1878 172.972 91.5137 171.07L57.9509 157.405C46.9724 152.934 34.1077 158.163 29.2759 169.058C26.6788 174.915 26.8249 181.491 29.6784 187.1C31.935 191.535 35.752 195.027 40.4282 196.927L73.9889 210.593C79.3074 212.76 85.2206 212.741 90.6385 210.537C96.0532 208.338 100.324 204.22 102.664 198.941C105.261 193.084 105.115 186.508 102.26 180.897Z" fill="#99F22B"/>
</svg>
