<svg width="26" height="63" viewBox="0 0 26 63" fill="none" xmlns="http://www.w3.org/2000/svg">
<path d="M17.4788 31.3592C17.4788 28.808 15.3512 26.7324 12.7362 26.7324H4.74266C2.12758 26.7324 0 28.8081 0 31.3592C0 33.9103 2.12763 35.9859 4.74266 35.9859H12.7362C15.3513 35.9859 17.4788 33.9103 17.4788 31.3592Z" fill="#99F22B"/>
<path d="M11.4416 8.53922L17.4926 13.7781C18.3358 14.5072 19.405 14.9084 20.5034 14.9084C21.8932 14.9084 23.2023 14.2791 24.0954 13.1813C24.9001 12.192 25.2831 10.9384 25.1737 9.65228C25.0649 8.3656 24.4766 7.20014 23.5174 6.36968L17.4665 1.13084C16.6235 0.401728 15.554 0 14.4556 0C13.0656 0 11.7565 0.629835 10.8637 1.72761C9.20294 3.76989 9.462 6.82584 11.4416 8.53922Z" fill="#99F22B"/>
<path d="M20.5032 47.8105C19.4043 47.8105 18.3351 48.2123 17.4926 48.9419L11.4416 54.18C9.46205 55.8933 9.20294 58.9492 10.8637 60.9914C11.7565 62.0892 13.0656 62.719 14.4554 62.719C15.5545 62.719 16.624 62.3173 17.4665 61.5871L23.5174 56.3495C24.4766 55.5196 25.0649 54.3537 25.1737 53.0665C25.2831 51.7804 24.9001 50.5274 24.0954 49.5381C23.2025 48.4404 21.8935 47.8105 20.5032 47.8105Z" fill="#99F22B"/>
</svg>
