<svg width="576" height="780" viewBox="0 0 576 780" fill="none" xmlns="http://www.w3.org/2000/svg">
<path fill-rule="evenodd" clip-rule="evenodd" d="M4.35006 18.6683C0.719727 25.7933 0.719727 35.1203 0.719727 53.7744V779.885H17.3736C17.3736 771.608 24.0842 764.897 32.3621 764.897C40.6401 764.897 47.3507 771.608 47.3507 779.885H60.6738C60.6738 771.608 67.3844 764.897 75.6623 764.897C83.9403 764.897 90.6509 771.608 90.6509 779.885H103.974C103.974 771.608 110.685 764.897 118.963 764.897C127.24 764.897 133.951 771.608 133.951 779.885H147.274C147.274 771.608 153.985 764.897 162.263 764.897C170.541 764.897 177.251 771.608 177.251 779.885H190.574C190.574 771.608 197.285 764.897 205.563 764.897C213.841 764.897 220.551 771.608 220.551 779.885H233.875C233.875 771.608 240.585 764.897 248.863 764.897C257.141 764.897 263.852 771.608 263.852 779.885H277.175C277.175 771.608 283.885 764.897 292.163 764.897C300.441 764.897 307.152 771.608 307.152 779.885H320.475C320.475 771.608 327.186 764.897 335.464 764.897C343.741 764.897 350.452 771.608 350.452 779.885H363.775C363.775 771.608 370.486 764.897 378.764 764.897C387.042 764.897 393.752 771.608 393.752 779.885H407.075C407.075 771.608 413.786 764.897 422.064 764.897C430.342 764.897 437.052 771.608 437.052 779.885H450.376C450.376 771.608 457.086 764.897 465.364 764.897C473.642 764.897 480.353 771.608 480.353 779.885H493.676C493.676 771.608 500.386 764.897 508.664 764.897C516.942 764.897 523.653 771.608 523.653 779.885H536.976C536.976 771.608 543.687 764.897 551.964 764.897C560.242 764.897 566.953 771.608 566.953 779.885H575.28V53.7745C575.28 35.1203 575.28 25.7933 571.65 18.6683C568.456 12.4011 563.361 7.30561 557.094 4.11227C549.969 0.481934 540.642 0.481934 521.987 0.481934H54.0123C35.3581 0.481934 26.0311 0.481934 18.9061 4.11227C12.6389 7.30561 7.5434 12.4011 4.35006 18.6683Z" fill="#1F204F"/>
</svg>
