<svg width="768" height="151" viewBox="0 0 768 151" fill="none" xmlns="http://www.w3.org/2000/svg">
<path d="M852.422 178.17C827.272 219.918 774.556 253.225 681.002 273.625C629.621 284.856 574.949 287.549 518.944 283.541C398.606 274.86 278.378 265.796 158.039 257.067C106.368 253.293 71.2262 240.272 45.4864 222.375C9.52012 197.404 -2.19983 170.004 0.765887 141.239C2.50525 124.447 10.1717 107.729 25.258 92.0185C53.403 62.6229 96.8295 43.7196 167.3 37.3614C281.487 27.0095 395.437 15.898 508.808 4.03107C628.099 -8.4298 733.439 13.8166 795.291 49.6784C829.028 69.2437 850.141 91.0544 858.175 115.163C862.772 128.069 867.966 152.973 852.422 178.17Z" fill="#695DFD"/>
</svg>
