<svg width="220" height="82" viewBox="0 0 220 82" fill="none" xmlns="http://www.w3.org/2000/svg">
<rect y="-0.00195312" width="220" height="69" rx="10" fill="white"/>
<rect x="109.729" y="55.998" width="18" height="18" rx="2" transform="rotate(45 109.729 55.998)" fill="white"/>
<rect x="15" y="16.998" width="34" height="34" rx="17" fill="#695DFD"/>
<g clip-path="url(#clip0_530_31380)">
<path d="M39.6303 40.8017H25.0894C23.9364 40.8004 23.002 39.866 23 38.7123V29.0874C23.0013 27.9338 23.9357 26.9994 25.0894 26.998H39.631C40.784 26.9994 41.7184 27.9338 41.7204 29.0874V38.7123C41.7191 39.8653 40.7847 40.7997 39.631 40.8017H39.6303ZM25.1089 39.5404H39.6115L34.9935 34.7885C34.4378 35.3603 33.9898 35.8211 33.7355 36.0855C32.97 36.8382 31.7417 36.8382 30.9761 36.0855C30.7192 35.8198 30.2752 35.3617 29.7256 34.7966L25.1089 39.5404ZM24.2613 29.1796V38.6034L28.8464 33.8918C27.3046 32.3063 25.7002 30.6575 24.2613 29.1803V29.1796ZM35.8733 33.8831L40.4584 38.6V29.1782C39.1157 30.5553 37.434 32.28 35.8733 33.8837V33.8831ZM30.1965 33.47C30.9452 34.2403 31.5614 34.8746 31.8829 35.2076C32.1453 35.4652 32.5657 35.4652 32.8274 35.2076C34.7392 33.2353 37.7017 30.1994 39.5927 28.2587H25.125C26.6991 29.8765 28.5659 31.7944 30.1965 33.47Z" fill="white"/>
</g>
<path d="M63.1227 20.4526H70.7727V21.8299H67.7455V29.998H66.1364V21.8299H63.1227V20.4526ZM75.8426 25.8526C75.8244 25.4435 75.7289 25.098 75.5562 24.8162C75.3926 24.5253 75.1608 24.3026 74.8608 24.148C74.5608 23.9844 74.2153 23.9026 73.8244 23.9026C73.388 23.9026 73.0062 24.0026 72.6789 24.2026C72.3608 24.4026 72.1108 24.6844 71.9289 25.048C71.7471 25.4026 71.6562 25.8208 71.6562 26.3026C71.6562 26.8208 71.7517 27.2708 71.9426 27.6526C72.1426 28.0344 72.4153 28.3299 72.7608 28.539C73.1153 28.748 73.5199 28.8526 73.9744 28.8526C74.7835 28.8526 75.4653 28.5662 76.0199 27.9935L76.8517 28.8253C76.4971 29.2162 76.0653 29.5208 75.5562 29.739C75.0471 29.948 74.4789 30.0526 73.8517 30.0526C73.1062 30.0526 72.4562 29.898 71.9017 29.589C71.3471 29.2799 70.9153 28.8526 70.6062 28.3071C70.2971 27.7526 70.1426 27.1117 70.1426 26.3844C70.1426 25.6571 70.2971 25.0208 70.6062 24.4753C70.9153 23.9208 71.3471 23.489 71.9017 23.1799C72.4562 22.8708 73.0926 22.7117 73.8108 22.7026C74.6653 22.7026 75.3517 22.8799 75.8699 23.2344C76.388 23.5799 76.7562 24.0708 76.9744 24.7071C77.1926 25.3435 77.2699 26.098 77.2062 26.9708H71.4108V25.8526H75.8426ZM82.7002 24.5162C82.382 24.3253 82.032 24.1753 81.6502 24.0662C81.2775 23.948 80.932 23.889 80.6138 23.889C80.3047 23.889 80.0502 23.948 79.8502 24.0662C79.6502 24.1844 79.5502 24.3799 79.5502 24.6526C79.5502 24.8799 79.6411 25.0617 79.8229 25.198C80.0138 25.3253 80.2547 25.4344 80.5456 25.5253C80.8365 25.6162 81.1456 25.7117 81.4729 25.8117C81.8002 25.9117 82.1093 26.0435 82.4002 26.2071C82.7002 26.3617 82.9411 26.5753 83.1229 26.848C83.3047 27.1208 83.3956 27.4799 83.3956 27.9253C83.3956 28.4162 83.2638 28.8208 83.0002 29.139C82.7456 29.448 82.4047 29.6799 81.9775 29.8344C81.5593 29.9799 81.1047 30.0526 80.6138 30.0526C80.0865 30.0526 79.5593 29.9662 79.032 29.7935C78.5047 29.6208 78.0593 29.3708 77.6956 29.0435L78.2547 27.9799C78.5729 28.2617 78.9593 28.4844 79.4138 28.648C79.8684 28.8026 80.2911 28.8799 80.682 28.8799C80.9093 28.8799 81.1093 28.8526 81.282 28.798C81.4638 28.7344 81.6047 28.6435 81.7047 28.5253C81.8138 28.4071 81.8684 28.2526 81.8684 28.0617C81.8684 27.8071 81.7775 27.6071 81.5956 27.4617C81.4138 27.3162 81.1775 27.198 80.8865 27.1071C80.5956 27.0071 80.2865 26.9117 79.9593 26.8208C79.632 26.7208 79.3229 26.5935 79.032 26.439C78.7502 26.2844 78.5184 26.0753 78.3365 25.8117C78.1547 25.548 78.0638 25.198 78.0638 24.7617C78.0638 24.2708 78.1911 23.8753 78.4456 23.5753C78.7002 23.2662 79.0275 23.0435 79.4275 22.9071C79.8365 22.7617 80.2729 22.689 80.7365 22.689C81.1911 22.689 81.6456 22.7526 82.1002 22.8799C82.5547 23.0071 82.9456 23.1844 83.2729 23.4117L82.7002 24.5162ZM84.7692 19.8799H86.3374V29.998H84.7692V19.8799ZM90.8227 26.7662C90.3136 26.7662 89.9363 26.8435 89.6908 26.998C89.4454 27.1526 89.3227 27.4071 89.3227 27.7617C89.3227 28.098 89.4454 28.3662 89.6908 28.5662C89.9454 28.7662 90.2908 28.8662 90.7272 28.8662C91.1181 28.8662 91.4681 28.798 91.7772 28.6617C92.0863 28.5253 92.3317 28.3435 92.5136 28.1162C92.6954 27.8799 92.7908 27.6162 92.7999 27.3253L93.0999 28.648C92.8727 29.1208 92.5272 29.4753 92.0636 29.7117C91.5999 29.948 91.0454 30.0662 90.3999 30.0662C89.8817 30.0662 89.4317 29.9662 89.0499 29.7662C88.6681 29.5662 88.3727 29.298 88.1636 28.9617C87.9545 28.6162 87.8499 28.2344 87.8499 27.8162C87.8499 27.1617 88.0863 26.639 88.559 26.248C89.0408 25.8571 89.7181 25.6571 90.5908 25.648H92.9908V26.7662H90.8227ZM92.7863 25.4026C92.7863 24.9299 92.6408 24.5617 92.3499 24.298C92.059 24.0344 91.6272 23.9026 91.0545 23.9026C90.709 23.9026 90.3545 23.9662 89.9908 24.0935C89.6363 24.2208 89.2772 24.4071 88.9136 24.6526L88.2727 23.6435C88.609 23.4344 88.9272 23.2617 89.2272 23.1253C89.5272 22.989 89.8454 22.8844 90.1817 22.8117C90.5272 22.739 90.9317 22.7026 91.3954 22.7026C92.3317 22.7026 93.0499 22.9299 93.5499 23.3844C94.059 23.8299 94.3181 24.448 94.3272 25.239L94.3408 29.998H92.7999L92.7863 25.4026ZM103.743 22.7026C104.434 22.7026 105.038 22.8571 105.556 23.1662C106.075 23.4753 106.479 23.9071 106.77 24.4617C107.061 25.0162 107.206 25.6617 107.206 26.398C107.206 27.1162 107.061 27.7526 106.77 28.3071C106.488 28.8526 106.088 29.2799 105.57 29.589C105.061 29.898 104.461 30.0526 103.77 30.0526C103.106 30.0526 102.538 29.9071 102.065 29.6162C101.602 29.3253 101.247 28.9071 101.002 28.3617C100.756 27.8071 100.634 27.1526 100.634 26.398C100.634 25.6162 100.756 24.9526 101.002 24.4071C101.247 23.8526 101.602 23.4299 102.065 23.139C102.538 22.848 103.097 22.7026 103.743 22.7026ZM103.415 23.9435C102.988 23.9435 102.606 24.048 102.27 24.2571C101.934 24.4662 101.67 24.7526 101.479 25.1162C101.297 25.4708 101.206 25.8844 101.206 26.3571C101.206 26.8299 101.297 27.2526 101.479 27.6253C101.67 27.989 101.934 28.2753 102.27 28.4844C102.606 28.6844 102.988 28.7844 103.415 28.7844C103.852 28.7844 104.234 28.6799 104.561 28.4708C104.897 28.2617 105.156 27.9753 105.338 27.6117C105.529 27.248 105.625 26.8299 105.625 26.3571C105.625 25.8935 105.529 25.4799 105.338 25.1162C105.156 24.7526 104.897 24.4662 104.561 24.2571C104.234 24.048 103.852 23.9435 103.415 23.9435ZM99.6381 22.7571H101.206V32.6435H99.6381V22.7571ZM112.643 24.1208C112.125 24.0935 111.675 24.1844 111.293 24.3935C110.92 24.5935 110.629 24.8753 110.42 25.239C110.22 25.6026 110.12 26.0208 110.12 26.4935L109.684 26.439C109.684 25.6299 109.802 24.948 110.038 24.3935C110.275 23.839 110.616 23.4208 111.061 23.139C111.507 22.848 112.034 22.7026 112.643 22.7026V24.1208ZM108.566 22.7571H110.134V29.998H108.566V22.7571ZM113.66 22.7571H115.214V29.998H113.66V22.7571ZM114.437 19.7708C114.701 19.7708 114.919 19.8571 115.091 20.0299C115.264 20.2026 115.351 20.4208 115.351 20.6844C115.351 20.939 115.264 21.1571 115.091 21.339C114.919 21.5117 114.701 21.598 114.437 21.598C114.182 21.598 113.964 21.5117 113.782 21.339C113.61 21.1571 113.523 20.939 113.523 20.6844C113.523 20.4208 113.61 20.2026 113.782 20.0299C113.964 19.8571 114.182 19.7708 114.437 19.7708ZM122.376 24.8299C122.121 24.5662 121.821 24.3617 121.476 24.2162C121.13 24.0708 120.739 23.998 120.303 23.998C119.885 23.998 119.512 24.098 119.185 24.298C118.858 24.498 118.603 24.7799 118.421 25.1435C118.239 25.498 118.148 25.9117 118.148 26.3844C118.148 26.8571 118.239 27.2753 118.421 27.639C118.603 27.9935 118.858 28.2753 119.185 28.4844C119.512 28.6844 119.885 28.7844 120.303 28.7844C120.758 28.7844 121.167 28.7117 121.53 28.5662C121.894 28.4117 122.198 28.189 122.444 27.898L123.317 28.7571C122.989 29.1662 122.562 29.4844 122.035 29.7117C121.517 29.939 120.917 30.0526 120.235 30.0526C119.517 30.0526 118.88 29.898 118.326 29.589C117.78 29.2799 117.353 28.8526 117.044 28.3071C116.735 27.7526 116.58 27.1117 116.58 26.3844C116.58 25.6571 116.735 25.0208 117.044 24.4753C117.353 23.9208 117.78 23.489 118.326 23.1799C118.88 22.8617 119.517 22.7026 120.235 22.7026C120.889 22.7026 121.467 22.8026 121.967 23.0026C122.476 23.1935 122.898 23.4662 123.235 23.8208L122.376 24.8299ZM129.412 25.8526C129.393 25.4435 129.298 25.098 129.125 24.8162C128.962 24.5253 128.73 24.3026 128.43 24.148C128.13 23.9844 127.784 23.9026 127.393 23.9026C126.957 23.9026 126.575 24.0026 126.248 24.2026C125.93 24.4026 125.68 24.6844 125.498 25.048C125.316 25.4026 125.225 25.8208 125.225 26.3026C125.225 26.8208 125.321 27.2708 125.512 27.6526C125.712 28.0344 125.984 28.3299 126.33 28.539C126.684 28.748 127.089 28.8526 127.543 28.8526C128.353 28.8526 129.034 28.5662 129.589 27.9935L130.421 28.8253C130.066 29.2162 129.634 29.5208 129.125 29.739C128.616 29.948 128.048 30.0526 127.421 30.0526C126.675 30.0526 126.025 29.898 125.471 29.589C124.916 29.2799 124.484 28.8526 124.175 28.3071C123.866 27.7526 123.712 27.1117 123.712 26.3844C123.712 25.6571 123.866 25.0208 124.175 24.4753C124.484 23.9208 124.916 23.489 125.471 23.1799C126.025 22.8708 126.662 22.7117 127.38 22.7026C128.234 22.7026 128.921 22.8799 129.439 23.2344C129.957 23.5799 130.325 24.0708 130.543 24.7071C130.762 25.3435 130.839 26.098 130.775 26.9708H124.98V25.8526H129.412ZM136.269 24.5162C135.951 24.3253 135.601 24.1753 135.219 24.0662C134.847 23.948 134.501 23.889 134.183 23.889C133.874 23.889 133.619 23.948 133.419 24.0662C133.219 24.1844 133.119 24.3799 133.119 24.6526C133.119 24.8799 133.21 25.0617 133.392 25.198C133.583 25.3253 133.824 25.4344 134.115 25.5253C134.406 25.6162 134.715 25.7117 135.042 25.8117C135.369 25.9117 135.678 26.0435 135.969 26.2071C136.269 26.3617 136.51 26.5753 136.692 26.848C136.874 27.1208 136.965 27.4799 136.965 27.9253C136.965 28.4162 136.833 28.8208 136.569 29.139C136.315 29.448 135.974 29.6799 135.547 29.8344C135.128 29.9799 134.674 30.0526 134.183 30.0526C133.656 30.0526 133.128 29.9662 132.601 29.7935C132.074 29.6208 131.628 29.3708 131.265 29.0435L131.824 27.9799C132.142 28.2617 132.528 28.4844 132.983 28.648C133.437 28.8026 133.86 28.8799 134.251 28.8799C134.478 28.8799 134.678 28.8526 134.851 28.798C135.033 28.7344 135.174 28.6435 135.274 28.5253C135.383 28.4071 135.437 28.2526 135.437 28.0617C135.437 27.8071 135.347 27.6071 135.165 27.4617C134.983 27.3162 134.747 27.198 134.456 27.1071C134.165 27.0071 133.856 26.9117 133.528 26.8208C133.201 26.7208 132.892 26.5935 132.601 26.439C132.319 26.2844 132.087 26.0753 131.906 25.8117C131.724 25.548 131.633 25.198 131.633 24.7617C131.633 24.2708 131.76 23.8753 132.015 23.5753C132.269 23.2662 132.597 23.0435 132.997 22.9071C133.406 22.7617 133.842 22.689 134.306 22.689C134.76 22.689 135.215 22.7526 135.669 22.8799C136.124 23.0071 136.515 23.1844 136.842 23.4117L136.269 24.5162ZM144.045 26.7662C143.536 26.7662 143.159 26.8435 142.914 26.998C142.668 27.1526 142.545 27.4071 142.545 27.7617C142.545 28.098 142.668 28.3662 142.914 28.5662C143.168 28.7662 143.514 28.8662 143.95 28.8662C144.341 28.8662 144.691 28.798 145 28.6617C145.309 28.5253 145.555 28.3435 145.736 28.1162C145.918 27.8799 146.014 27.6162 146.023 27.3253L146.323 28.648C146.095 29.1208 145.75 29.4753 145.286 29.7117C144.823 29.948 144.268 30.0662 143.623 30.0662C143.105 30.0662 142.655 29.9662 142.273 29.7662C141.891 29.5662 141.595 29.298 141.386 28.9617C141.177 28.6162 141.073 28.2344 141.073 27.8162C141.073 27.1617 141.309 26.639 141.782 26.248C142.264 25.8571 142.941 25.6571 143.814 25.648H146.214V26.7662H144.045ZM146.009 25.4026C146.009 24.9299 145.864 24.5617 145.573 24.298C145.282 24.0344 144.85 23.9026 144.277 23.9026C143.932 23.9026 143.577 23.9662 143.214 24.0935C142.859 24.2208 142.5 24.4071 142.136 24.6526L141.495 23.6435C141.832 23.4344 142.15 23.2617 142.45 23.1253C142.75 22.989 143.068 22.8844 143.405 22.8117C143.75 22.739 144.155 22.7026 144.618 22.7026C145.555 22.7026 146.273 22.9299 146.773 23.3844C147.282 23.8299 147.541 24.448 147.55 25.239L147.564 29.998H146.023L146.009 25.4026ZM153.467 24.1208C152.949 24.0935 152.499 24.1844 152.117 24.3935C151.745 24.5935 151.454 24.8753 151.245 25.239C151.045 25.6026 150.945 26.0208 150.945 26.4935L150.508 26.439C150.508 25.6299 150.626 24.948 150.863 24.3935C151.099 23.839 151.44 23.4208 151.886 23.139C152.331 22.848 152.858 22.7026 153.467 22.7026V24.1208ZM149.39 22.7571H150.958V29.998H149.39V22.7571ZM159.502 25.8526C159.484 25.4435 159.389 25.098 159.216 24.8162C159.052 24.5253 158.82 24.3026 158.52 24.148C158.22 23.9844 157.875 23.9026 157.484 23.9026C157.048 23.9026 156.666 24.0026 156.339 24.2026C156.02 24.4026 155.77 24.6844 155.589 25.048C155.407 25.4026 155.316 25.8208 155.316 26.3026C155.316 26.8208 155.411 27.2708 155.602 27.6526C155.802 28.0344 156.075 28.3299 156.42 28.539C156.775 28.748 157.179 28.8526 157.634 28.8526C158.443 28.8526 159.125 28.5662 159.679 27.9935L160.511 28.8253C160.157 29.2162 159.725 29.5208 159.216 29.739C158.707 29.948 158.139 30.0526 157.511 30.0526C156.766 30.0526 156.116 29.898 155.561 29.589C155.007 29.2799 154.575 28.8526 154.266 28.3071C153.957 27.7526 153.802 27.1117 153.802 26.3844C153.802 25.6571 153.957 25.0208 154.266 24.4753C154.575 23.9208 155.007 23.489 155.561 23.1799C156.116 22.8708 156.752 22.7117 157.47 22.7026C158.325 22.7026 159.011 22.8799 159.529 23.2344C160.048 23.5799 160.416 24.0708 160.634 24.7071C160.852 25.3435 160.929 26.098 160.866 26.9708H155.07V25.8526H159.502ZM66.9273 38.689C67.6 38.689 68.1682 38.839 68.6318 39.139C69.1045 39.4299 69.4636 39.8526 69.7091 40.4071C69.9636 40.9526 70.0864 41.6071 70.0773 42.3708C70.0864 43.1344 69.9682 43.7935 69.7227 44.348C69.4773 44.9026 69.1182 45.3299 68.6455 45.6299C68.1818 45.9208 67.6182 46.0662 66.9545 46.0662C66.2636 46.0662 65.6545 45.9117 65.1273 45.6026C64.6091 45.2844 64.2045 44.848 63.9136 44.2935C63.6227 43.7299 63.4773 43.0844 63.4773 42.3571C63.4773 41.6299 63.6227 40.9935 63.9136 40.448C64.2045 39.8935 64.6091 39.4617 65.1273 39.1526C65.6455 38.8435 66.2455 38.689 66.9273 38.689ZM67.2818 39.9571C66.8455 39.9571 66.4591 40.0617 66.1227 40.2708C65.7864 40.4799 65.5227 40.7708 65.3318 41.1435C65.15 41.5071 65.0545 41.9253 65.0455 42.398C65.0545 42.8708 65.15 43.289 65.3318 43.6526C65.5227 44.0162 65.7864 44.3026 66.1227 44.5117C66.4591 44.7208 66.8455 44.8253 67.2818 44.8253C67.7182 44.8253 68.1045 44.7208 68.4409 44.5117C68.7773 44.3026 69.0364 44.0162 69.2182 43.6526C69.4091 43.289 69.5045 42.8708 69.5045 42.398C69.5045 41.9162 69.4091 41.4935 69.2182 41.1299C69.0364 40.7662 68.7773 40.4799 68.4409 40.2708C68.1045 40.0617 67.7182 39.9571 67.2818 39.9571ZM69.5045 35.8799H71.0727V45.998H69.5045V35.8799ZM77.2587 40.1208C76.7406 40.0935 76.2906 40.1844 75.9087 40.3935C75.536 40.5935 75.2451 40.8753 75.036 41.239C74.836 41.6026 74.736 42.0208 74.736 42.4935L74.2996 42.439C74.2996 41.6299 74.4178 40.948 74.6542 40.3935C74.8906 39.839 75.2315 39.4208 75.6769 39.139C76.1224 38.848 76.6496 38.7026 77.2587 38.7026V40.1208ZM73.1815 38.7571H74.7496V45.998H73.1815V38.7571ZM81.3845 38.7026C82.1299 38.7026 82.7845 38.8571 83.3481 39.1662C83.9208 39.4753 84.3663 39.9071 84.6845 40.4617C85.0027 41.0071 85.1618 41.6435 85.1618 42.3708C85.1618 43.098 85.0027 43.739 84.6845 44.2935C84.3663 44.848 83.9208 45.2799 83.3481 45.589C82.7845 45.898 82.1299 46.0526 81.3845 46.0526C80.639 46.0526 79.9799 45.898 79.4072 45.589C78.8345 45.2799 78.389 44.848 78.0708 44.2935C77.7527 43.739 77.5936 43.098 77.5936 42.3708C77.5936 41.6435 77.7527 41.0071 78.0708 40.4617C78.389 39.9071 78.8345 39.4753 79.4072 39.1662C79.9799 38.8571 80.639 38.7026 81.3845 38.7026ZM81.3845 39.9708C80.9481 39.9708 80.5618 40.0753 80.2254 40.2844C79.889 40.4844 79.6254 40.7662 79.4345 41.1299C79.2527 41.4935 79.1618 41.9117 79.1618 42.3844C79.1618 42.8662 79.2527 43.289 79.4345 43.6526C79.6254 44.0162 79.889 44.3026 80.2254 44.5117C80.5618 44.7117 80.9481 44.8117 81.3845 44.8117C81.8208 44.8117 82.2027 44.7117 82.5299 44.5117C82.8663 44.3026 83.1254 44.0162 83.3072 43.6526C83.4981 43.289 83.5936 42.8662 83.5936 42.3844C83.5936 41.9117 83.4981 41.4935 83.3072 41.1299C83.1254 40.7662 82.8663 40.4844 82.5299 40.2844C82.2027 40.0753 81.8208 39.9708 81.3845 39.9708ZM90.6981 38.7026C91.389 38.7026 91.9936 38.8571 92.5118 39.1662C93.0299 39.4753 93.4345 39.9071 93.7254 40.4617C94.0163 41.0162 94.1618 41.6617 94.1618 42.398C94.1618 43.1162 94.0163 43.7526 93.7254 44.3071C93.4436 44.8526 93.0436 45.2799 92.5254 45.589C92.0163 45.898 91.4163 46.0526 90.7254 46.0526C90.0618 46.0526 89.4936 45.9071 89.0208 45.6162C88.5572 45.3253 88.2027 44.9071 87.9572 44.3617C87.7118 43.8071 87.589 43.1526 87.589 42.398C87.589 41.6162 87.7118 40.9526 87.9572 40.4071C88.2027 39.8526 88.5572 39.4299 89.0208 39.139C89.4936 38.848 90.0527 38.7026 90.6981 38.7026ZM90.3708 39.9435C89.9436 39.9435 89.5618 40.048 89.2254 40.2571C88.889 40.4662 88.6254 40.7526 88.4345 41.1162C88.2527 41.4708 88.1618 41.8844 88.1618 42.3571C88.1618 42.8299 88.2527 43.2526 88.4345 43.6253C88.6254 43.989 88.889 44.2753 89.2254 44.4844C89.5618 44.6844 89.9436 44.7844 90.3708 44.7844C90.8072 44.7844 91.189 44.6799 91.5163 44.4708C91.8527 44.2617 92.1118 43.9753 92.2936 43.6117C92.4845 43.248 92.5799 42.8299 92.5799 42.3571C92.5799 41.8935 92.4845 41.4799 92.2936 41.1162C92.1118 40.7526 91.8527 40.4662 91.5163 40.2571C91.189 40.048 90.8072 39.9435 90.3708 39.9435ZM86.5936 38.7571H88.1618V48.6435H86.5936V38.7571ZM99.6939 38.7026C100.385 38.7026 100.989 38.8571 101.507 39.1662C102.026 39.4753 102.43 39.9071 102.721 40.4617C103.012 41.0162 103.157 41.6617 103.157 42.398C103.157 43.1162 103.012 43.7526 102.721 44.3071C102.439 44.8526 102.039 45.2799 101.521 45.589C101.012 45.898 100.412 46.0526 99.7211 46.0526C99.0575 46.0526 98.4893 45.9071 98.0166 45.6162C97.5529 45.3253 97.1984 44.9071 96.9529 44.3617C96.7075 43.8071 96.5848 43.1526 96.5848 42.398C96.5848 41.6162 96.7075 40.9526 96.9529 40.4071C97.1984 39.8526 97.5529 39.4299 98.0166 39.139C98.4893 38.848 99.0484 38.7026 99.6939 38.7026ZM99.3666 39.9435C98.9393 39.9435 98.5575 40.048 98.2211 40.2571C97.8848 40.4662 97.6211 40.7526 97.4302 41.1162C97.2484 41.4708 97.1575 41.8844 97.1575 42.3571C97.1575 42.8299 97.2484 43.2526 97.4302 43.6253C97.6211 43.989 97.8848 44.2753 98.2211 44.4844C98.5575 44.6844 98.9393 44.7844 99.3666 44.7844C99.8029 44.7844 100.185 44.6799 100.512 44.4708C100.848 44.2617 101.107 43.9753 101.289 43.6117C101.48 43.248 101.576 42.8299 101.576 42.3571C101.576 41.8935 101.48 41.4799 101.289 41.1162C101.107 40.7526 100.848 40.4662 100.512 40.2571C100.185 40.048 99.8029 39.9435 99.3666 39.9435ZM95.5893 38.7571H97.1575V48.6435H95.5893V38.7571ZM104.517 38.7571H106.071V45.998H104.517V38.7571ZM105.294 35.7708C105.558 35.7708 105.776 35.8571 105.949 36.0299C106.121 36.2026 106.208 36.4208 106.208 36.6844C106.208 36.939 106.121 37.1571 105.949 37.339C105.776 37.5117 105.558 37.598 105.294 37.598C105.04 37.598 104.821 37.5117 104.64 37.339C104.467 37.1571 104.381 36.939 104.381 36.6844C104.381 36.4208 104.467 36.2026 104.64 36.0299C104.821 35.8571 105.04 35.7708 105.294 35.7708ZM113.492 41.9071C113.492 41.3435 113.338 40.9026 113.028 40.5844C112.719 40.2571 112.292 40.0935 111.747 40.0935C111.101 40.1026 110.592 40.3299 110.219 40.7753C109.856 41.2208 109.674 41.7753 109.674 42.439H109.238C109.238 41.539 109.365 40.8162 109.619 40.2708C109.874 39.7253 110.233 39.3299 110.697 39.0844C111.169 38.8299 111.724 38.7026 112.36 38.7026C112.924 38.7026 113.406 38.8162 113.806 39.0435C114.215 39.2708 114.524 39.5935 114.733 40.0117C114.951 40.4208 115.06 40.9162 115.06 41.498V45.998H113.492V41.9071ZM108.119 38.7571H109.688V45.998H108.119V38.7571ZM123.434 45.2753C123.434 45.9753 123.28 46.5799 122.97 47.089C122.661 47.598 122.225 47.989 121.661 48.2617C121.098 48.5435 120.434 48.6844 119.67 48.6844C119.107 48.6844 118.575 48.598 118.075 48.4253C117.575 48.2617 117.102 48.0299 116.657 47.7299L117.325 46.6526C117.67 46.9071 118.025 47.1026 118.389 47.239C118.752 47.3844 119.157 47.4571 119.602 47.4571C120.066 47.4571 120.466 47.3662 120.802 47.1844C121.148 47.0117 121.411 46.7662 121.593 46.448C121.784 46.1299 121.88 45.7526 121.88 45.3162V38.7571H123.434V45.2753ZM119.425 38.7026C120.061 38.6935 120.602 38.8299 121.048 39.1117C121.502 39.3844 121.848 39.7799 122.084 40.298C122.32 40.8162 122.434 41.439 122.425 42.1662C122.434 42.8935 122.32 43.5208 122.084 44.048C121.857 44.5662 121.52 44.9662 121.075 45.248C120.639 45.5208 120.107 45.6571 119.48 45.6571C118.825 45.6571 118.252 45.5117 117.761 45.2208C117.27 44.9208 116.889 44.5071 116.616 43.9799C116.343 43.4526 116.207 42.8435 116.207 42.1526C116.207 41.4708 116.339 40.8753 116.602 40.3662C116.875 39.848 117.252 39.4435 117.734 39.1526C118.225 38.8526 118.789 38.7026 119.425 38.7026ZM119.793 39.9026C119.384 39.9026 119.02 40.0026 118.702 40.2026C118.384 40.3935 118.134 40.6617 117.952 41.0071C117.78 41.3526 117.689 41.748 117.68 42.1935C117.689 42.639 117.78 43.0344 117.952 43.3799C118.134 43.7253 118.38 43.998 118.689 44.198C119.007 44.389 119.375 44.4844 119.793 44.4844C120.202 44.4844 120.561 44.389 120.87 44.198C121.189 43.998 121.434 43.7253 121.607 43.3799C121.789 43.0344 121.88 42.639 121.88 42.1935C121.88 41.739 121.789 41.3435 121.607 41.0071C121.434 40.6617 121.189 40.3935 120.87 40.2026C120.561 40.0026 120.202 39.9026 119.793 39.9026ZM125.666 44.389C125.911 44.389 126.116 44.4708 126.279 44.6344C126.443 44.789 126.525 44.9935 126.525 45.248C126.525 45.5026 126.443 45.7117 126.279 45.8753C126.116 46.039 125.911 46.1208 125.666 46.1208C125.42 46.1208 125.216 46.039 125.052 45.8753C124.888 45.7117 124.807 45.5026 124.807 45.248C124.807 44.9935 124.888 44.789 125.052 44.6344C125.216 44.4708 125.42 44.389 125.666 44.389Z" fill="#101044"/>
<defs>
<clipPath id="clip0_530_31380">
<rect width="18.7197" height="13.8037" fill="white" transform="translate(23 26.998)"/>
</clipPath>
</defs>
</svg>
