<svg width="901" height="133" viewBox="0 0 901 133" fill="none" xmlns="http://www.w3.org/2000/svg">
<path d="M1720.04 144.98C1668.69 180.194 1561.82 208.744 1372.68 227.086C1268.81 237.182 1158.41 240.195 1045.42 237.63C802.626 232.061 560.062 226.17 317.271 220.561C213.02 218.131 142.266 207.748 90.5578 193.162C18.3055 172.812 -4.96958 150.094 1.41863 126.031C5.16413 111.984 20.873 97.9158 51.5453 84.5858C108.769 59.645 196.693 43.2527 339.032 36.9591C569.673 26.72 799.846 15.8499 1028.86 4.35695C1269.83 -7.71463 1482.16 9.39209 1606.51 38.4761C1674.34 54.3438 1716.65 72.2627 1732.54 92.2836C1741.63 102.996 1751.77 123.721 1720.04 144.98Z" fill="#695DFD"/>
</svg>
