<svg width="155" height="82" viewBox="0 0 155 82" fill="none" xmlns="http://www.w3.org/2000/svg">
<rect y="-0.00195312" width="154" height="69" rx="10" fill="white"/>
<rect x="76.7285" y="55.998" width="18" height="18" rx="2" transform="rotate(45 76.7285 55.998)" fill="white"/>
<rect x="15" y="16.998" width="34" height="34" rx="17" fill="#695DFD"/>
<g clip-path="url(#clip0_530_31387)">
<path d="M34.7836 40.946C34.6874 42.6464 33.2551 43.9973 31.5 43.9973C29.7449 43.9973 28.3114 42.6464 28.2164 40.946H24.1972C22.9841 40.946 22 39.9828 22 38.7922C22 37.6016 22.9817 36.6383 24.1935 36.6383C24.1923 36.6383 24.1923 32.3306 24.1923 32.3306C24.1923 29.2961 26.124 26.6361 28.9423 25.6022V25.5077C28.9423 24.1209 30.0884 22.9961 31.5 22.9961C32.9116 22.9961 34.0577 24.1209 34.0577 25.5077V25.6022C36.876 26.6361 38.8077 29.2961 38.8077 32.3306V36.6383C40.0147 36.6383 41 37.6028 41 38.7922C41 39.9816 40.0171 40.946 38.8028 40.946H34.7836ZM33.3184 40.946H29.6816C29.7742 41.853 30.5524 42.5614 31.5 42.5614C32.4476 42.5614 33.2258 41.853 33.3184 40.946ZM29.8753 26.8108C27.3943 27.5132 25.6526 29.7532 25.6526 32.3294V36.6371C25.6526 37.4293 24.9974 38.073 24.1923 38.073C23.7879 38.073 23.4603 38.3961 23.4603 38.791C23.4603 39.1858 23.7892 39.5089 24.196 39.5089H38.8028C39.2084 39.5089 39.5385 39.1858 39.5385 38.791C39.5385 38.3961 39.2084 38.073 38.8065 38.073C38.0002 38.073 37.3462 37.4317 37.3462 36.6371V32.3294C37.3462 29.7532 35.6045 27.5132 33.1235 26.8108L32.5949 26.6612V25.5089C32.5949 24.9142 32.1041 24.4332 31.4988 24.4332C30.8935 24.4332 30.4026 24.9154 30.4026 25.5089V26.6612L29.874 26.8108H29.8753Z" fill="white"/>
</g>
<path d="M63.0818 20.4545H66.75V30H65.1409V21.1091L65.85 21.8182H63.0818V20.4545ZM72.6818 20.3864C73.9818 20.3864 74.9818 20.8045 75.6818 21.6409C76.3818 22.4773 76.7318 23.6727 76.7318 25.2273C76.7318 26.7818 76.3818 27.9773 75.6818 28.8136C74.9818 29.65 73.9818 30.0682 72.6818 30.0682C71.3727 30.0682 70.3682 29.65 69.6682 28.8136C68.9682 27.9773 68.6182 26.7818 68.6182 25.2273C68.6182 23.6727 68.9682 22.4773 69.6682 21.6409C70.3682 20.8045 71.3727 20.3864 72.6818 20.3864ZM72.6818 21.5864C71.8818 21.5864 71.2773 21.8864 70.8682 22.4864C70.4682 23.0773 70.2682 23.9909 70.2682 25.2273C70.2682 26.4545 70.4682 27.3682 70.8682 27.9682C71.2773 28.5682 71.8818 28.8682 72.6818 28.8682C73.4818 28.8682 74.0818 28.5682 74.4818 27.9682C74.8818 27.3682 75.0818 26.4545 75.0818 25.2273C75.0818 23.9909 74.8818 23.0773 74.4818 22.4864C74.0818 21.8864 73.4818 21.5864 72.6818 21.5864ZM80.6531 20.4545H82.3849L85.3304 28.3091L88.3031 20.4545H89.9804L86.1213 30H84.4577L80.6531 20.4545ZM89.7953 20.4545H91.5272L94.0908 28.9909H93.6817L96.2453 20.4545H97.8272L100.404 28.9909H99.9954L102.545 20.4545H104.209L100.977 30H99.3135L96.8044 21.75L97.2135 21.7636L94.6635 30H93.0135L89.7953 20.4545ZM115.718 22.8136C115.355 22.4682 114.927 22.2 114.436 22.0091C113.955 21.8091 113.464 21.7091 112.964 21.7091C112.473 21.7091 112.018 21.8 111.6 21.9818C111.182 22.1636 110.814 22.4136 110.495 22.7318C110.177 23.05 109.927 23.4227 109.745 23.85C109.573 24.2682 109.486 24.7227 109.486 25.2136C109.486 25.7045 109.573 26.1636 109.745 26.5909C109.927 27.0182 110.177 27.3955 110.495 27.7227C110.814 28.0409 111.182 28.2909 111.6 28.4727C112.027 28.6545 112.486 28.7455 112.977 28.7455C113.423 28.7455 113.882 28.6545 114.355 28.4727C114.836 28.2909 115.268 28.0455 115.65 27.7364L116.577 28.8545C116.259 29.1 115.891 29.3182 115.473 29.5091C115.064 29.7 114.636 29.85 114.191 29.9591C113.745 30.0591 113.305 30.1091 112.868 30.1091C112.159 30.1091 111.5 29.9864 110.891 29.7409C110.291 29.4864 109.759 29.1364 109.295 28.6909C108.841 28.2455 108.486 27.7273 108.232 27.1364C107.977 26.5364 107.85 25.8955 107.85 25.2136C107.85 24.5318 107.977 23.9 108.232 23.3182C108.495 22.7273 108.859 22.2091 109.323 21.7636C109.786 21.3182 110.327 20.9727 110.945 20.7273C111.573 20.4818 112.245 20.3591 112.964 20.3591C113.418 20.3591 113.864 20.4136 114.3 20.5227C114.745 20.6318 115.168 20.7864 115.568 20.9864C115.968 21.1864 116.323 21.4273 116.632 21.7091L115.718 22.8136ZM115.173 25.3364H116.577V28.8545H115.173V25.3364ZM121.596 22.7045C122.341 22.7045 122.996 22.8591 123.559 23.1682C124.132 23.4773 124.578 23.9091 124.896 24.4636C125.214 25.0091 125.373 25.6455 125.373 26.3727C125.373 27.1 125.214 27.7409 124.896 28.2955C124.578 28.85 124.132 29.2818 123.559 29.5909C122.996 29.9 122.341 30.0545 121.596 30.0545C120.85 30.0545 120.191 29.9 119.619 29.5909C119.046 29.2818 118.6 28.85 118.282 28.2955C117.964 27.7409 117.805 27.1 117.805 26.3727C117.805 25.6455 117.964 25.0091 118.282 24.4636C118.6 23.9091 119.046 23.4773 119.619 23.1682C120.191 22.8591 120.85 22.7045 121.596 22.7045ZM121.596 23.9727C121.159 23.9727 120.773 24.0773 120.437 24.2864C120.1 24.4864 119.837 24.7682 119.646 25.1318C119.464 25.4955 119.373 25.9136 119.373 26.3864C119.373 26.8682 119.464 27.2909 119.646 27.6545C119.837 28.0182 120.1 28.3045 120.437 28.5136C120.773 28.7136 121.159 28.8136 121.596 28.8136C122.032 28.8136 122.414 28.7136 122.741 28.5136C123.078 28.3045 123.337 28.0182 123.519 27.6545C123.709 27.2909 123.805 26.8682 123.805 26.3864C123.805 25.9136 123.709 25.4955 123.519 25.1318C123.337 24.7682 123.078 24.4864 122.741 24.2864C122.414 24.0773 122.032 23.9727 121.596 23.9727ZM126.805 19.8818H128.373V30H126.805V19.8818ZM130.786 22.3091C130.786 21.7364 130.904 21.2682 131.14 20.9045C131.386 20.5318 131.699 20.2591 132.081 20.0864C132.463 19.9045 132.863 19.8136 133.281 19.8136C133.499 19.8136 133.717 19.8455 133.936 19.9091C134.163 19.9636 134.372 20.0409 134.563 20.1409L134.236 21.3409C134.108 21.2864 133.963 21.2364 133.799 21.1909C133.645 21.1364 133.486 21.1091 133.322 21.1091C133.149 21.1091 132.986 21.1455 132.831 21.2182C132.686 21.2818 132.567 21.3909 132.477 21.5455C132.386 21.6909 132.34 21.8818 132.34 22.1182V30H130.786V22.3091ZM129.831 23.0182H134.236V24.1364H129.831V23.0182ZM139.192 24.5182C138.874 24.3273 138.524 24.1773 138.142 24.0682C137.769 23.95 137.424 23.8909 137.106 23.8909C136.797 23.8909 136.542 23.95 136.342 24.0682C136.142 24.1864 136.042 24.3818 136.042 24.6545C136.042 24.8818 136.133 25.0636 136.315 25.2C136.506 25.3273 136.747 25.4364 137.037 25.5273C137.328 25.6182 137.637 25.7136 137.965 25.8136C138.292 25.9136 138.601 26.0455 138.892 26.2091C139.192 26.3636 139.433 26.5773 139.615 26.85C139.797 27.1227 139.887 27.4818 139.887 27.9273C139.887 28.4182 139.756 28.8227 139.492 29.1409C139.237 29.45 138.897 29.6818 138.469 29.8364C138.051 29.9818 137.597 30.0545 137.106 30.0545C136.578 30.0545 136.051 29.9682 135.524 29.7955C134.997 29.6227 134.551 29.3727 134.187 29.0455L134.747 27.9818C135.065 28.2636 135.451 28.4864 135.906 28.65C136.36 28.8045 136.783 28.8818 137.174 28.8818C137.401 28.8818 137.601 28.8545 137.774 28.8C137.956 28.7364 138.097 28.6455 138.197 28.5273C138.306 28.4091 138.36 28.2545 138.36 28.0636C138.36 27.8091 138.269 27.6091 138.087 27.4636C137.906 27.3182 137.669 27.2 137.378 27.1091C137.087 27.0091 136.778 26.9136 136.451 26.8227C136.124 26.7227 135.815 26.5955 135.524 26.4409C135.242 26.2864 135.01 26.0773 134.828 25.8136C134.647 25.55 134.556 25.2 134.556 24.7636C134.556 24.2727 134.683 23.8773 134.937 23.5773C135.192 23.2682 135.519 23.0455 135.919 22.9091C136.328 22.7636 136.765 22.6909 137.228 22.6909C137.683 22.6909 138.137 22.7545 138.592 22.8818C139.047 23.0091 139.437 23.1864 139.765 23.4136L139.192 24.5182ZM68.2909 40.5182C67.9727 40.3273 67.6227 40.1773 67.2409 40.0682C66.8682 39.95 66.5227 39.8909 66.2045 39.8909C65.8955 39.8909 65.6409 39.95 65.4409 40.0682C65.2409 40.1864 65.1409 40.3818 65.1409 40.6545C65.1409 40.8818 65.2318 41.0636 65.4136 41.2C65.6045 41.3273 65.8455 41.4364 66.1364 41.5273C66.4273 41.6182 66.7364 41.7136 67.0636 41.8136C67.3909 41.9136 67.7 42.0455 67.9909 42.2091C68.2909 42.3636 68.5318 42.5773 68.7136 42.85C68.8955 43.1227 68.9864 43.4818 68.9864 43.9273C68.9864 44.4182 68.8545 44.8227 68.5909 45.1409C68.3364 45.45 67.9955 45.6818 67.5682 45.8364C67.15 45.9818 66.6955 46.0545 66.2045 46.0545C65.6773 46.0545 65.15 45.9682 64.6227 45.7955C64.0955 45.6227 63.65 45.3727 63.2864 45.0455L63.8455 43.9818C64.1636 44.2636 64.55 44.4864 65.0045 44.65C65.4591 44.8045 65.8818 44.8818 66.2727 44.8818C66.5 44.8818 66.7 44.8545 66.8727 44.8C67.0545 44.7364 67.1955 44.6455 67.2955 44.5273C67.4045 44.4091 67.4591 44.2545 67.4591 44.0636C67.4591 43.8091 67.3682 43.6091 67.1864 43.4636C67.0045 43.3182 66.7682 43.2 66.4773 43.1091C66.1864 43.0091 65.8773 42.9136 65.55 42.8227C65.2227 42.7227 64.9136 42.5955 64.6227 42.4409C64.3409 42.2864 64.1091 42.0773 63.9273 41.8136C63.7455 41.55 63.6545 41.2 63.6545 40.7636C63.6545 40.2727 63.7818 39.8773 64.0364 39.5773C64.2909 39.2682 64.6182 39.0455 65.0182 38.9091C65.4273 38.7636 65.8636 38.6909 66.3273 38.6909C66.7818 38.6909 67.2364 38.7545 67.6909 38.8818C68.1455 39.0091 68.5364 39.1864 68.8636 39.4136L68.2909 40.5182ZM73.4008 38.7045C74.1463 38.7045 74.8008 38.8591 75.3645 39.1682C75.9372 39.4773 76.3826 39.9091 76.7008 40.4636C77.019 41.0091 77.1781 41.6455 77.1781 42.3727C77.1781 43.1 77.019 43.7409 76.7008 44.2955C76.3826 44.85 75.9372 45.2818 75.3645 45.5909C74.8008 45.9 74.1463 46.0545 73.4008 46.0545C72.6554 46.0545 71.9963 45.9 71.4235 45.5909C70.8508 45.2818 70.4054 44.85 70.0872 44.2955C69.769 43.7409 69.6099 43.1 69.6099 42.3727C69.6099 41.6455 69.769 41.0091 70.0872 40.4636C70.4054 39.9091 70.8508 39.4773 71.4235 39.1682C71.9963 38.8591 72.6554 38.7045 73.4008 38.7045ZM73.4008 39.9727C72.9645 39.9727 72.5781 40.0773 72.2417 40.2864C71.9054 40.4864 71.6417 40.7682 71.4508 41.1318C71.269 41.4955 71.1781 41.9136 71.1781 42.3864C71.1781 42.8682 71.269 43.2909 71.4508 43.6545C71.6417 44.0182 71.9054 44.3045 72.2417 44.5136C72.5781 44.7136 72.9645 44.8136 73.4008 44.8136C73.8372 44.8136 74.219 44.7136 74.5463 44.5136C74.8826 44.3045 75.1417 44.0182 75.3235 43.6545C75.5145 43.2909 75.6099 42.8682 75.6099 42.3864C75.6099 41.9136 75.5145 41.4955 75.3235 41.1318C75.1417 40.7682 74.8826 40.4864 74.5463 40.2864C74.219 40.0773 73.8372 39.9727 73.4008 39.9727ZM78.6099 35.8818H80.1781V46H78.6099V35.8818ZM85.0588 38.6909C85.7316 38.6909 86.2998 38.8409 86.7634 39.1409C87.2361 39.4318 87.5952 39.8545 87.8407 40.4091C88.0952 40.9545 88.2179 41.6091 88.2088 42.3727C88.2179 43.1364 88.0998 43.7955 87.8543 44.35C87.6088 44.9045 87.2498 45.3318 86.777 45.6318C86.3134 45.9227 85.7498 46.0682 85.0861 46.0682C84.3952 46.0682 83.7861 45.9136 83.2588 45.6045C82.7407 45.2864 82.3361 44.85 82.0452 44.2955C81.7543 43.7318 81.6088 43.0864 81.6088 42.3591C81.6088 41.6318 81.7543 40.9955 82.0452 40.45C82.3361 39.8955 82.7407 39.4636 83.2588 39.1545C83.777 38.8455 84.377 38.6909 85.0588 38.6909ZM85.4134 39.9591C84.977 39.9591 84.5907 40.0636 84.2543 40.2727C83.9179 40.4818 83.6543 40.7727 83.4634 41.1455C83.2816 41.5091 83.1861 41.9273 83.177 42.4C83.1861 42.8727 83.2816 43.2909 83.4634 43.6545C83.6543 44.0182 83.9179 44.3045 84.2543 44.5136C84.5907 44.7227 84.977 44.8273 85.4134 44.8273C85.8498 44.8273 86.2361 44.7227 86.5725 44.5136C86.9088 44.3045 87.1679 44.0182 87.3498 43.6545C87.5407 43.2909 87.6361 42.8727 87.6361 42.4C87.6361 41.9182 87.5407 41.4955 87.3498 41.1318C87.1679 40.7682 86.9088 40.4818 86.5725 40.2727C86.2361 40.0636 85.8498 39.9591 85.4134 39.9591ZM87.6361 35.8818H89.2043V46H87.6361V35.8818ZM96.5566 43.7091C96.5566 44.1 96.6248 44.3682 96.7612 44.5136C96.8976 44.65 97.0885 44.7182 97.3339 44.7182C97.4976 44.7182 97.6657 44.6909 97.8385 44.6364C98.0203 44.5818 98.2157 44.5 98.4248 44.3909L98.8203 45.5227C98.5385 45.6955 98.2476 45.8318 97.9476 45.9318C97.6476 46.0227 97.343 46.0682 97.0339 46.0682C96.6703 46.0682 96.3339 46 96.0248 45.8636C95.7157 45.7182 95.4657 45.4909 95.2748 45.1818C95.093 44.8727 95.0021 44.4727 95.0021 43.9818V37.0409H96.5566V43.7091ZM93.9794 39.0182H98.6976V40.1364H93.9794V39.0182ZM103.025 38.7045C103.771 38.7045 104.425 38.8591 104.989 39.1682C105.562 39.4773 106.007 39.9091 106.325 40.4636C106.643 41.0091 106.803 41.6455 106.803 42.3727C106.803 43.1 106.643 43.7409 106.325 44.2955C106.007 44.85 105.562 45.2818 104.989 45.5909C104.425 45.9 103.771 46.0545 103.025 46.0545C102.28 46.0545 101.621 45.9 101.048 45.5909C100.475 45.2818 100.03 44.85 99.7116 44.2955C99.3935 43.7409 99.2344 43.1 99.2344 42.3727C99.2344 41.6455 99.3935 41.0091 99.7116 40.4636C100.03 39.9091 100.475 39.4773 101.048 39.1682C101.621 38.8591 102.28 38.7045 103.025 38.7045ZM103.025 39.9727C102.589 39.9727 102.203 40.0773 101.866 40.2864C101.53 40.4864 101.266 40.7682 101.075 41.1318C100.893 41.4955 100.803 41.9136 100.803 42.3864C100.803 42.8682 100.893 43.2909 101.075 43.6545C101.266 44.0182 101.53 44.3045 101.866 44.5136C102.203 44.7136 102.589 44.8136 103.025 44.8136C103.462 44.8136 103.843 44.7136 104.171 44.5136C104.507 44.3045 104.766 44.0182 104.948 43.6545C105.139 43.2909 105.234 42.8682 105.234 42.3864C105.234 41.9136 105.139 41.4955 104.948 41.1318C104.766 40.7682 104.507 40.4864 104.171 40.2864C103.843 40.0773 103.462 39.9727 103.025 39.9727ZM110.934 38.6909C111.607 38.6909 112.175 38.8409 112.639 39.1409C113.112 39.4318 113.471 39.8545 113.716 40.4091C113.971 40.9545 114.093 41.6091 114.084 42.3727C114.093 43.1364 113.975 43.7955 113.73 44.35C113.484 44.9045 113.125 45.3318 112.653 45.6318C112.189 45.9227 111.625 46.0682 110.962 46.0682C110.271 46.0682 109.662 45.9136 109.134 45.6045C108.616 45.2864 108.212 44.85 107.921 44.2955C107.63 43.7318 107.484 43.0864 107.484 42.3591C107.484 41.6318 107.63 40.9955 107.921 40.45C108.212 39.8955 108.616 39.4636 109.134 39.1545C109.653 38.8455 110.253 38.6909 110.934 38.6909ZM111.289 39.9591C110.853 39.9591 110.466 40.0636 110.13 40.2727C109.793 40.4818 109.53 40.7727 109.339 41.1455C109.157 41.5091 109.062 41.9273 109.053 42.4C109.062 42.8727 109.157 43.2909 109.339 43.6545C109.53 44.0182 109.793 44.3045 110.13 44.5136C110.466 44.7227 110.853 44.8273 111.289 44.8273C111.725 44.8273 112.112 44.7227 112.448 44.5136C112.784 44.3045 113.043 44.0182 113.225 43.6545C113.416 43.2909 113.512 42.8727 113.512 42.4C113.512 41.9182 113.416 41.4955 113.225 41.1318C113.043 40.7682 112.784 40.4818 112.448 40.2727C112.112 40.0636 111.725 39.9591 111.289 39.9591ZM113.512 35.8818H115.08V46H113.512V35.8818ZM119.561 42.7682C119.052 42.7682 118.675 42.8455 118.429 43C118.184 43.1545 118.061 43.4091 118.061 43.7636C118.061 44.1 118.184 44.3682 118.429 44.5682C118.684 44.7682 119.029 44.8682 119.466 44.8682C119.857 44.8682 120.207 44.8 120.516 44.6636C120.825 44.5273 121.07 44.3455 121.252 44.1182C121.434 43.8818 121.529 43.6182 121.539 43.3273L121.839 44.65C121.611 45.1227 121.266 45.4773 120.802 45.7136C120.339 45.95 119.784 46.0682 119.139 46.0682C118.62 46.0682 118.17 45.9682 117.789 45.7682C117.407 45.5682 117.111 45.3 116.902 44.9636C116.693 44.6182 116.589 44.2364 116.589 43.8182C116.589 43.1636 116.825 42.6409 117.298 42.25C117.779 41.8591 118.457 41.6591 119.329 41.65H121.729V42.7682H119.561ZM121.525 41.4045C121.525 40.9318 121.379 40.5636 121.089 40.3C120.798 40.0364 120.366 39.9045 119.793 39.9045C119.448 39.9045 119.093 39.9682 118.729 40.0955C118.375 40.2227 118.016 40.4091 117.652 40.6545L117.011 39.6455C117.348 39.4364 117.666 39.2636 117.966 39.1273C118.266 38.9909 118.584 38.8864 118.92 38.8136C119.266 38.7409 119.67 38.7045 120.134 38.7045C121.07 38.7045 121.789 38.9318 122.289 39.3864C122.798 39.8318 123.057 40.45 123.066 41.2409L123.079 46H121.539L121.525 41.4045ZM127.543 47.0227C127.316 47.5773 127.002 47.9955 126.602 48.2773C126.202 48.5682 125.729 48.7136 125.184 48.7136C124.856 48.7136 124.556 48.6636 124.284 48.5636C124.02 48.4636 123.761 48.3136 123.506 48.1136L124.175 46.9545C124.502 47.1909 124.816 47.3091 125.116 47.3091C125.352 47.3091 125.566 47.2409 125.756 47.1045C125.947 46.9682 126.102 46.7591 126.22 46.4773L126.466 45.9045L123.466 38.7591H125.088L127.256 44.35L129.275 38.7591H130.843L127.543 47.0227ZM131.392 36.5773H132.892V38.9227L132.633 43H131.651L131.392 38.9227V36.5773ZM132.142 44.3909C132.387 44.3909 132.592 44.4727 132.755 44.6364C132.919 44.7909 133.001 44.9955 133.001 45.25C133.001 45.5045 132.919 45.7136 132.755 45.8773C132.592 46.0409 132.387 46.1227 132.142 46.1227C131.896 46.1227 131.692 46.0409 131.528 45.8773C131.364 45.7136 131.283 45.5045 131.283 45.25C131.283 44.9955 131.364 44.7909 131.528 44.6364C131.692 44.4727 131.896 44.3909 132.142 44.3909Z" fill="#101044"/>
<defs>
<clipPath id="clip0_530_31387">
<rect width="19" height="21" fill="white" transform="translate(22 22.998)"/>
</clipPath>
</defs>
</svg>
