<svg width="779" height="217" viewBox="0 0 779 217" fill="none" xmlns="http://www.w3.org/2000/svg">
<path d="M862.899 210.874C837.53 260.142 784.247 299.383 689.608 323.295C637.632 336.46 582.307 339.533 525.621 334.686C403.818 324.19 282.126 313.243 160.323 302.691C108.022 298.129 72.432 282.676 46.3469 261.483C9.89816 231.912 -2.01748 199.519 0.926445 165.544C2.65318 145.71 10.3785 125.975 25.6148 107.446C54.0396 72.7764 97.9506 50.5318 169.256 43.1615C284.796 31.1604 400.094 18.2616 514.805 4.46914C635.506 -10.0131 742.157 16.4779 804.824 58.9665C839.006 82.1472 860.417 107.955 868.596 136.452C873.274 151.707 878.58 181.138 862.899 210.874Z" fill="#695DFD"/>
</svg>
