<svg width="16" height="17" viewBox="0 0 16 17" fill="none" xmlns="http://www.w3.org/2000/svg">
<path fill-rule="evenodd" clip-rule="evenodd" d="M6.66667 2.48242C4.08934 2.48242 2 4.57176 2 7.14909C2 9.72642 4.08934 11.8158 6.66667 11.8158C7.71489 11.8158 8.68239 11.4702 9.46145 10.8867L12.1953 13.6205C12.4557 13.8809 12.8778 13.8809 13.1381 13.6205C13.3985 13.3602 13.3985 12.9381 13.1381 12.6777L10.4043 9.94387C10.9877 9.16481 11.3333 8.19731 11.3333 7.14909C11.3333 4.57176 9.244 2.48242 6.66667 2.48242ZM3.33333 7.14909C3.33333 5.30814 4.82572 3.81576 6.66667 3.81576C8.50762 3.81576 10 5.30814 10 7.14909C10 8.99004 8.50762 10.4824 6.66667 10.4824C4.82572 10.4824 3.33333 8.99004 3.33333 7.14909Z" fill="white"/>
</svg>
