<svg width="24" height="25" viewBox="0 0 24 25" fill="none" xmlns="http://www.w3.org/2000/svg">
<path d="M19.6 21.4822L13.3 15.1822C12.8 15.5822 12.225 15.8988 11.575 16.1322C10.925 16.3655 10.2333 16.4822 9.5 16.4822C7.68333 16.4822 6.14583 15.853 4.8875 14.5947C3.62917 13.3363 3 11.7988 3 9.98218C3 8.16551 3.62917 6.62801 4.8875 5.36968C6.14583 4.11134 7.68333 3.48218 9.5 3.48218C11.3167 3.48218 12.8542 4.11134 14.1125 5.36968C15.3708 6.62801 16 8.16551 16 9.98218C16 10.7155 15.8833 11.4072 15.65 12.0572C15.4167 12.7072 15.1 13.2822 14.7 13.7822L21 20.0822L19.6 21.4822ZM9.5 14.4822C10.75 14.4822 11.8125 14.0447 12.6875 13.1697C13.5625 12.2947 14 11.2322 14 9.98218C14 8.73218 13.5625 7.66968 12.6875 6.79468C11.8125 5.91968 10.75 5.48218 9.5 5.48218C8.25 5.48218 7.1875 5.91968 6.3125 6.79468C5.4375 7.66968 5 8.73218 5 9.98218C5 11.2322 5.4375 12.2947 6.3125 13.1697C7.1875 14.0447 8.25 14.4822 9.5 14.4822Z" fill="#13141A"/>
</svg>
