<svg width="20" height="21" viewBox="0 0 20 21" fill="none" xmlns="http://www.w3.org/2000/svg">
<circle cx="10" cy="10.4824" r="10" fill="#695DFD"/>
<path d="M13.127 5.06985C14.0771 5.6184 14.8661 6.40739 15.4146 7.35751C15.9632 8.30763 16.252 9.3854 16.252 10.4825C16.2519 11.5796 15.9631 12.6574 15.4146 13.6075C14.866 14.5576 14.077 15.3466 13.1269 15.8951C12.1767 16.4437 11.099 16.7324 10.0019 16.7324C8.90474 16.7324 7.82696 16.4436 6.87685 15.895C5.92673 15.3465 5.13776 14.5575 4.58922 13.6073C4.04069 12.6572 3.75193 11.5794 3.75195 10.4823L3.75508 10.2798C3.79008 9.20044 4.10417 8.14855 4.66673 7.2267C5.22928 6.30485 6.02111 5.5445 6.96501 5.01978C7.90891 4.49505 8.97267 4.22385 10.0526 4.23263C11.1325 4.2414 12.1917 4.52985 13.127 5.06985ZM10.002 12.3573C9.83619 12.3573 9.67722 12.4231 9.56001 12.5404C9.4428 12.6576 9.37695 12.8165 9.37695 12.9823V12.9885C9.37695 13.1543 9.4428 13.3133 9.56001 13.4305C9.67722 13.5477 9.83619 13.6135 10.002 13.6135C10.1677 13.6135 10.3267 13.5477 10.4439 13.4305C10.5611 13.3133 10.627 13.1543 10.627 12.9885V12.9823C10.627 12.8165 10.5611 12.6576 10.4439 12.5404C10.3267 12.4231 10.1677 12.3573 10.002 12.3573ZM10.002 7.98233C9.83619 7.98233 9.67722 8.04817 9.56001 8.16538C9.4428 8.28259 9.37695 8.44156 9.37695 8.60732V11.1073C9.37695 11.2731 9.4428 11.432 9.56001 11.5492C9.67722 11.6665 9.83619 11.7323 10.002 11.7323C10.1677 11.7323 10.3267 11.6665 10.4439 11.5492C10.5611 11.432 10.627 11.2731 10.627 11.1073V8.60732C10.627 8.44156 10.5611 8.28259 10.4439 8.16538C10.3267 8.04817 10.1677 7.98233 10.002 7.98233Z" fill="white"/>
</svg>
