<svg width="329" height="249" viewBox="0 0 329 249" fill="none" xmlns="http://www.w3.org/2000/svg">
<path d="M175.675 146.1C186.762 140.46 191.078 126.624 185.296 115.26L167.623 80.5213C161.841 69.1565 148.116 64.4996 137.03 70.14C125.943 75.7804 121.627 89.6159 127.408 100.98L145.082 135.719C150.863 147.084 164.588 151.741 175.675 146.1Z" fill="#99F22B"/>
<path d="M261.497 69.4013L252.108 107.281C250.804 112.557 251.424 118.091 253.853 122.865C256.925 128.904 262.555 133.202 269.3 134.656C275.379 135.966 281.673 134.859 287.021 131.54C292.372 128.222 296.136 123.089 297.625 117.084L307.013 79.2048C308.318 73.9293 307.699 68.3932 305.271 63.62C302.198 57.579 296.566 53.2824 289.821 51.8296C277.274 49.1277 264.566 57.0101 261.497 69.4013Z" fill="#99F22B"/>
<path d="M110.865 195.608C108.435 190.832 104.325 187.074 99.2918 185.025L63.1491 170.31C51.3267 165.495 37.4731 171.126 32.2699 182.858C29.4732 189.165 29.6305 196.247 32.7033 202.287C35.1334 207.063 39.2438 210.823 44.2795 212.87L80.4199 227.586C86.1472 229.92 92.515 229.899 98.3493 227.526C104.18 225.157 108.779 220.723 111.299 215.038C114.096 208.731 113.938 201.65 110.865 195.608Z" fill="#99F22B"/>
</svg>
