<svg width="154" height="82" viewBox="0 0 154 82" fill="none" xmlns="http://www.w3.org/2000/svg">
<rect width="154" height="69" rx="10" fill="white"/>
<rect x="76.7285" y="56" width="18" height="18" rx="2" transform="rotate(45 76.7285 56)" fill="white"/>
<rect x="15" y="17" width="34" height="34" rx="17" fill="#695DFD"/>
<g clip-path="url(#clip0_534_15321)">
<path d="M34.7836 40.948C34.6874 42.6483 33.2551 43.9992 31.5 43.9992C29.7449 43.9992 28.3114 42.6483 28.2164 40.948H24.1972C22.9841 40.948 22 39.9847 22 38.7941C22 37.6035 22.9817 36.6403 24.1935 36.6403C24.1923 36.6403 24.1923 32.3326 24.1923 32.3326C24.1923 29.298 26.124 26.638 28.9423 25.6042V25.5097C28.9423 24.1228 30.0884 22.998 31.5 22.998C32.9116 22.998 34.0577 24.1228 34.0577 25.5097V25.6042C36.876 26.638 38.8077 29.298 38.8077 32.3326V36.6403C40.0147 36.6403 41 37.6047 41 38.7941C41 39.9835 40.0171 40.948 38.8028 40.948H34.7836ZM33.3184 40.948H29.6816C29.7742 41.855 30.5524 42.5633 31.5 42.5633C32.4476 42.5633 33.2258 41.855 33.3184 40.948ZM29.8753 26.8127C27.3943 27.5151 25.6526 29.7551 25.6526 32.3314V36.6391C25.6526 37.4312 24.9974 38.075 24.1923 38.075C23.7879 38.075 23.4603 38.398 23.4603 38.7929C23.4603 39.1878 23.7892 39.5109 24.196 39.5109H38.8028C39.2084 39.5109 39.5385 39.1878 39.5385 38.7929C39.5385 38.398 39.2084 38.075 38.8065 38.075C38.0002 38.075 37.3462 37.4336 37.3462 36.6391V32.3314C37.3462 29.7551 35.6045 27.5151 33.1235 26.8127L32.5949 26.6632V25.5109C32.5949 24.9162 32.1041 24.4351 31.4988 24.4351C30.8935 24.4351 30.4026 24.9174 30.4026 25.5109V26.6632L29.874 26.8127H29.8753Z" fill="white"/>
</g>
<path d="M63.0136 20.4545H64.6364L67.3636 25.1727L70.0364 20.4545H71.6727L67.4727 27.9818H67.2409L63.0136 20.4545ZM66.5727 25.9773H68.1682V30H66.5727V25.9773ZM74.9456 22.7045C75.691 22.7045 76.3456 22.8591 76.9092 23.1682C77.4819 23.4773 77.9274 23.9091 78.2456 24.4636C78.5637 25.0091 78.7228 25.6455 78.7228 26.3727C78.7228 27.1 78.5637 27.7409 78.2456 28.2955C77.9274 28.85 77.4819 29.2818 76.9092 29.5909C76.3456 29.9 75.691 30.0545 74.9456 30.0545C74.2001 30.0545 73.541 29.9 72.9683 29.5909C72.3956 29.2818 71.9501 28.85 71.6319 28.2955C71.3137 27.7409 71.1547 27.1 71.1547 26.3727C71.1547 25.6455 71.3137 25.0091 71.6319 24.4636C71.9501 23.9091 72.3956 23.4773 72.9683 23.1682C73.541 22.8591 74.2001 22.7045 74.9456 22.7045ZM74.9456 23.9727C74.5092 23.9727 74.1228 24.0773 73.7865 24.2864C73.4501 24.4864 73.1865 24.7682 72.9956 25.1318C72.8137 25.4955 72.7228 25.9136 72.7228 26.3864C72.7228 26.8682 72.8137 27.2909 72.9956 27.6545C73.1865 28.0182 73.4501 28.3045 73.7865 28.5136C74.1228 28.7136 74.5092 28.8136 74.9456 28.8136C75.3819 28.8136 75.7637 28.7136 76.091 28.5136C76.4274 28.3045 76.6865 28.0182 76.8683 27.6545C77.0592 27.2909 77.1547 26.8682 77.1547 26.3864C77.1547 25.9136 77.0592 25.4955 76.8683 25.1318C76.6865 24.7682 76.4274 24.4864 76.091 24.2864C75.7637 24.0773 75.3819 23.9727 74.9456 23.9727ZM81.4228 26.85C81.4228 27.4136 81.5728 27.8591 81.8728 28.1864C82.1728 28.5045 82.5865 28.6636 83.1137 28.6636C83.741 28.6455 84.2274 28.4136 84.5728 27.9682C84.9274 27.5227 85.1047 26.9727 85.1047 26.3182H85.5274C85.5274 27.2091 85.4047 27.9273 85.1592 28.4727C84.9137 29.0182 84.5637 29.4182 84.1092 29.6727C83.6637 29.9182 83.1319 30.0455 82.5137 30.0545C81.9592 30.0545 81.4819 29.9409 81.0819 29.7136C80.691 29.4864 80.3865 29.1636 80.1683 28.7455C79.9592 28.3273 79.8547 27.8318 79.8547 27.2591V22.7591H81.4228V26.85ZM85.1047 22.7591H86.6728V30H85.1047V22.7591ZM97.5799 25.9091C97.5799 25.3455 97.4254 24.9045 97.1163 24.5864C96.8072 24.2591 96.3799 24.0955 95.8344 24.0955C95.189 24.1045 94.6799 24.3318 94.3072 24.7773C93.9435 25.2227 93.7617 25.7773 93.7617 26.4409H93.3254C93.3254 25.5409 93.4526 24.8182 93.7072 24.2727C93.9617 23.7273 94.3208 23.3318 94.7844 23.0864C95.2572 22.8318 95.8117 22.7045 96.4481 22.7045C97.0117 22.7045 97.4935 22.8182 97.8935 23.0455C98.3026 23.2727 98.6117 23.5955 98.8208 24.0136C99.039 24.4227 99.1481 24.9182 99.1481 25.5V30H97.5799V25.9091ZM92.1935 19.8818H93.7617V30H92.1935V19.8818ZM103.347 26.7682C102.838 26.7682 102.461 26.8455 102.216 27C101.97 27.1545 101.847 27.4091 101.847 27.7636C101.847 28.1 101.97 28.3682 102.216 28.5682C102.47 28.7682 102.816 28.8682 103.252 28.8682C103.643 28.8682 103.993 28.8 104.302 28.6636C104.611 28.5273 104.856 28.3455 105.038 28.1182C105.22 27.8818 105.316 27.6182 105.325 27.3273L105.625 28.65C105.397 29.1227 105.052 29.4773 104.588 29.7136C104.125 29.95 103.57 30.0682 102.925 30.0682C102.406 30.0682 101.956 29.9682 101.575 29.7682C101.193 29.5682 100.897 29.3 100.688 28.9636C100.479 28.6182 100.375 28.2364 100.375 27.8182C100.375 27.1636 100.611 26.6409 101.084 26.25C101.566 25.8591 102.243 25.6591 103.116 25.65H105.516V26.7682H103.347ZM105.311 25.4045C105.311 24.9318 105.166 24.5636 104.875 24.3C104.584 24.0364 104.152 23.9045 103.579 23.9045C103.234 23.9045 102.879 23.9682 102.516 24.0955C102.161 24.2227 101.802 24.4091 101.438 24.6545L100.797 23.6455C101.134 23.4364 101.452 23.2636 101.752 23.1273C102.052 22.9909 102.37 22.8864 102.706 22.8136C103.052 22.7409 103.456 22.7045 103.92 22.7045C104.856 22.7045 105.575 22.9318 106.075 23.3864C106.584 23.8318 106.843 24.45 106.852 25.2409L106.866 30H105.325L105.311 25.4045ZM107.333 22.7591H108.97L110.988 28.5545L112.979 22.7591H114.547L111.765 30H110.143L107.333 22.7591ZM120.122 25.8545C120.104 25.4455 120.009 25.1 119.836 24.8182C119.672 24.5273 119.441 24.3045 119.141 24.15C118.841 23.9864 118.495 23.9045 118.104 23.9045C117.668 23.9045 117.286 24.0045 116.959 24.2045C116.641 24.4045 116.391 24.6864 116.209 25.05C116.027 25.4045 115.936 25.8227 115.936 26.3045C115.936 26.8227 116.032 27.2727 116.222 27.6545C116.422 28.0364 116.695 28.3318 117.041 28.5409C117.395 28.75 117.8 28.8545 118.254 28.8545C119.063 28.8545 119.745 28.5682 120.3 27.9955L121.132 28.8273C120.777 29.2182 120.345 29.5227 119.836 29.7409C119.327 29.95 118.759 30.0545 118.132 30.0545C117.386 30.0545 116.736 29.9 116.182 29.5909C115.627 29.2818 115.195 28.8545 114.886 28.3091C114.577 27.7545 114.422 27.1136 114.422 26.3864C114.422 25.6591 114.577 25.0227 114.886 24.4773C115.195 23.9227 115.627 23.4909 116.182 23.1818C116.736 22.8727 117.372 22.7136 118.091 22.7045C118.945 22.7045 119.632 22.8818 120.15 23.2364C120.668 23.5818 121.036 24.0727 121.254 24.7091C121.472 25.3455 121.55 26.1 121.486 26.9727H115.691V25.8545H120.122ZM128.624 26.7682C128.115 26.7682 127.737 26.8455 127.492 27C127.246 27.1545 127.124 27.4091 127.124 27.7636C127.124 28.1 127.246 28.3682 127.492 28.5682C127.746 28.7682 128.092 28.8682 128.528 28.8682C128.919 28.8682 129.269 28.8 129.578 28.6636C129.887 28.5273 130.133 28.3455 130.315 28.1182C130.496 27.8818 130.592 27.6182 130.601 27.3273L130.901 28.65C130.674 29.1227 130.328 29.4773 129.865 29.7136C129.401 29.95 128.846 30.0682 128.201 30.0682C127.683 30.0682 127.233 29.9682 126.851 29.7682C126.469 29.5682 126.174 29.3 125.965 28.9636C125.755 28.6182 125.651 28.2364 125.651 27.8182C125.651 27.1636 125.887 26.6409 126.36 26.25C126.842 25.8591 127.519 25.6591 128.392 25.65H130.792V26.7682H128.624ZM130.587 25.4045C130.587 24.9318 130.442 24.5636 130.151 24.3C129.86 24.0364 129.428 23.9045 128.855 23.9045C128.51 23.9045 128.155 23.9682 127.792 24.0955C127.437 24.2227 127.078 24.4091 126.715 24.6545L126.074 23.6455C126.41 23.4364 126.728 23.2636 127.028 23.1273C127.328 22.9909 127.646 22.8864 127.983 22.8136C128.328 22.7409 128.733 22.7045 129.196 22.7045C130.133 22.7045 130.851 22.9318 131.351 23.3864C131.86 23.8318 132.119 24.45 132.128 25.2409L132.142 30H130.601L130.587 25.4045ZM69.5318 41.9091C69.5318 41.3455 69.3773 40.9045 69.0682 40.5864C68.7591 40.2591 68.3318 40.0955 67.7864 40.0955C67.1409 40.1045 66.6318 40.3318 66.2591 40.7773C65.8955 41.2227 65.7136 41.7773 65.7136 42.4409H65.2773C65.2773 41.5409 65.4045 40.8182 65.6591 40.2727C65.9136 39.7273 66.2727 39.3318 66.7364 39.0864C67.2091 38.8318 67.7636 38.7045 68.4 38.7045C68.9636 38.7045 69.4455 38.8182 69.8455 39.0455C70.2545 39.2727 70.5636 39.5955 70.7727 40.0136C70.9909 40.4227 71.1 40.9182 71.1 41.5V46H69.5318V41.9091ZM64.1591 38.7591H65.7273V46H64.1591V38.7591ZM77.9466 41.8545C77.9284 41.4455 77.833 41.1 77.6603 40.8182C77.4966 40.5273 77.2648 40.3045 76.9648 40.15C76.6648 39.9864 76.3194 39.9045 75.9284 39.9045C75.4921 39.9045 75.1103 40.0045 74.783 40.2045C74.4648 40.4045 74.2148 40.6864 74.033 41.05C73.8512 41.4045 73.7603 41.8227 73.7603 42.3045C73.7603 42.8227 73.8557 43.2727 74.0466 43.6545C74.2466 44.0364 74.5194 44.3318 74.8648 44.5409C75.2194 44.75 75.6239 44.8545 76.0784 44.8545C76.8875 44.8545 77.5694 44.5682 78.1239 43.9955L78.9557 44.8273C78.6012 45.2182 78.1694 45.5227 77.6603 45.7409C77.1512 45.95 76.583 46.0545 75.9557 46.0545C75.2103 46.0545 74.5603 45.9 74.0057 45.5909C73.4512 45.2818 73.0194 44.8545 72.7103 44.3091C72.4012 43.7545 72.2466 43.1136 72.2466 42.3864C72.2466 41.6591 72.4012 41.0227 72.7103 40.4773C73.0194 39.9227 73.4512 39.4909 74.0057 39.1818C74.5603 38.8727 75.1966 38.7136 75.9148 38.7045C76.7694 38.7045 77.4557 38.8818 77.9739 39.2364C78.4921 39.5818 78.8603 40.0727 79.0784 40.7091C79.2966 41.3455 79.3739 42.1 79.3103 42.9727H73.5148V41.8545H77.9466ZM79.2606 38.7591H80.8697L82.7515 44.5545L84.5788 38.7591H86.2015L88.0424 44.5545L89.897 38.7591H91.4924L88.847 46H87.2243L85.3833 40.5182L83.5424 46H81.9333L79.2606 38.7591ZM100.985 41.9091C100.985 41.3364 100.835 40.8909 100.535 40.5727C100.235 40.2455 99.8167 40.0818 99.2803 40.0818C98.653 40.1 98.1576 40.3318 97.7939 40.7773C97.4394 41.2227 97.2621 41.7727 97.2621 42.4273H96.8257C96.8257 41.5364 96.9485 40.8182 97.1939 40.2727C97.4485 39.7273 97.803 39.3318 98.2576 39.0864C98.7212 38.8318 99.2667 38.7045 99.8939 38.7045C100.448 38.7045 100.921 38.8182 101.312 39.0455C101.712 39.2727 102.017 39.5955 102.226 40.0136C102.444 40.4227 102.553 40.9182 102.553 41.5V46H100.985V41.9091ZM106.262 41.9091C106.262 41.3364 106.108 40.8909 105.798 40.5727C105.498 40.2455 105.08 40.0818 104.544 40.0818C103.926 40.1 103.439 40.3318 103.085 40.7773C102.73 41.2227 102.553 41.7727 102.553 42.4273H102.103C102.103 41.5364 102.226 40.8182 102.471 40.2727C102.726 39.7273 103.08 39.3318 103.535 39.0864C103.998 38.8318 104.544 38.7045 105.171 38.7045C105.726 38.7045 106.198 38.8182 106.589 39.0455C106.989 39.2727 107.294 39.5955 107.503 40.0136C107.721 40.4227 107.83 40.9182 107.83 41.5V46H106.262V41.9091ZM95.7076 38.7591H97.2621V46H95.7076V38.7591ZM112.03 42.7682C111.521 42.7682 111.144 42.8455 110.898 43C110.653 43.1545 110.53 43.4091 110.53 43.7636C110.53 44.1 110.653 44.3682 110.898 44.5682C111.153 44.7682 111.498 44.8682 111.934 44.8682C112.325 44.8682 112.675 44.8 112.984 44.6636C113.294 44.5273 113.539 44.3455 113.721 44.1182C113.903 43.8818 113.998 43.6182 114.007 43.3273L114.307 44.65C114.08 45.1227 113.734 45.4773 113.271 45.7136C112.807 45.95 112.253 46.0682 111.607 46.0682C111.089 46.0682 110.639 45.9682 110.257 45.7682C109.875 45.5682 109.58 45.3 109.371 44.9636C109.162 44.6182 109.057 44.2364 109.057 43.8182C109.057 43.1636 109.294 42.6409 109.766 42.25C110.248 41.8591 110.925 41.6591 111.798 41.65H114.198V42.7682H112.03ZM113.994 41.4045C113.994 40.9318 113.848 40.5636 113.557 40.3C113.266 40.0364 112.834 39.9045 112.262 39.9045C111.916 39.9045 111.562 39.9682 111.198 40.0955C110.844 40.2227 110.484 40.4091 110.121 40.6545L109.48 39.6455C109.816 39.4364 110.134 39.2636 110.434 39.1273C110.734 38.9909 111.053 38.8864 111.389 38.8136C111.734 38.7409 112.139 38.7045 112.603 38.7045C113.539 38.7045 114.257 38.9318 114.757 39.3864C115.266 39.8318 115.525 40.45 115.534 41.2409L115.548 46H114.007L113.994 41.4045ZM119.215 43.7091C119.215 44.1 119.284 44.3682 119.42 44.5136C119.556 44.65 119.747 44.7182 119.993 44.7182C120.156 44.7182 120.324 44.6909 120.497 44.6364C120.679 44.5818 120.874 44.5 121.084 44.3909L121.479 45.5227C121.197 45.6955 120.906 45.8318 120.606 45.9318C120.306 46.0227 120.002 46.0682 119.693 46.0682C119.329 46.0682 118.993 46 118.684 45.8636C118.374 45.7182 118.124 45.4909 117.934 45.1818C117.752 44.8727 117.661 44.4727 117.661 43.9818V37.0409H119.215V43.7091ZM116.638 39.0182H121.356V40.1364H116.638V39.0182ZM127.689 40.8318C127.434 40.5682 127.134 40.3636 126.789 40.2182C126.443 40.0727 126.052 40 125.616 40C125.198 40 124.825 40.1 124.498 40.3C124.17 40.5 123.916 40.7818 123.734 41.1455C123.552 41.5 123.461 41.9136 123.461 42.3864C123.461 42.8591 123.552 43.2773 123.734 43.6409C123.916 43.9955 124.17 44.2773 124.498 44.4864C124.825 44.6864 125.198 44.7864 125.616 44.7864C126.07 44.7864 126.479 44.7136 126.843 44.5682C127.207 44.4136 127.511 44.1909 127.757 43.9L128.629 44.7591C128.302 45.1682 127.875 45.4864 127.348 45.7136C126.829 45.9409 126.229 46.0545 125.548 46.0545C124.829 46.0545 124.193 45.9 123.639 45.5909C123.093 45.2818 122.666 44.8545 122.357 44.3091C122.048 43.7545 121.893 43.1136 121.893 42.3864C121.893 41.6591 122.048 41.0227 122.357 40.4773C122.666 39.9227 123.093 39.4909 123.639 39.1818C124.193 38.8636 124.829 38.7045 125.548 38.7045C126.202 38.7045 126.779 38.8045 127.279 39.0045C127.789 39.1955 128.211 39.4682 128.548 39.8227L127.689 40.8318ZM135.454 41.9091C135.454 41.3455 135.299 40.9045 134.99 40.5864C134.681 40.2591 134.254 40.0955 133.708 40.0955C133.063 40.1045 132.554 40.3318 132.181 40.7773C131.817 41.2227 131.636 41.7773 131.636 42.4409H131.199C131.199 41.5409 131.327 40.8182 131.581 40.2727C131.836 39.7273 132.195 39.3318 132.658 39.0864C133.131 38.8318 133.686 38.7045 134.322 38.7045C134.886 38.7045 135.367 38.8182 135.767 39.0455C136.177 39.2727 136.486 39.5955 136.695 40.0136C136.913 40.4227 137.022 40.9182 137.022 41.5V46H135.454V41.9091ZM130.067 35.8818H131.636V46H130.067V35.8818Z" fill="#101044"/>
<defs>
<clipPath id="clip0_534_15321">
<rect width="19" height="21" fill="white" transform="translate(22 23)"/>
</clipPath>
</defs>
</svg>
