<svg width="220" height="82" viewBox="0 0 220 82" fill="none" xmlns="http://www.w3.org/2000/svg">
<rect width="220" height="69" rx="10" fill="white"/>
<rect x="109.729" y="56" width="18" height="18" rx="2" transform="rotate(45 109.729 56)" fill="white"/>
<rect x="15" y="17" width="34" height="34" rx="17" fill="#695DFD"/>
<g clip-path="url(#clip0_534_15314)">
<path d="M39.6303 40.8037H25.0894C23.9364 40.8023 23.002 39.868 23 38.7143V29.0894C23.0013 27.9357 23.9357 27.0013 25.0894 27H39.631C40.784 27.0013 41.7184 27.9357 41.7204 29.0894V38.7143C41.7191 39.8673 40.7847 40.8017 39.631 40.8037H39.6303ZM25.1089 39.5424H39.6115L34.9935 34.7905C34.4378 35.3623 33.9898 35.8231 33.7355 36.0874C32.97 36.8402 31.7417 36.8402 30.9761 36.0874C30.7192 35.8217 30.2752 35.3636 29.7256 34.7985L25.1089 39.5424ZM24.2613 29.1815V38.6053L28.8464 33.8938C27.3046 32.3082 25.7002 30.6595 24.2613 29.1822V29.1815ZM35.8733 33.885L40.4584 38.602V29.1802C39.1157 30.5572 37.434 32.282 35.8733 33.8857V33.885ZM30.1965 33.472C30.9452 34.2422 31.5614 34.8766 31.8829 35.2096C32.1453 35.4672 32.5657 35.4672 32.8274 35.2096C34.7392 33.2372 37.7017 30.2014 39.5927 28.2606H25.125C26.6991 29.8785 28.5659 31.7963 30.1965 33.472Z" fill="white"/>
</g>
<path d="M67.2273 12.4545H68.8773L73.05 22H71.3318L68.0045 14.0773L64.6909 22H63.0136L67.2273 12.4545ZM65.1136 18.4273H70.8273V19.7909H65.1136V18.4273ZM82.4702 16.8318C82.2156 16.5682 81.9156 16.3636 81.5702 16.2182C81.2247 16.0727 80.8338 16 80.3974 16C79.9793 16 79.6065 16.1 79.2793 16.3C78.952 16.5 78.6974 16.7818 78.5156 17.1455C78.3338 17.5 78.2429 17.9136 78.2429 18.3864C78.2429 18.8591 78.3338 19.2773 78.5156 19.6409C78.6974 19.9955 78.952 20.2773 79.2793 20.4864C79.6065 20.6864 79.9793 20.7864 80.3974 20.7864C80.852 20.7864 81.2611 20.7136 81.6247 20.5682C81.9884 20.4136 82.2929 20.1909 82.5384 19.9L83.4111 20.7591C83.0838 21.1682 82.6565 21.4864 82.1293 21.7136C81.6111 21.9409 81.0111 22.0545 80.3293 22.0545C79.6111 22.0545 78.9747 21.9 78.4202 21.5909C77.8747 21.2818 77.4474 20.8545 77.1384 20.3091C76.8293 19.7545 76.6747 19.1136 76.6747 18.3864C76.6747 17.6591 76.8293 17.0227 77.1384 16.4773C77.4474 15.9227 77.8747 15.4909 78.4202 15.1818C78.9747 14.8636 79.6111 14.7045 80.3293 14.7045C80.9838 14.7045 81.5611 14.8045 82.0611 15.0045C82.5702 15.1955 82.9929 15.4682 83.3293 15.8227L82.4702 16.8318ZM86.1173 18.85C86.1173 19.4136 86.2673 19.8591 86.5673 20.1864C86.8673 20.5045 87.2809 20.6636 87.8082 20.6636C88.4354 20.6455 88.9218 20.4136 89.2673 19.9682C89.6218 19.5227 89.7991 18.9727 89.7991 18.3182H90.2218C90.2218 19.2091 90.0991 19.9273 89.8536 20.4727C89.6082 21.0182 89.2582 21.4182 88.8036 21.6727C88.3582 21.9182 87.8263 22.0455 87.2082 22.0545C86.6536 22.0545 86.1763 21.9409 85.7763 21.7136C85.3854 21.4864 85.0809 21.1636 84.8627 20.7455C84.6536 20.3273 84.5491 19.8318 84.5491 19.2591V14.7591H86.1173V18.85ZM89.7991 14.7591H91.3673V22H89.7991V14.7591ZM97.5489 16.5182C97.2307 16.3273 96.8807 16.1773 96.4989 16.0682C96.1262 15.95 95.7807 15.8909 95.4625 15.8909C95.1534 15.8909 94.8989 15.95 94.6989 16.0682C94.4989 16.1864 94.3989 16.3818 94.3989 16.6545C94.3989 16.8818 94.4898 17.0636 94.6716 17.2C94.8625 17.3273 95.1034 17.4364 95.3944 17.5273C95.6853 17.6182 95.9944 17.7136 96.3216 17.8136C96.6489 17.9136 96.958 18.0455 97.2489 18.2091C97.5489 18.3636 97.7898 18.5773 97.9716 18.85C98.1534 19.1227 98.2444 19.4818 98.2444 19.9273C98.2444 20.4182 98.1125 20.8227 97.8489 21.1409C97.5944 21.45 97.2534 21.6818 96.8262 21.8364C96.408 21.9818 95.9534 22.0545 95.4625 22.0545C94.9353 22.0545 94.408 21.9682 93.8807 21.7955C93.3534 21.6227 92.908 21.3727 92.5444 21.0455L93.1034 19.9818C93.4216 20.2636 93.808 20.4864 94.2625 20.65C94.7171 20.8045 95.1398 20.8818 95.5307 20.8818C95.758 20.8818 95.958 20.8545 96.1307 20.8C96.3125 20.7364 96.4534 20.6455 96.5534 20.5273C96.6625 20.4091 96.7171 20.2545 96.7171 20.0636C96.7171 19.8091 96.6262 19.6091 96.4444 19.4636C96.2625 19.3182 96.0262 19.2 95.7353 19.1091C95.4444 19.0091 95.1353 18.9136 94.808 18.8227C94.4807 18.7227 94.1716 18.5955 93.8807 18.4409C93.5989 18.2864 93.3671 18.0773 93.1853 17.8136C93.0034 17.55 92.9125 17.2 92.9125 16.7636C92.9125 16.2727 93.0398 15.8773 93.2944 15.5773C93.5489 15.2682 93.8762 15.0455 94.2762 14.9091C94.6853 14.7636 95.1216 14.6909 95.5853 14.6909C96.0398 14.6909 96.4944 14.7545 96.9489 14.8818C97.4034 15.0091 97.7944 15.1864 98.1216 15.4136L97.5489 16.5182ZM101.391 19.7091C101.391 20.1 101.459 20.3682 101.595 20.5136C101.732 20.65 101.922 20.7182 102.168 20.7182C102.332 20.7182 102.5 20.6909 102.672 20.6364C102.854 20.5818 103.05 20.5 103.259 20.3909L103.654 21.5227C103.372 21.6955 103.082 21.8318 102.782 21.9318C102.482 22.0227 102.177 22.0682 101.868 22.0682C101.504 22.0682 101.168 22 100.859 21.8636C100.55 21.7182 100.3 21.4909 100.109 21.1818C99.927 20.8727 99.8361 20.4727 99.8361 19.9818V13.0409H101.391V19.7091ZM98.8134 15.0182H103.532V16.1364H98.8134V15.0182ZM107.859 14.7045C108.605 14.7045 109.259 14.8591 109.823 15.1682C110.396 15.4773 110.841 15.9091 111.159 16.4636C111.477 17.0091 111.637 17.6455 111.637 18.3727C111.637 19.1 111.477 19.7409 111.159 20.2955C110.841 20.85 110.396 21.2818 109.823 21.5909C109.259 21.9 108.605 22.0545 107.859 22.0545C107.114 22.0545 106.455 21.9 105.882 21.5909C105.309 21.2818 104.864 20.85 104.546 20.2955C104.227 19.7409 104.068 19.1 104.068 18.3727C104.068 17.6455 104.227 17.0091 104.546 16.4636C104.864 15.9091 105.309 15.4773 105.882 15.1682C106.455 14.8591 107.114 14.7045 107.859 14.7045ZM107.859 15.9727C107.423 15.9727 107.037 16.0773 106.7 16.2864C106.364 16.4864 106.1 16.7682 105.909 17.1318C105.727 17.4955 105.637 17.9136 105.637 18.3864C105.637 18.8682 105.727 19.2909 105.909 19.6545C106.1 20.0182 106.364 20.3045 106.7 20.5136C107.037 20.7136 107.423 20.8136 107.859 20.8136C108.296 20.8136 108.677 20.7136 109.005 20.5136C109.341 20.3045 109.6 20.0182 109.782 19.6545C109.973 19.2909 110.068 18.8682 110.068 18.3864C110.068 17.9136 109.973 17.4955 109.782 17.1318C109.6 16.7682 109.341 16.4864 109.005 16.2864C108.677 16.0773 108.296 15.9727 107.859 15.9727ZM118.277 17.9091C118.277 17.3364 118.127 16.8909 117.827 16.5727C117.527 16.2455 117.109 16.0818 116.573 16.0818C115.946 16.1 115.45 16.3318 115.087 16.7773C114.732 17.2227 114.555 17.7727 114.555 18.4273H114.118C114.118 17.5364 114.241 16.8182 114.487 16.2727C114.741 15.7273 115.096 15.3318 115.55 15.0864C116.014 14.8318 116.559 14.7045 117.187 14.7045C117.741 14.7045 118.214 14.8182 118.605 15.0455C119.005 15.2727 119.309 15.5955 119.518 16.0136C119.737 16.4227 119.846 16.9182 119.846 17.5V22H118.277V17.9091ZM123.555 17.9091C123.555 17.3364 123.4 16.8909 123.091 16.5727C122.791 16.2455 122.373 16.0818 121.837 16.0818C121.218 16.1 120.732 16.3318 120.377 16.7773C120.023 17.2227 119.846 17.7727 119.846 18.4273H119.396C119.396 17.5364 119.518 16.8182 119.764 16.2727C120.018 15.7273 120.373 15.3318 120.827 15.0864C121.291 14.8318 121.837 14.7045 122.464 14.7045C123.018 14.7045 123.491 14.8182 123.882 15.0455C124.282 15.2727 124.587 15.5955 124.796 16.0136C125.014 16.4227 125.123 16.9182 125.123 17.5V22H123.555V17.9091ZM113 14.7591H114.555V22H113V14.7591ZM131.968 17.8545C131.95 17.4455 131.854 17.1 131.682 16.8182C131.518 16.5273 131.286 16.3045 130.986 16.15C130.686 15.9864 130.341 15.9045 129.95 15.9045C129.513 15.9045 129.132 16.0045 128.804 16.2045C128.486 16.4045 128.236 16.6864 128.054 17.05C127.872 17.4045 127.782 17.8227 127.782 18.3045C127.782 18.8227 127.877 19.2727 128.068 19.6545C128.268 20.0364 128.541 20.3318 128.886 20.5409C129.241 20.75 129.645 20.8545 130.1 20.8545C130.909 20.8545 131.591 20.5682 132.145 19.9955L132.977 20.8273C132.622 21.2182 132.191 21.5227 131.682 21.7409C131.172 21.95 130.604 22.0545 129.977 22.0545C129.232 22.0545 128.582 21.9 128.027 21.5909C127.472 21.2818 127.041 20.8545 126.732 20.3091C126.422 19.7545 126.268 19.1136 126.268 18.3864C126.268 17.6591 126.422 17.0227 126.732 16.4773C127.041 15.9227 127.472 15.4909 128.027 15.1818C128.582 14.8727 129.218 14.7136 129.936 14.7045C130.791 14.7045 131.477 14.8818 131.995 15.2364C132.513 15.5818 132.882 16.0727 133.1 16.7091C133.318 17.3455 133.395 18.1 133.332 18.9727H127.536V17.8545H131.968ZM138.771 16.1227C138.253 16.0955 137.803 16.1864 137.421 16.3955C137.048 16.5955 136.757 16.8773 136.548 17.2409C136.348 17.6045 136.248 18.0227 136.248 18.4955L135.812 18.4409C135.812 17.6318 135.93 16.95 136.166 16.3955C136.403 15.8409 136.744 15.4227 137.189 15.1409C137.635 14.85 138.162 14.7045 138.771 14.7045V16.1227ZM134.694 14.7591H136.262V22H134.694V14.7591ZM148.645 17.9091C148.645 17.3455 148.49 16.9045 148.181 16.5864C147.872 16.2591 147.445 16.0955 146.899 16.0955C146.254 16.1045 145.745 16.3318 145.372 16.7773C145.009 17.2227 144.827 17.7773 144.827 18.4409H144.39C144.39 17.5409 144.518 16.8182 144.772 16.2727C145.027 15.7273 145.386 15.3318 145.849 15.0864C146.322 14.8318 146.877 14.7045 147.513 14.7045C148.077 14.7045 148.559 14.8182 148.959 15.0455C149.368 15.2727 149.677 15.5955 149.886 16.0136C150.104 16.4227 150.213 16.9182 150.213 17.5V22H148.645V17.9091ZM143.259 11.8818H144.827V22H143.259V11.8818ZM154.412 18.7682C153.903 18.7682 153.526 18.8455 153.281 19C153.035 19.1545 152.912 19.4091 152.912 19.7636C152.912 20.1 153.035 20.3682 153.281 20.5682C153.535 20.7682 153.881 20.8682 154.317 20.8682C154.708 20.8682 155.058 20.8 155.367 20.6636C155.676 20.5273 155.921 20.3455 156.103 20.1182C156.285 19.8818 156.381 19.6182 156.39 19.3273L156.69 20.65C156.462 21.1227 156.117 21.4773 155.653 21.7136C155.19 21.95 154.635 22.0682 153.99 22.0682C153.471 22.0682 153.021 21.9682 152.64 21.7682C152.258 21.5682 151.962 21.3 151.753 20.9636C151.544 20.6182 151.44 20.2364 151.44 19.8182C151.44 19.1636 151.676 18.6409 152.149 18.25C152.631 17.8591 153.308 17.6591 154.181 17.65H156.581V18.7682H154.412ZM156.376 17.4045C156.376 16.9318 156.231 16.5636 155.94 16.3C155.649 16.0364 155.217 15.9045 154.644 15.9045C154.299 15.9045 153.944 15.9682 153.581 16.0955C153.226 16.2227 152.867 16.4091 152.503 16.6545L151.862 15.6455C152.199 15.4364 152.517 15.2636 152.817 15.1273C153.117 14.9909 153.435 14.8864 153.771 14.8136C154.117 14.7409 154.521 14.7045 154.985 14.7045C155.921 14.7045 156.64 14.9318 157.14 15.3864C157.649 15.8318 157.908 16.45 157.917 17.2409L157.931 22H156.39L156.376 17.4045ZM163.889 16.5182C163.571 16.3273 163.221 16.1773 162.839 16.0682C162.466 15.95 162.121 15.8909 161.802 15.8909C161.493 15.8909 161.239 15.95 161.039 16.0682C160.839 16.1864 160.739 16.3818 160.739 16.6545C160.739 16.8818 160.83 17.0636 161.011 17.2C161.202 17.3273 161.443 17.4364 161.734 17.5273C162.025 17.6182 162.334 17.7136 162.661 17.8136C162.989 17.9136 163.298 18.0455 163.589 18.2091C163.889 18.3636 164.13 18.5773 164.311 18.85C164.493 19.1227 164.584 19.4818 164.584 19.9273C164.584 20.4182 164.452 20.8227 164.189 21.1409C163.934 21.45 163.593 21.6818 163.166 21.8364C162.748 21.9818 162.293 22.0545 161.802 22.0545C161.275 22.0545 160.748 21.9682 160.221 21.7955C159.693 21.6227 159.248 21.3727 158.884 21.0455L159.443 19.9818C159.761 20.2636 160.148 20.4864 160.602 20.65C161.057 20.8045 161.48 20.8818 161.871 20.8818C162.098 20.8818 162.298 20.8545 162.471 20.8C162.652 20.7364 162.793 20.6455 162.893 20.5273C163.002 20.4091 163.057 20.2545 163.057 20.0636C163.057 19.8091 162.966 19.6091 162.784 19.4636C162.602 19.3182 162.366 19.2 162.075 19.1091C161.784 19.0091 161.475 18.9136 161.148 18.8227C160.821 18.7227 160.511 18.5955 160.221 18.4409C159.939 18.2864 159.707 18.0773 159.525 17.8136C159.343 17.55 159.252 17.2 159.252 16.7636C159.252 16.2727 159.38 15.8773 159.634 15.5773C159.889 15.2682 160.216 15.0455 160.616 14.9091C161.025 14.7636 161.461 14.6909 161.925 14.6909C162.38 14.6909 162.834 14.7545 163.289 14.8818C163.743 15.0091 164.134 15.1864 164.461 15.4136L163.889 16.5182ZM69.4364 33.9091C69.4364 33.3364 69.2864 32.8909 68.9864 32.5727C68.6864 32.2455 68.2682 32.0818 67.7318 32.0818C67.1045 32.1 66.6091 32.3318 66.2455 32.7773C65.8909 33.2227 65.7136 33.7727 65.7136 34.4273H65.2773C65.2773 33.5364 65.4 32.8182 65.6455 32.2727C65.9 31.7273 66.2545 31.3318 66.7091 31.0864C67.1727 30.8318 67.7182 30.7045 68.3455 30.7045C68.9 30.7045 69.3727 30.8182 69.7636 31.0455C70.1636 31.2727 70.4682 31.5955 70.6773 32.0136C70.8955 32.4227 71.0045 32.9182 71.0045 33.5V38H69.4364V33.9091ZM74.7136 33.9091C74.7136 33.3364 74.5591 32.8909 74.25 32.5727C73.95 32.2455 73.5318 32.0818 72.9955 32.0818C72.3773 32.1 71.8909 32.3318 71.5364 32.7773C71.1818 33.2227 71.0045 33.7727 71.0045 34.4273H70.5545C70.5545 33.5364 70.6773 32.8182 70.9227 32.2727C71.1773 31.7273 71.5318 31.3318 71.9864 31.0864C72.45 30.8318 72.9955 30.7045 73.6227 30.7045C74.1773 30.7045 74.65 30.8182 75.0409 31.0455C75.4409 31.2727 75.7455 31.5955 75.9545 32.0136C76.1727 32.4227 76.2818 32.9182 76.2818 33.5V38H74.7136V33.9091ZM64.1591 30.7591H65.7136V38H64.1591V30.7591ZM80.4814 34.7682C79.9723 34.7682 79.595 34.8455 79.3496 35C79.1041 35.1545 78.9814 35.4091 78.9814 35.7636C78.9814 36.1 79.1041 36.3682 79.3496 36.5682C79.6041 36.7682 79.9496 36.8682 80.3859 36.8682C80.7768 36.8682 81.1268 36.8 81.4359 36.6636C81.745 36.5273 81.9905 36.3455 82.1723 36.1182C82.3541 35.8818 82.4496 35.6182 82.4587 35.3273L82.7587 36.65C82.5314 37.1227 82.1859 37.4773 81.7223 37.7136C81.2587 37.95 80.7041 38.0682 80.0587 38.0682C79.5405 38.0682 79.0905 37.9682 78.7087 37.7682C78.3268 37.5682 78.0314 37.3 77.8223 36.9636C77.6132 36.6182 77.5087 36.2364 77.5087 35.8182C77.5087 35.1636 77.745 34.6409 78.2178 34.25C78.6996 33.8591 79.3768 33.6591 80.2496 33.65H82.6496V34.7682H80.4814ZM82.445 33.4045C82.445 32.9318 82.2996 32.5636 82.0087 32.3C81.7178 32.0364 81.2859 31.9045 80.7132 31.9045C80.3678 31.9045 80.0132 31.9682 79.6496 32.0955C79.295 32.2227 78.9359 32.4091 78.5723 32.6545L77.9314 31.6455C78.2678 31.4364 78.5859 31.2636 78.8859 31.1273C79.1859 30.9909 79.5041 30.8864 79.8405 30.8136C80.1859 30.7409 80.5905 30.7045 81.0541 30.7045C81.9905 30.7045 82.7087 30.9318 83.2087 31.3864C83.7178 31.8318 83.9768 32.45 83.9859 33.2409L83.9996 38H82.4587L82.445 33.4045ZM87.6669 35.7091C87.6669 36.1 87.7351 36.3682 87.8715 36.5136C88.0078 36.65 88.1987 36.7182 88.4442 36.7182C88.6078 36.7182 88.776 36.6909 88.9487 36.6364C89.1305 36.5818 89.326 36.5 89.5351 36.3909L89.9305 37.5227C89.6487 37.6955 89.3578 37.8318 89.0578 37.9318C88.7578 38.0227 88.4533 38.0682 88.1442 38.0682C87.7805 38.0682 87.4442 38 87.1351 37.8636C86.826 37.7182 86.576 37.4909 86.3851 37.1818C86.2033 36.8727 86.1124 36.4727 86.1124 35.9818V29.0409H87.6669V35.7091ZM85.0896 31.0182H89.8078V32.1364H85.0896V31.0182ZM96.1401 32.8318C95.8855 32.5682 95.5855 32.3636 95.2401 32.2182C94.8946 32.0727 94.5037 32 94.0674 32C93.6492 32 93.2765 32.1 92.9492 32.3C92.6219 32.5 92.3674 32.7818 92.1855 33.1455C92.0037 33.5 91.9128 33.9136 91.9128 34.3864C91.9128 34.8591 92.0037 35.2773 92.1855 35.6409C92.3674 35.9955 92.6219 36.2773 92.9492 36.4864C93.2765 36.6864 93.6492 36.7864 94.0674 36.7864C94.5219 36.7864 94.931 36.7136 95.2946 36.5682C95.6583 36.4136 95.9628 36.1909 96.2083 35.9L97.081 36.7591C96.7537 37.1682 96.3265 37.4864 95.7992 37.7136C95.281 37.9409 94.681 38.0545 93.9992 38.0545C93.281 38.0545 92.6446 37.9 92.0901 37.5909C91.5446 37.2818 91.1174 36.8545 90.8083 36.3091C90.4992 35.7545 90.3446 35.1136 90.3446 34.3864C90.3446 33.6591 90.4992 33.0227 90.8083 32.4773C91.1174 31.9227 91.5446 31.4909 92.0901 31.1818C92.6446 30.8636 93.281 30.7045 93.9992 30.7045C94.6537 30.7045 95.231 30.8045 95.731 31.0045C96.2401 31.1955 96.6628 31.4682 96.9992 31.8227L96.1401 32.8318ZM103.905 33.9091C103.905 33.3455 103.751 32.9045 103.442 32.5864C103.133 32.2591 102.705 32.0955 102.16 32.0955C101.514 32.1045 101.005 32.3318 100.633 32.7773C100.269 33.2227 100.087 33.7773 100.087 34.4409H99.6508C99.6508 33.5409 99.7781 32.8182 100.033 32.2727C100.287 31.7273 100.646 31.3318 101.11 31.0864C101.583 30.8318 102.137 30.7045 102.774 30.7045C103.337 30.7045 103.819 30.8182 104.219 31.0455C104.628 31.2727 104.937 31.5955 105.146 32.0136C105.364 32.4227 105.474 32.9182 105.474 33.5V38H103.905V33.9091ZM98.519 27.8818H100.087V38H98.519V27.8818ZM112.318 33.8545C112.3 33.4455 112.205 33.1 112.032 32.8182C111.868 32.5273 111.636 32.3045 111.336 32.15C111.036 31.9864 110.691 31.9045 110.3 31.9045C109.864 31.9045 109.482 32.0045 109.155 32.2045C108.836 32.4045 108.586 32.6864 108.405 33.05C108.223 33.4045 108.132 33.8227 108.132 34.3045C108.132 34.8227 108.227 35.2727 108.418 35.6545C108.618 36.0364 108.891 36.3318 109.236 36.5409C109.591 36.75 109.996 36.8545 110.45 36.8545C111.259 36.8545 111.941 36.5682 112.496 35.9955L113.327 36.8273C112.973 37.2182 112.541 37.5227 112.032 37.7409C111.523 37.95 110.955 38.0545 110.327 38.0545C109.582 38.0545 108.932 37.9 108.377 37.5909C107.823 37.2818 107.391 36.8545 107.082 36.3091C106.773 35.7545 106.618 35.1136 106.618 34.3864C106.618 33.6591 106.773 33.0227 107.082 32.4773C107.391 31.9227 107.823 31.4909 108.377 31.1818C108.932 30.8727 109.568 30.7136 110.286 30.7045C111.141 30.7045 111.827 30.8818 112.346 31.2364C112.864 31.5818 113.232 32.0727 113.45 32.7091C113.668 33.3455 113.746 34.1 113.682 34.9727H107.886V33.8545H112.318ZM117.812 30.6909C118.485 30.6909 119.053 30.8409 119.517 31.1409C119.989 31.4318 120.349 31.8545 120.594 32.4091C120.849 32.9545 120.971 33.6091 120.962 34.3727C120.971 35.1364 120.853 35.7955 120.608 36.35C120.362 36.9045 120.003 37.3318 119.53 37.6318C119.067 37.9227 118.503 38.0682 117.839 38.0682C117.149 38.0682 116.539 37.9136 116.012 37.6045C115.494 37.2864 115.089 36.85 114.799 36.2955C114.508 35.7318 114.362 35.0864 114.362 34.3591C114.362 33.6318 114.508 32.9955 114.799 32.45C115.089 31.8955 115.494 31.4636 116.012 31.1545C116.53 30.8455 117.13 30.6909 117.812 30.6909ZM118.167 31.9591C117.73 31.9591 117.344 32.0636 117.008 32.2727C116.671 32.4818 116.408 32.7727 116.217 33.1455C116.035 33.5091 115.939 33.9273 115.93 34.4C115.939 34.8727 116.035 35.2909 116.217 35.6545C116.408 36.0182 116.671 36.3045 117.008 36.5136C117.344 36.7227 117.73 36.8273 118.167 36.8273C118.603 36.8273 118.989 36.7227 119.326 36.5136C119.662 36.3045 119.921 36.0182 120.103 35.6545C120.294 35.2909 120.389 34.8727 120.389 34.4C120.389 33.9182 120.294 33.4955 120.103 33.1318C119.921 32.7682 119.662 32.4818 119.326 32.2727C118.989 32.0636 118.603 31.9591 118.167 31.9591ZM120.389 27.8818H121.958V38H120.389V27.8818ZM126.324 30.7591H127.933L129.815 36.5545L131.642 30.7591H133.265L135.105 36.5545L136.96 30.7591H138.555L135.91 38H134.287L132.446 32.5182L130.605 38H128.996L126.324 30.7591ZM139.368 30.7591H140.922V38H139.368V30.7591ZM140.145 27.7727C140.409 27.7727 140.627 27.8591 140.8 28.0318C140.972 28.2045 141.059 28.4227 141.059 28.6864C141.059 28.9409 140.972 29.1591 140.8 29.3409C140.627 29.5136 140.409 29.6 140.145 29.6C139.891 29.6 139.672 29.5136 139.491 29.3409C139.318 29.1591 139.232 28.9409 139.232 28.6864C139.232 28.4227 139.318 28.2045 139.491 28.0318C139.672 27.8591 139.891 27.7727 140.145 27.7727ZM144.811 35.7091C144.811 36.1 144.879 36.3682 145.016 36.5136C145.152 36.65 145.343 36.7182 145.589 36.7182C145.752 36.7182 145.92 36.6909 146.093 36.6364C146.275 36.5818 146.47 36.5 146.679 36.3909L147.075 37.5227C146.793 37.6955 146.502 37.8318 146.202 37.9318C145.902 38.0227 145.598 38.0682 145.289 38.0682C144.925 38.0682 144.589 38 144.279 37.8636C143.97 37.7182 143.72 37.4909 143.529 37.1818C143.348 36.8727 143.257 36.4727 143.257 35.9818V29.0409H144.811V35.7091ZM142.234 31.0182H146.952V32.1364H142.234V31.0182ZM153.705 33.9091C153.705 33.3455 153.551 32.9045 153.242 32.5864C152.933 32.2591 152.505 32.0955 151.96 32.0955C151.314 32.1045 150.805 32.3318 150.433 32.7773C150.069 33.2227 149.887 33.7773 149.887 34.4409H149.451C149.451 33.5409 149.578 32.8182 149.833 32.2727C150.087 31.7273 150.446 31.3318 150.91 31.0864C151.383 30.8318 151.937 30.7045 152.573 30.7045C153.137 30.7045 153.619 30.8182 154.019 31.0455C154.428 31.2727 154.737 31.5955 154.946 32.0136C155.164 32.4227 155.273 32.9182 155.273 33.5V38H153.705V33.9091ZM148.319 27.8818H149.887V38H148.319V27.8818ZM163.353 39.0227C163.125 39.5773 162.812 39.9955 162.412 40.2773C162.012 40.5682 161.539 40.7136 160.994 40.7136C160.666 40.7136 160.366 40.6636 160.094 40.5636C159.83 40.4636 159.571 40.3136 159.316 40.1136L159.984 38.9545C160.312 39.1909 160.625 39.3091 160.925 39.3091C161.162 39.3091 161.375 39.2409 161.566 39.1045C161.757 38.9682 161.912 38.7591 162.03 38.4773L162.275 37.9045L159.275 30.7591H160.898L163.066 36.35L165.084 30.7591H166.653L163.353 39.0227ZM170.317 30.7045C171.062 30.7045 171.717 30.8591 172.281 31.1682C172.853 31.4773 173.299 31.9091 173.617 32.4636C173.935 33.0091 174.094 33.6455 174.094 34.3727C174.094 35.1 173.935 35.7409 173.617 36.2955C173.299 36.85 172.853 37.2818 172.281 37.5909C171.717 37.9 171.062 38.0545 170.317 38.0545C169.572 38.0545 168.912 37.9 168.34 37.5909C167.767 37.2818 167.322 36.85 167.003 36.2955C166.685 35.7409 166.526 35.1 166.526 34.3727C166.526 33.6455 166.685 33.0091 167.003 32.4636C167.322 31.9091 167.767 31.4773 168.34 31.1682C168.912 30.8591 169.572 30.7045 170.317 30.7045ZM170.317 31.9727C169.881 31.9727 169.494 32.0773 169.158 32.2864C168.822 32.4864 168.558 32.7682 168.367 33.1318C168.185 33.4955 168.094 33.9136 168.094 34.3864C168.094 34.8682 168.185 35.2909 168.367 35.6545C168.558 36.0182 168.822 36.3045 169.158 36.5136C169.494 36.7136 169.881 36.8136 170.317 36.8136C170.753 36.8136 171.135 36.7136 171.462 36.5136C171.799 36.3045 172.058 36.0182 172.24 35.6545C172.431 35.2909 172.526 34.8682 172.526 34.3864C172.526 33.9136 172.431 33.4955 172.24 33.1318C172.058 32.7682 171.799 32.4864 171.462 32.2864C171.135 32.0773 170.753 31.9727 170.317 31.9727ZM176.794 34.85C176.794 35.4136 176.944 35.8591 177.244 36.1864C177.544 36.5045 177.958 36.6636 178.485 36.6636C179.112 36.6455 179.599 36.4136 179.944 35.9682C180.299 35.5227 180.476 34.9727 180.476 34.3182H180.899C180.899 35.2091 180.776 35.9273 180.531 36.4727C180.285 37.0182 179.935 37.4182 179.481 37.6727C179.035 37.9182 178.503 38.0455 177.885 38.0545C177.331 38.0545 176.853 37.9409 176.453 37.7136C176.062 37.4864 175.758 37.1636 175.54 36.7455C175.331 36.3273 175.226 35.8318 175.226 35.2591V30.7591H176.794V34.85ZM180.476 30.7591H182.044V38H180.476V30.7591ZM188.171 32.1227C187.653 32.0955 187.203 32.1864 186.821 32.3955C186.449 32.5955 186.158 32.8773 185.949 33.2409C185.749 33.6045 185.649 34.0227 185.649 34.4955L185.212 34.4409C185.212 33.6318 185.33 32.95 185.567 32.3955C185.803 31.8409 186.144 31.4227 186.59 31.1409C187.035 30.85 187.562 30.7045 188.171 30.7045V32.1227ZM184.094 30.7591H185.662V38H184.094V30.7591ZM69.2727 48.8318C69.0182 48.5682 68.7182 48.3636 68.3727 48.2182C68.0273 48.0727 67.6364 48 67.2 48C66.7818 48 66.4091 48.1 66.0818 48.3C65.7545 48.5 65.5 48.7818 65.3182 49.1455C65.1364 49.5 65.0455 49.9136 65.0455 50.3864C65.0455 50.8591 65.1364 51.2773 65.3182 51.6409C65.5 51.9955 65.7545 52.2773 66.0818 52.4864C66.4091 52.6864 66.7818 52.7864 67.2 52.7864C67.6545 52.7864 68.0636 52.7136 68.4273 52.5682C68.7909 52.4136 69.0955 52.1909 69.3409 51.9L70.2136 52.7591C69.8864 53.1682 69.4591 53.4864 68.9318 53.7136C68.4136 53.9409 67.8136 54.0545 67.1318 54.0545C66.4136 54.0545 65.7773 53.9 65.2227 53.5909C64.6773 53.2818 64.25 52.8545 63.9409 52.3091C63.6318 51.7545 63.4773 51.1136 63.4773 50.3864C63.4773 49.6591 63.6318 49.0227 63.9409 48.4773C64.25 47.9227 64.6773 47.4909 65.2227 47.1818C65.7773 46.8636 66.4136 46.7045 67.1318 46.7045C67.7864 46.7045 68.3636 46.8045 68.8636 47.0045C69.3727 47.1955 69.7955 47.4682 70.1318 47.8227L69.2727 48.8318ZM73.6499 50.7682C73.1408 50.7682 72.7635 50.8455 72.5181 51C72.2726 51.1545 72.1499 51.4091 72.1499 51.7636C72.1499 52.1 72.2726 52.3682 72.5181 52.5682C72.7726 52.7682 73.1181 52.8682 73.5544 52.8682C73.9453 52.8682 74.2953 52.8 74.6044 52.6636C74.9135 52.5273 75.159 52.3455 75.3408 52.1182C75.5226 51.8818 75.6181 51.6182 75.6272 51.3273L75.9272 52.65C75.6999 53.1227 75.3544 53.4773 74.8908 53.7136C74.4272 53.95 73.8726 54.0682 73.2272 54.0682C72.709 54.0682 72.259 53.9682 71.8772 53.7682C71.4953 53.5682 71.1999 53.3 70.9908 52.9636C70.7817 52.6182 70.6772 52.2364 70.6772 51.8182C70.6772 51.1636 70.9135 50.6409 71.3863 50.25C71.8681 49.8591 72.5453 49.6591 73.4181 49.65H75.8181V50.7682H73.6499ZM75.6135 49.4045C75.6135 48.9318 75.4681 48.5636 75.1772 48.3C74.8863 48.0364 74.4544 47.9045 73.8817 47.9045C73.5363 47.9045 73.1817 47.9682 72.8181 48.0955C72.4635 48.2227 72.1044 48.4091 71.7408 48.6545L71.0999 47.6455C71.4363 47.4364 71.7544 47.2636 72.0544 47.1273C72.3544 46.9909 72.6726 46.8864 73.009 46.8136C73.3544 46.7409 73.759 46.7045 74.2226 46.7045C75.159 46.7045 75.8772 46.9318 76.3772 47.3864C76.8863 47.8318 77.1453 48.45 77.1544 49.2409L77.1681 54H75.6272L75.6135 49.4045ZM83.0718 48.1227C82.5536 48.0955 82.1036 48.1864 81.7218 48.3955C81.349 48.5955 81.0581 48.8773 80.849 49.2409C80.649 49.6045 80.549 50.0227 80.549 50.4955L80.1127 50.4409C80.1127 49.6318 80.2309 48.95 80.4672 48.3955C80.7036 47.8409 81.0445 47.4227 81.49 47.1409C81.9354 46.85 82.4627 46.7045 83.0718 46.7045V48.1227ZM78.9945 46.7591H80.5627V54H78.9945V46.7591ZM83.8157 44.5773H85.3157V46.9227L85.0566 51H84.0748L83.8157 46.9227V44.5773ZM84.5657 52.3909C84.8112 52.3909 85.0157 52.4727 85.1793 52.6364C85.343 52.7909 85.4248 52.9955 85.4248 53.25C85.4248 53.5045 85.343 53.7136 85.1793 53.8773C85.0157 54.0409 84.8112 54.1227 84.5657 54.1227C84.3202 54.1227 84.1157 54.0409 83.9521 53.8773C83.7884 53.7136 83.7066 53.5045 83.7066 53.25C83.7066 52.9955 83.7884 52.7909 83.9521 52.6364C84.1157 52.4727 84.3202 52.3909 84.5657 52.3909Z" fill="#101044"/>
<defs>
<clipPath id="clip0_534_15314">
<rect width="18.7197" height="13.8037" fill="white" transform="translate(23 27)"/>
</clipPath>
</defs>
</svg>
