<svg width="28" height="27" viewBox="0 0 28 27" fill="none" xmlns="http://www.w3.org/2000/svg">
<rect x="0.5" y="0.5" width="26.6779" height="26.1443" rx="13.0721" fill="white"/>
<path d="M25.5366 11.5171C25.4329 11.1913 25.1289 10.9694 24.7899 10.9694H17.4007L14.8484 3.17684C14.742 2.85384 14.4408 2.63477 14.1032 2.63477C13.7656 2.63477 13.463 2.85384 13.358 3.17684L10.8057 10.9694H3.41648C3.07468 10.9694 2.77351 11.1913 2.66985 11.5171C2.56619 11.8429 2.68526 12.1982 2.96262 12.3976L8.93984 16.664L6.53186 24.01C6.4254 24.3344 6.54027 24.6883 6.81203 24.8905C6.9493 24.993 7.1118 25.0436 7.27849 25.0436C7.44519 25.0436 7.59647 24.9944 7.73375 24.8975L14.1046 20.3503L20.4755 24.8975C20.7528 25.097 21.1226 25.0913 21.3958 24.8905C21.6703 24.6883 21.781 24.3344 21.6759 24.01L19.268 16.664L25.2452 12.3976C25.5239 12.1982 25.643 11.8429 25.538 11.5171H25.5366Z" fill="#99F22B"/>
</svg>
