<svg width="242" height="69" viewBox="0 0 242 69" fill="none" xmlns="http://www.w3.org/2000/svg">
<rect width="231" height="69" rx="10" fill="white"/>
<rect x="228.727" y="21" width="18" height="18" rx="2" transform="rotate(45 228.727 21)" fill="white"/>
<rect x="15" y="17" width="34" height="34" rx="17" fill="#695DFD"/>
<g clip-path="url(#clip0_530_42329)">
<path d="M23 34H26" stroke="white" stroke-width="2" stroke-linecap="round" stroke-linejoin="round"/>
<path d="M32 25V28" stroke="white" stroke-width="2" stroke-linecap="round" stroke-linejoin="round"/>
<path d="M27.7996 29.7996L25.5996 27.5996" stroke="white" stroke-width="2" stroke-linecap="round" stroke-linejoin="round"/>
<path d="M36.1992 29.7996L38.3992 27.5996" stroke="white" stroke-width="2" stroke-linecap="round" stroke-linejoin="round"/>
<path d="M27.7996 38.2002L25.5996 40.4002" stroke="white" stroke-width="2" stroke-linecap="round" stroke-linejoin="round"/>
<path d="M32 34L41 37L37 39L35 43L32 34Z" stroke="white" stroke-width="2" stroke-linecap="round" stroke-linejoin="round"/>
</g>
<path d="M68.5227 20.3591C69.2318 20.3591 69.8909 20.4818 70.5 20.7273C71.1182 20.9727 71.6545 21.3182 72.1091 21.7636C72.5727 22.2091 72.9318 22.7273 73.1864 23.3182C73.45 23.9 73.5818 24.5318 73.5818 25.2136C73.5818 25.8955 73.45 26.5364 73.1864 27.1364C72.9318 27.7273 72.5727 28.2455 72.1091 28.6909C71.6545 29.1364 71.1182 29.4864 70.5 29.7409C69.8909 29.9864 69.2318 30.1091 68.5227 30.1091C67.8136 30.1091 67.15 29.9864 66.5318 29.7409C65.9227 29.4864 65.3864 29.1364 64.9227 28.6909C64.4682 28.2455 64.1091 27.7273 63.8455 27.1364C63.5909 26.5364 63.4636 25.8955 63.4636 25.2136C63.4636 24.5318 63.5909 23.8955 63.8455 23.3045C64.1091 22.7136 64.4682 22.2 64.9227 21.7636C65.3864 21.3182 65.9227 20.9727 66.5318 20.7273C67.15 20.4818 67.8136 20.3591 68.5227 20.3591ZM68.5364 21.7227C68.0636 21.7227 67.6182 21.8136 67.2 21.9955C66.7909 22.1682 66.4273 22.4136 66.1091 22.7318C65.7909 23.05 65.5409 23.4227 65.3591 23.85C65.1864 24.2682 65.1 24.7227 65.1 25.2136C65.1 25.7045 65.1909 26.1636 65.3727 26.5909C65.5545 27.0182 65.8045 27.3955 66.1227 27.7227C66.4409 28.0409 66.8045 28.2909 67.2136 28.4727C67.6318 28.6545 68.0727 28.7455 68.5364 28.7455C69 28.7455 69.4364 28.6545 69.8455 28.4727C70.2636 28.2909 70.6273 28.0409 70.9364 27.7227C71.2455 27.3955 71.4864 27.0182 71.6591 26.5909C71.8409 26.1636 71.9318 25.7045 71.9318 25.2136C71.9318 24.7227 71.8409 24.2682 71.6591 23.85C71.4864 23.4227 71.2455 23.05 70.9364 22.7318C70.6273 22.4136 70.2636 22.1682 69.8455 21.9955C69.4364 21.8136 69 21.7227 68.5364 21.7227ZM80.2987 25.9091C80.2987 25.3455 80.1441 24.9045 79.8351 24.5864C79.526 24.2591 79.0987 24.0955 78.5532 24.0955C77.9078 24.1045 77.3987 24.3318 77.026 24.7773C76.6623 25.2227 76.4805 25.7773 76.4805 26.4409H76.0441C76.0441 25.5409 76.1714 24.8182 76.426 24.2727C76.6805 23.7273 77.0396 23.3318 77.5032 23.0864C77.976 22.8318 78.5305 22.7045 79.1669 22.7045C79.7305 22.7045 80.2123 22.8182 80.6123 23.0455C81.0214 23.2727 81.3305 23.5955 81.5396 24.0136C81.7578 24.4227 81.8669 24.9182 81.8669 25.5V30H80.2987V25.9091ZM74.926 22.7591H76.4941V30H74.926V22.7591ZM88.7135 25.8545C88.6953 25.4455 88.5999 25.1 88.4271 24.8182C88.2635 24.5273 88.0317 24.3045 87.7317 24.15C87.4317 23.9864 87.0862 23.9045 86.6953 23.9045C86.2589 23.9045 85.8771 24.0045 85.5499 24.2045C85.2317 24.4045 84.9817 24.6864 84.7999 25.05C84.618 25.4045 84.5271 25.8227 84.5271 26.3045C84.5271 26.8227 84.6226 27.2727 84.8135 27.6545C85.0135 28.0364 85.2862 28.3318 85.6317 28.5409C85.9862 28.75 86.3908 28.8545 86.8453 28.8545C87.6544 28.8545 88.3362 28.5682 88.8908 27.9955L89.7226 28.8273C89.368 29.2182 88.9362 29.5227 88.4271 29.7409C87.918 29.95 87.3499 30.0545 86.7226 30.0545C85.9771 30.0545 85.3271 29.9 84.7726 29.5909C84.218 29.2818 83.7862 28.8545 83.4771 28.3091C83.168 27.7545 83.0135 27.1136 83.0135 26.3864C83.0135 25.6591 83.168 25.0227 83.4771 24.4773C83.7862 23.9227 84.218 23.4909 84.7726 23.1818C85.3271 22.8727 85.9635 22.7136 86.6817 22.7045C87.5362 22.7045 88.2226 22.8818 88.7408 23.2364C89.259 23.5818 89.6271 24.0727 89.8453 24.7091C90.0635 25.3455 90.1408 26.1 90.0771 26.9727H84.2817V25.8545H88.7135ZM91.112 25.3364H94.4665V26.3727H91.112V25.3364ZM101.301 24.8318C101.046 24.5682 100.746 24.3636 100.401 24.2182C100.055 24.0727 99.6642 24 99.2279 24C98.8097 24 98.437 24.1 98.1097 24.3C97.7824 24.5 97.5279 24.7818 97.3461 25.1455C97.1642 25.5 97.0733 25.9136 97.0733 26.3864C97.0733 26.8591 97.1642 27.2773 97.3461 27.6409C97.5279 27.9955 97.7824 28.2773 98.1097 28.4864C98.437 28.6864 98.8097 28.7864 99.2279 28.7864C99.6824 28.7864 100.092 28.7136 100.455 28.5682C100.819 28.4136 101.123 28.1909 101.369 27.9L102.242 28.7591C101.914 29.1682 101.487 29.4864 100.96 29.7136C100.442 29.9409 99.8415 30.0545 99.1597 30.0545C98.4415 30.0545 97.8052 29.9 97.2506 29.5909C96.7052 29.2818 96.2779 28.8545 95.9688 28.3091C95.6597 27.7545 95.5052 27.1136 95.5052 26.3864C95.5052 25.6591 95.6597 25.0227 95.9688 24.4773C96.2779 23.9227 96.7052 23.4909 97.2506 23.1818C97.8052 22.8636 98.4415 22.7045 99.1597 22.7045C99.8142 22.7045 100.392 22.8045 100.892 23.0045C101.401 23.1955 101.823 23.4682 102.16 23.8227L101.301 24.8318ZM103.68 19.8818H105.248V30H103.68V19.8818ZM107.36 22.7591H108.915V30H107.36V22.7591ZM108.138 19.7727C108.401 19.7727 108.619 19.8591 108.792 20.0318C108.965 20.2045 109.051 20.4227 109.051 20.6864C109.051 20.9409 108.965 21.1591 108.792 21.3409C108.619 21.5136 108.401 21.6 108.138 21.6C107.883 21.6 107.665 21.5136 107.483 21.3409C107.31 21.1591 107.224 20.9409 107.224 20.6864C107.224 20.4227 107.31 20.2045 107.483 20.0318C107.665 19.8591 107.883 19.7727 108.138 19.7727ZM116.076 24.8318C115.822 24.5682 115.522 24.3636 115.176 24.2182C114.831 24.0727 114.44 24 114.004 24C113.585 24 113.213 24.1 112.885 24.3C112.558 24.5 112.304 24.7818 112.122 25.1455C111.94 25.5 111.849 25.9136 111.849 26.3864C111.849 26.8591 111.94 27.2773 112.122 27.6409C112.304 27.9955 112.558 28.2773 112.885 28.4864C113.213 28.6864 113.585 28.7864 114.004 28.7864C114.458 28.7864 114.867 28.7136 115.231 28.5682C115.595 28.4136 115.899 28.1909 116.145 27.9L117.017 28.7591C116.69 29.1682 116.263 29.4864 115.735 29.7136C115.217 29.9409 114.617 30.0545 113.935 30.0545C113.217 30.0545 112.581 29.9 112.026 29.5909C111.481 29.2818 111.054 28.8545 110.745 28.3091C110.435 27.7545 110.281 27.1136 110.281 26.3864C110.281 25.6591 110.435 25.0227 110.745 24.4773C111.054 23.9227 111.481 23.4909 112.026 23.1818C112.581 22.8636 113.217 22.7045 113.935 22.7045C114.59 22.7045 115.167 22.8045 115.667 23.0045C116.176 23.1955 116.599 23.4682 116.935 23.8227L116.076 24.8318ZM118.455 19.8818H120.023V30H118.455V19.8818ZM123.228 22.7591H125.028L119.901 28.0773V26.2091L123.228 22.7591ZM122.192 25.3364L125.233 30H123.378L121.033 26.2773L122.192 25.3364ZM133.8 22.7045C134.491 22.7045 135.095 22.8591 135.613 23.1682C136.132 23.4773 136.536 23.9091 136.827 24.4636C137.118 25.0182 137.263 25.6636 137.263 26.4C137.263 27.1182 137.118 27.7545 136.827 28.3091C136.545 28.8545 136.145 29.2818 135.627 29.5909C135.118 29.9 134.518 30.0545 133.827 30.0545C133.163 30.0545 132.595 29.9091 132.122 29.6182C131.659 29.3273 131.304 28.9091 131.059 28.3636C130.813 27.8091 130.691 27.1545 130.691 26.4C130.691 25.6182 130.813 24.9545 131.059 24.4091C131.304 23.8545 131.659 23.4318 132.122 23.1409C132.595 22.85 133.154 22.7045 133.8 22.7045ZM133.472 23.9455C133.045 23.9455 132.663 24.05 132.327 24.2591C131.991 24.4682 131.727 24.7545 131.536 25.1182C131.354 25.4727 131.263 25.8864 131.263 26.3591C131.263 26.8318 131.354 27.2545 131.536 27.6273C131.727 27.9909 131.991 28.2773 132.327 28.4864C132.663 28.6864 133.045 28.7864 133.472 28.7864C133.909 28.7864 134.291 28.6818 134.618 28.4727C134.954 28.2636 135.213 27.9773 135.395 27.6136C135.586 27.25 135.682 26.8318 135.682 26.3591C135.682 25.8955 135.586 25.4818 135.395 25.1182C135.213 24.7545 134.954 24.4682 134.618 24.2591C134.291 24.05 133.909 23.9455 133.472 23.9455ZM129.695 22.7591H131.263V32.6455H129.695V22.7591ZM140.995 26.7682C140.486 26.7682 140.109 26.8455 139.864 27C139.618 27.1545 139.495 27.4091 139.495 27.7636C139.495 28.1 139.618 28.3682 139.864 28.5682C140.118 28.7682 140.464 28.8682 140.9 28.8682C141.291 28.8682 141.641 28.8 141.95 28.6636C142.259 28.5273 142.505 28.3455 142.686 28.1182C142.868 27.8818 142.964 27.6182 142.973 27.3273L143.273 28.65C143.045 29.1227 142.7 29.4773 142.236 29.7136C141.773 29.95 141.218 30.0682 140.573 30.0682C140.055 30.0682 139.605 29.9682 139.223 29.7682C138.841 29.5682 138.545 29.3 138.336 28.9636C138.127 28.6182 138.023 28.2364 138.023 27.8182C138.023 27.1636 138.259 26.6409 138.732 26.25C139.214 25.8591 139.891 25.6591 140.764 25.65H143.164V26.7682H140.995ZM142.959 25.4045C142.959 24.9318 142.814 24.5636 142.523 24.3C142.232 24.0364 141.8 23.9045 141.227 23.9045C140.882 23.9045 140.527 23.9682 140.164 24.0955C139.809 24.2227 139.45 24.4091 139.086 24.6545L138.445 23.6455C138.782 23.4364 139.1 23.2636 139.4 23.1273C139.7 22.9909 140.018 22.8864 140.355 22.8136C140.7 22.7409 141.105 22.7045 141.568 22.7045C142.505 22.7045 143.223 22.9318 143.723 23.3864C144.232 23.8318 144.491 24.45 144.5 25.2409L144.514 30H142.973L142.959 25.4045ZM148.977 31.0227C148.75 31.5773 148.436 31.9955 148.036 32.2773C147.636 32.5682 147.163 32.7136 146.618 32.7136C146.291 32.7136 145.991 32.6636 145.718 32.5636C145.454 32.4636 145.195 32.3136 144.941 32.1136L145.609 30.9545C145.936 31.1909 146.25 31.3091 146.55 31.3091C146.786 31.3091 147 31.2409 147.191 31.1045C147.382 30.9682 147.536 30.7591 147.654 30.4773L147.9 29.9045L144.9 22.7591H146.522L148.691 28.35L150.709 22.7591H152.277L148.977 31.0227ZM158.456 25.9091C158.456 25.3364 158.306 24.8909 158.006 24.5727C157.706 24.2455 157.288 24.0818 156.751 24.0818C156.124 24.1 155.628 24.3318 155.265 24.7773C154.91 25.2227 154.733 25.7727 154.733 26.4273H154.297C154.297 25.5364 154.419 24.8182 154.665 24.2727C154.919 23.7273 155.274 23.3318 155.728 23.0864C156.192 22.8318 156.738 22.7045 157.365 22.7045C157.919 22.7045 158.392 22.8182 158.783 23.0455C159.183 23.2727 159.488 23.5955 159.697 24.0136C159.915 24.4227 160.024 24.9182 160.024 25.5V30H158.456V25.9091ZM163.733 25.9091C163.733 25.3364 163.578 24.8909 163.269 24.5727C162.969 24.2455 162.551 24.0818 162.015 24.0818C161.397 24.1 160.91 24.3318 160.556 24.7773C160.201 25.2227 160.024 25.7727 160.024 26.4273H159.574C159.574 25.5364 159.697 24.8182 159.942 24.2727C160.197 23.7273 160.551 23.3318 161.006 23.0864C161.469 22.8318 162.015 22.7045 162.642 22.7045C163.197 22.7045 163.669 22.8182 164.06 23.0455C164.46 23.2727 164.765 23.5955 164.974 24.0136C165.192 24.4227 165.301 24.9182 165.301 25.5V30H163.733V25.9091ZM153.178 22.7591H154.733V30H153.178V22.7591ZM172.146 25.8545C172.128 25.4455 172.033 25.1 171.86 24.8182C171.696 24.5273 171.464 24.3045 171.164 24.15C170.864 23.9864 170.519 23.9045 170.128 23.9045C169.692 23.9045 169.31 24.0045 168.983 24.2045C168.664 24.4045 168.414 24.6864 168.233 25.05C168.051 25.4045 167.96 25.8227 167.96 26.3045C167.96 26.8227 168.055 27.2727 168.246 27.6545C168.446 28.0364 168.719 28.3318 169.064 28.5409C169.419 28.75 169.823 28.8545 170.278 28.8545C171.087 28.8545 171.769 28.5682 172.323 27.9955L173.155 28.8273C172.801 29.2182 172.369 29.5227 171.86 29.7409C171.351 29.95 170.783 30.0545 170.155 30.0545C169.41 30.0545 168.76 29.9 168.205 29.5909C167.651 29.2818 167.219 28.8545 166.91 28.3091C166.601 27.7545 166.446 27.1136 166.446 26.3864C166.446 25.6591 166.601 25.0227 166.91 24.4773C167.219 23.9227 167.651 23.4909 168.205 23.1818C168.76 22.8727 169.396 22.7136 170.114 22.7045C170.969 22.7045 171.655 22.8818 172.173 23.2364C172.692 23.5818 173.06 24.0727 173.278 24.7091C173.496 25.3455 173.573 26.1 173.51 26.9727H167.714V25.8545H172.146ZM180.245 25.9091C180.245 25.3455 180.09 24.9045 179.781 24.5864C179.472 24.2591 179.045 24.0955 178.499 24.0955C177.854 24.1045 177.345 24.3318 176.972 24.7773C176.608 25.2227 176.427 25.7773 176.427 26.4409H175.99C175.99 25.5409 176.117 24.8182 176.372 24.2727C176.627 23.7273 176.986 23.3318 177.449 23.0864C177.922 22.8318 178.477 22.7045 179.113 22.7045C179.677 22.7045 180.158 22.8182 180.558 23.0455C180.967 23.2727 181.277 23.5955 181.486 24.0136C181.704 24.4227 181.813 24.9182 181.813 25.5V30H180.245V25.9091ZM174.872 22.7591H176.44V30H174.872V22.7591ZM185.482 27.7091C185.482 28.1 185.55 28.3682 185.687 28.5136C185.823 28.65 186.014 28.7182 186.26 28.7182C186.423 28.7182 186.591 28.6909 186.764 28.6364C186.946 28.5818 187.141 28.5 187.35 28.3909L187.746 29.5227C187.464 29.6955 187.173 29.8318 186.873 29.9318C186.573 30.0227 186.269 30.0682 185.96 30.0682C185.596 30.0682 185.26 30 184.95 29.8636C184.641 29.7182 184.391 29.4909 184.2 29.1818C184.019 28.8727 183.928 28.4727 183.928 27.9818V21.0409H185.482V27.7091ZM182.905 23.0182H187.623V24.1364H182.905V23.0182ZM193.054 24.5182C192.735 24.3273 192.385 24.1773 192.004 24.0682C191.631 23.95 191.285 23.8909 190.967 23.8909C190.658 23.8909 190.404 23.95 190.204 24.0682C190.004 24.1864 189.904 24.3818 189.904 24.6545C189.904 24.8818 189.994 25.0636 190.176 25.2C190.367 25.3273 190.608 25.4364 190.899 25.5273C191.19 25.6182 191.499 25.7136 191.826 25.8136C192.154 25.9136 192.463 26.0455 192.754 26.2091C193.054 26.3636 193.294 26.5773 193.476 26.85C193.658 27.1227 193.749 27.4818 193.749 27.9273C193.749 28.4182 193.617 28.8227 193.354 29.1409C193.099 29.45 192.758 29.6818 192.331 29.8364C191.913 29.9818 191.458 30.0545 190.967 30.0545C190.44 30.0545 189.913 29.9682 189.385 29.7955C188.858 29.6227 188.413 29.3727 188.049 29.0455L188.608 27.9818C188.926 28.2636 189.313 28.4864 189.767 28.65C190.222 28.8045 190.644 28.8818 191.035 28.8818C191.263 28.8818 191.463 28.8545 191.635 28.8C191.817 28.7364 191.958 28.6455 192.058 28.5273C192.167 28.4091 192.222 28.2545 192.222 28.0636C192.222 27.8091 192.131 27.6091 191.949 27.4636C191.767 27.3182 191.531 27.2 191.24 27.1091C190.949 27.0091 190.64 26.9136 190.313 26.8227C189.985 26.7227 189.676 26.5955 189.385 26.4409C189.104 26.2864 188.872 26.0773 188.69 25.8136C188.508 25.55 188.417 25.2 188.417 24.7636C188.417 24.2727 188.544 23.8773 188.799 23.5773C189.054 23.2682 189.381 23.0455 189.781 22.9091C190.19 22.7636 190.626 22.6909 191.09 22.6909C191.544 22.6909 191.999 22.7545 192.454 22.8818C192.908 23.0091 193.299 23.1864 193.626 23.4136L193.054 24.5182ZM69.4364 41.9091C69.4364 41.3364 69.2864 40.8909 68.9864 40.5727C68.6864 40.2455 68.2682 40.0818 67.7318 40.0818C67.1045 40.1 66.6091 40.3318 66.2455 40.7773C65.8909 41.2227 65.7136 41.7727 65.7136 42.4273H65.2773C65.2773 41.5364 65.4 40.8182 65.6455 40.2727C65.9 39.7273 66.2545 39.3318 66.7091 39.0864C67.1727 38.8318 67.7182 38.7045 68.3455 38.7045C68.9 38.7045 69.3727 38.8182 69.7636 39.0455C70.1636 39.2727 70.4682 39.5955 70.6773 40.0136C70.8955 40.4227 71.0045 40.9182 71.0045 41.5V46H69.4364V41.9091ZM74.7136 41.9091C74.7136 41.3364 74.5591 40.8909 74.25 40.5727C73.95 40.2455 73.5318 40.0818 72.9955 40.0818C72.3773 40.1 71.8909 40.3318 71.5364 40.7773C71.1818 41.2227 71.0045 41.7727 71.0045 42.4273H70.5545C70.5545 41.5364 70.6773 40.8182 70.9227 40.2727C71.1773 39.7273 71.5318 39.3318 71.9864 39.0864C72.45 38.8318 72.9955 38.7045 73.6227 38.7045C74.1773 38.7045 74.65 38.8182 75.0409 39.0455C75.4409 39.2727 75.7455 39.5955 75.9545 40.0136C76.1727 40.4227 76.2818 40.9182 76.2818 41.5V46H74.7136V41.9091ZM64.1591 38.7591H65.7136V46H64.1591V38.7591ZM80.4814 42.7682C79.9723 42.7682 79.595 42.8455 79.3496 43C79.1041 43.1545 78.9814 43.4091 78.9814 43.7636C78.9814 44.1 79.1041 44.3682 79.3496 44.5682C79.6041 44.7682 79.9496 44.8682 80.3859 44.8682C80.7768 44.8682 81.1268 44.8 81.4359 44.6636C81.745 44.5273 81.9905 44.3455 82.1723 44.1182C82.3541 43.8818 82.4496 43.6182 82.4587 43.3273L82.7587 44.65C82.5314 45.1227 82.1859 45.4773 81.7223 45.7136C81.2587 45.95 80.7041 46.0682 80.0587 46.0682C79.5405 46.0682 79.0905 45.9682 78.7087 45.7682C78.3268 45.5682 78.0314 45.3 77.8223 44.9636C77.6132 44.6182 77.5087 44.2364 77.5087 43.8182C77.5087 43.1636 77.745 42.6409 78.2178 42.25C78.6996 41.8591 79.3768 41.6591 80.2496 41.65H82.6496V42.7682H80.4814ZM82.445 41.4045C82.445 40.9318 82.2996 40.5636 82.0087 40.3C81.7178 40.0364 81.2859 39.9045 80.7132 39.9045C80.3678 39.9045 80.0132 39.9682 79.6496 40.0955C79.295 40.2227 78.9359 40.4091 78.5723 40.6545L77.9314 39.6455C78.2678 39.4364 78.5859 39.2636 78.8859 39.1273C79.1859 38.9909 79.5041 38.8864 79.8405 38.8136C80.1859 38.7409 80.5905 38.7045 81.0541 38.7045C81.9905 38.7045 82.7087 38.9318 83.2087 39.3864C83.7178 39.8318 83.9768 40.45 83.9859 41.2409L83.9996 46H82.4587L82.445 41.4045ZM85.8942 35.8818H87.4624V46H85.8942V35.8818ZM90.6669 38.7591H92.4669L87.3396 44.0773V42.2091L90.6669 38.7591ZM89.6305 41.3364L92.6715 46H90.8169L88.4715 42.2773L89.6305 41.3364ZM98.3351 41.8545C98.3169 41.4455 98.2215 41.1 98.0488 40.8182C97.8851 40.5273 97.6533 40.3045 97.3533 40.15C97.0533 39.9864 96.7078 39.9045 96.3169 39.9045C95.8806 39.9045 95.4988 40.0045 95.1715 40.2045C94.8533 40.4045 94.6033 40.6864 94.4215 41.05C94.2397 41.4045 94.1488 41.8227 94.1488 42.3045C94.1488 42.8227 94.2442 43.2727 94.4351 43.6545C94.6351 44.0364 94.9078 44.3318 95.2533 44.5409C95.6078 44.75 96.0124 44.8545 96.4669 44.8545C97.276 44.8545 97.9578 44.5682 98.5124 43.9955L99.3442 44.8273C98.9897 45.2182 98.5578 45.5227 98.0488 45.7409C97.5397 45.95 96.9715 46.0545 96.3442 46.0545C95.5988 46.0545 94.9488 45.9 94.3942 45.5909C93.8397 45.2818 93.4078 44.8545 93.0988 44.3091C92.7897 43.7545 92.6351 43.1136 92.6351 42.3864C92.6351 41.6591 92.7897 41.0227 93.0988 40.4773C93.4078 39.9227 93.8397 39.4909 94.3942 39.1818C94.9488 38.8727 95.5851 38.7136 96.3033 38.7045C97.1578 38.7045 97.8442 38.8818 98.3624 39.2364C98.8806 39.5818 99.2488 40.0727 99.4669 40.7091C99.6851 41.3455 99.7624 42.1 99.6988 42.9727H93.9033V41.8545H98.3351ZM105.193 40.5182C104.875 40.3273 104.525 40.1773 104.143 40.0682C103.77 39.95 103.425 39.8909 103.106 39.8909C102.797 39.8909 102.543 39.95 102.343 40.0682C102.143 40.1864 102.043 40.3818 102.043 40.6545C102.043 40.8818 102.134 41.0636 102.315 41.2C102.506 41.3273 102.747 41.4364 103.038 41.5273C103.329 41.6182 103.638 41.7136 103.965 41.8136C104.293 41.9136 104.602 42.0455 104.893 42.2091C105.193 42.3636 105.434 42.5773 105.615 42.85C105.797 43.1227 105.888 43.4818 105.888 43.9273C105.888 44.4182 105.756 44.8227 105.493 45.1409C105.238 45.45 104.897 45.6818 104.47 45.8364C104.052 45.9818 103.597 46.0545 103.106 46.0545C102.579 46.0545 102.052 45.9682 101.525 45.7955C100.997 45.6227 100.552 45.3727 100.188 45.0455L100.747 43.9818C101.065 44.2636 101.452 44.4864 101.906 44.65C102.361 44.8045 102.784 44.8818 103.175 44.8818C103.402 44.8818 103.602 44.8545 103.775 44.8C103.956 44.7364 104.097 44.6455 104.197 44.5273C104.306 44.4091 104.361 44.2545 104.361 44.0636C104.361 43.8091 104.27 43.6091 104.088 43.4636C103.906 43.3182 103.67 43.2 103.379 43.1091C103.088 43.0091 102.779 42.9136 102.452 42.8227C102.125 42.7227 101.815 42.5955 101.525 42.4409C101.243 42.2864 101.011 42.0773 100.829 41.8136C100.647 41.55 100.556 41.2 100.556 40.7636C100.556 40.2727 100.684 39.8773 100.938 39.5773C101.193 39.2682 101.52 39.0455 101.92 38.9091C102.329 38.7636 102.765 38.6909 103.229 38.6909C103.684 38.6909 104.138 38.7545 104.593 38.8818C105.047 39.0091 105.438 39.1864 105.765 39.4136L105.193 40.5182ZM115.874 41.9091C115.874 41.3364 115.724 40.8909 115.424 40.5727C115.124 40.2455 114.705 40.0818 114.169 40.0818C113.542 40.1 113.046 40.3318 112.683 40.7773C112.328 41.2227 112.151 41.7727 112.151 42.4273H111.714C111.714 41.5364 111.837 40.8182 112.083 40.2727C112.337 39.7273 112.692 39.3318 113.146 39.0864C113.61 38.8318 114.155 38.7045 114.783 38.7045C115.337 38.7045 115.81 38.8182 116.201 39.0455C116.601 39.2727 116.905 39.5955 117.114 40.0136C117.333 40.4227 117.442 40.9182 117.442 41.5V46H115.874V41.9091ZM121.151 41.9091C121.151 41.3364 120.996 40.8909 120.687 40.5727C120.387 40.2455 119.969 40.0818 119.433 40.0818C118.814 40.1 118.328 40.3318 117.974 40.7773C117.619 41.2227 117.442 41.7727 117.442 42.4273H116.992C116.992 41.5364 117.114 40.8182 117.36 40.2727C117.614 39.7273 117.969 39.3318 118.424 39.0864C118.887 38.8318 119.433 38.7045 120.06 38.7045C120.614 38.7045 121.087 38.8182 121.478 39.0455C121.878 39.2727 122.183 39.5955 122.392 40.0136C122.61 40.4227 122.719 40.9182 122.719 41.5V46H121.151V41.9091ZM110.596 38.7591H112.151V46H110.596V38.7591ZM127.183 47.0227C126.955 47.5773 126.642 47.9955 126.242 48.2773C125.842 48.5682 125.369 48.7136 124.824 48.7136C124.496 48.7136 124.196 48.6636 123.924 48.5636C123.66 48.4636 123.401 48.3136 123.146 48.1136L123.815 46.9545C124.142 47.1909 124.455 47.3091 124.755 47.3091C124.992 47.3091 125.205 47.2409 125.396 47.1045C125.587 46.9682 125.742 46.7591 125.86 46.4773L126.105 45.9045L123.105 38.7591H124.728L126.896 44.35L128.915 38.7591H130.483L127.183 47.0227ZM133.071 47.3227C133.18 47.3591 133.289 47.3864 133.398 47.4045C133.498 47.4318 133.602 47.45 133.712 47.4591C134.366 47.4773 134.693 47.0318 134.693 46.1227V38.7591H136.262V46.3409C136.262 47.0955 136.066 47.6773 135.675 48.0864C135.284 48.5045 134.739 48.7091 134.039 48.7C133.548 48.6818 133.112 48.5955 132.73 48.4409L133.071 47.3227ZM135.471 35.7727C135.734 35.7727 135.952 35.8591 136.125 36.0318C136.298 36.2045 136.384 36.4227 136.384 36.6864C136.384 36.9409 136.298 37.1591 136.125 37.3409C135.952 37.5136 135.734 37.6 135.471 37.6C135.216 37.6 134.998 37.5136 134.816 37.3409C134.643 37.1591 134.557 36.9409 134.557 36.6864C134.557 36.4227 134.643 36.2045 134.816 36.0318C134.998 35.8591 135.216 35.7727 135.471 35.7727ZM141.299 38.7045C142.044 38.7045 142.699 38.8591 143.262 39.1682C143.835 39.4773 144.281 39.9091 144.599 40.4636C144.917 41.0091 145.076 41.6455 145.076 42.3727C145.076 43.1 144.917 43.7409 144.599 44.2955C144.281 44.85 143.835 45.2818 143.262 45.5909C142.699 45.9 142.044 46.0545 141.299 46.0545C140.553 46.0545 139.894 45.9 139.321 45.5909C138.749 45.2818 138.303 44.85 137.985 44.2955C137.667 43.7409 137.508 43.1 137.508 42.3727C137.508 41.6455 137.667 41.0091 137.985 40.4636C138.303 39.9091 138.749 39.4773 139.321 39.1682C139.894 38.8591 140.553 38.7045 141.299 38.7045ZM141.299 39.9727C140.862 39.9727 140.476 40.0773 140.14 40.2864C139.803 40.4864 139.54 40.7682 139.349 41.1318C139.167 41.4955 139.076 41.9136 139.076 42.3864C139.076 42.8682 139.167 43.2909 139.349 43.6545C139.54 44.0182 139.803 44.3045 140.14 44.5136C140.476 44.7136 140.862 44.8136 141.299 44.8136C141.735 44.8136 142.117 44.7136 142.444 44.5136C142.781 44.3045 143.04 44.0182 143.221 43.6545C143.412 43.2909 143.508 42.8682 143.508 42.3864C143.508 41.9136 143.412 41.4955 143.221 41.1318C143.04 40.7682 142.781 40.4864 142.444 40.2864C142.117 40.0773 141.735 39.9727 141.299 39.9727ZM150.612 38.7045C151.303 38.7045 151.908 38.8591 152.426 39.1682C152.944 39.4773 153.349 39.9091 153.64 40.4636C153.931 41.0182 154.076 41.6636 154.076 42.4C154.076 43.1182 153.931 43.7545 153.64 44.3091C153.358 44.8545 152.958 45.2818 152.44 45.5909C151.931 45.9 151.331 46.0545 150.64 46.0545C149.976 46.0545 149.408 45.9091 148.935 45.6182C148.471 45.3273 148.117 44.9091 147.871 44.3636C147.626 43.8091 147.503 43.1545 147.503 42.4C147.503 41.6182 147.626 40.9545 147.871 40.4091C148.117 39.8545 148.471 39.4318 148.935 39.1409C149.408 38.85 149.967 38.7045 150.612 38.7045ZM150.285 39.9455C149.858 39.9455 149.476 40.05 149.14 40.2591C148.803 40.4682 148.54 40.7545 148.349 41.1182C148.167 41.4727 148.076 41.8864 148.076 42.3591C148.076 42.8318 148.167 43.2545 148.349 43.6273C148.54 43.9909 148.803 44.2773 149.14 44.4864C149.476 44.6864 149.858 44.7864 150.285 44.7864C150.721 44.7864 151.103 44.6818 151.431 44.4727C151.767 44.2636 152.026 43.9773 152.208 43.6136C152.399 43.25 152.494 42.8318 152.494 42.3591C152.494 41.8955 152.399 41.4818 152.208 41.1182C152.026 40.7545 151.767 40.4682 151.431 40.2591C151.103 40.05 150.721 39.9455 150.285 39.9455ZM146.508 35.8818H148.076V46H146.508V35.8818ZM162.97 40.5182C162.652 40.3273 162.302 40.1773 161.92 40.0682C161.547 39.95 161.202 39.8909 160.884 39.8909C160.574 39.8909 160.32 39.95 160.12 40.0682C159.92 40.1864 159.82 40.3818 159.82 40.6545C159.82 40.8818 159.911 41.0636 160.093 41.2C160.284 41.3273 160.524 41.4364 160.815 41.5273C161.106 41.6182 161.415 41.7136 161.743 41.8136C162.07 41.9136 162.379 42.0455 162.67 42.2091C162.97 42.3636 163.211 42.5773 163.393 42.85C163.574 43.1227 163.665 43.4818 163.665 43.9273C163.665 44.4182 163.534 44.8227 163.27 45.1409C163.015 45.45 162.674 45.6818 162.247 45.8364C161.829 45.9818 161.374 46.0545 160.884 46.0545C160.356 46.0545 159.829 45.9682 159.302 45.7955C158.774 45.6227 158.329 45.3727 157.965 45.0455L158.524 43.9818C158.843 44.2636 159.229 44.4864 159.684 44.65C160.138 44.8045 160.561 44.8818 160.952 44.8818C161.179 44.8818 161.379 44.8545 161.552 44.8C161.734 44.7364 161.874 44.6455 161.974 44.5273C162.084 44.4091 162.138 44.2545 162.138 44.0636C162.138 43.8091 162.047 43.6091 161.865 43.4636C161.684 43.3182 161.447 43.2 161.156 43.1091C160.865 43.0091 160.556 42.9136 160.229 42.8227C159.902 42.7227 159.593 42.5955 159.302 42.4409C159.02 42.2864 158.788 42.0773 158.606 41.8136C158.424 41.55 158.334 41.2 158.334 40.7636C158.334 40.2727 158.461 39.8773 158.715 39.5773C158.97 39.2682 159.297 39.0455 159.697 38.9091C160.106 38.7636 160.543 38.6909 161.006 38.6909C161.461 38.6909 161.915 38.7545 162.37 38.8818C162.824 39.0091 163.215 39.1864 163.543 39.4136L162.97 40.5182ZM168.08 38.7045C168.825 38.7045 169.48 38.8591 170.043 39.1682C170.616 39.4773 171.062 39.9091 171.38 40.4636C171.698 41.0091 171.857 41.6455 171.857 42.3727C171.857 43.1 171.698 43.7409 171.38 44.2955C171.062 44.85 170.616 45.2818 170.043 45.5909C169.48 45.9 168.825 46.0545 168.08 46.0545C167.334 46.0545 166.675 45.9 166.103 45.5909C165.53 45.2818 165.084 44.85 164.766 44.2955C164.448 43.7409 164.289 43.1 164.289 42.3727C164.289 41.6455 164.448 41.0091 164.766 40.4636C165.084 39.9091 165.53 39.4773 166.103 39.1682C166.675 38.8591 167.334 38.7045 168.08 38.7045ZM168.08 39.9727C167.643 39.9727 167.257 40.0773 166.921 40.2864C166.584 40.4864 166.321 40.7682 166.13 41.1318C165.948 41.4955 165.857 41.9136 165.857 42.3864C165.857 42.8682 165.948 43.2909 166.13 43.6545C166.321 44.0182 166.584 44.3045 166.921 44.5136C167.257 44.7136 167.643 44.8136 168.08 44.8136C168.516 44.8136 168.898 44.7136 169.225 44.5136C169.562 44.3045 169.821 44.0182 170.003 43.6545C170.193 43.2909 170.289 42.8682 170.289 42.3864C170.289 41.9136 170.193 41.4955 170.003 41.1318C169.821 40.7682 169.562 40.4864 169.225 40.2864C168.898 40.0773 168.516 39.9727 168.08 39.9727ZM181.642 41.8545C181.623 41.4455 181.528 41.1 181.355 40.8182C181.192 40.5273 180.96 40.3045 180.66 40.15C180.36 39.9864 180.014 39.9045 179.623 39.9045C179.187 39.9045 178.805 40.0045 178.478 40.2045C178.16 40.4045 177.91 40.6864 177.728 41.05C177.546 41.4045 177.455 41.8227 177.455 42.3045C177.455 42.8227 177.551 43.2727 177.742 43.6545C177.942 44.0364 178.214 44.3318 178.56 44.5409C178.914 44.75 179.319 44.8545 179.773 44.8545C180.582 44.8545 181.264 44.5682 181.819 43.9955L182.651 44.8273C182.296 45.2182 181.864 45.5227 181.355 45.7409C180.846 45.95 180.278 46.0545 179.651 46.0545C178.905 46.0545 178.255 45.9 177.701 45.5909C177.146 45.2818 176.714 44.8545 176.405 44.3091C176.096 43.7545 175.942 43.1136 175.942 42.3864C175.942 41.6591 176.096 41.0227 176.405 40.4773C176.714 39.9227 177.146 39.4909 177.701 39.1818C178.255 38.8727 178.892 38.7136 179.61 38.7045C180.464 38.7045 181.151 38.8818 181.669 39.2364C182.187 39.5818 182.555 40.0727 182.773 40.7091C182.992 41.3455 183.069 42.1 183.005 42.9727H177.21V41.8545H181.642ZM186.74 42.7682C186.231 42.7682 185.854 42.8455 185.608 43C185.363 43.1545 185.24 43.4091 185.24 43.7636C185.24 44.1 185.363 44.3682 185.608 44.5682C185.863 44.7682 186.208 44.8682 186.645 44.8682C187.036 44.8682 187.386 44.8 187.695 44.6636C188.004 44.5273 188.249 44.3455 188.431 44.1182C188.613 43.8818 188.708 43.6182 188.717 43.3273L189.017 44.65C188.79 45.1227 188.445 45.4773 187.981 45.7136C187.517 45.95 186.963 46.0682 186.317 46.0682C185.799 46.0682 185.349 45.9682 184.967 45.7682C184.586 45.5682 184.29 45.3 184.081 44.9636C183.872 44.6182 183.767 44.2364 183.767 43.8182C183.767 43.1636 184.004 42.6409 184.476 42.25C184.958 41.8591 185.636 41.6591 186.508 41.65H188.908V42.7682H186.74ZM188.704 41.4045C188.704 40.9318 188.558 40.5636 188.267 40.3C187.976 40.0364 187.545 39.9045 186.972 39.9045C186.626 39.9045 186.272 39.9682 185.908 40.0955C185.554 40.2227 185.195 40.4091 184.831 40.6545L184.19 39.6455C184.526 39.4364 184.845 39.2636 185.145 39.1273C185.445 38.9909 185.763 38.8864 186.099 38.8136C186.445 38.7409 186.849 38.7045 187.313 38.7045C188.249 38.7045 188.967 38.9318 189.467 39.3864C189.976 39.8318 190.236 40.45 190.245 41.2409L190.258 46H188.717L188.704 41.4045ZM196.217 40.5182C195.898 40.3273 195.548 40.1773 195.167 40.0682C194.794 39.95 194.448 39.8909 194.13 39.8909C193.821 39.8909 193.567 39.95 193.367 40.0682C193.167 40.1864 193.067 40.3818 193.067 40.6545C193.067 40.8818 193.157 41.0636 193.339 41.2C193.53 41.3273 193.771 41.4364 194.062 41.5273C194.353 41.6182 194.662 41.7136 194.989 41.8136C195.317 41.9136 195.626 42.0455 195.917 42.2091C196.217 42.3636 196.457 42.5773 196.639 42.85C196.821 43.1227 196.912 43.4818 196.912 43.9273C196.912 44.4182 196.78 44.8227 196.517 45.1409C196.262 45.45 195.921 45.6818 195.494 45.8364C195.076 45.9818 194.621 46.0545 194.13 46.0545C193.603 46.0545 193.076 45.9682 192.548 45.7955C192.021 45.6227 191.576 45.3727 191.212 45.0455L191.771 43.9818C192.089 44.2636 192.476 44.4864 192.93 44.65C193.385 44.8045 193.807 44.8818 194.198 44.8818C194.426 44.8818 194.626 44.8545 194.798 44.8C194.98 44.7364 195.121 44.6455 195.221 44.5273C195.33 44.4091 195.385 44.2545 195.385 44.0636C195.385 43.8091 195.294 43.6091 195.112 43.4636C194.93 43.3182 194.694 43.2 194.403 43.1091C194.112 43.0091 193.803 42.9136 193.476 42.8227C193.148 42.7227 192.839 42.5955 192.548 42.4409C192.267 42.2864 192.035 42.0773 191.853 41.8136C191.671 41.55 191.58 41.2 191.58 40.7636C191.58 40.2727 191.707 39.8773 191.962 39.5773C192.217 39.2682 192.544 39.0455 192.944 38.9091C193.353 38.7636 193.789 38.6909 194.253 38.6909C194.707 38.6909 195.162 38.7545 195.617 38.8818C196.071 39.0091 196.462 39.1864 196.789 39.4136L196.217 40.5182ZM201.001 47.0227C200.773 47.5773 200.46 47.9955 200.06 48.2773C199.66 48.5682 199.187 48.7136 198.642 48.7136C198.314 48.7136 198.014 48.6636 197.742 48.5636C197.478 48.4636 197.219 48.3136 196.964 48.1136L197.633 46.9545C197.96 47.1909 198.273 47.3091 198.573 47.3091C198.81 47.3091 199.023 47.2409 199.214 47.1045C199.405 46.9682 199.56 46.7591 199.678 46.4773L199.923 45.9045L196.923 38.7591H198.546L200.714 44.35L202.733 38.7591H204.301L201.001 47.0227Z" fill="#101044"/>
<defs>
<clipPath id="clip0_530_42329">
<rect width="24" height="24" fill="white" transform="translate(20 22)"/>
</clipPath>
</defs>
</svg>
