<svg width="163" height="82" viewBox="0 0 163 82" fill="none" xmlns="http://www.w3.org/2000/svg">
<rect width="163" height="69" rx="10" fill="white"/>
<rect x="81.7266" y="56" width="18" height="18" rx="2" transform="rotate(45 81.7266 56)" fill="white"/>
<rect x="15" y="17" width="34" height="34" rx="17" fill="#695DFD"/>
<g clip-path="url(#clip0_530_42342)">
<path d="M32.0008 25C34.3366 27.0666 37.3853 28.1426 40.5008 28C40.9544 29.543 41.0932 31.1615 40.9089 32.7592C40.7247 34.3569 40.2211 35.9013 39.4282 37.3005C38.6353 38.6998 37.5692 39.9254 36.2933 40.9045C35.0173 41.8836 33.5576 42.5962 32.0008 43C30.444 42.5962 28.9843 41.8836 27.7084 40.9045C26.4324 39.9254 25.3663 38.6998 24.5734 37.3005C23.7805 35.9013 23.2769 34.3569 23.0927 32.7592C22.9084 31.1615 23.0472 29.543 23.5008 28C26.6163 28.1426 29.665 27.0666 32.0008 25Z" stroke="white" stroke-width="2" stroke-linecap="round" stroke-linejoin="round"/>
<path d="M31 33C31 33.2652 31.1054 33.5196 31.2929 33.7071C31.4804 33.8946 31.7348 34 32 34C32.2652 34 32.5196 33.8946 32.7071 33.7071C32.8946 33.5196 33 33.2652 33 33C33 32.7348 32.8946 32.4804 32.7071 32.2929C32.5196 32.1054 32.2652 32 32 32C31.7348 32 31.4804 32.1054 31.2929 32.2929C31.1054 32.4804 31 32.7348 31 33Z" stroke="white" stroke-width="2" stroke-linecap="round" stroke-linejoin="round"/>
<path d="M32 34V36.5" stroke="white" stroke-width="2" stroke-linecap="round" stroke-linejoin="round"/>
</g>
<path d="M62.0636 14.6636C61.7182 14.4455 61.3773 14.2727 61.0409 14.1455C60.7045 14.0182 60.3864 13.9273 60.0864 13.8727C59.7864 13.8182 59.5136 13.7909 59.2682 13.7909C58.7955 13.7909 58.4182 13.8818 58.1364 14.0636C57.8545 14.2455 57.7136 14.5091 57.7136 14.8545C57.7136 15.1636 57.8045 15.4182 57.9864 15.6182C58.1773 15.8091 58.4227 15.9682 58.7227 16.0955C59.0318 16.2136 59.3682 16.3273 59.7318 16.4364C60.1045 16.5455 60.4727 16.6682 60.8364 16.8045C61.2 16.9318 61.5364 17.1 61.8455 17.3091C62.1545 17.5182 62.4 17.7864 62.5818 18.1136C62.7636 18.4318 62.8545 18.8364 62.8545 19.3273C62.8545 19.8909 62.7 20.3818 62.3909 20.8C62.0818 21.2091 61.6545 21.5273 61.1091 21.7545C60.5727 21.9818 59.9545 22.0955 59.2545 22.0955C58.7545 22.0955 58.2682 22.0318 57.7955 21.9045C57.3227 21.7682 56.8773 21.5864 56.4591 21.3591C56.05 21.1318 55.6818 20.8682 55.3545 20.5682L56.05 19.2455C56.3773 19.5455 56.7227 19.8 57.0864 20.0091C57.4591 20.2182 57.8318 20.3773 58.2045 20.4864C58.5864 20.5955 58.9455 20.65 59.2818 20.65C59.8455 20.65 60.2818 20.5409 60.5909 20.3227C60.9091 20.1045 61.0682 19.8 61.0682 19.4091C61.0682 19.0909 60.9727 18.8364 60.7818 18.6455C60.6 18.4455 60.3545 18.2818 60.0455 18.1545C59.7455 18.0273 59.4091 17.9136 59.0364 17.8136C58.6727 17.7136 58.3045 17.6 57.9318 17.4727C57.5682 17.3364 57.2318 17.1682 56.9227 16.9682C56.6227 16.7682 56.3773 16.5091 56.1864 16.1909C56.0045 15.8727 55.9136 15.4682 55.9136 14.9773C55.9136 14.4409 56.0591 13.9773 56.35 13.5864C56.6409 13.1864 57.0455 12.8773 57.5636 12.6591C58.0909 12.4409 58.7 12.3318 59.3909 12.3318C60.0091 12.3318 60.6091 12.4227 61.1909 12.6045C61.7727 12.7864 62.2864 13.0227 62.7318 13.3136L62.0636 14.6636ZM69.3873 17.8545C69.3691 17.4455 69.2737 17.1 69.101 16.8182C68.9373 16.5273 68.7055 16.3045 68.4055 16.15C68.1055 15.9864 67.7601 15.9045 67.3691 15.9045C66.9328 15.9045 66.551 16.0045 66.2237 16.2045C65.9055 16.4045 65.6555 16.6864 65.4737 17.05C65.2919 17.4045 65.201 17.8227 65.201 18.3045C65.201 18.8227 65.2964 19.2727 65.4873 19.6545C65.6873 20.0364 65.9601 20.3318 66.3055 20.5409C66.6601 20.75 67.0646 20.8545 67.5191 20.8545C68.3282 20.8545 69.0101 20.5682 69.5646 19.9955L70.3964 20.8273C70.0419 21.2182 69.6101 21.5227 69.101 21.7409C68.5919 21.95 68.0237 22.0545 67.3964 22.0545C66.651 22.0545 66.001 21.9 65.4464 21.5909C64.8919 21.2818 64.4601 20.8545 64.151 20.3091C63.8419 19.7545 63.6873 19.1136 63.6873 18.3864C63.6873 17.6591 63.8419 17.0227 64.151 16.4773C64.4601 15.9227 64.8919 15.4909 65.4464 15.1818C66.001 14.8727 66.6373 14.7136 67.3555 14.7045C68.2101 14.7045 68.8964 14.8818 69.4146 15.2364C69.9328 15.5818 70.301 16.0727 70.5191 16.7091C70.7373 17.3455 70.8146 18.1 70.751 18.9727H64.9555V17.8545H69.3873ZM77.2267 16.8318C76.9722 16.5682 76.6722 16.3636 76.3267 16.2182C75.9813 16.0727 75.5904 16 75.154 16C74.7358 16 74.3631 16.1 74.0358 16.3C73.7086 16.5 73.454 16.7818 73.2722 17.1455C73.0904 17.5 72.9995 17.9136 72.9995 18.3864C72.9995 18.8591 73.0904 19.2773 73.2722 19.6409C73.454 19.9955 73.7086 20.2773 74.0358 20.4864C74.3631 20.6864 74.7358 20.7864 75.154 20.7864C75.6086 20.7864 76.0176 20.7136 76.3813 20.5682C76.7449 20.4136 77.0495 20.1909 77.2949 19.9L78.1677 20.7591C77.8404 21.1682 77.4131 21.4864 76.8858 21.7136C76.3676 21.9409 75.7676 22.0545 75.0858 22.0545C74.3676 22.0545 73.7313 21.9 73.1767 21.5909C72.6313 21.2818 72.204 20.8545 71.8949 20.3091C71.5858 19.7545 71.4313 19.1136 71.4313 18.3864C71.4313 17.6591 71.5858 17.0227 71.8949 16.4773C72.204 15.9227 72.6313 15.4909 73.1767 15.1818C73.7313 14.8636 74.3676 14.7045 75.0858 14.7045C75.7404 14.7045 76.3176 14.8045 76.8176 15.0045C77.3267 15.1955 77.7495 15.4682 78.0858 15.8227L77.2267 16.8318ZM80.8738 18.85C80.8738 19.4136 81.0238 19.8591 81.3238 20.1864C81.6238 20.5045 82.0375 20.6636 82.5647 20.6636C83.192 20.6455 83.6784 20.4136 84.0238 19.9682C84.3784 19.5227 84.5556 18.9727 84.5556 18.3182H84.9784C84.9784 19.2091 84.8556 19.9273 84.6102 20.4727C84.3647 21.0182 84.0147 21.4182 83.5602 21.6727C83.1147 21.9182 82.5829 22.0455 81.9647 22.0545C81.4102 22.0545 80.9329 21.9409 80.5329 21.7136C80.142 21.4864 79.8375 21.1636 79.6193 20.7455C79.4102 20.3273 79.3056 19.8318 79.3056 19.2591V14.7591H80.8738V18.85ZM84.5556 14.7591H86.1238V22H84.5556V14.7591ZM92.2509 16.1227C91.7327 16.0955 91.2827 16.1864 90.9009 16.3955C90.5282 16.5955 90.2373 16.8773 90.0282 17.2409C89.8282 17.6045 89.7282 18.0227 89.7282 18.4955L89.2918 18.4409C89.2918 17.6318 89.41 16.95 89.6464 16.3955C89.8827 15.8409 90.2237 15.4227 90.6691 15.1409C91.1146 14.85 91.6418 14.7045 92.2509 14.7045V16.1227ZM88.1737 14.7591H89.7418V22H88.1737V14.7591ZM98.2858 17.8545C98.2676 17.4455 98.1721 17.1 97.9994 16.8182C97.8358 16.5273 97.6039 16.3045 97.3039 16.15C97.0039 15.9864 96.6585 15.9045 96.2676 15.9045C95.8312 15.9045 95.4494 16.0045 95.1221 16.2045C94.8039 16.4045 94.5539 16.6864 94.3721 17.05C94.1903 17.4045 94.0994 17.8227 94.0994 18.3045C94.0994 18.8227 94.1949 19.2727 94.3858 19.6545C94.5858 20.0364 94.8585 20.3318 95.2039 20.5409C95.5585 20.75 95.963 20.8545 96.4176 20.8545C97.2267 20.8545 97.9085 20.5682 98.463 19.9955L99.2949 20.8273C98.9403 21.2182 98.5085 21.5227 97.9994 21.7409C97.4903 21.95 96.9221 22.0545 96.2949 22.0545C95.5494 22.0545 94.8994 21.9 94.3449 21.5909C93.7903 21.2818 93.3585 20.8545 93.0494 20.3091C92.7403 19.7545 92.5858 19.1136 92.5858 18.3864C92.5858 17.6591 92.7403 17.0227 93.0494 16.4773C93.3585 15.9227 93.7903 15.4909 94.3449 15.1818C94.8994 14.8727 95.5358 14.7136 96.2539 14.7045C97.1085 14.7045 97.7949 14.8818 98.313 15.2364C98.8312 15.5818 99.1994 16.0727 99.4176 16.7091C99.6358 17.3455 99.713 18.1 99.6494 18.9727H93.8539V17.8545H98.2858ZM62.0636 30.6636C61.7182 30.4455 61.3773 30.2727 61.0409 30.1455C60.7045 30.0182 60.3864 29.9273 60.0864 29.8727C59.7864 29.8182 59.5136 29.7909 59.2682 29.7909C58.7955 29.7909 58.4182 29.8818 58.1364 30.0636C57.8545 30.2455 57.7136 30.5091 57.7136 30.8545C57.7136 31.1636 57.8045 31.4182 57.9864 31.6182C58.1773 31.8091 58.4227 31.9682 58.7227 32.0955C59.0318 32.2136 59.3682 32.3273 59.7318 32.4364C60.1045 32.5455 60.4727 32.6682 60.8364 32.8045C61.2 32.9318 61.5364 33.1 61.8455 33.3091C62.1545 33.5182 62.4 33.7864 62.5818 34.1136C62.7636 34.4318 62.8545 34.8364 62.8545 35.3273C62.8545 35.8909 62.7 36.3818 62.3909 36.8C62.0818 37.2091 61.6545 37.5273 61.1091 37.7545C60.5727 37.9818 59.9545 38.0955 59.2545 38.0955C58.7545 38.0955 58.2682 38.0318 57.7955 37.9045C57.3227 37.7682 56.8773 37.5864 56.4591 37.3591C56.05 37.1318 55.6818 36.8682 55.3545 36.5682L56.05 35.2455C56.3773 35.5455 56.7227 35.8 57.0864 36.0091C57.4591 36.2182 57.8318 36.3773 58.2045 36.4864C58.5864 36.5955 58.9455 36.65 59.2818 36.65C59.8455 36.65 60.2818 36.5409 60.5909 36.3227C60.9091 36.1045 61.0682 35.8 61.0682 35.4091C61.0682 35.0909 60.9727 34.8364 60.7818 34.6455C60.6 34.4455 60.3545 34.2818 60.0455 34.1545C59.7455 34.0273 59.4091 33.9136 59.0364 33.8136C58.6727 33.7136 58.3045 33.6 57.9318 33.4727C57.5682 33.3364 57.2318 33.1682 56.9227 32.9682C56.6227 32.7682 56.3773 32.5091 56.1864 32.1909C56.0045 31.8727 55.9136 31.4682 55.9136 30.9773C55.9136 30.4409 56.0591 29.9773 56.35 29.5864C56.6409 29.1864 57.0455 28.8773 57.5636 28.6591C58.0909 28.4409 58.7 28.3318 59.3909 28.3318C60.0091 28.3318 60.6091 28.4227 61.1909 28.6045C61.7727 28.7864 62.2864 29.0227 62.7318 29.3136L62.0636 30.6636ZM66.2101 35.7091C66.2101 36.1 66.2782 36.3682 66.4146 36.5136C66.551 36.65 66.7419 36.7182 66.9873 36.7182C67.151 36.7182 67.3191 36.6909 67.4919 36.6364C67.6737 36.5818 67.8691 36.5 68.0782 36.3909L68.4737 37.5227C68.1919 37.6955 67.901 37.8318 67.601 37.9318C67.301 38.0227 66.9964 38.0682 66.6873 38.0682C66.3237 38.0682 65.9873 38 65.6782 37.8636C65.3691 37.7182 65.1191 37.4909 64.9282 37.1818C64.7464 36.8727 64.6555 36.4727 64.6555 35.9818V29.0409H66.2101V35.7091ZM63.6328 31.0182H68.351V32.1364H63.6328V31.0182ZM73.7268 32.1227C73.2086 32.0955 72.7586 32.1864 72.3768 32.3955C72.004 32.5955 71.7131 32.8773 71.504 33.2409C71.304 33.6045 71.204 34.0227 71.204 34.4955L70.7677 34.4409C70.7677 33.6318 70.8859 32.95 71.1222 32.3955C71.3586 31.8409 71.6995 31.4227 72.145 31.1409C72.5904 30.85 73.1177 30.7045 73.7268 30.7045V32.1227ZM69.6495 30.7591H71.2177V38H69.6495V30.7591ZM79.7616 33.8545C79.7434 33.4455 79.648 33.1 79.4753 32.8182C79.3116 32.5273 79.0798 32.3045 78.7798 32.15C78.4798 31.9864 78.1343 31.9045 77.7434 31.9045C77.3071 31.9045 76.9253 32.0045 76.598 32.2045C76.2798 32.4045 76.0298 32.6864 75.848 33.05C75.6662 33.4045 75.5753 33.8227 75.5753 34.3045C75.5753 34.8227 75.6707 35.2727 75.8616 35.6545C76.0616 36.0364 76.3343 36.3318 76.6798 36.5409C77.0343 36.75 77.4389 36.8545 77.8934 36.8545C78.7025 36.8545 79.3843 36.5682 79.9389 35.9955L80.7707 36.8273C80.4162 37.2182 79.9843 37.5227 79.4753 37.7409C78.9662 37.95 78.398 38.0545 77.7707 38.0545C77.0253 38.0545 76.3753 37.9 75.8207 37.5909C75.2662 37.2818 74.8343 36.8545 74.5253 36.3091C74.2162 35.7545 74.0616 35.1136 74.0616 34.3864C74.0616 33.6591 74.2162 33.0227 74.5253 32.4773C74.8343 31.9227 75.2662 31.4909 75.8207 31.1818C76.3753 30.8727 77.0116 30.7136 77.7298 30.7045C78.5843 30.7045 79.2707 30.8818 79.7889 31.2364C80.3071 31.5818 80.6753 32.0727 80.8934 32.7091C81.1116 33.3455 81.1889 34.1 81.1253 34.9727H75.3298V33.8545H79.7616ZM84.8601 34.7682C84.351 34.7682 83.9738 34.8455 83.7283 35C83.4828 35.1545 83.3601 35.4091 83.3601 35.7636C83.3601 36.1 83.4828 36.3682 83.7283 36.5682C83.9828 36.7682 84.3283 36.8682 84.7647 36.8682C85.1556 36.8682 85.5056 36.8 85.8147 36.6636C86.1238 36.5273 86.3692 36.3455 86.551 36.1182C86.7328 35.8818 86.8283 35.6182 86.8374 35.3273L87.1374 36.65C86.9101 37.1227 86.5647 37.4773 86.101 37.7136C85.6374 37.95 85.0828 38.0682 84.4374 38.0682C83.9192 38.0682 83.4692 37.9682 83.0874 37.7682C82.7056 37.5682 82.4101 37.3 82.201 36.9636C81.9919 36.6182 81.8874 36.2364 81.8874 35.8182C81.8874 35.1636 82.1238 34.6409 82.5965 34.25C83.0783 33.8591 83.7556 33.6591 84.6283 33.65H87.0283V34.7682H84.8601ZM86.8238 33.4045C86.8238 32.9318 86.6783 32.5636 86.3874 32.3C86.0965 32.0364 85.6647 31.9045 85.0919 31.9045C84.7465 31.9045 84.3919 31.9682 84.0283 32.0955C83.6738 32.2227 83.3147 32.4091 82.951 32.6545L82.3101 31.6455C82.6465 31.4364 82.9647 31.2636 83.2647 31.1273C83.5647 30.9909 83.8828 30.8864 84.2192 30.8136C84.5647 30.7409 84.9692 30.7045 85.4328 30.7045C86.3692 30.7045 87.0874 30.9318 87.5874 31.3864C88.0965 31.8318 88.3556 32.45 88.3647 33.2409L88.3783 38H86.8374L86.8238 33.4045ZM95.482 33.9091C95.482 33.3364 95.332 32.8909 95.032 32.5727C94.732 32.2455 94.3138 32.0818 93.7774 32.0818C93.1502 32.1 92.6547 32.3318 92.2911 32.7773C91.9365 33.2227 91.7593 33.7727 91.7593 34.4273H91.3229C91.3229 33.5364 91.4456 32.8182 91.6911 32.2727C91.9456 31.7273 92.3002 31.3318 92.7547 31.0864C93.2184 30.8318 93.7638 30.7045 94.3911 30.7045C94.9456 30.7045 95.4184 30.8182 95.8093 31.0455C96.2093 31.2727 96.5138 31.5955 96.7229 32.0136C96.9411 32.4227 97.0502 32.9182 97.0502 33.5V38H95.482V33.9091ZM100.759 33.9091C100.759 33.3364 100.605 32.8909 100.296 32.5727C99.9956 32.2455 99.5775 32.0818 99.0411 32.0818C98.4229 32.1 97.9365 32.3318 97.582 32.7773C97.2275 33.2227 97.0502 33.7727 97.0502 34.4273H96.6002C96.6002 33.5364 96.7229 32.8182 96.9684 32.2727C97.2229 31.7273 97.5775 31.3318 98.032 31.0864C98.4956 30.8318 99.0411 30.7045 99.6684 30.7045C100.223 30.7045 100.696 30.8182 101.087 31.0455C101.487 31.2727 101.791 31.5955 102 32.0136C102.218 32.4227 102.327 32.9182 102.327 33.5V38H100.759V33.9091ZM90.2047 30.7591H91.7593V38H90.2047V30.7591ZM104.222 27.8818H105.791V38H104.222V27.8818ZM107.903 30.7591H109.458V38H107.903V30.7591ZM108.681 27.7727C108.944 27.7727 109.162 27.8591 109.335 28.0318C109.508 28.2045 109.594 28.4227 109.594 28.6864C109.594 28.9409 109.508 29.1591 109.335 29.3409C109.162 29.5136 108.944 29.6 108.681 29.6C108.426 29.6 108.208 29.5136 108.026 29.3409C107.853 29.1591 107.767 28.9409 107.767 28.6864C107.767 28.4227 107.853 28.2045 108.026 28.0318C108.208 27.8591 108.426 27.7727 108.681 27.7727ZM116.878 33.9091C116.878 33.3455 116.724 32.9045 116.415 32.5864C116.106 32.2591 115.678 32.0955 115.133 32.0955C114.488 32.1045 113.978 32.3318 113.606 32.7773C113.242 33.2227 113.06 33.7773 113.06 34.4409H112.624C112.624 33.5409 112.751 32.8182 113.006 32.2727C113.26 31.7273 113.619 31.3318 114.083 31.0864C114.556 30.8318 115.11 30.7045 115.747 30.7045C116.31 30.7045 116.792 30.8182 117.192 31.0455C117.601 31.2727 117.91 31.5955 118.119 32.0136C118.338 32.4227 118.447 32.9182 118.447 33.5V38H116.878V33.9091ZM111.506 30.7591H113.074V38H111.506V30.7591ZM125.293 33.8545C125.275 33.4455 125.18 33.1 125.007 32.8182C124.843 32.5273 124.611 32.3045 124.311 32.15C124.011 31.9864 123.666 31.9045 123.275 31.9045C122.839 31.9045 122.457 32.0045 122.13 32.2045C121.811 32.4045 121.561 32.6864 121.38 33.05C121.198 33.4045 121.107 33.8227 121.107 34.3045C121.107 34.8227 121.202 35.2727 121.393 35.6545C121.593 36.0364 121.866 36.3318 122.211 36.5409C122.566 36.75 122.97 36.8545 123.425 36.8545C124.234 36.8545 124.916 36.5682 125.47 35.9955L126.302 36.8273C125.948 37.2182 125.516 37.5227 125.007 37.7409C124.498 37.95 123.93 38.0545 123.302 38.0545C122.557 38.0545 121.907 37.9 121.352 37.5909C120.798 37.2818 120.366 36.8545 120.057 36.3091C119.748 35.7545 119.593 35.1136 119.593 34.3864C119.593 33.6591 119.748 33.0227 120.057 32.4773C120.366 31.9227 120.798 31.4909 121.352 31.1818C121.907 30.8727 122.543 30.7136 123.261 30.7045C124.116 30.7045 124.802 30.8818 125.32 31.2364C125.839 31.5818 126.207 32.0727 126.425 32.7091C126.643 33.3455 126.72 34.1 126.657 34.9727H120.861V33.8545H125.293ZM130.787 30.6909C131.46 30.6909 132.028 30.8409 132.492 31.1409C132.964 31.4318 133.324 31.8545 133.569 32.4091C133.824 32.9545 133.946 33.6091 133.937 34.3727C133.946 35.1364 133.828 35.7955 133.583 36.35C133.337 36.9045 132.978 37.3318 132.505 37.6318C132.042 37.9227 131.478 38.0682 130.814 38.0682C130.124 38.0682 129.514 37.9136 128.987 37.6045C128.469 37.2864 128.064 36.85 127.774 36.2955C127.483 35.7318 127.337 35.0864 127.337 34.3591C127.337 33.6318 127.483 32.9955 127.774 32.45C128.064 31.8955 128.469 31.4636 128.987 31.1545C129.505 30.8455 130.105 30.6909 130.787 30.6909ZM131.142 31.9591C130.705 31.9591 130.319 32.0636 129.983 32.2727C129.646 32.4818 129.383 32.7727 129.192 33.1455C129.01 33.5091 128.914 33.9273 128.905 34.4C128.914 34.8727 129.01 35.2909 129.192 35.6545C129.383 36.0182 129.646 36.3045 129.983 36.5136C130.319 36.7227 130.705 36.8273 131.142 36.8273C131.578 36.8273 131.964 36.7227 132.301 36.5136C132.637 36.3045 132.896 36.0182 133.078 35.6545C133.269 35.2909 133.364 34.8727 133.364 34.4C133.364 33.9182 133.269 33.4955 133.078 33.1318C132.896 32.7682 132.637 32.4818 132.301 32.2727C131.964 32.0636 131.578 31.9591 131.142 31.9591ZM133.364 27.8818H134.933V38H133.364V27.8818ZM55.1227 44.4545H62.7727V45.8318H59.7455V54H58.1364V45.8318H55.1227V44.4545ZM67.3411 48.1227C66.8229 48.0955 66.3729 48.1864 65.9911 48.3955C65.6184 48.5955 65.3275 48.8773 65.1184 49.2409C64.9184 49.6045 64.8184 50.0227 64.8184 50.4955L64.382 50.4409C64.382 49.6318 64.5002 48.95 64.7366 48.3955C64.9729 47.8409 65.3138 47.4227 65.7593 47.1409C66.2048 46.85 66.732 46.7045 67.3411 46.7045V48.1227ZM63.2638 46.7591H64.832V54H63.2638V46.7591ZM70.4375 50.7682C69.9284 50.7682 69.5512 50.8455 69.3057 51C69.0603 51.1545 68.9375 51.4091 68.9375 51.7636C68.9375 52.1 69.0603 52.3682 69.3057 52.5682C69.5603 52.7682 69.9057 52.8682 70.3421 52.8682C70.733 52.8682 71.083 52.8 71.3921 52.6636C71.7012 52.5273 71.9466 52.3455 72.1284 52.1182C72.3103 51.8818 72.4057 51.6182 72.4148 51.3273L72.7148 52.65C72.4875 53.1227 72.1421 53.4773 71.6784 53.7136C71.2148 53.95 70.6603 54.0682 70.0148 54.0682C69.4966 54.0682 69.0466 53.9682 68.6648 53.7682C68.283 53.5682 67.9875 53.3 67.7784 52.9636C67.5694 52.6182 67.4648 52.2364 67.4648 51.8182C67.4648 51.1636 67.7012 50.6409 68.1739 50.25C68.6557 49.8591 69.333 49.6591 70.2057 49.65H72.6057V50.7682H70.4375ZM72.4012 49.4045C72.4012 48.9318 72.2557 48.5636 71.9648 48.3C71.6739 48.0364 71.2421 47.9045 70.6694 47.9045C70.3239 47.9045 69.9694 47.9682 69.6057 48.0955C69.2512 48.2227 68.8921 48.4091 68.5284 48.6545L67.8875 47.6455C68.2239 47.4364 68.5421 47.2636 68.8421 47.1273C69.1421 46.9909 69.4603 46.8864 69.7966 46.8136C70.1421 46.7409 70.5466 46.7045 71.0103 46.7045C71.9466 46.7045 72.6648 46.9318 73.1648 47.3864C73.6739 47.8318 73.933 48.45 73.9421 49.2409L73.9557 54H72.4148L72.4012 49.4045ZM81.1549 49.9091C81.1549 49.3455 81.0003 48.9045 80.6912 48.5864C80.3821 48.2591 79.9549 48.0955 79.4094 48.0955C78.764 48.1045 78.2549 48.3318 77.8821 48.7773C77.5185 49.2227 77.3367 49.7773 77.3367 50.4409H76.9003C76.9003 49.5409 77.0276 48.8182 77.2821 48.2727C77.5367 47.7273 77.8958 47.3318 78.3594 47.0864C78.8321 46.8318 79.3867 46.7045 80.023 46.7045C80.5867 46.7045 81.0685 46.8182 81.4685 47.0455C81.8776 47.2727 82.1867 47.5955 82.3958 48.0136C82.614 48.4227 82.723 48.9182 82.723 49.5V54H81.1549V49.9091ZM75.7821 46.7591H77.3503V54H75.7821V46.7591ZM88.6833 48.5182C88.3651 48.3273 88.0151 48.1773 87.6333 48.0682C87.2606 47.95 86.9151 47.8909 86.5969 47.8909C86.2879 47.8909 86.0333 47.95 85.8333 48.0682C85.6333 48.1864 85.5333 48.3818 85.5333 48.6545C85.5333 48.8818 85.6242 49.0636 85.806 49.2C85.9969 49.3273 86.2379 49.4364 86.5288 49.5273C86.8197 49.6182 87.1288 49.7136 87.456 49.8136C87.7833 49.9136 88.0924 50.0455 88.3833 50.2091C88.6833 50.3636 88.9242 50.5773 89.106 50.85C89.2879 51.1227 89.3788 51.4818 89.3788 51.9273C89.3788 52.4182 89.2469 52.8227 88.9833 53.1409C88.7288 53.45 88.3879 53.6818 87.9606 53.8364C87.5424 53.9818 87.0879 54.0545 86.5969 54.0545C86.0697 54.0545 85.5424 53.9682 85.0151 53.7955C84.4879 53.6227 84.0424 53.3727 83.6788 53.0455L84.2379 51.9818C84.556 52.2636 84.9424 52.4864 85.3969 52.65C85.8515 52.8045 86.2742 52.8818 86.6651 52.8818C86.8924 52.8818 87.0924 52.8545 87.2651 52.8C87.4469 52.7364 87.5879 52.6455 87.6879 52.5273C87.7969 52.4091 87.8515 52.2545 87.8515 52.0636C87.8515 51.8091 87.7606 51.6091 87.5788 51.4636C87.3969 51.3182 87.1606 51.2 86.8697 51.1091C86.5788 51.0091 86.2697 50.9136 85.9424 50.8227C85.6151 50.7227 85.306 50.5955 85.0151 50.4409C84.7333 50.2864 84.5015 50.0773 84.3197 49.8136C84.1379 49.55 84.0469 49.2 84.0469 48.7636C84.0469 48.2727 84.1742 47.8773 84.4288 47.5773C84.6833 47.2682 85.0106 47.0455 85.4106 46.9091C85.8197 46.7636 86.256 46.6909 86.7197 46.6909C87.1742 46.6909 87.6288 46.7545 88.0833 46.8818C88.5379 47.0091 88.9288 47.1864 89.256 47.4136L88.6833 48.5182ZM93.0569 50.7682C92.5478 50.7682 92.1705 50.8455 91.925 51C91.6796 51.1545 91.5569 51.4091 91.5569 51.7636C91.5569 52.1 91.6796 52.3682 91.925 52.5682C92.1796 52.7682 92.525 52.8682 92.9614 52.8682C93.3523 52.8682 93.7023 52.8 94.0114 52.6636C94.3205 52.5273 94.5659 52.3455 94.7478 52.1182C94.9296 51.8818 95.025 51.6182 95.0341 51.3273L95.3341 52.65C95.1069 53.1227 94.7614 53.4773 94.2978 53.7136C93.8341 53.95 93.2796 54.0682 92.6341 54.0682C92.1159 54.0682 91.6659 53.9682 91.2841 53.7682C90.9023 53.5682 90.6069 53.3 90.3978 52.9636C90.1887 52.6182 90.0841 52.2364 90.0841 51.8182C90.0841 51.1636 90.3205 50.6409 90.7932 50.25C91.275 49.8591 91.9523 49.6591 92.825 49.65H95.225V50.7682H93.0569ZM95.0205 49.4045C95.0205 48.9318 94.875 48.5636 94.5841 48.3C94.2932 48.0364 93.8614 47.9045 93.2887 47.9045C92.9432 47.9045 92.5887 47.9682 92.225 48.0955C91.8705 48.2227 91.5114 48.4091 91.1478 48.6545L90.5069 47.6455C90.8432 47.4364 91.1614 47.2636 91.4614 47.1273C91.7614 46.9909 92.0796 46.8864 92.4159 46.8136C92.7614 46.7409 93.1659 46.7045 93.6296 46.7045C94.5659 46.7045 95.2841 46.9318 95.7841 47.3864C96.2932 47.8318 96.5523 48.45 96.5614 49.2409L96.575 54H95.0341L95.0205 49.4045ZM103.515 48.8318C103.261 48.5682 102.961 48.3636 102.615 48.2182C102.27 48.0727 101.879 48 101.442 48C101.024 48 100.651 48.1 100.324 48.3C99.9969 48.5 99.7424 48.7818 99.5605 49.1455C99.3787 49.5 99.2878 49.9136 99.2878 50.3864C99.2878 50.8591 99.3787 51.2773 99.5605 51.6409C99.7424 51.9955 99.9969 52.2773 100.324 52.4864C100.651 52.6864 101.024 52.7864 101.442 52.7864C101.897 52.7864 102.306 52.7136 102.67 52.5682C103.033 52.4136 103.338 52.1909 103.583 51.9L104.456 52.7591C104.129 53.1682 103.701 53.4864 103.174 53.7136C102.656 53.9409 102.056 54.0545 101.374 54.0545C100.656 54.0545 100.02 53.9 99.4651 53.5909C98.9196 53.2818 98.4924 52.8545 98.1833 52.3091C97.8742 51.7545 97.7196 51.1136 97.7196 50.3864C97.7196 49.6591 97.8742 49.0227 98.1833 48.4773C98.4924 47.9227 98.9196 47.4909 99.4651 47.1818C100.02 46.8636 100.656 46.7045 101.374 46.7045C102.029 46.7045 102.606 46.8045 103.106 47.0045C103.615 47.1955 104.038 47.4682 104.374 47.8227L103.515 48.8318ZM107.667 51.7091C107.667 52.1 107.735 52.3682 107.871 52.5136C108.008 52.65 108.199 52.7182 108.444 52.7182C108.608 52.7182 108.776 52.6909 108.949 52.6364C109.13 52.5818 109.326 52.5 109.535 52.3909L109.93 53.5227C109.649 53.6955 109.358 53.8318 109.058 53.9318C108.758 54.0227 108.453 54.0682 108.144 54.0682C107.78 54.0682 107.444 54 107.135 53.8636C106.826 53.7182 106.576 53.4909 106.385 53.1818C106.203 52.8727 106.112 52.4727 106.112 51.9818V45.0409H107.667V51.7091ZM105.089 47.0182H109.808V48.1364H105.089V47.0182ZM111.106 46.7591H112.661V54H111.106V46.7591ZM111.883 43.7727C112.147 43.7727 112.365 43.8591 112.538 44.0318C112.711 44.2045 112.797 44.4227 112.797 44.6864C112.797 44.9409 112.711 45.1591 112.538 45.3409C112.365 45.5136 112.147 45.6 111.883 45.6C111.629 45.6 111.411 45.5136 111.229 45.3409C111.056 45.1591 110.97 44.9409 110.97 44.6864C110.97 44.4227 111.056 44.2045 111.229 44.0318C111.411 43.8591 111.629 43.7727 111.883 43.7727ZM117.818 46.7045C118.563 46.7045 119.218 46.8591 119.781 47.1682C120.354 47.4773 120.8 47.9091 121.118 48.4636C121.436 49.0091 121.595 49.6455 121.595 50.3727C121.595 51.1 121.436 51.7409 121.118 52.2955C120.8 52.85 120.354 53.2818 119.781 53.5909C119.218 53.9 118.563 54.0545 117.818 54.0545C117.072 54.0545 116.413 53.9 115.84 53.5909C115.268 53.2818 114.822 52.85 114.504 52.2955C114.186 51.7409 114.027 51.1 114.027 50.3727C114.027 49.6455 114.186 49.0091 114.504 48.4636C114.822 47.9091 115.268 47.4773 115.84 47.1682C116.413 46.8591 117.072 46.7045 117.818 46.7045ZM117.818 47.9727C117.381 47.9727 116.995 48.0773 116.659 48.2864C116.322 48.4864 116.059 48.7682 115.868 49.1318C115.686 49.4955 115.595 49.9136 115.595 50.3864C115.595 50.8682 115.686 51.2909 115.868 51.6545C116.059 52.0182 116.322 52.3045 116.659 52.5136C116.995 52.7136 117.381 52.8136 117.818 52.8136C118.254 52.8136 118.636 52.7136 118.963 52.5136C119.3 52.3045 119.559 52.0182 119.74 51.6545C119.931 51.2909 120.027 50.8682 120.027 50.3864C120.027 49.9136 119.931 49.4955 119.74 49.1318C119.559 48.7682 119.3 48.4864 118.963 48.2864C118.636 48.0773 118.254 47.9727 117.818 47.9727ZM128.331 49.9091C128.331 49.3455 128.177 48.9045 127.868 48.5864C127.559 48.2591 127.131 48.0955 126.586 48.0955C125.94 48.1045 125.431 48.3318 125.059 48.7773C124.695 49.2227 124.513 49.7773 124.513 50.4409H124.077C124.077 49.5409 124.204 48.8182 124.459 48.2727C124.713 47.7273 125.072 47.3318 125.536 47.0864C126.009 46.8318 126.563 46.7045 127.2 46.7045C127.763 46.7045 128.245 46.8182 128.645 47.0455C129.054 47.2727 129.363 47.5955 129.572 48.0136C129.79 48.4227 129.9 48.9182 129.9 49.5V54H128.331V49.9091ZM122.959 46.7591H124.527V54H122.959V46.7591ZM135.86 48.5182C135.542 48.3273 135.192 48.1773 134.81 48.0682C134.437 47.95 134.092 47.8909 133.773 47.8909C133.464 47.8909 133.21 47.95 133.01 48.0682C132.81 48.1864 132.71 48.3818 132.71 48.6545C132.71 48.8818 132.801 49.0636 132.983 49.2C133.173 49.3273 133.414 49.4364 133.705 49.5273C133.996 49.6182 134.305 49.7136 134.633 49.8136C134.96 49.9136 135.269 50.0455 135.56 50.2091C135.86 50.3636 136.101 50.5773 136.283 50.85C136.464 51.1227 136.555 51.4818 136.555 51.9273C136.555 52.4182 136.423 52.8227 136.16 53.1409C135.905 53.45 135.564 53.6818 135.137 53.8364C134.719 53.9818 134.264 54.0545 133.773 54.0545C133.246 54.0545 132.719 53.9682 132.192 53.7955C131.664 53.6227 131.219 53.3727 130.855 53.0455L131.414 51.9818C131.733 52.2636 132.119 52.4864 132.573 52.65C133.028 52.8045 133.451 52.8818 133.842 52.8818C134.069 52.8818 134.269 52.8545 134.442 52.8C134.623 52.7364 134.764 52.6455 134.864 52.5273C134.973 52.4091 135.028 52.2545 135.028 52.0636C135.028 51.8091 134.937 51.6091 134.755 51.4636C134.573 51.3182 134.337 51.2 134.046 51.1091C133.755 51.0091 133.446 50.9136 133.119 50.8227C132.792 50.7227 132.483 50.5955 132.192 50.4409C131.91 50.2864 131.678 50.0773 131.496 49.8136C131.314 49.55 131.223 49.2 131.223 48.7636C131.223 48.2727 131.351 47.8773 131.605 47.5773C131.86 47.2682 132.187 47.0455 132.587 46.9091C132.996 46.7636 133.433 46.6909 133.896 46.6909C134.351 46.6909 134.805 46.7545 135.26 46.8818C135.714 47.0091 136.105 47.1864 136.433 47.4136L135.86 48.5182Z" fill="#101044"/>
<defs>
<clipPath id="clip0_530_42342">
<rect width="24" height="24" fill="white" transform="translate(20 22)"/>
</clipPath>
</defs>
</svg>
