<svg width="39" height="27" viewBox="0 0 39 27" fill="none" xmlns="http://www.w3.org/2000/svg">
<rect x="1.24883" y="0.672662" width="37.3365" height="25.7207" rx="4.56335" fill="white"/>
<rect x="1.24883" y="0.672662" width="37.3365" height="25.7207" rx="4.56335" stroke="#F2F4F7" stroke-width="0.8297"/>
<path fill-rule="evenodd" clip-rule="evenodd" d="M12.7261 17.8014H10.4475L8.73881 11.0909C8.65771 10.7822 8.4855 10.5093 8.2322 10.3807C7.60005 10.0575 6.90347 9.80025 6.14355 9.67051V9.41216H9.81424C10.3208 9.41216 10.7008 9.80025 10.7641 10.251L11.6507 15.0915L13.9282 9.41216H16.1435L12.7261 17.8014ZM17.4101 17.8014H15.2581L17.0301 9.41216H19.1821L17.4101 17.8014ZM21.9662 11.7361C22.0296 11.2842 22.4095 11.0259 22.8528 11.0259C23.5494 10.961 24.3082 11.0907 24.9414 11.4128L25.3214 9.60659C24.6881 9.34824 23.9915 9.21851 23.3594 9.21851C21.2708 9.21851 19.7509 10.3805 19.7509 11.9933C19.7509 13.2202 20.8275 13.8644 21.5874 14.2525C22.4095 14.6395 22.7261 14.8978 22.6628 15.2848C22.6628 15.8652 22.0296 16.1236 21.3974 16.1236C20.6375 16.1236 19.8776 15.9301 19.1821 15.6069L18.8022 17.4142C19.5621 17.7363 20.3842 17.8661 21.1441 17.8661C23.486 17.9298 24.9414 16.7689 24.9414 15.0264C24.9414 12.8321 21.9662 12.7035 21.9662 11.7361ZM32.4725 17.8014L30.7638 9.41216H28.9285C28.5485 9.41216 28.1686 9.67051 28.0419 10.0575L24.8778 17.8014H27.0931L27.5353 16.5756H30.2572L30.5105 17.8014H32.4725ZM29.2454 11.6711L29.8775 14.8329H28.1055L29.2454 11.6711Z" fill="#172B85"/>
</svg>
