<svg width="61" height="61" viewBox="0 0 61 61" fill="none" xmlns="http://www.w3.org/2000/svg">
<path d="M12.7285 24.6388C12.7285 23.6329 13.5376 22.8174 14.5357 22.8174H24.1743C25.1724 22.8174 25.9815 23.6329 25.9815 24.6388C25.9815 25.6448 25.1724 26.4603 24.1743 26.4603H14.5357C13.5376 26.4603 12.7285 25.6448 12.7285 24.6388Z" fill="#99F22B"/>
<path fill-rule="evenodd" clip-rule="evenodd" d="M53.471 25.612C53.3155 25.6024 53.146 25.6025 52.9702 25.6025H52.9265H46.0372C40.3587 25.6025 35.5 29.9428 35.5 35.6025C35.5 41.2623 40.3587 45.6025 46.0372 45.6025H52.9265H52.9702C53.146 45.6025 53.3155 45.6025 53.471 45.593C55.7775 45.4518 57.8175 43.699 57.989 41.251C58.0002 41.0905 58 40.9175 58 40.7573V40.7135V30.4915V30.4478C58 30.2875 58.0002 30.1145 57.989 29.954C57.8175 27.506 55.7775 25.7533 53.471 25.612ZM45.4265 38.2693C46.8885 38.2693 48.0735 37.0753 48.0735 35.6025C48.0735 34.1298 46.8885 32.9358 45.4265 32.9358C43.9645 32.9358 42.7795 34.1298 42.7795 35.6025C42.7795 37.0753 43.9645 38.2693 45.4265 38.2693Z" fill="#99F22B"/>
<path opacity="0.5" d="M53.3485 25.6063C53.3485 22.6548 53.2412 19.4887 51.3545 17.219C51.1722 16.9999 50.9785 16.7871 50.772 16.5806C48.901 14.7097 46.5285 13.8794 43.5975 13.4854C40.7495 13.1025 37.1105 13.1025 32.516 13.1025H27.234C22.6396 13.1025 19.0005 13.1025 16.1524 13.4854C13.2214 13.8794 10.849 14.7097 8.9781 16.5806C7.1072 18.4516 6.2769 20.8239 5.88285 23.755C5.49993 26.603 5.49998 30.242 5.5 34.8365V35.1185C5.49998 39.713 5.49993 43.352 5.88285 46.2C6.2769 49.131 7.1072 51.5035 8.9781 53.3745C10.849 55.2453 13.2214 56.0755 16.1524 56.4698C19.0004 56.8525 22.6395 56.8525 27.2337 56.8525H32.516C37.1105 56.8525 40.7495 56.8525 43.5975 56.4698C46.5285 56.0755 48.901 55.2453 50.772 53.3745C51.2832 52.863 51.7175 52.3135 52.0865 51.724C53.2127 49.9253 53.3485 47.7208 53.3485 45.5988C53.228 45.6025 53.101 45.6025 52.9705 45.6025H46.0372C40.3587 45.6025 35.5 41.2623 35.5 35.6025C35.5 29.9428 40.3587 25.6025 46.0372 25.6025H52.9702C53.1007 25.6025 53.228 25.6025 53.3485 25.6063Z" fill="#99F22B"/>
<path d="M25.7528 7.03281L20.4992 10.5839L16.166 13.4835C19.0119 13.1025 22.6465 13.1025 27.2333 13.1025H32.5153C37.1098 13.1025 40.7488 13.1025 43.5968 13.4854C44.1698 13.5624 44.7213 13.6561 45.2518 13.771L40.4993 10.6025L35.218 7.03281C32.3965 5.12578 28.5743 5.12578 25.7528 7.03281Z" fill="#99F22B"/>
</svg>
