<svg width="61" height="61" viewBox="0 0 61 61" fill="none" xmlns="http://www.w3.org/2000/svg">
<path opacity="0.4" d="M53.2005 22.0546V39.1545C53.2005 41.9545 51.7005 44.5545 49.2755 45.9795L34.4255 54.5545C32.0005 55.9545 29.0005 55.9545 26.5505 54.5545L11.7004 45.9795C9.27539 44.5795 7.77539 41.9795 7.77539 39.1545V22.0546C7.77539 19.2546 9.27539 16.6545 11.7004 15.2295L26.5505 6.65449C28.9755 5.25449 31.9755 5.25449 34.4255 6.65449L49.2755 15.2295C51.7005 16.6545 53.2005 19.2296 53.2005 22.0546Z" fill="white"/>
<path d="M30.5 34.9795C29.475 34.9795 28.625 34.1295 28.625 33.1045V19.9795C28.625 18.9545 29.475 18.1045 30.5 18.1045C31.525 18.1045 32.375 18.9545 32.375 19.9795V33.1045C32.375 34.1295 31.525 34.9795 30.5 34.9795Z" fill="white"/>
<path d="M30.5 43.7287C30.175 43.7287 29.85 43.6535 29.55 43.5285C29.225 43.4035 28.975 43.2287 28.725 43.0037C28.5 42.7537 28.325 42.4787 28.175 42.1787C28.05 41.8787 28 41.5537 28 41.2287C28 40.5787 28.25 39.9285 28.725 39.4535C28.975 39.2285 29.225 39.0537 29.55 38.9287C30.475 38.5287 31.575 38.7535 32.275 39.4535C32.5 39.7035 32.675 39.9537 32.8 40.2787C32.925 40.5787 33 40.9037 33 41.2287C33 41.5537 32.925 41.8787 32.8 42.1787C32.675 42.4787 32.5 42.7537 32.275 43.0037C31.8 43.4787 31.175 43.7287 30.5 43.7287Z" fill="white"/>
</svg>
